<mxfile host="app.diagrams.net" modified="2024-04-26T18:03:57.997Z" agent="Mozilla/5.0 (Macintosh; Intel Mac OS X 10_15_7) AppleWebKit/537.36 (KHTML, like Gecko) Chrome/124.0.0.0 Safari/537.36" etag="eNHLRXvLT2-L9WwAgXVu" version="24.3.0" type="device">
  <diagram name="Page-1" id="UcHZJhFEcX3Kwn3Ltrct">
    <mxGraphModel dx="1194" dy="565" grid="1" gridSize="10" guides="1" tooltips="1" connect="1" arrows="1" fold="1" page="1" pageScale="1" pageWidth="1169" pageHeight="827" math="1" shadow="0">
      <root>
        <mxCell id="0" />
        <mxCell id="1" parent="0" />
        <mxCell id="jmo6-qMNR6v90ASM4hXZ-1" value="" style="ellipse;whiteSpace=wrap;html=1;aspect=fixed;" parent="1" vertex="1">
          <mxGeometry x="160" y="40" width="80" height="80" as="geometry" />
        </mxCell>
        <mxCell id="jmo6-qMNR6v90ASM4hXZ-5" value="" style="endArrow=none;html=1;rounded=0;exitX=0.5;exitY=0;exitDx=0;exitDy=0;" parent="1" edge="1">
          <mxGeometry width="50" height="50" relative="1" as="geometry">
            <mxPoint x="200" y="200" as="sourcePoint" />
            <mxPoint x="200" y="120" as="targetPoint" />
          </mxGeometry>
        </mxCell>
        <mxCell id="jmo6-qMNR6v90ASM4hXZ-6" value="&lt;svg style=&quot;vertical-align: 0px;&quot; xmlns:xlink=&quot;http://www.w3.org/1999/xlink&quot; viewBox=&quot;0 0 11 11&quot; role=&quot;img&quot; height=&quot;0.025ex&quot; width=&quot;0.025ex&quot; xmlns=&quot;http://www.w3.org/2000/svg&quot;&gt;&lt;defs&gt;&lt;/defs&gt;&lt;g transform=&quot;scale(1,-1)&quot; stroke-width=&quot;0&quot; fill=&quot;currentColor&quot; stroke=&quot;currentColor&quot;&gt;&lt;g data-mml-node=&quot;math&quot;&gt;&lt;/g&gt;&lt;/g&gt;&lt;/svg&gt;" style="edgeLabel;html=1;align=center;verticalAlign=middle;resizable=0;points=[];" parent="jmo6-qMNR6v90ASM4hXZ-5" vertex="1" connectable="0">
          <mxGeometry x="0.1485" y="3" relative="1" as="geometry">
            <mxPoint as="offset" />
          </mxGeometry>
        </mxCell>
        <mxCell id="jmo6-qMNR6v90ASM4hXZ-7" value="\(R=5\)" style="edgeLabel;html=1;align=center;verticalAlign=middle;resizable=0;points=[];" parent="jmo6-qMNR6v90ASM4hXZ-5" vertex="1" connectable="0">
          <mxGeometry x="0.2091" relative="1" as="geometry">
            <mxPoint y="-11" as="offset" />
          </mxGeometry>
        </mxCell>
        <mxCell id="jmo6-qMNR6v90ASM4hXZ-19" value="" style="shape=umlActor;verticalLabelPosition=bottom;verticalAlign=top;html=1;outlineConnect=0;" parent="1" vertex="1">
          <mxGeometry x="187.5" y="60" width="25" height="50" as="geometry" />
        </mxCell>
        <mxCell id="jmo6-qMNR6v90ASM4hXZ-23" value="" style="shape=image;verticalLabelPosition=bottom;labelBackgroundColor=default;verticalAlign=top;aspect=fixed;imageAspect=0;image=data:image/jpeg,/9j/4AAQSkZJRgABAQAAAQABAAD/2wCEAAUFBQkGCQkJCQwTDg4MDg4ZEg4SEBcOEBAXEBcXEBQXFBQaFxMTFxoUFxgjGBwZHxoYIRgjGCMiIiQnKCMXJzUBCQkFCQkJDAkJEyEXDhoiHAwYKSIoGiIkIiIZLCIoISIUIyIaHx8aGhwYHCIaJCQjDhkkIRcvGRoXIiEnHxckKv/CABEIBXkD6AMBIgACEQEDEQH/xAA1AAABBAMBAQAAAAAAAAAAAAAEAgMFBgEHCAAJAQEBAQEBAQEAAAAAAAAAAAAAAQIDBAUG/9oADAMBAAIQAxAAAADaR7bv0PEgeRjx8N9wcYJaApMNAQTESI4M4MPtpWFCY8eXHHIIvJtPxEoNKgnDqA+JYHUOOKEWI+i2SnFi8GA2PqDeJCJeEXXOq7prfh2YMi3uHWVNrEssgPF5JbwDpcr1pi3dOfQeK7a/TwaafTYll0RFuMvjOVMWOE+RKjzjgEdGFHm3xh0lxiPNqXQg5T1i2V5lYdGeR+Ne8F5GJUEsdQhojNGOim5YSwmWQaiRixhxBJLPwLxIiluUA0+2jGSSgIgNVKbClYHL88pBTJGdqZy1C/Oti28x9EDO4uWzhyZUspWK876WKE830xJMp9IoodlUSo6RjPlCc+yYw0QjBbJCoYcaEvtuIMQrIyt0UfW20roz7qLYNGlSl5qnHmmRcdKBjJBHqaEKeNa6q6TgDmwHcFZ5717myD8+kE4arNFFlBM6XdIHZm8Xyzwdi9HB5hha4eyOmMP+GmDU2IZSkO8AZDwhflEzlNjnmW4fGcJoZSWQl1pQ2yZgi1ktWedFJFMPiwUlCh9ENr/OrvUqVW+HXaEHr9OdbUI1EuNwS+ji956Tm9H7K78rL5oilsnsyjDrzrKHW0kj4FedS62X5RcqUYeYUuBj/IO+GcIZUgebJHH/AAniDeWHvBD+RYM8I4rzSVDhIb8NMOesXlbisGCCiByxLlcoE4pgzT0q0ueEZayjEgE2SuYwpcJ84JYkQocbfzTLisKK/gCyWyERKDHWIHUpTOwCLNIC7yANRtbgeKRZp1OaLIgkCGiEjRLOYcaeyNrZcG14NI3xDSCkIxTT5zUCMGN17zuR5lYUPsr9T4aiCGKIbsV7KJSXmRCSgDNaJXKEqv8Al9KFhr57KzHuHso8Evx2Cd2JqGX1On7lzxvb1+axKynOo9mQYsZZMLQVzBbXnRMw0g3x7DjYppt8jpQNY2+2UJdHJhjzXqBcSPrJXmlAuHk2CmLbVJQzsDZdaR3BAplbfqPCNjJSkJfEZ8OFjlAjz6cHlDlGErZCEpYC/D+htRDNKZexalYxYwhxUi2yhlJWCdK2EUqxsplcebfSRxqF0CUw6iC0KVrCvIyWOqFJdSDkMep4VzAWsTMAGPjUQlzMIQ+JTeXsg3nkIpKDQBJToGnz1Rej94apl07EWmL8fqhG5duGFJcBPE+BMkeGCBXy+dF859CevzW5+JN1H2xEBngXw4YfBJJjiwwqITnUuhlCv4U0jzYySTabwEZbchjyfV7zDdjeSGrBfOBI/jMgDNlBqR5nA+htQl9owzHE+GmSnEZdcaXKmCwJghaAyCMBor4iraewLbSQCkpyrgq3BK2sGXW1mAy27GysLlZW86KQaPmhuKbocjD1gciCRHn2cSvx5a0EIQ1S8edPNkKgFa3qjjvNiA5BZhopiBMkj2POt+MNHiA7zmBllazOCPENCWUvU1LW94MY1oaI38RnXMCOkInN0MNvE+Xnj25srp17bpqUXd8Xb+/F5TjcrCSRrFMLbpvCC7MP4dzX/DrldjDHawMQk8sbIa6wqU1IpEpvo7yiK89cqQM+g7akWDPrap5xrMMCHLpts/EDvDHLkZvw4pgkS+wgzlLyCPOjKV5PhRkWfKy1h9FLEyZebdtaXkYKS/6GUl4UDxC7PDmIhBTeVSlk2EpJGVPlvoDghwYdUkafwuByhljTZKabXhYM7jwp11URTq3bBnUNhLTygIpkkwEc0CO5TSGn8IoYrw1h9ItaHJU5WyDpBDsJchWM2QDrsXLdM1VWbcXtaH2bJP1zLbloW0ZqBKW6gzwpplAnqcKDdFZITKjzjB7I5KOqEfVshC4b8rw6MV5RjR8o00sCjfEuwLjyqxhxBhpb4hzCRvApCEPCPSpbcwAElt0/5hmCAj8AxrqVaZzlGXcjhuUuGFYy02glpFrcRKMc0asagnKLTjy+y56MtvNCGXk2PNHjShyDBIlgpyGkPMVhLGUWgh0SOU0rS3x0ThT4CaMSMjOFCAJBoyrzItToqIyeIuGy2wX3j6GcVHw1Xwtf5TMDWheXWzRMC9nc4zDNxIvw6SUcrPi4ytGZs3pa9E7B78dlqj19eb7rXlT5WbPPv+lEyrBlRJEQhSVUh/y4aZe8E+G8FONJlV5p+hAy27CE5Gh94E4H8TGUQ+ESYda9GY0tqxiXFKVlpxgWSIWPBkFytiujDiTQEbOYLVYxK4B89mlONESoGdKBnfKVonKcVTacWEsEtVl/LEreH8DSXHEWy4tce95B32yTCMiiFrUeBLYQlnzVEeZXCVkYVrGXwVWUI6tp9RHEOgjhDSZaISIQ82ebfetZq09rHlqk1l+t8urz0U+GBOCj7I4JKoHDCECDEoVAvxaLnq6X06QteptnerzGNMk7zgtBEpOBDs6DycKCPuKsDV5KZQ6SBPNePeb9ZLxrq86CIQqnEOxyGCv+pvCWhXilAjgzaSLLgobhrKvIw2PsPNGcpyEsjEQQppIUytCoPGcgbDJdj+GXpUNOeC3Yx5X3mMZr0LJ1Xl0npisWLpgkR5FOJw4OIW0Yd8wEqxiGWCM2Nr8MCPuOWPMrGlMEdWDFtOjWGF2Ly8LBSkDq8094UjPj3vODOMrGkqdGnUeErUohdLbY0djWtHZEDj18l5obHMcWJTMikMu5PpRk7CQlCXeFLQCLcGtu3Pq7b3p8xXlHdMx8kG8LeDKzp/zDhkUkamDQS2U4Q+qV+SB+k/DLahqkmGnoaHOxQbqFmGUescZdDQhtpIUhHiRistB78c+IR44GRhI6+4uGMjN1L4cRm4RloU8klXGG3I88+lRVNlDLzqIRBWNzOoSUIVSmn8CHMJh5DZA35lY4ISxSX2VI0tvFhCmVSvIbQNmDEIsUhhW32yxhk6PCXPKhhSvVjCkj7WEnkOZGPOJFodyIaIZIqh7Ral0XG77EjQK97J1NIP7mJs0oft0mNfPX9dU5y0LKoq1NFKj7zmKhZnTNxk1DIQMTgHdUQDYcSDPocB0ljDin2h3K1yr8n0oKFJ1l5uPjC4RtVOqwAo8O+BlbI/xgtJeDUh47uIi1OY1JJll/NQYO4RzqPWHqHzKcOo/Nww7hVIRgdMSJLl1BQnDfoTlaqV5TUFZaWqssunsLDWUbGdjC3GxC1sDiVoEoeyMqSpEOYwOspfGSsJG8YLBFKehOFoV1pzA4M8kUw+gUh7IK2QymcuZVTePIsJ54yjC1CL8mxGUkAi14EMPNVlsoNG1tF0P5vB7y2qfQU1DoxKgVstpGTGihoOUHUZBjIpp5wZe8oSaA9Kx73tKrS6fRuHS8tapexra7mqWjcFg0WQdLzXPuyOvLZEf7Pfmy+pFmCGmRsnw48/n0NuZcBY3HInPfSq+Kfce30OluJur+nKEXxlD8+vcd0+dWy07eo1n4Q1nsL3Ccpjp9BJPUuxuvKs54lh+XX6AS/Fe+tZuZfCAuN97zvzy6js2/E8x6mju6z/PrqDU6N15r/k472kvnvOy/RCiE8W6z2D7g3GNd7bB+fPe/TB73vbzVYHXvKfLfeS+DNhy9bhaZ55PpNVROStTrOV4Q6Nzdps8Eu5133PcJ9T7xOXz5n96B7XLets6+iFRgOMrO788CkZv0NsHLUv0xtZjg1zG/onYvnZ3RvFnaIF3hTw2uVnoviEDl176tfzb6w1natYoPK53NjiCVzfoO/F2DvyGUrx7PsinB1nmms5sgqMfJBtlY8N7FNtPesZU4kQpToF7Pq4ciggvH6S3w1BJUegkJGvkpY7Xrc+uoLTpva3p88mtsjrhlt92mcusQ4+O6Lj3T5Nf8P9zcNeX07YYnbWvMPZ2hejNZ41mYO0cutt05vrQydy8c9lcb9MD9s8UdxRZ6tcNcdMcOT8LvXh20x9APnr9C950nyj2txbm786n526t3ngvV+ztX8uneVoo1u78uLaPbapw69Hc3dsK3mrbOVb+nP5wBywHDt3BsKOlfT58vMLrnbkrrjkfzduk9/aF6P3nRfKXdHD+NdrcrdHczWNdL6J38cZdLc1dMTXQ1Iv8ARuvPhHqLlnbHHobq/Zusl+iuoN+aq68uFd3aU6A5dOoODvor86umKZ07zL9B8b4C68udt1meYfb68kcmda8nZ1zp1By/2Dz68b7P1ls7LbnK3V/KFnTW5tQbr64sZSk9MYZeTYtgkMEAh6zi2yMpcTx67CLoTBt2a0hP2bUP17ZumJxYru4+w6kH88LY74vy/O8bYSfP110q2Rs1EszuIhkTggGZgwv++9C9Heng9glrtzy2eLA5IyaeffXDL3iM3W3D3c3DPn77x3tobXmb1VcPnx3DvPHEHOe4dQdxVSKs+gHz57v4Q6Zp9he7Nxq46p3fzN1586dQcw9Yc9cfd58Jdiq/xf2txUdKdVcq9K9McQak2nrnj1I7GFtm8aJ0B9FdOHMWyMamxv6GzfM3RfblwIISPw6/Rk+PlvV50YXmud+ROvuRPN3c6IX0jZH/AD4+k/zmTpHnHbulc63Dt7X2wt54oKb6O57id53mk9OfBLybvz61z0XKH0w1Xs/WXfhwt0Pzz0Fx7dlcb9kt9uXyum+udJ8ehnZvzF6z1OnImUrm8SHJnR/OcvO/YPH3YGbx1tLVm08721yb1zydco3LeN7al3YRjty8+KuvVaf1clWrIMZ5+8+zDG53ZRof0SuIIss9p1rJazvmz6Y2f34TQqHtzA5uBvyfFKiL+x0zr6tbbJs0wNubxo9W7GznvG/sGvtk+9TrynMhHEuDakuCyUtSrMadzdecK98cH+ftu+IorON17ubiHuHWeLbLW7FnWx9Ab70HXevF/aHFusPfQv5n7zl7N4r31ypZraVf61574w6o5i30ba4p7X4n1Oiukeculd54h19fda8un0HkeTdr7xrAGt0jG+p+WrtRDonorn3obpz4HHfY5dPozNRx/p4Yewk505F635G4duuOlfnrtPWeqvnZ9IfnuRlQBJ5b7BljAuuOLOtuQdl439FdL6d2j058QdX8pdi43yYPsXXeb9LtabQ1d25cJ9C88dE8uvYnFPavzp6Yue3eM9lc9UTqflHsOugqTcat05R/PvT3OuN8z9j8Z7LzvW2zdV7sNm8n9Z8l3PYW+NF9BdsCtkNax4d0sjNWbYgNTmqE3HSOfSutlxvLbReI+JSSg0KY/EyUXTbun9z9+NpyKR0zhT4wN4vyQbjLvTLriQZTHI4gy4I7YtSPK8yR6ACmnaBKw+MKUzDhjbg2eO9mr0pu9eNcLJ7idxvQu45lWscTTXZY+d83ap7qya/5l7SdThRXeGJrRml+0nbnjDrSdRXEdm67cmtQc4d2LTnHf5mLOOqj3tjOuCNu9MMWa35h7kYs4UtfYi5aoTZm9Tht3uH2KIUR7eU5xmtH6D7x9z1wZM9vOSt8s9VKs4C937mXXNc3KqzgRffqM64O6N3LizgPovd2TnPTneDYFr3ZmNTgzbfTGc1yhXlO88LCd8YxrknrEpNg0XYAdZCWcSvGVN7vczeH+vLS0aJ0P3dk0rudxjccGXmxtTg44hzyRkFdBNTTtc38FrPPcR0hDGhGN2Emh5zcEtm1e9GODqiB1S8nMNeL8tXdV7rgXOPItPlBQkiJLkppBlxvw3g2LCyACRxeHJW8Ptj6/Zza/pfeHz449Ol3uQfY319I8YTJ9L3YmX7cUNuZoPRO0fnpz31cTxzjn069xyH5OwPcgFW/TM+i33txU5jyu6C3l868a6NZ4/Tz32Dc+EOq9S8Vaq82x1+vjr0vYW3PnZ2DrPQmVr64yOtKasomutA8evYbvG/s3sj3G/q7L2D89t+WdvrQ905s58kpeosce8+nYrfGuc3snZPCnWmpFe5AHl7ERx947I9xv47KTxv6Oy8ca+Oy/caKOy2+OMHYa+OPHYyOPPV2Gnj7x18rj/x2H7jy9WfQgpkrtyHfbTQxLw6LcBIMuteChXmVHYkF2CLccBhZIIfw+MJIacMec9ECNIB9cJSvIlTShbSnBSFujb+GpSW3WwMlwaixVnxHENPjhLT+Kn57fRHibl00R7OOHbxoTh9IbTqrbXq86M5erTXC3VfJvn6o97GN59jxlxp47R3/AMi9aejiWpjGswXzm71+enHqyn3ueze4OJPoN0xrjjnv7gCBfY9jb3SPNO8NTu1pxPfi056vVwdriyVrzdve96X2ceM7I1vYa+nzsVMduKk5TXGPM+7dJ8OuFJXLtXpXV20umOGxZIfnsXxI4n3vHvZyJ884C+K8C5IHPex4z7HjPiFAvisA27NQdSaz1GhLvp4pGcSjjL4o624mks48iyk5Vtwc0b9locZfGCBiggh1bInz3iHZIVvI6klgy8tDZOXgEzLAjzfhTyXhpLzkN48zS3RX4Kzheady50/pnG+G2CxPN38QO4dk9Cch9c+jhl1prc400HsTW/l7+9l6VnF4pQj3vG4u7/mz9Ie3IhGHOmNJcQdZcl8OrXvZxu1fRXhTv7tzivm19Mvn6a2xn3Hp65U2xWfTT0JYfRxVrLZnO8vHUc+x5+3s+tpUfEjnjwDT6H7M5y6O7cnAzYCvnjr611Ph1y+PInYe76XtPvy1wjZ6U1JwZ9QfmPjVf973Popbbp05ujXm+u3OmNX9dzz/AMd93cI8+jHvexrL7BZ3bOWOwejjQGtjqNX2ay+sWyQ3Yy28sEYNZsyzgeivJzZnOH5W32vClDvQM/5NLDkWAV7GUY8/4G94PUdcYfpKFZFuiYjOfIpeUZEZ80SQrb0L9lauOJZhbqVjVXsr2b8y4uzVry+lOcejeXb/AM6voh35Zj5PWO8cFgkjeX0en4DaFm9eRfoX89dZDzj2Nyf0O+dXcHTG6vYR25cg84bb1B5++HEFZvR3YnOHQ3o4ucQ9x8uRyQl9jh28eBIH0L2Dprcvo4q4/wCvPn9m6oQtPHq71dy33hrPG9I3Hp6VKk+l6c7U+cn0X6YRr3YeidZ4ZAKF49fWWtbAr6A2gV3vxU9jBH/Mb6c/MXnuv+97nvLzLp1p0HoDe3bm80+Pc624c7k4b59B/e9jXixCz6W2CvWT08PLwsHW60DkNqsYQQPRDSPGRiPI0h5FiXhn1fENxDLikjLbrVKx5Z7L7cO+z4jxs43CB3wh0wZ4by4wLT50jzWHEQ4ttXMeaBjsuDWGzIaJaPiOeQQvBmoulub/AC+hj3vZtj+jPzR+hnXne+duh+NN50CK4jz9l790L1/rO+vmr9P/AJ47zrn3vcuj/UnK+79Z7nFfhPRy+etOMC8vfJQkwd47OiJf08Pac3LUz5tMHA+bv59hR2F0zx32P35RnzZ+gXzlxoD3vc9z30i+ev0s6Y5B5e7o4dzRfe9nV0+kvy4+ku83flrqXi/WeZW3Ecunt/6H6xs6vUtPbk2kjJDfMr6efMTG6973ue/OtOnXG/8ASu/+3KJzKu2aY4Y744H59B/e9jXixCz6VWmrXH0cR2/JsNCLHG3Ft2JZIFGVpXqONsEw351MufNvWI8klcivionz7oKYL4JQy4NeI8RryR9SQHewrQr6bPLaYRa0EDeWnR1bOZWF5PphOSpRVPuwy4ydAj3mjQvGP0H+ffDsJ73uey+7OEevN56L+fXevzg3iv8Ave49SO/uB/pT0xYeNey+cd443Q+zw7YvtCkK+n9Il9Z9+PEopA/n7e2Trje1naxTiPTxSyc3Hzgom4NQeftj2PS7c+gXzf8Ao5156L4d6o5axpn3ic63R31yZ1n1565+dX1I+aedVL2cY0V3Pwr1bqdc/Pv6BfNvWdc+97ns3urh76RbzcUkZ6c2kuYWL+Y/06+YWNQPve5788y8dp9Cc/dD9+SPPJ1nU/z9+gPz+49Rfe9jXjQjT6X2iv2HvyCDAESxkR5tiRSmtxDjLqOsLCC1JxjQma3JyyZifdMoWjw6kQxE4x4DeGes8YI/K55/wCwQ7WBUij+Gkaj2DHSHMV4wnxcM+faMKZcEYIdlbW85DRQ/pcNu+qD+bv04+fHHprXPvcujnS/M25NTqr5+9n8YayDnC+e9h/RDift3tzTqjbVT3j5tCy0T5u+Cw3zvjXvqL156IEynl0f6w5P7n3nc5DC+/Fx5pUvHnMvbXFnDqL73s6m/pZ8yvojvHJmkLnTM68YGfL3ju2q2rtzx87/orxJm804WnnvO6tKXmz6O/Lz6KfOKwX3vZ1ZvppwR9CemHMIXvOPZWAfL/wCoHy+xuue97nrzzTx2p0bzj0f25o972s6o+fP0D+fvLoL73sa8aEafS+ZhJn0cdbhy8Vz1sWYhJreWVeG3lwZXrF4z4xHnjY1r+XGkMrFJxpHXLOMvUh1XoUhOBQpTFYVjwV4X0KCIaKs/Xlc9bHGyX2wwtBA4w82oGSUWGKbzm5U2SNIdTCiWSpWFqZCG0CjnFnbPL2dcmIfY8/bOw9dyZvznOz1azDjZcvWXU+ldxd+PsYf1Pm3QugefvP28pHpd+12ijakR7OM0v6M8JfRHrzPex7pjKfKNf/PD6a/OLl0rHve57I7A45ulkFDqTL64U/b1fQGWHV15Pcy9L6pl+dwhwXLpicg3jsfja6UmxLrRMvTHZ/OfRfXCsJzrPs+UR3y/+oPzA56rfvexvL7Dx2x0bzn0Z25toWnWdTfPz6CfPvl0F972NeMDMPppNwNk78a1XLvXoMnQZTUw15egzbnrnzJgI8w4srUplcElofUFL+LMtvDhQRIp4oV6nB3sQjzfkcjZtma1su0OZpp4R+8g+U/ohzzkDkMvCWXFjTzDUKLU6Nve9L4YxoQ0cgH09t6oS/OUaTjfN3xlPjPseMy0Rdq77tCD+/CPy6nU5e5Q7o4V4dmPe9jWcpyZ9hRt76Acb9mduYDyg9YMYfTXvnb9E+IMb0D7PuPT2U5Me9kc6p5f7h1OgHUr6c8wkqyvyyg9oav4797HlXhPjJoU4fQXZsPM9uagzNFG3c/LtjGvp181AY6X3vezcvMZOzOiPlkRvP1Fz8uMp3nwKsPOve96XJIuT6T2j5eZ6Y+n3vnL9H95U+8vWWMecBErzYha/AyCyCLQbizC3FysedDHkOMmUedsT5l4bQ0miPI8hwbiZUpPGGMkMU6tQgWtWc0TKUahOG/QS09iVbJQ4hfnTyVph8V4a1SMqT5q1PdulfN3b8v0qPL8I3lpXqizrUfLHo4OpZJKf85PqJ84efWj+c9y235eRslk07L6C1rsT0ccinMDxgBFOcx9O6czeBhjR+HVrznhvK/BP0Z+f/0r3idyM90y9heY4T557M465dBfOelb854RsnXfQNnc61J64d0JvnQUcJCmj8ujXnPDfnPDfnPDfnPDfnPDfnPDfnPDfnPCMrcNr9/8k9b9uSUvt7znHsmEJXWMtvxjzjIhtC7DB3kyo8xmzy1MCHMNU8tlyBmiUWN+d9Y2vKVfcGVK4K8lPKy0SLYLitPtJscbygJ82qCWfOKQGQJBqm3RpBLCt5Q3ZofWnY+Ma40R2i7HFK+0k1xf0Ds5Q282rWc5SUM8v9RYzri33azMvF7fauDi8js9UVqwexvLKnMrl1pI/XLARHES+22s64pb7gxHEzPcTZyF12v2o4hzAghlMa85q7ccl4fT3CleHl9vpjiXbm/m7POME6i9VbNVHErPb+JeI/drJOK/drrOJPdtoOJ0drqs4m92w0cWe7XcOJE9vtLxVjt5iOKMdsos0xuNwfecvipH/LbGXPIpxktuHxFZGHgCLPZSUNtkty+GLZpLRaETjGDDDibM+X4yw2UPttYFN+doZRKBOELGfEqGvJIgdTnjLmWFS8w6GNLHhxwZAypBmpC6P39xh4fubUc1T7y/W2jnVmTaSdX+Nqp1Z42c/qrx0LtPnbof3fnuZvaGZvl+jnO/QHC/TG1Opfll9Gs3WFLpmp5fpqdA2PphpLutwfS3Psdy6dI7k4QXH1K9qmudcG6t5re5b6L6I+cFir6d6atmjdZit3/PjtbOug8YE3gPl7WmpMb6dtXKUDH1bC5S6c6Y5jl+UbZz39CeYej/AJw6z1V0v88foUcsBaAgM76hsvLMIn1Wa5N64640XA1ul/O/UbVzqn2e22Fak8bXXqbBtxOpfG23NQztx14e079P8mG6+DY+4z6vew8M59486O4MtlYPP59A/mnqS4ysfEyOmcPt0h1tRjyfCcusp5gpsS4werSHmhWVCj2FtDnnPGELXBcYayNLRijRCwoWw6PYNKxZ5nj7snkvx/bqnse+d+kz7Hkz7HjPsZPZx42d0Tzt0d9L8t85kuNa8X0X4Y7p4V3jTnYHHW6sbJ1NuHT6fS2cgp7rhXPPQnPscRdT8r9V8+li4+7v57Tc1I21qjWeWO3uIe65rSuguhuec36C6x2ZrXeeTu3eIu283fsRMxfTHzFt1St/Lp3j8zfpr8ytTafdXDPdtnzCtNWtWNd9/OP6O/OHebf9Bfnx9CD5oSUdJY13585fpF83t52T3/wL33ZyZSbpSvl/ss+9jHfPseM+x4zj3jOxtd7u7ePfLWV/V/H+ZySN+w9KJ51qx1lxQy4pszn2B3LLQ275FKUxgw8xiC/DuoplaqY8j1PNkswM/j1ZZefPKZTC23cDb7TwMghin8teHmcODGX1Da8tQoA14wlQ4/AWPXnPvK+1G55/o7VJ1Dg3ExqJ426zqhJtv2psm65bV22e3h+brJQmcfRrhXvDhPeNLSx20ee6DAQ0xL9NZiHm+3L3O/RfPC8PdV8q9V899f8AtZat3jqHj3fGgl5c7o4X7vxdM89dEc7y/QTWWzdZ7zyf25xH2tm7/j5WL6Y+Y1tqNu5dO+PmR9N/mPqbV7u4R7ws+YFrq1pxrv35wfSL5uazcvoZ89/olXy/gp+NxuzxG5NIJ9ANocy9O9cVCtV2q8Po7RkNOE56bfe08qtuI1H5NtuafybbndC7+6eaSx5PbxL9kdFrSoUyU2DZcwODvjimcLpbTjY2w7AoaBBR/Pc/moty3aUofq2O9SZHWbR4X2pJZW1TBLaUz4hhUOvIRSkPyxrqk2YTlwYQ6msHIxCWEx8s03AJiyPQx4W276mNTbfo3P1cqeyn5H7LPveXHveT3vePKT42j0vzX0v9H8v83R32N+H6U8Fd78G2at7J43+kifMKRPAxv6b2Kv2LrzG516P52OHeqeWN7897a466K5xrtOk3anazyp3bwp1FnUNzxtnVMfQXV20tW7zyj2zxD0xnXYsXqe8dMfOi21KS5b+jHzD7X4js213fwl3TqfMW11mTxr6LfNnsviuy/fQ/54fQ2vmLKxUlm/RX5nfTH5namzfoD8/voJZyFSbvSPmfsfe97Hf3veM495fe9kP7S5M649/5xbbnvX8bOGM040+MheW3s1GPJpSXWxlLiLMZUCRlHkaNnR8fHP8ALpMICICGhAqm5Svul19VPXG68PsdsKyT6EqwsG854QUw9KI676wVJow15WazBP6yZmq/Xovj2tolcVnV9tmp55Nnyes5reb7FtTOpxGjsBXg/Rce+7E8cd+7EUcc+7GdONPdlNmjumomf9PyPmuz3sq+e2cG/QCmanzo+nFUvRwnp36XQks3YhStZxFSmTg7Sv1SpGdfOXZnZlpB461e3n5u076dVrGvnPu7qy5C+Yup6vrPzTR9FnM6+dvfkrbLObeTfqtR4+cZv0FmFp+3XUazy5yT9U6Tm/OIr6GyC0Hbb7u8fMQ/vVvG5j5t/T+mXPHH0Aptxrkek9kjeT7vH/uvWp05H91pk5J910k5Iz1y0ai6Rr8z6vjEpy118rZDDtmWVrlSlD9iErWJ82iMOtZppk8SzXNO27TJdfrmUc9wj2GZSvDOSqbWAs14H0dNoOG7cstEpG1PeBluZGnGSRpshMJYJTTbZTJUtP7j1bFWHmM8e0BK5NBjVSKPlBSFTl51vsPpzsK8urhXlw24nKqU25DaV+G1OpMtuYMeWoZz5Rj2UmM+9TSV5EIfbRIzqxpxXhtl1VjbiMqnC1whS2jC210rC2IU8w5XmXG0S6rI1l5k9hC6Wy+wZUh6GmyG6w61kwrKgZaVI0nObPNLWraXBUIy3ikkM+HFI9LhSUoQ3jypQ75Me8mvPDPCI+U8Vau7EY1nUge32q017aIhrZraPpaD7bPpbQMQjGvey4NvqzKhkvAn2fIrGPA615GsF4WFpOzhE0+9stqXWoez2paBIW/JSir2myn2k4vUJfw5mpz5cqPKUYxlQ3lXjCXGz2cLMecaVxtXkQvyRv2cic5SIwtCJyr1ZTnwMvKRKvKMOiu06O6iEocfrA5LUNqU3ZlpaxD6WzPlNK6hSUyjyDLgz1LTlEOoVgZW61Smc5RtLqBDjKqU2pCLIaaVS8IHEKaFe9kQ4nA604lG8+xblvL4lba4U0rA6hfhhklNgZTjoN5/0pilpzpOHHRvz2YHyvw2p3Aw4rxhSvK05lciWCWFEbUlW/O4RBOHhWFrMLbWOKaWKzhKqwrMMrwoxlC6U1lKKU2gc8hAvI2ArLSZVYa8O5HfsXhOTKBomWbag5CyQSylClMKpLuGR/LSxaWiRlSmxSUKHfIWMYV6vey2ONu4G3U5EeU+jbJKVbytJ5tS0HcU1TKXXLGEFDQ972RjOVVhaUBIpC4GQ96mnm34aSvFNeVkGJx4SvyRTLiRLza0wvHlUghkT7HiUVlGNqfacjCkoHPY8ZQpY2lzwr2EGFY8KGdZBMJZlIbxhCyBn6VhnI/kXAS4E5BeQnQpwVxXMtJHMNN0tYaSTba9DjbTQS2NGE8uBMlkWGUDSq3V83ardBBLNTY+MxqyzmvvG1yNVzes7CLpE/vMyzHeqRXFkJIGxhOoa0lRggdIW1hofyhwZVnAvy8CM5cErxgTh1sTheKylbZjDqgdzORtta0CdyVQXiMjCX8DLufDSXUp5ScqnHvIlaFCcuPAisqpnznobS96vJdTDzefK35XgpLSsafW34JR7xjGfGfI8KyhA9lnI6jCBY6gQdIrESOAlEm7GNSyDkW8kgsZ3RwdA8GuxLxKvwhhJtDihbILFHBDwJMvajbzdvp1anG71XK+xi2uU10o2mLrbJYI+HkJoQoVZhhIpJRZbMj0hBDzN9ndTSlzss3XpOpsSUo9q6SceBL6R/OB1e8EhJBUQuWYehS6lFCPC8o8LcHUKW2oUlWDCVJTOF4rOUZHPe8NNvtVnLKkdT5ajKX5EMGNjeHk1nOMwnDrQhJGaZ97JnK/DbZHoZ882ezlVrHicSY9jwy6E7nRbgmQ1LHh7LKxSfYFYZyKyx4WwPCRLRdciOdtK6dJlm9CMako9UXsbtBFWILYRU/bxYwoQHO7U9BSI+XBMMWQWvD1Poo0fuXSpV+JmvFRhPHpIOtO51hHljBDLJIrj/EmgKRHWRWwscQSZMIBjZmVEyiMlikmH0CpdLjqie3NpG6/J6y8C0dvNtAlXg8tjOa8KNql0Cz9FqdilbssqJWSqAXENejsEmgHNFvAvISphQ6phY6nGKcTlNmM+wZ842Id948h5I2yV4bU5ka842e854YQ8mlJz4StWITlaTDb+aaXnMJ9jxXnteWyJ12JftkMArSTyG9DqhlimkjjzYgp6nylT50CGRVvLqQIqkVJtKGpHqu0/qud1raK4X29ZAiIjji5WHWVr1dgG11HXRNdqdCzjcIus0yXSNrqVtWIIbWpGcpUqt2er8goZcSZKWwacRJFnQlbelW5Iz1pEKbGz9bzkVIYUk8XVpdZ9dYJLCFGNFlmqlYrDHooMsgtZcJkUMqUl8NpLFddXTm5tY7Xkv0WvMS7rUkTCqJ5cCTUimHFzLT6DessD8ARqTioQklMBv6FqGd1CMJzGU4yL9jxnCcnloWZ9hSpX5Q0r2THvepSM+jyXAZS3BibPNuePMuYFe96uKdjsS3ntnkIJ/dNkoRZY5CoOlrRU8FoZrwpOQYokCUqy1bna4wxBc5JRMV6x9odnVkbNSL3bs92Nk2qlBTtV5Yl5KpHmy4NmK67otZsdZZmVx5MkjJwJkSkpWJvemkSI2JYSI8i6YkWZOJqciLIFCPr1AB8REs+SJIJDwNyjl1lXdi0TGYKVisoQ0t2HPJIJGWrZJOttPWxYqgZHJyuvEjKxZwaMjxNO1Q+tkSutbBq2/Mf7WpPAkCk96vGyWIiqAWXMrXxcl/NpUzpazqfKaWwmGlescdZzS8trPJyoV5PjOfYHU+8KUnMeWnK5TnBnPvDcfJjQgtpzUdR7Jj2fGfY8axGUT5use2cOYQ6KPiIbFCulEfh1C4eFfHhvYIalbGak59hOgKNc6v9LhSetdOlzbc5Sbnd1WkbDqnPMHNQMyzZlMSm+muKbtXX9yIWhWc5w4gckRSOm5BwRGJIS9TsV0UsJyLFcdbWPMtC4yJtdRAZzLvZ9V27SeiYWIH6U/H5kQZEPMy/gMq8REPEqZXjydNg5SG4KZYIWweMIQ0QoNNjZgHUa0r0vFyNWE8DOtPx8hHESzHxec2CEAYiTm6ZhNmTNEmKupFVLq7XLV2xO8m3xyOscV5UN+cQJx7B5bazOcLF5bUe8nwrCUDrgylf824Zx7CK97BjOfHvZ8usEAD+fqWNgckE4dQRx9IA/wCbWJbOTDTzCh9Irow6xIAwxxBrzW3RVSueZj7BXrNtW6sWSajaVcqRjMKVDuM3S36z2JrbGv77Sioe8wzKlxM1BrsaRq5eEkLQJWPNzJhLhF1kuC9jNij6vHyTjsG8WCTpjxIhjYUUcphEGAyY5HSzsQC5FmhkuHC5+BlYOkIp1ZbK01XQz43MWaA6SJ8c1UhI1+UWzH0yU1TsiRg3DSjeZBrkY5AB/YsmLJU5/NnHgMly2NqC39W15Cvy/pzILYcVxvLZ7C2kV7HhWU+F+byKQplcDQsRnVmzWCJbXIVyb3grLWEJy3kc83gc81406w8P5+xjbaZEksu0ysZCvMtthTCMjnsuwy/HPDropIOYwQEPofKDpvqXXaUG6UK6VDa72PrSZiCpNMy5f6NbLqZqlyrV1R2p6IxiNWgfQyRhJTSQKCeusDHCc82KSDf1uKqs5BMsYjnUmZCMnMRhkxuVB8SeZceYgrGUjBTRxGiSkMJxE+0nH4+yRmUTc1rZ9plK1NDb1gTTvtj1uSKMCXBK8CRZSA0WuivEkQ6sdDBos4iQSm0kJaKPlm0Q4xKzNYIN3XbnW595uoyjWLvJ3AjyuNJEQ3wpA8sd8UlWBIrwiwIho2OjWSojn0l57Vsv147DXWz9YmlRhCnIZwjvmvGnotMV5+s8RDGjqBxgomMKCCBHlQK4kKJY9Da1oFGAOEngVJk4XJJMivprmPuFTqMplrqyMN+fRiy16awtEKaPvdWiTIzOPRR8dY5LRh1SxUBLa0d5K+cfmqvbLYeItcNpSvWWuZziw1mSizIAOwiyEtU/7OYQ7Cz9GD3WRlogO2bZpz3d9vSNtKsbvld94a2TUA2SyorJJCJ8V6m7cRJzxDb119nIMjHrgckEsCMTghY+RiUGxgSpUqGPgo2FHLQ/AEkqVCmFz2to3aPfO0y4CU7noQ2vZs5K12YskHBHAtlgUNg4HXsWE7Qth59N6Q2G+fo10yBFa53eUoHt8Nn3Ln6V3OlHqTaqP8F40MmWjeHWUJYdIxYyA7zhUDhvrMZSsFJHOXL0c7CzY989IAGjjC0DL3sCIG1QlmvKPfqhZX5WGlNRyRrL/ObFjnkXdPAsELMhAyjEkWpnOx83WZndmHwWOYibq8vFqBkRLqBjLFAzMeHOQcknMU84smBmcJDCCAc3Y121YO7lJ1pbLcepzQmB0VwUkWkjhXmnxWc4HXUrEnRzwfFkkGr6vvHX0zr9LKsZnWyY22FDlGZISOnooQXFv2LeFeGzlSkoUxDPlvv+tNg9V7kac96MS4sdYuWjpEcrtHfIbG9YXXQOETXyBcUk2OKzvcs1rGfx6o/XNzoVxNEV+T35sDykPVw3jydb7Opvaz9uBDCO8ery2CBpQhsTTiq4BmMtEtGvMkisR9c5cZMFNPkqw0NBSH2zOfPgoUj6tb0na2pLmEeS/qRDLwOV2nqLc1iYifpQsbLGctMu+r03BTO7MRMoBAxoK8TYaoC4a1FQF1rsVqFuIuMVhoyM1ZR4fJL7Eg+g8m5IUfWyggAiR9EmqSkIkcHcUE+YJGCmSQYnBAksZaNEOOgSskiW/ErpSu7s0vjEwOvERNascBD4RzNkCMexuJsIVyzSjLRLa1RY/ZyzVz99p9mH4yOk21edY3f0Zsqwl7j4jMXVe0fsHWHMOhmM57sZtceLHI0knHpssHKjzpCz1alunjtQrk7JSxbjFmfO+sssiLITpiOcQNkJOGGCXAZ8lRhL7AAckmUMxpIwNIMjJLkgPLZIEtKbCEMPkRpjcOu7mhPjPakfGTEIWC1UK85qqbeq6U8n2Jkgf2RyVgZO2XiznNWuSI8jjM3aKtOtWGHmGVhh3Q+WI4SzBlWk5PYulvuKY3W1gOC0MlLwEE6pXc+eEmsPHsrMB3mHAleFj2FKR1psgbW06ILBWpeotuQMmnCbLE4zG1ycg8wNpUXSgFr1LRPRMXm3my6avGtbANgztWSQOoZAmBxDZaN4knKdVdTa9WrA2YHXWIxZqVgNjLGxWwl5amB2RHNVt2SCbgFt51ysU5XLVEyFMqiH9bfEL50e7cSe4KUy4LcFeBVOLFYNAh0c9Sx5TJAMTnw6KSyEYddGWXmgA0AgZomx9eM6tfbK3AYqaZI65wE/zWOq2aJutfxxsLckkCPSPytflrZdz0pbGNGv5g8xCyuVtcipnWq+xIVzMk5GAunPJ20Gs9dyMY6DQ0RK1gNaqJCWpULIEp7CakHhZVWiiBYU6w6DHjGhQvsjuEOC0PRYex5wdUGqG4qWes1hRN761xNWQUnAWLdhJzS2OxGwOaQty2N7eBi45Z5UDktj1Zl4lX4eQI2jX+g2FS9WmLita9vuthWwNRl7dCm6RHjbUXrdJsYOjGiysPknO1ieLkZDGZWz0P6WaFlsXYyHmjIxBSBvv5I0p71C5OQDENmygjyeEEbkMEOeW4sag5sacbdI5syMDKZcqummCGRt5kXfJXE1Cmc5YY91F1R4WyQestutozFSohgbMR8prTQEjNxHE7MtnNpqe2OzrVA190BUbNU7urt7xmw1zNR3q11WOpaWmrtxhLy8XPhcrFHkwsQgOKANtkF5XGCFoBiFOicoyNGoGJUDyRWVOCfNPCE+dRVVs4taJofQ+oecos5JS8kXsDXd5ts1fPoetSKYF2rU7Clk7JQJ+aRKVogsNaw+UeKlKQw/ADwe4cCwjSXCYxaU4JOwku8NZVi1VWQssNirNkLBOwdpyF8V5ZpRorS0NwpaM6pgK3uFztWzqhXJ4R1RGcoxh1Izyr6umhObEnRwnPODpK18kyadmT3Im243QLEy0okRZQVjg54dOdoXYOvdZl8iFVkyMYws8lCy7VZqd8pespfYMzPHNE5FSIlh3qR2nR77LbnB3B0V14SOQqIaJs9KqDgYqjpZIYQiisstk3N18wl5SMNiUk4qVJJnxdSJTBSsFYZgh4PI69jAlxp495TQvLiiMcIQJbPFRKlIqD15srVWa5fNUb1jToWztWUmuTYVkR4yWoI096VwjJkoTRoQyt2HIKq2StXMDH3941hjYAGlM9ZY6yOv9auWNbWdFnuHXVlQ2prfryamKmx0xuG46g2fFt9F+zadS9NMbt+gK/mixXE0x6Vloq3roVN0P2yErrpvZaDWyLpFXNfTJiXA+VJHJyvrNzbm5B2Fm9XSGtNkZomS8S03RfTmrbnU5KwekfQobKfsNQs2aNQ9g0/SvywSJk0oEnKwWyi2m6uVp1hPLtdzSZBu17U1sLOZBkxIaz2BrOtcwVq9ZWHBlmJZ6XKvOYNJE5TsEycRKkpKilVKtuEKEo5mBTCmjKm1DzaXBTBAgX5Lo1k3JHKPGAvejkCoGzI1rm/oDTdss25TrtD51rx1rWtzey9WSJsjGtZI2WRr5EuzBdfkxeoc040VVr3rbU2Bb9M27nvYym5TnusMXRWs0YOaoFk7ZNaTFWSkW+Iso6SWu3K53qk2CJb1J8acJkp10rsnb7LntrQjaRE3Qp+RznSCYgRbEPWJ0kDWjpa/Ttj1O5otY2VU+nCoMTsRviP7OEyWGo2XvnkPY2L165rm/SmxsiuNF0XpysVoeN2prTGxLTSLP05TURNBrSUH5SNJfdzCS45eqWdV81IFikTZ9moarneE1oi15bX1Jc64VMe11Co9Diicv2pBjZse0qJtLD5Ly7UgS545dr5C0C22XzKc4hxDuQZ51A2lccSZWvaUb5G5Xo1nZshwAcd91LVe64jV1YiWh07Z/P8At2KKFLYvMWn9n6t3FuYcpJaLW1BM3uDm4gCwxDL+1+fLAxuzWVsD57p85kO52Kdr93nuyVgGJ3n0PJBby1LxMyXNyKmOeq3DlRvblb52EkYpHvetYulTtWfRepirWPl6LCqUm7nXVc2Bq6aiK4mD6cJGTqK7z2ta9F2PHfaEBGyWdiRdrVWo6vt2idPPTEmh74oz7yZfYwbA37yPc83s07Sm3MWQFkgVitWbmrcvMEvPQ+sWkqIsS0yEnKpcssxjSS6a+Nq2Se15Zl26CE5x9MLAXdOs68kZ0XXOetOtbXJsih1ar3NyHdarzzxgu1RNhiUIl5iBJfxtqHHzobw+yYHaiixe1dXTdMfoClHQtP0ELW3KdFzjdHiLxD2VNJwe+bSleDumeV52O49UW1/lXOWOqudNXaO4eXuqpdMaH7D0Q1q6YTM3pH7j1rsrn0ssRYs4a9p+6aVpo0C4i9eLp2HMGwpydl1u5bIK8xinvIAwWNQ0kdOyiNWuBzaSF4jtyspbkekL5z1V00xmdSL5rGw56dJ2yi3vPSv6q3YImhITpkffDQYvS9bOTJTa2y5qnk7nhMdtRSmwyl1xrToCkHM1c3BrfpwgGyGN8cYUkw4jBad8cvny90znF2ycuiIykEZrVPtsFZry20u1Wi07ZLMa1zuRWZzpXNw6m6QazwOx7s+VkD+PpudljrXEazanLNT626S0jZzudF3Hr5dhibFhcWEmbHeCqWG1vqCZBVE2cnRFSOl4jkquV1hU+b01tWmVwkZ9Ks2hFgjpYbJVpTPS+XfVW2ufohqVviAOYqttLW/byDeKc1geT2Bs/LR+7tca9jrqmQe7s65I635b3fV01fubT+emnjYxN2RMVN43RP6otvPtfqRmlJX3ol7pxsvgQM7uF81Rdue5irSNXIcIaF6+WeDPlkXcq/b+e3ahfNbGuZaLe78baNHR1kh6B8vQ9cuMBjtq6VzZZ02zf4qxShLJcuVRsmEkG0t5sC0ofkHI9IIE0cMgdet8M1qLVnR2k5vSEZYoDt5EIXi5xhfhCFprLzGCfnKM9G3pqk2jFCsdenltFrgbfw9Li8x/PrXNC7z1t140bZEUX0l5Jo8fjpvCx6n2MWAyKKYkuft7c46aR2hrjb+/NeG4u8xbjq7yzW6NXakRpaoYTxlk31AvTDYPYa5OZ1aZW8bL5+nn+s9MxZoWO3zjXKv7ElrvJzXc9npz1BasYyc1aK6Z5+6cxb4duScazbGK5zSmiN/a6qF6l5N6u3rQzd103p15z70Bp3F5xKjE7s5LQM3OlqJAicdVqYvqa6iLRGa5hx2xQnKnWWIKnWZQzYM9Y6kdD69mdYTMK1181wndfS2bb2aw9mhxamuvJmNJD097Hl6zrewIDz+7Wlyr1ot3HYoWc1xSwbhlnOCyORIPkVl3MuU5xZkI3wKKVFzVW1NtmiTpoCpbH1/187Dbz2uSSySJusjuI1jHseF2GN6LzZWqbw1pw6Ui7+vOe0YKPqObvFJ11G9uFskNeTG8b8ZgLJx9NNhrLF7xeNpUm2Y6T5lZWzYtP7Mgq0jsgge+aXtBmrdZ1fqY4LpMlsSq5VY5rPTJkrP46xFTv1eKBi21zWOhNzag3NjpHMn+Z1m7fUTcJZw3bmTadbZznCTn+nXqWS8BWen74a515KwHPNyp9opstc605I3R11tvlns3lRelwKbuDN4IBuNc6QVFkznpE21rbeegc3L03HSlCSr2+MzL1eYnnDrlphnaFttfPz6L/V7g7z3oON3Jrbv5o1XmOnnKwgiKYgpnUbSQ0D+I8vaULb69w9utpYGxTe2p2Imt+dbRQiZUhYvDeaylxZHOkjQ5GkpBYKYrc3BR0/XZ00/qreel98Y2w7QD1nX8cXDpDNOEb5CySrVm3Pf1Ft3DqZV7XTlqxWm4G2969CY68iPNO6yth9gPn6VLTVrBCGzq+3PTU5Om3bjr3aGOh1es+p0PulV2hrzMcmbl5d3kLKc7hVvqV3zu+7Ir+wOPrrQF1DipMXCNaodZtkXrG7NrUu7sDtFjXCkjeVLBrMeyKwpbbDZUbZXD7mxUy10jr5dH1m0QnHWyAJC1c2jLbdoLpd3QMPs671NtutzJz5qLqfmrUmL5qbbmPTITkZT87sGpo6u9OG1bzV77njq4B8DeZsHL5FDSTE62S96Ul+fp3NW3bHz6aMqu5NY9/JA+UrpwiWjwqWlpQ95ry/QOo3Or8fXQLxWrPnewy4aS3xKynCM4jHVPWKSjZGcU2w83AzBIiiwpuZqIi7CO1p7X+yrIWPkrqDkXXJ2Ekw98gLTAS1yaqHfzrdextJ7h8/W11qxCacfVvZmtO3JPso3M5TkcR5QmXj5aCW84zs23QOxM9rVb4WR59C9TX+u64y0MxrjfCuVk5vcA8ezSLVU5nOtx3LUNg5evbsrR7bLP1E+HNZ2MeyLt63652BeLghIlzCRs1QZu8ro07LIVyarFp9kqtlkqoL7rFp1Rs/Rm/LU7bWdl8rUrgPF1b6f73U10FzP0NNmjSsXNL5S7I5WudT2aoEaX+moGahRTxdc7rctNTklxQO/EgdAEEnGLHIfwo86bBtmorry9Oz9b21rG9KtTcd6fFA+mDtYrLlvLiretPjsKqSoHL2U2nSGo5rb9s5dldY7CgtG33OyLku4WEHlJvINba6daSiGgTh1GiC4aadQvK6+27ovZK0fl/ZytYp6+htXRp1TgfTzuFAyS3Hdmhdv8OmxywZFdIaN7C1DrOjWtvVHpypr0jjQBstsJk8TssDkyw46l7OrNmx3UIDSLztyKUrp5rdTiYlKs7ZLZbVBd5OZvLhNphtJyZrk/j0XCw0mYx2vcMAfEHVNwa2sL3Hy7ZrjpwOl7UJGOmXbjScra4nPSWHk3rmOMLbTWMJbtQ5xt6Dxet+fVUpe4jNYGmJDV1lF7Qq1mttu66s91usPGZuV5u6I18zyN6bj94ZQrxhBc4Vgq5MgTxI4O24gXHHQZXssKtslqgTsdb9I01HL0NxTb/XzJkZOKvKyRAOIR6K9p17HZiePujKLt6trpeF2mNZEbzqGyos0gBIa4u+UzYnGcL5TaoHAPAWGZPXNAKJGOdam45qbGvFcpWOuzdWFjs6ih7OJ18kYRsuIkrGydVWjHTeFz05t3G11m7QdgMJaXvT5ua6rt7U2NRDjNg1TpG++56pVyZEz3s1dYFvGJg5SN6Y8c3KIDF2uKh3bOvthY3dW63EytR1ixvGiLBmKdreUPM49B8hEDZ1sAKh25HLMbsC5qd3Girzs0XU49bo5BzyZUptG2VwakahvxrjrK2VyExz3bjE96sjqSvluGpOyYWNdv7Ho1bAn9LbkmzGT2k5S1n0Jz7vIzzhFymy1uxKXGnwMG5R4j1OpB4exR1Rm8qZ0Liw+v9tVHDTEVKAdKPKC5ubdFIYiEMiydAvSfjpgFeePuIgwI+amZ6P2LcgS5BF5klDIuTGgQll81SaJTCUpkI8Ij1Eomsa+2Lzgar6R5+7C1NX809acmSsW6mWbfCZds9t55HgbxB2c+SLDbrZdo6tv/AC3tNWS6p05lm8tQ6e3zpnriJ2ZE7AomIjYSJeBfjtJubqGxsoaA2vFxry7T90KlC3mnECfXDZsqqS1KrZhlGmdYEp8+w6PSVLn8+i5Qi/Z3GtWawpqi0XK3pRcbpssunrnsJN51EmTAEuoGFwE7Emit7c0bO1nclQuBHLpXZQek747Bk4l3XI2LphMTPM110zqWbrflrqpuyYUvLUvO/Xmsa0eVdYvWKVPZniKrtmpZKGjTRDIk2RqMsLUM7r03c8rZqj1Fo9qLxs8RHtk8RXiRo+vThO+M9lvFESzy94NRVUbdhz/Pw+uXTjfOstLtyOo9jaUfa9hxr7ah0rcBvhP3DasIVHslERxnu/nS53N07RNgzWr+R+t+TLLzjaBOuVGuwMhnL46s53pKp7U1XbO7U1LtfGr5aqJcpYfXe1ebNc5Gp1u8dedyxZqdhXonAfQbFMgkzs7Vmz8rCKLSI24dqRFWSlkQdHzcDKZ2iqWWMp560H3Or7FUnbqbAmqzOlxkatLY7S+y9PtS9NWjjI9js4blQ46HzqTYi2BpQ7JoCQlm6JeucbmkTVML3z6kndfX3z+oOvyVZmrzXo+idfJdouF9vjToW81ypnc/Mbx2VZ+J945u56XL1iaXBlS0UyC2NWLnS9M2DQ+kkLHraWLq1DSkHuhxEXmKrkWJiMAaHqByEDKHCyIog9IxFhLR4j2F4Lp905/RA9LTBr2btUiA2wiavJswkm4ViGZsnEw5A37zi+HVmCQzud61VcNbdi2XUjzcUzkXszkC56Ls0fY7mLAs8bFKZXFY6Q2rdt6p1yze6PvvGwreEU1LctdVaguebd+6N2z043vTVgpERg7om3pgPY0TE5E0vKVoTTGxEoNZSDdvN6zaTb9hkY3r2Ssw0pmiTdU6zFQdjrfWW1+qT2d5koNU3sJ0C1Y7VsrYloij3+QnLFltiMLga2BNz01DAiOaX89ODDXQOi9Z3psOhXzz+qvwc5H56D6e3lpvfKvlAK7+GYSK7LWRlgU6bDoNtbF5p25jpe2Gk4tzZgpmyF17vfWOuekYu/UPbElAuF1BrHhBcW9TqmnDyG0i8KYFpxkXbqPPRtD0P7AG46tsE9mwVUeWz0kI85BIHhWMPkyZtmAuMlJsR0k4/ciZezYhTUWVvkWyzepsPewjuabgZ0pXMG+dJXPT87DydymPeKjW2tN+6YnWtUgKMuN09KcjdSOR8TYY7OhomVfzvjqK3zrLryoY8/AagvsnlsMLiIrULOIpnac/csIKQha3F7j9Yxd1tCKpDE1fw6vAkaVVbL0w3AzkCYfGTU+9Ays2TIxYM1sac043Nb1xokg6F9pvZmO0zfWZyWN52tukt8W9165623xtPLnUWi5qTu1Eu3D1NQzoudzmoNy6u1z148cX38MexLxwAg+5Vr1na6I56m5w1qNkjJTGgbnRLmm+mWrAzzHpnubkLSj+aK2YLmZRKc9KRI0PhpckMPixXgkU8IUrUlGS5avR3pK5M1iYdLzsSgbN4+uxSzk6i51Jl5qVnNyW2rw0Uw0IbCg5qQ5zco1GdWxN/uXx/PRh3AhpLU2wg7Nt3Cp2+4ZeYWo2rdt1iXjOqbBo9M7f0kdrn28Ny3LZnQ165s2Rz3tIGuT0sFA7LMrRLO/EWaL010lzlrAz5QuxNfZgCYVWpCyaUKbnRoScSkV2eqVjtkrc1qJhJuEENZsJXFXyoK6RBFklhJedP2VWwMdy9iQ8xncrqT2idYzGA7C6efbm8hjc2E0JvDkSt5XGhbH4etgI5Gdj6p3HpLXMO0U249/CFCWSEIaYiVGwWomXigXuAueekAmbAiGdSxZvq1antDN711cVHOjvQINc5Qdh15qZrctDaMed8L8lQgIoVWzwjTEmqQhvznqq5yWZbVdtU2DHfoi183XLHbod3XUyxaRKjELtc3U0/c30DXtPL7pWFY1Fb1Y2JKdLxMiznLSEMjZKnS6N2bo3oLebgcKQzh72BUDMxxzRRd+1Tj6dBRu2qN14PPyFd3xtNhpEzjVssGsSc3dBOlPG95Ln82W30mNg+mb9J6rZ1rY9UTeY1eZumTTQJO8a9GmvWKGIqo2WqazKyQZqIiZsZBdo0vYTcvV7heG+VoPrOks6HXuh1NQzU15oYquRMpMU+5ebnUWoevJohxIsau5P2pqfU3rseo3vze2LlIE/OpvSO9dV75asu1DvffxZ8cANIkQgtcbKRXLHr0qdLjK0G0ZRioWY1m/GAlszsxRTotx1A8pGg+sqZXKQdnrfSI8X4H8ocZFdDU2SHnkSlUTBfoP1T8Zcqm0KcFkl5mpOZ3sWb0+9N7YgaICXl/Xy7m2BxlxJLbtT2Dy9FossFKXEi7HNsynhiD2rL7oK3VvS/J3Te+W8gjWIdaUsHj5AA13XLNR+Hr19WpGN68LXVNpUffmhSAjpvI2Y5ZTMeyk3iNcgquzMzvOvhdorNUzc7Ek/s3n2ea6ipuvQZrIVh2hMcyQ+7tXamHyWES062BykN63YN/0Aua63g+aSV6funHk6bw15riCJ2syI1wPL1i2L0Rv/AFjsPO0UO7aDjRQY8/rPREpCHeX3gOCtLcYImFTWZVnpPfxXV9pq8n0urKiBZKXUdJjH52LOxktNV2dp1i1jZ8nr5xm/FVeZiSHLJgiw1aXl1voXrzlvcgBm86MhmqqIdk7nKLNWeFzKZHS0foH4jxd6XfKs6VZk5m4DcZyrycLVhKsITKRkrNGWiJkMd71cNbWDn12BPUWzs2KSp9luTJUQS5jucdxc92UjcukrJ04d1SusNmZ242RgjBJAE11r29a84evXguW+3m2fT7hXtcKU8yI28IkRCmGMU+/HKLTcqHcpLTZKqbmH1i2HRpGO26LprzYvrwtysQZWEfpDoeFrj6M2rq3pBUNJAQpVy2uelWQN8rI2sp8DsAkzJKxsqqKltmgbZz12lMVZzHYvljqak758uTdur+sdDOhO+b3xj63yQp1ro5YtVbn13rkJK0y2d/CZHtiRN0OXr9OzdWtOdilmKl1zbatP7xt4KHv8lHvIzssm021D8gIoA546F5+sqsmdYNq27NsDG4KO5kxSDq5TYLjWg/leNyV+wYz11zi1BXNBEnYO5WUCcrjErmaBIcUTZbUrjsTPQM9nrbbnT7Xmnz8JOXBEUZVkoOhL9qzpwIKGzvn0V0Lxf1vnVhw4NNZi5YU1jqXefP3L00CTibB28l3EkRmNaMLS00KcIAZNRYHh8pT7LFSEk/MQHkmrHTZzKzxuRoibvrnZdWo2Aazb+VGSVtT5m691HZzYxb6juNko8ERj7Yy489aM+6ZI3P8Aiybfh051TbvS5vPbeo9AnuHqtmx9CXVNm0O7z+uepxNgwU6U/wAUKpetrjSDY0WiwmjpqHY9Hz7UDIxFzFxshCiJmIVN3mHj3c2EkoTO8XHYGgZyzfidT2bK8SUCfE2h2uS3LS+50nLgNv1z0k62EWWOOQwRIJAoyIaNTfn/ABtmRqtynWIj5aGirV2chtYBNFfLFJx92x3prlrj5oGZjbTNYsUVYM9LXL16bZkSwn2U61nNS2UKKlQuvkQ4y4S/S/LO3TqkUI7O/IwMU/nPoTnPHeo3Oi2np5thjOhs67bbIaB8QKrrCzUBmQ3lffylmZeCNSVmKxaYOrs3XIfvNGt6ycnAScWCa1dao2HDELrRWoen9Oamr0HRmhSSvEROQ9hMuodkNHjQ6k0ulY71opw5VW+Icx2s8xX7Fy63W66wt9ksTS7Ij8Ddkpp+ldEV1rU1/ajV1bXNlan7+LYUU9Ma5VSu9o0euY3cKmp2El4HOvFiWvfPWgVmrtpM/USzaFm09NZm6QaJYItt3o+MrLzZ1jz/AFrqer87sdCyVbGinGhA+FhPi/EhetY+dJepBjXLmWkI75pssezNP3fPS/xFlY5euoyssaQsnGyC216tzsljVFDpVNRWnXXTgKMtrpwaeZSHTdZMOxNraC3rjaloeXV/LnTPKM03bK5eNcbUnPk1SQy+0gWQQo5DWIV5lRNMPv2PFgOsy03WJ+Da9ivlznIKVibNhpFc2asSkX8iEmYjqlegjn3WPSuk9yrZZVoxZK5OhLOYVB1iWqblJJl7l66ZOwbO+V8iyhcdZmUAuuOg0u1Dy2uxw7qWl0JpJNyBWTdYuQSUHRHXlb1nnbftPsnXhv2HfrO+XI9fzHy2auTEPnT9211sfWKfWty0KyiMzUPamSi1l3s2tbFJued1VsDC76u3jHy8XyMhVekkCAbINxMtAgchEGBPof1MYzhcMs+HfEGEbghJ64QF1jZkvru2c/RZ3DLfnrrWv7FqU0BLQkgsrBzOr7nXQCDe3icGkotARpNFRLjjRvXqzlLqbGzVMPrqbkrq/kgmrbWrVeUlLBqNcCzkMpTah5p8oTIwpiQDiWiEdzjFy8eM6RyBsVsIqtSmVgOgyJbPHZcLHP06fi0QUmyVrXO0wk5Yjdha26HpeHkxMIYCSGwY+d5esaejZzl217Cbj1D0471c1x0ljpSwdwamlgrKwa0pYNsRlhtAcw6FEpYNb22ywvAFXLQE7JJrbTnQNP1OUFbi0/188sOXEJFbC1ZK6z0bBUm3SVarbbjjR4uyqZqwxLYpZ7/qCZjrG/8AIe5MMc6dyabOe5qHB3JWKHGtKQ2OjXmvLKR60CHfPj0oDJkafMWmSKIkwpIS3VZtroHY+gdy49HqrsqpzevX3x89A9H7H1R04AFiF785AboVZeGLGBpIeN5dMcudOY7H+9m50JzJ0RzxZcZaPQ5z1jpF9KbAbEpqxbD3ppSHWxt5BQ3JgSiDeeD1k3I6QGUrk4W42uEwba6nb4mZauykrhPgI2CfATZBQN3o5WtGdQ621NGPmR2g86Dbs9TxJKu8/RPTlJMido1kr2pVehdSWxnpGL1rYeXeRadkweeoMyHCSjUJaN8lKucAi62CRRX2b6DBRlkyXR0S2Xkvo3mPrwfi5GL6cIw+NmNRM/DtSbft2lLvF01ps92OeYPfFXrUnrXC6uLBVHTpfZvJO2OYDRvaWpa5wzJi7ZZl1Eb6W8kES6/KPlxAiwQ0+W8oEmZzASoJECzjan7e0TbprpQClz2PTTEHV7PWja3nojt42yM4uBgiGKIJEaCPBuy7K6i4y6yz12Q05ljmXRu6tN6lsbUxOZ1upNvU6kbO1dKCnDjaW/KMycG4EliqQqEl69rFhEZbB5EGTJY4A0krFX5TKbmYWbiSFFys3ZqrZ4JDlWyqwRoiaco3ROpN1idjROXrl4hyHsQcCdrBUbiPLrforPH0XLU2x6kUt2Pb68Gi4uMud3bP5Oex07IkeR9v43sKnytFm7bH1ZTVuRW4dLvBNKKlrA2E9Hitlbn4G4r5gSNS2FVuZiRkAVpebrpudjdgGv7RELTNtDmlIPfFRrWc87G1t3Y3OdvyJ1Z0RrA14kQbdkfRvkkVjkyqZeQJdRgtEzRJ2S0PRxLK/LyV51Yi3uwaqMnXZVGBpU6DPjF74ISQCDsujUthY5hLzLUt19xt17nW3VozJzBqLfOktZl4mVh5h7YtB2Ktg13sSoxSkIU2ISz0fZqae68cPniZbNeFgq9irFy/jyhyRhnidna9OBshDSMW6XoUvEub6SldmYVyLeTDyJDUXatBC6TNyq6hh7HX8+muJIRvniVhZZY9oKSTpqBlpXh6dc1q3U60qaNmpaf64tle1nYNd9OMFk7PXz2nZfPe4eXfd0BeAefXRoFrqOjdMMpXXzJdCK6cbTXZODgRl1ulHxa6tL9amokpGElpJaxVcqLhaNXHG2Paxk4noedmjWMjsTEBwd5k5eN4HouhdGr/AEj6nnQ3INQ4RKO8t8jFLXYk6KWW+So8zMy8Y5HDcQsK6YIlJxqsFSEejIL46PDLRTDTuFQNIBC+teR+oZrfhAj2WkefOpeZrHgi4u4Pu1FuUX6gXWjlSaw03tDsvnXpawsdWpU0NrFS5ZKnW+m3Jz8WUM5FYq1ztbk8rCPFllmt1Kki3nUy05T8Y06tim67MxK1yVbNKXb0NqR+sNvaWnQcBpd0slvxGx8m1cm735uvWOm344PYvD1OHm1ayO1tOa51iO8dtzpzp6djUPl21ZJYM7efYR2p146bZpVU2wadqe4NPdvK2SKRYfFy8OCpcarGFIHJGLdJ2Trh0Wd6MkswlLMXUqEDgnDKyouslQbCW+4a8k8t7L19b83Tft1+riB5t7oflouVzcqdxK088YVxmz+SuSU1JWVQIqs2S8kzNZ6TZEXfufprte2xr+WlhX2M3xowFuC3yrxEo9LAQ87FajfS3NvUEu+H04il8s9T8oWRzSh7iQt1RshsajWqpxR3FjtbH6L4jJrr/mSqGQgvBCyFOudXuY0xhNAmx5pNORbsk5N16bicRHSJcZmFGi3SUP6LDOVkqJmWhPKml7FqlV/V2yabZrBRAzrJMp802WP5MvBDl/v+hH8dN3UemvrIqHvJarNVKTz7HRMRF75Dbl0H0OlJ1/s/U1Mb00daenllNUW+nUMaDJU/G3evRXUOI0TheBGcKHD4x8sNgp1gzJRsl0jHZTINmeMIywP2OIYqeVlESUbg2N6rey5VNGM7VD7LcWXDBedYcDJD340+WQl64XFdouxKzvGZSNdm7nb9fNY72NyhXeL7G2Vnl3pULsjNmsa/tLWXXlChTUdvhH9V8vdXrtZhGWavyh1fyXZCK8XcPFnLJ7CcRRWEktR3ikiC2cSkGAFBFbs1c1mPabxQhoDodMRcpJKG1+VD5AUSLQfWLIWY2uyUWGcgLDBTjbyyEe1MGqqftmjWaYFtNRujXRHs9FiqGrCXBmcvMJD0xTZZJSmEtT8aE0krGNi17oXmm151etYnxdk1Iwr+uJFVmIa0Ow16YOwoies3NwlC3amdHh5IKh/Z8eynAdPVeWi3zVJNku2KoyX7Gt0Gx16kZN5z/OVljfYetvRfPa78VNmerGtGiPtWFTlXnc1T5Y0rr8Q+EIXFE6r05LRB7DCWklRE1Kk2Lwu6pKsWvz+uQeJrhX6TLq6c6zW7jUunELcWnGLz6M2Txte7duaA2Unl21Gq7wW+SZuuSGud/g5M+NNlmzBUEzQ6xBa2qyVjELrk5WtZD8tNCr8gkiYs4mSmCZCFNiEvN1mYJScrZkXm56+uEWcNsmVL6VEdTdhjJz1Vr9rXR4fI06trCMsbbT5M5aeGXfOmcYYCPMsDgz7FR76s2OFjPJYIyXhJExjw9o7jODoLfnG/RmGmdTb40PpJgELqI88zXsKSYfZ8GJE8GJaePIlpGKwu2YK5LzVvkp8hYBBjz3orNdejruUwKXc+koh6LPiPPzpjLrZgIoiwuwVKWzZaBsIs1SC0nWitOtmw7BryZx32A3DynLrSLZWbLvEfXdigy6midlH75aq2KZcM7elHW8dAq5aXDSEVuml9OcDd9c2hJqfXas7oFT20BcaZg9v1nfOjIswWudYr9uo+8GMtLsabeFJEyOKJQiINJlIZkkssQpJqSiJKWZkIyQLpK1G0ZHx7jQ3ORMmay0X0/onSktENtodVIzVcblY+5by4zTmGVi0tOCH1+hsN8SnHW5Gxph4JLXDTESkchxpRkPMEvtzSd8jYei+itYRQpeHvNUmPvVSqPbJapvzhQGqfzEMUU4Tlup9rkUiJGJc2DzFgTWUEr4XxQ2brXrsQ1rFzhkkUmp6nT+bKhOjSueFLHJUKSVyZgZzKEbsYDVOBngKOt1Rss6Xp2sSfD0VG56v2B05bWiTW8dIN6fUuvrMHIxMQk8DQsiCeCQU82ayiNk05JG368vqzka2tXIt0YGh7YKmvdadAVjfLR4Gz6B280c0pGsPvikhhYThIGCSUkrIxBKEPRJcTcnC2JZ+w1CyRbW1EyiOMJQnVO0dV1qPzWdUiPIBz0ZalImxKX3AFSC7Gi0qlQKpCDNqRqLkRikFCPDJwMtgAkY2cIyLskIB2qtSp1QfVdv8AH0cdO7m0tvlYKBd6RvEO1loKmIKWNiOSE1masiLyDVPshXiIg7+EUwt6GtnPVuQCfFek6N0d01zRz9NTDZX185YZIwg2O8Wo+rz2aqYh5WVYamhuXhDizWCiXfNjozYUFN0Yw/13mSjw86hLnXZLU2tOwlj49pAcjFlQYfJzo8552yCcbbViNKdiLrNtyUKfhSyUKhBlNbS7RxAJIy/SNjpC6U6a5i6caN7Ke/kycAQHmgEE1IVlySeZjnCTl4+VR+ThpKWRsFOtJsyW1xb8iHxiaKolqHOca1tjTmh1tquzMd4nW+wdeqRIw5WuceSG8EJHWDAGgWZfwRckL8TINEysVbNxpYgxhDY9hDhh8VJvHcvOO3uPrv8ASLvMSc0at6q5y6cKWVJzO8VeWNBS42bVVzierF1r0BStcmwttEGFxshImvIDbkTWt/SPrerueOgqLy9ehV2uqdfLJDpygrb7IVJwpxZyRicaZcYIGCiPAVtpEwbOfqE1jTMlOKz1iNZdF6XnSFNkGN5v2wtIbV59JcCUFKPb4w+akDGUsiRhj6wK0OqN6XHNfxFhhoMW+OrWVu0OOzS9YntqaovIJz/sHVPTgOhSevnyQISEODZC3WCwk8B2LKTElMvlDHwXYIo5TbvSpKNgugZCxHmoqvOXUPOGkEdXcXUjgKUVrzzSq8ymR9A2TzbjOob4ZxH3UYEgSABJDOMgpgDxuLXtmqMkA5NbKbg9uyls4+oeUJOka0b0HFXPME5Pu789UA2IWzoZnbdT0XNOWaNPvn1+pvXGz6BWbVrKQNn2nTV+I/1p9G/RLkxy9fMeiekub+nJGWc75ODqQJcbwWiap9kzXXFuypaKQMGCEEzYqlMZtntWu5eW60KShs9hIWQD1S9tak2Ljd2k4WflrUdZK3LY1x45NALHGnChQd5ltaxE2WElEytyoyQG8MUe0ib5iA2GpXFZrluq/bzCtutXKHMep54YyHzw1hKwSg8kOakKOaNkJmYeWVTgzxdZilykXaPrQxJ6BtFJqptki6ph8J6WRQBhTUjqrJinpMMeTZlWFmV+ZFBPMBohAY1jx4mxC7hz0N2yqQ5d/ONxUSIoNaXZvq4SlJGtlRuZmAIMvmqtfslL3LVIUE+iqnaxyNAxYDUw1mr+qmerUuXn0H6Ttys5qfH2aU1fZqv14NPIzrnhpbQpKkBVhg7DnRkjW5SH1qbV9RmYHKNUFFwj0XUNUjnUTXLbTW4eyUkbU37JaMbx16SkdEb1zoJgyHmpLwxYjDoYwMQEoMefFyh+Wqo0kqPSJj5iu7xHBwRPXzNBPsa5RYx4FIUlVLLCVEu0GoMNAIJOdrUtJLuhOofNxUlKacxJDNTtdELht6A6Fzrg2t9UctakfAzONK42Z4GSWoFlGLMIal4KQBQ5luR1ZMZS0JYdaC44oIXOREtLYd08/wCwsejosLXzPPpagIZ1bTJsXRAZZZzEDrzbNPXS0jFwO+FljG3dcq265HaS81S7RAy5sAqlYvNaqpnMuWzfm/Sdn03ZtS4+zmLXV+1/14IV5eubLLrIrDZBIzAExncVJgFRLn1+VJEkByJkR/0AntBE3N1OclsUNNZjVUTtSv61Q4zYAFV3aury16Vluf8AavHvaWoeXmnoKwRJDxs/WVaMjrrFQHutGqPEJrlyRUXWuvCBNIa3zjmnF65sQs5FAvverK21w4+zkIdadHpIF8k5UGRkPn4U6JORiZEk6/IJi8725U3fnd15f6iqxww/b6R0zJxd0DKeSJLD0tD4QSEcHtUUN4K8wkfaS0Yawgzhzwe7HrlcnRt156Quy7JPcu8NMeCD1VKmm1ZTl6frc+NXW6XX+uNnaW6cL47Bn74PQx0cCkwqDYx9GkIm69LIqkIsrZGe947E1jTta8vXGwrvuvmT58SxtC2xJYsiHyIr+drSUJKzJxdhQ3DTETpcURElEST5DzAARcpuoSctlrM+MVwrExnvrus7qqla0tlWb6cdp2XUMjz7bsc1XnHTc9ASjOr1ZaBfRGurTQ6gqlda1vlGjnk9OYVfkIO8/KynfNkU4AjULbr3sKHlI9BjghQU8CYSJ0LJyTcjXJ6JeYgpkFkXswwTPPG2JXTO1MdNTc3d0cx6kq3NWQ5Ik4hXTNgHicBQTaDOSpmK5i4oWpu3QkoL9vCIEaWh0DfF9V+6d4+2fz6bxr9BjMb2tC0dx2ejLERURdrhY4oDNlrstW0fvLQXTjZZmh3PfmWryCBFOjB16K9bsY+AlpAq89Ugz0P62yx5I80CUKXcpjzwDKVeGpqEmiTLFIx0RnClJmomWmozGEsS/k4SYJGIlHjJGOsZvFAvsSZ0RLSxckLIynoec5evWdcuFZ68UeIYoIQ0LWL69jPD0x5cYmzB0VNayBDyUdczNTt1LsimXk9PO6GYBcIGfHtjGX2KUlaB3ykw8tpwMV5IaSIQHHAlyWskF6LITHmxaZEKSgWXjSpb/TrlWp0ih5IJOS63aqr1wl1DtCHx8uWuyV6x407GyMWMCKFIyFkYfWUNKarPvepUvESUXiz1m289yhDhmPW7AT9ZJAuByks0J5a5qjYeuenmatdRtO+VkbcZkAiJmFGWHm7bY41iSsRh8da37Pj/xAAyEAACAgEDAwIFBAICAwEBAAAAAQIRAwQQEgUhMRMgFSIyM0EGFDBRFmEjQDRQcUIk/9oACAEBAAEIAuW1Hc8IUrErOImWJ/gTKsuu2/ny1xE7RLwWcdn2Ex9y9kNUhbcD/wCb/wCzkSkZsv8AUpCbLL7ULsJUTy/gUjn/AFilxMGQjJMZ2scRHI8bMsW3+h/6X9bVsxdtpHkZJ7NX3Exuj87d0N7NbKRe1CYvbxKIvfuPts2d2WUL8D7HlbrZDfcYkN7JbJbPts+4lXsT3kihR3mxDWyORW1jQ5Vs9onkujyS7FlbSNUqtqQ3R9QnQnWyGcqIzo08+5AooqxsWyHtVn07N0cqF32geStr3SKo8CkNiQkciS2srexyOQ8lHqHNM5dzkchFUUJFWVt5KK2iPuWPZI8H52S3oYtkchD28FlCGeBMqxMs8exorsd1shFjZHuSf9eRKhbXsxbSRmwcvGTA4Ff0728Fl0eO4nfi+Rg8mN1shxOJVFFbXv4KOJVbIvdMiVsxngtncsTGzkeByESlRPP/AFPUE89I9c9cedI9ezFqCOaxPZDF22ZHsWKYmXs2MW1beBdyheRnkuhj7d1Yu5R+Nr2oV72MSPG0UeBoWzKO627CGtos8ikSP9jR22SKJ4L8y0tDxNDxnonpkUOLFAhhfk0+MSIqtrGfgieCitroZEuhsov2OjiOXcQ+/sQ9vqOFFHYnl4mbUj1F+HmHOznQ5DkcyOfiY9QY81imedpFjK7HYiMjs9n29kmIvat/AmimyHY/2PuKt2Il7PAyyxFkirW1ljEj8nnb/wCUVskV7fI4/wByxpn7dE9OS0wtPTP249H/AFiwNCiLa9n5GIouiziKJx27lbJlltlFVv8AUeN7oj328bonKjPm7kp3tdb3tdbRyUYcvEw5eVmMokIRZR4GhMZ5GeTihDYi9mixra/x7aKPBEcj/wCM8+z8CW1WLyNERiiJHgfYfjv9RVbXsxie1HdMva9qsaHHsSSaFEqijwJWVW1MZWy7jQjxt52Yu4jjZVbdytvByHtGho8bIb2r+9VkoyNUdxvuWWPdPayMjBlpoxiZfs8lFCW17VskUUeTzsxbUdmJbJjKGq2oqh9yyiyIkUrIj7FfnZuiXYS7bVZFf3ey3Yx7M8ke29XtAss8beN/GyezH42fYrZiLKsaOIpFjvd7+DgIrax7MjFmTsanyN+Rt72j6dmfgb2gzAYPBZHtuu5RF0RltYhvZlCLs8ex7NCIuvcxnkXbaxbtdiLEyZQlfmZZQu2z7jENfnZFFF7XsxbXtYytkeSj/wClWeStlvHehDEIr8j2W1jKsXsZLuJi8jMhqcRODJRseM47UURicCWyML7mBdhFl72WWXte0CTEP/Xjb8b2NHk8D2cb9jVj7njZ99vG8rKPGy7bvsWxeT8iHshF1untVjQy7PBY/wCyrK2RIXfb87R2sQ9nshdjztQihLbyJHgsuxdtuIvYuzF5JRGrJ4iWDyftqJaY/bNEsXc9KxYvyOB6b8nGyWMjjsw4TFHsUUMr+i7HtW3EXba6YzlW1iLLOwntYxI8Fl0Xt/8ALOX4L2uzyMve7H/Yn42T2oihordHHZKxRr3eTjRxPAyKH7Ji28EUMoiihlbPfzsxfL7X3EhnLZoXbZCH4E9uNnFDxCxInph4SeGyemTXb9svy9N/Swf2tMRwpERlFjZ438iR5LsraW1FCPz7Wi/7GSokL/dlj+U8lDIlkTztxo/+jP8ARJ7Uii/xvY9n22aGXtZW19xLa7POyjvFEu/n/wCNkVXmvzsh/wBbedkcqK2T2qh7eBO90ixj2ZQu21kdqOzOJwH5GNHjsOSJKiJZyFkOe7287/6PA1v3YimXQj/ez28kdrPJWyW3gQyiQhdtqvatvBQvI0RRKNdxb/g8bLZMvZ9vbQjyJ9xiLPJdbeXve72f+uO1FbVeyG/Yuw/ZRWyW3ESKGJl7+CUzmeqiWUlNM9X8Cyks3LuR1Bzvx6xDKRlfs8eDlb2vddjyJEtr/pMoe3nZ0I8eb/qiitkJDfsTo7C2fbbwLvvxK2Q/BfYT2SGIq9v63asq1utqOPub9nk414/Bdl7NFFDeyRRQ3Z42raihDW1CEN7+CUieb+pzPVPU7dnmZzRyPUOQ5f0pHqULN3MeVEMhZ59qRXYR/ZV7Pu9roR4KIiKKoscr9vHdDVDQ93tYmIcBuhPuVRdCJHIW6H28CKLPJx3Xcra/wI8C7lbJEto+7x7bELZO/Z4935KL3reTMsqJZb8SlRys/Pa0zlxL2UtlPv2l/Ypfkx5DDk2Y+21HgWy+Ufykf7Ksr2siMa28kkRiWN+1HIezH3Iy2oSPPiLo8lVtf42r+xLe6F33ffa9q9i3Ze1bMor3UIo5CeyZQu+79le1bL2MyypGedjJXt2R+d1IlL+rbOX4LE6Isx5KVmCXPwedvJxF2KorbvsyyrHtfsQiXciqGiyy9mIqjwWMaGheNu54F3IqhFEe97MS2uyhxFGtmJFIS2bLEUVt5GR28iHsnsxj277LsLayvZRV+y9l7b9kmaiRkmXY5N+UPsPwJ2X3HL+kN0XtZfIxzNJOhMWy2vehLfwJFDW/g4bWcaLGIvaT8CRXsookhbNFXtZZ5Ft5I9tpbX2F7Ft4GWJiPJJbpjez2W1beTxuhl3shi3osr217X7HPsaydk2WKxlWLejucbOJQlfcqttJOzEntViEMQux5F2LL2q9ntYhnk8EntQ/9L/chKtm2cq2be0C7I9hyRyKQ2tltZfY/wDon7b2sT3kN0YxMa3Q96Fuh7rxRWz2W17NFHIaF7GXsvYhdhmRdjURvz6PI49zjRJfg4yZUjicT0v69GvPof1HBfYemI6Sh6d/n0fBpsdEPYjwI8iZZdj77pHEYiUbPAhiQhbqW3I+o/0M/AvBdDZEf9i2/wBFbORHZbpbIe9V7PA4/kStEV7ELvu/Ze/kXY8DF2FvW3naxbPd+yi9meBk4mXT8h4B6dnotH7bsLDI9H8H7MjpiGks/ai0yoWAeHkemPFY9MKFLtBDKtbeCvakNf1RLZO/bRX42SXfZyGf/Bkf9bMbEJHjZEmXtZT/ACjz5TK5bIkj8i77eDyUMWyVCEihe1rbwhexbtjZRdb0LZIravYt3vXsZR6aHjs9E9M9I9NHpijtQ+4tvNjGJCGjweN/ByH22soZRErdP++AuxY6ExsaLLL7bKrK7ngqhraI9kPzsnszjRWzLsRJifI7nn2IRyPO1FC9r7Hnajzutq2Y96F3F76H7WP20M8b1Qyt0N0Sey9y2skLaiSK34iPG34HZdnIeRHqnMUjkWWcStkvLGUPe6ES2/2ctnYoi/ssSGxETuL337b28i2skSPGyY9q3fsvdD2re9mt63q90P8Ave9l7IsvaRX5L38CPA1vwI/7oURn/wBIxPBZ52sTGTy8TJqbP3JLNy8LPxP3PEjqnIx6zuesjlZZdEu5FdqO5+O+3EsvuVRX5M2WOJcpPqOAXU8KMWVTVxlPjFsn1LCfFMJ8UwmLJDMuUU67kuqYYum+qYD4pgMOeOdfLdEup4UfE8Bj1+LI+Kz6iGD6vimA+LYD4pgNPrMed1DJr8MHTl1TALqmAwauGoviPqWGDp/FsBp9Vjz/AEsfUsC7P4rgPiuFkepYW0jkIZn1MMH1/FMB8VwEOo4p9lm12PC6l8VwGPKsq5KfUcWNuL+K4WT1cIJTl8V04+q4BdTwPss+eOFcpPquAjJSXafUcWN8ZfFMBl1EMa5P4rgPiuA+LYDDrMed1BsfU8EezfVcBg1UM/02Ia28mbW48LqXxXAY9fhyOk2ZdVDD9fxTAfFMB8TwsXzLttxEPaiL7kn33ezRRW3GjxtRZkz2SyWOZ6o8g5HOj1jFm/vDlt9i62Wyl5KIbRPB2MudYouT1uuedidnKjQ6+WBpE5qeFyWaXzTORdGg6g9PIhmWWHKOqf8AyZDkI6Iv+JGol8kjNL5pnM0E/wDlidd740TZzIuz9P8A5Opds0jmI/T/AP8As6r1Ph8kJZLLo02qlhla0mrWqx2ar7mQ5nM0v14zH9MSxHX/AAhyE7On/dR13HU0zkdKleBHUpf8+Uw/NKB1ZcdPjOQnZpfuROtfZOfY6Vm9bEdX7Z2YpXKJ1T/x0PskcyMrOhdps6r1Pvwg8g3RpdZLBJNaTUrUxtD26j1BYFSzahzdtMhl4vt07qPqfJPr/ZQHITsh+DB9C9lbVsmJkZ/g5kZch+x+2hzOe0WWWXtZgyv8afIMRRRZVlbJjGdRX/DIl+DpOCOSbUuqYI48lJGm/wDFRn8zNBjU8uNPq2CGOUKj+Tpz/wD50av7mQ00OU4IhoMVIxYIYV8nUZ8MMyXdmTSuEFI03acGTxQzxjy6xpMeOFxaOi4IZG+WDSwwtuPVPvMxq6NPoMLxpvBghjvh1L70jGu6NfpscMCao6B9EiWgxO2amKU2YoptGLQYkkxbI694JHQ9Njy458oaHFF9v1DClBkfJ0X7B1B3mymj75MaOu/Zht0TTY8qfJdPwrudb+yJn6fzd3A6z99mH6oiwxywSl1fRY8eO4s6Pp45JvlDSY8V8Nb92RBW0dW0kMeO04pM6B9s4j2679YlbNFpMctPybXg6b91H6hXywK7nR9LDJG5fD8JHt2W9Ev9OZzPUJZbPVojqLI5Ec7E962mLa3u5Xsy9uVHMx5O5pctkH22R5ONI8HGxMs8Do6j9mZL8HRvuM6losmbJcfheYhicNLxebzI6b9/Edb+rGR/J02P/AjWfcyGlmozgY9fgUURkpK11l8cLK7o1UP/AObEYnTiaSfLFE62v+Ml5R0D6pH9nVPvMxujBr8SgkY88ci5R6i/+WRifdFY82OKkunYmabTRw/TLwzV/WzB5iY/oW/c699JLydB1OPFCSni1eLI6j1qHLGL8HRZf8LNb9zIdMheVH6g+3Hboepx40+UNZjyPjHrn2dumZuGU6z92zB9UTD9COt/aJfg6H9bH+TXfdkQ8onDFnguXwvEzT6WODtGtqOvfWheTQ/+KiX4OmfdR+ovpgJ9zo+sxYo/NHXYcr4x8bLa6JGWdHMlNll/guhZKFldGPIQy2Xu9pCQ4j9njeJAwOjD3R5OQne1i8FFiYu51X7LH+Do7qcmS6xii2nLrOL8SzLPgcln8zIycXanOWTz0rQLN8z4qEKWs+5k2g/Bo/txOvyqCRHu4mrh/wDy4z+jpDvBA639sl5R0H6mN+Tqf3XsmdK74onUunu3NNHrSRoupSwvvg1CyrlHl2ZqvrZg8xMP0oZ426/9KJEDoP1yOpx/4pH9HRpf8UzUyuczosOWVn6g+hbQOifeOufZ2jLj3MuZ5POH6omH6Edb+0yX4OhfWxnVOlyhJzi0evJHTuqSwupYsiyrlGQ2XZ136yPk0P8A4qJfg6Z91H6h8QGI6N99b1szNMyZR5WepQ33GyXejlxIzFMxZqMWbkRPHsQ9M2x6ah4+Isf9+mcDgcLKIxNNDkYY9tmVR5H3P/kVtW3U/syH+DpPnIa37uQRpP8AxEZ/qmaXB62SMDXaH9s4mk1MsDtafN6+Lkaz7mQ02PlOCcelYmkY4cFxXXn3gjHXKJqc+P8AbJC/B0OV46Ot/aJeUdB8yJfk6j91kFZg6bice+PF6XaPld8/RlkfKOt6Z6CsXY6K/qLpM1X1sw+YmHvFFbPydf8ApRLydC0WPPGTnh0WPA7hqlyxzM0eMpHRp9sxm7zZ+no/PNn6h+hbdF0ePNfLD0/Hhlyj137W2LROePmVRh+qJifyI619kl+DoX3GM48lT1H6fjJ3HqPSv2qsqnR+n5MZkYnTOu/WR8mh/wDFQ/wdM+6j9RfTAS7nSdFDLC5YtDixPlFi2slZqZGXJXY7iZdo5djlXcavyuyORDL+DTz7kclHkv2ft1Q9L3Hp0PR2ftqJaeyWmP2aoejIaZ0YNOY1W35JC7DXs5WUdT+zMl+DoqvJI6xBLKL8ml/8NGf6pnTPv4jrf1YyP5Onf+OjWfXkNH9eMh9MSqOtZby1s5OhHQJ+Udc+2S8o6H5kTZ1L7rMf4NO/kQ0ZuoZIZJI+J5DqLvAh+Tor7sl4ZqlU2YPMTD9C2W3X/pJeT9OfRPaauMka1VkyGj1foKZfJn6eh8tn6h+2hH6d8S264v8AhI/g6RDngozLu0YPqiYfoR1v7JL8HQvuMn4Zl6rlhOSPi+U62/8AhJfUfp5jJdzFcmdcfzoXk0H/AIqJeEdM+6j9ReIC8nQvoHvRxGawnC0UzyOf4G2XtKdDZAwS7kHstrOR2Gce5xJR4nDkcEVQkRxHGhRe97zTMY72qzqOPniklki12NJrHp5WtVqnnlyeOLbpYIyhpeL1H1TOm/fxHW382Mj+Tpy//nRrPuZDHk4NMh1zJ2R0zWS1EW5dUfLPkZpsfqTijP0nFHG2pQ4tnRJVlkdd+gl5R0LzI8WdRf8AysTox9XlFUun62edu+oY3HJJu+Jm17yw4iOj45K2fhmp+tmDzEw/QvZ1/wAImaHqMtKmli63kyThEXdI6rCs0to+ToEf+FM/UP21toepS0viPXss2kdbf/AR8o6B9B1XH6eVmD6omH6Edb+yyX4Og/cZJXZrsUoZZX9Jq+py1EeLXd2dBwSUbciSMZ1zE75HhmHqk8WP015Ok4nLLa/UfiAvJ0H6PYh7TxczLpOPieIlA4nhH5GeT8iZi7ujF4ERdDKKJF3tdD7ngYxIQ/JYvJ9Q0Jj7HIjshFHUulrN80PheY+F5jpvTfS+aedcoSSydMzNyNF0/LDLjk+qaSeeUOPwvMaHG44OLzdOyynM+FZhdLzHStPPDCSefQZsk5SNN07LDJFvKrhJGTpuVuRodFmw5VJ9XwyzQ+X4VmOkaSeGT5cfJrdBlnkbXwrMfC8x0vSzxN8tXo46iLTn0nKnR8MzGk6TJy+eGJQVJx7Mn03NKTZDpmZNGKPyI8F7dZ0881KPwrMfCcxh6ZmjODceyR1TQTy5E4/Ccx8KzHTMDwYkn1nTyzxiofCcx8JzkelZk4s6nglmw8Y/CsyOjYJYFUus6GWZpwj0rMmmYlUUdXwyyY6j8KzM6Vo8mDJ8zZrtHHVRJdIzI+E5jQdGk53kjBY1SaOBFUZMUcq4y1nR5qXyfCsxh6Rlk++l0sdNGl1jTTzqPFdLzHSMMsEWpXsxex47slhUiWlHpmT056FCgODkejRDTmPDRCNi2ezK7C7bMXbuJln/AM8ngTHsux/9ofcr3VQjwPZMb3s8n+jxvW63Sv21Y4lDiKBxPHtvatqHsnve7Fs/bf8AFRW3fZdjx7HstqESEUUPGPAS0x+1o/bD0y/EMNCjt/sW1ll7sRx2ffxH+jzt/wDas8F7I7fhdxoUdtVm9CDmfH4i6/FHx+Nn+QRZj64pyUVHuhiWzdJsl11QckfH4i/UMT/IInx+J/kET4/ExT5q933LM3WlhyOJ/kMR/qGJ/kETRdT/AHUuK1PWP28uL/yCIv1BE/yCJ/kKNFqv3cOQitvJr+orSNX/AJDE/wAhif5BEX6hif5DEX6hiaDqP7vat9drP2keR/kET/Ion+RRH+olVmp1/oYvUf8AkSQv1FE/yCJ/kMT/ACGJ/kMT/Ion+QxP8hif5FE/yKJ/kUT/ACKJ/kURfqGIv1DE/wAhif5DE/yFH+QRPj8T/IEf5DEXX0QlyVl7M437EhdziSV7OIkUSX5EfjaiiqPG3+jiIT2vazyRQx7eRHkYne3g1EeeOZnXGUyyyzHl4NMxSuK9mvycMORk8nJssssssT7M6fPnj3on8qZrpXkysssR0DzJnXo1OMhllkH3P0/k+Wt2tutz5ZIlllllikdDyOOWjxtW36hy1FRJMsswQ5ySOtdtMS8llllllllllllllllllllllmix88kSMey/g8C2e3kQkPfxtyGijwXupFb0PuROJIfYQ9rvZbVaaOoR45Z+xeGaSXLH7Osz4YmiXuR0HJeOvZq51jmzNPlKW8DouPjis6/C8dk/O6dHQMnztbXtdHUMnLLL39OzcMsRb0fqF8skPZ0rH6maKOvqtOyfn/r9FjyzbVtW3ndvaxsvfz7qv20UVt4KFsmf62q9kihiK36zjrIvb0afqYdkUfqCf0xH7onQMvz0XtZ1KXHDIe+Nd0dNhxwwR1XHzwyJL2dInxy7Mo1UuOObM7uU/fg7SizTT54090zq+Tlm3R0HFc7Ov/YkSRRx9yRxOJxGvdxOJxOIonQMfl7Wcr2ZRZezPPtXsfse1LZdiLH3EhiH5GJliLEWfku96P1Dh+mRJVvHydByfJx9nWst5q/g6VPhmRe/XJ1iQ99JHlPGjDDjGKNRHnBozeX7NFk45YCdrfq8uOCZP3wOj5OeCO8+ybOoPllyPdI/TuKoyb1GmjnVT+E4D4RgMnSsPFmWNN+xHRtHjzRbl8KwHwrAfC8B1LQYseO0/YjS9LwyxxYuk4D4TgPhOA+E4DT6WGnvgytnHa97PJ42oTvZPZ7MQ3ReyWyRftRI8nk4njamNbLZbdchywtk++6Og5PmrZjfZnUJ88s3ulZn0fpx5D30sqnFmLvG9kfqB3xQ9+mYeWVD7D7o1+Lhll7MDqUDTS5447I/UObjBIb302l9fkSjxdbwOgZbhW+qdY5mplcp7wOkKsEN2ZF8sjP9T9iOgP5XtYjq/wBsf49i/Jon/wAUdn7G9r2or21ZVbVW63o8Eih7ruUJbsj7EyiQhbeC9ro1sfUxMyLz7OkSrLvqJcYMk2+72wfVFHWMXHAifneEqo6dP1MMHsmddyf8lD36FHlOT363j45b9kH4OmS5YYb9fyXNLdHQcHyZGayHHJkW6OgT45JrfqkqwTJ/jfBHlKCNJDhigiy9sn0yM/1P2I6D2hIsSGdV+0P8exfk0f2ong87t70IZ59iHtWyfsb9rQmLuJ7f72b2keBezttRZe1XtJfK0amHGcl7NFk45IF2tuq5PTxD/G/TsPPLE6li54iXhbxOhzvElsvydW75p7w8nQMfyctvB+oIeJEvO+M6JK8SQi/J1WfPNPeB0WHHAjq2Ljmn7Ok5XDPA899uu5OGIk/G/T48suNEVS28FmR/LIz/AFP29C+l7s6r9of49i/JoftR2Q9n7r2Y/YvZezOO63VIZFEu+9EVtRRxK2oT24lUV2PJ5Oqw4Zn7NP8AVAwfNFPbr8/lol52R0PHyy2Z43BmSHFtbo6Bk7yjs+yZq8vOcnvFHSMfp4Vv1rFzxIe8XR+nslqS2yyqDM+X1JSlvhV0aLHwxRR1+HGUWPfSz4zxswyuEHt+pPEEPfomLllY9ntk+mRn+p+xHQV8rKEturfaH+PYjQ/aj72VsxbXtX8Vl7XslZQzwJD3ssT28DZ5ONFe6jr2L5+RLeDpo6dPlgg9uuzvLQ9on6fj25DVpnUo8c2RezpGbhmGzUSqDJb4vKNNGsaW+tXLHIlujoM6yNDRr8nDGS8LfRY+eSKIKkkdfw8sdklvA6dPnijt1/JeSh7RVn6cw/VL25V8sjP9T9iP0+vkZRRR1hf8Q/x7EaL7UPe9r9i3RFD96KPGyiJ17OZ5GPehDKEMTGhLbyeCzr2K4Jkt4HRp3hS26jm55Xul5OlYvTxETrmGslj30L45cTI94xZ1SfDCPfQY+eSIlVDYicbjI1keOTIvZ0jJxzw2/UE+OOh79Fjzz7dWhywTJ7xOgZueOR/Z1iXLNLeHk6BCsK9uX6ZGf6n7Efp76H7Os/aH+PYvyaH7UR7WLax7IYhjOVFkdmeSvYxDW1F+1HnZb8Ri7jELZb0Vt1PHzxEvxvE6BO4tGZ8YSZqO8pveEW+y08eOOJR+oMfaLJbwlxdmklzxQOvTrFRLfomPlm9jOrY+OaXs0MuOXGzH3SP1Dl+aiXnaPk/T2LvyPJnXKEkalVLJuj9O5abiT+lmunyyTe+M6fDjiXty/TIz/U/Yj9O/Qyitus/aH+PYvyaH7MRmSZCYhbovZHgZIi7L2e1i7j3T9tHjayhFFbVfukWI4iW3gZnjyxyM0OLa3R0KVTmjquThhmTe+gjyy4kRVJbdYhywyZLeP5OjZeWI/UGT8E/O0fJ+no/U9mi9uvw4zi/ZilTTNLK4ROrz55t4nQsPDFtX4Op4uGV+zosuGdGolUCTvvvpocpxRjjSS2Ytsn0yNR9T9iP079EvZ1n7Q/x7F+TQv/iiSZldGOXcgrK9j2RRMlkdiIzvZs/AjwPbjsu/tezRAq/YlW/jZdyr2WyGUJHnkdRVZsq9nSMvHMkddy1joyb9Gw8stlba2HLFNGWNSlvE/T8vqR1uXLKt0dFx8MbL5bJDOv47gmSW8PDNFO8Bq58pze8fyaGHDEt/1BDjki/Zo8nGcWdRzcdPY3236RDnmS92T6ZGo+p+xH6d+iXs6z9of49i/JovtQJGbGYo07IMe777sQyUDEhdtmiQkeSx9i9rPJe+TLRjlYhdmKQhjGyTInkbF4PBZEeyHtdnWcdZfZ091mxHW58ni3R+nYfXLdx5JmuxuOWe6OiZay0dTycsm8TQx44okV7Orw5YJk90zQ6j/wDkmzLK3LfSY+eSCMSqMVv+osfycifnfEzqmW9JvHyfp/DeRy9qMr+WRn+p+xH6c+iXs6z9of49i/JovtRJGREUQF7L9jGKIt09/AxbVtQ/6L4mbyYpCkeCirK2rZFbIsRfte3X8X0yJb4snBpmfUvNV7ROiY+GFMvfrMOOVezT53hlyWXK8jvfSQ5TxoxR4xivbqIcsckajs5+yGscMbx+zpGNzz4z+t+r4fUwtElunRl1sskOG8T9O46hJ+ytsv0yM/1P2I/Tv0PZo8HWftD/AB7F4NF9qG04nGmJC2v2PdoiR7bNCJFDGIW97MyoxxIbMW1FVu9rJPd7I8lbdax8sLZL3448qNBDhhgitmfqDF4ZLz7+lY+WaJ+NrLLPJ1DHxyy96OgY7lJlb6mPODRlVdvfH8nSsfDFvOah9TzwPXgZM8OMjM7k/YjoGSMYO/3ED14D1EDrGWLx9n+PYjR5o+lE9eA80Bd9l7qvaihCWz9rREftZKCkRjQkeNvG1+xiRQyvZHaq21+LnhmjJGm/fpI8pwRGNKK2aKOuR54XUu/v6Bj5zmxjL3R12HDL74H6fx1jv2S7pnUocMsl78MOckjTR44orf8AUP2GSkczm/cnRzORzHL3KVHI08PUlFGNfKvbRQh7UMUfYxbvfyVt5EyQtnt52ftcTxs2LZbIkIn3TNUqnNe/pGPnl2b31mPnjaJr3RR+n8VQsbGJ+z9Q4v8A9EvPugdJhwwQ2srbr+Gs1+/pq5ZsSI+Fv+ofsSJ+f+p0iHLPDZF7PZe5bX7/AB7KLF2K2aK2RE87x3rZ7WL2pnVYccxRRRRQkfp3F3ci9ltOPJM1eHhOSKKKKKIo6THhghtQl7Ot4vUxDX5KKKKKMCuWNGnjwhFbIW36kj9DGiiiiijomLlmv2fqH7EiSKKKKKKKKKKKKKKKKKKEjoOO5tle199n7LK9qLLL9jRe3kv217EWXQvazlstnt1PpktTNOL6DlPgOU+A5T4DlPgGUXQcp0rSS0sal+Tz7Nb0jJlyOS+AZT4BlPgGU+AZT4BlF0LKqNPj4RUd6rattTj9WFHwHN2P8fynwDKfAMh/j2U/x/KaboeSE1Jr29U0j1MKj/j+U/x7Kf49lP8AHsp/j2U/x7KdJ6bLTOTlv1XSy1OPjF/p/Kf4/lP8eyn+P5T/AB7Kf4/lP8fyn+P5T/H8p8AynwDKfAMp8Ayn+P5T/H8p8Ayn+P5T/H8p8AynwDKdL0MtKnyT969lHjar9lDQ0Ise7EULsN7WWWXte1FVukWWeDz7EXst/JXtofsrdfwV73/A9l7/AB7b3vd717GL+Bfw1Wz7+6tvJRYlu96EPvtEYv4Hs980nFWl1abR8VmfFpnxWZ8VmfFZnxWZ8WmfFZnxSZ8WmaLXSzzacnSZl6zPHKaMXW5zcURdxRq+rywT4mHrkpSinHuka/qstNk4C67MxS5QTb31/UY6ZH+QTPj8zp/U46jsxM1/V1g+WPx+Z8fmaDXR1cbR1PXy0jPj8zpmrlqo8ntnzLDHlLJ1+V9vj8jSde5SSyJ8u6zS4wbH1+Zg63PLOMTU5HDG5D69NNmn61PLkhEk6jZPrs4to+PzPj8zS9c5SqcZqS7M1PUZ4ZuJ8WmfFpnxaZ8WmfF5nxeZ8XmfF5nxaZ8XmLqs5NEH2X8y2v2X7+QnvezOQ2I47pUIW1jI7J3uhGXwxKu38fSfuSMniRrfrymjf/JjMauMTqv3SLNBm9THZ1x/85i/Bp/trajqWs/bQsz6mWVtvHjlk8ZMU4ecWZwdrpet/cw79X6g8C4rJlc3Zjwzn4nGUPOl1csD5R0Oq/cQ5H6hZfzH6e+0tpy4Js6l1CeeTO8n2emyoUjpHUp36ctV9uRkfdnTvvQNb9mZm+qR0z7+En9BqfryCtn7fIJ0dJ6jJS9OR1H70v49NDlkihIY/fRQvZRXtfYSPBQ9qEtnsi907HtQtuI917HvLumZo1kl/H0r7kjJ9MjW/cyGi+5jMf0xOrfdIn6fzWuB1z75i/Bpvtrf9RfaQj9ORTcj9RJcUR8n6e+k/UX1Q26BBPGzr8ayQI+GdG+0fqE//R+nvsrbO/kZqPqkdP8AuxNXBemS8I6Z95Gq+3IyeWdO+9A1n2ZmbzI6b9/ETXyGp+vIaT64mWC9My/k6X95Hk6j96X8fTI8srJFeyrK28jWy28bvdboezK2YhsWzRQ+2y3Z5LL3W1lHgruIZrlWWX8fSfuSMn0yNb9zKaL7mMxfTE6t93bpGX083bry/wCazF+DS/bW/wCovtIR+m/MjrWjyalJQ+B6g6PpcmmVS/Uf1Y9v099tn6g+7Aj+To32j9RM/wD0fp77S21H0M1HmR0/7sTV/bJeEdL+8jVfbkZPLOnfegaz7MzN5kdN+/iJfQan68hpPriZZL0jL+TpkX6y26h96Rfuv2dFj5ey9i/hT3s8HIssvazzst62vvuyt29ltdj9lb/gW09JCfd/sMR8Pxn7DGfsMR+wxH7DEfD8R+wxH7DELp+MhpoYncZfTI133MpovuYzF9MTqv3RKyEnikmazV+uYvwab7a3/Uf20I/TfmQ9/wBR/Vj2/T/22fqH7kCPhnRvtH6hP/0fp77S2z/QzUeZHT/uxNV9ol4R0v7yNV9uRk8s6d96BrF/wzM3mR0z7+In9BqvryClR+7y0YMXrTUTQdOhpkntk0eOfdvRYyOhxs/YYhaDEfD8R+wxH7DEfsMZ+wxH7DEY8EcX073tRW63v22OZzPUPVojlOWyey7bIvaNexiEV7L2rZlUJHb2a7VS01V8WmfF5nxeZ8WmfFpnxeZ8XmfF5HxeR8YmaLXy1EmnP6ZGu+5lNF9zGYvpidW+6ab64nVtL6fBpmH8Gm+2t/1H9pCP035kdR1/7Puf5Gjp2v8A3fc/Uf1Q2/T322fqH7sCPhnRvtH6hP8A9H6e+0hGf6GajzI6f92JqvtEvCOl/eRqftyMnlnTfvQNb9iZm+qR0v8A8jCZPoNV9eQx4+bSH0LIo2Rbxs6V1ZyfpzNX1GWKbifFZHxSZ8WmfF5nxeZ8XmfFpnxaZ8XmfFpmF3G37V7/AB7GSkORKRdjZdHqkcrIzojP2IravYiyxi2S3sb9tbdXjcP4+kfckZPpka77mU0X3MZi+iB1f7ph+qJ1fDz01kjD+DS/bQ9v1F9tCP035kfqNfKhH6e+g/Uf1Q2/T/22fqH7sCP5Oj/aP1Cf/o/T32ltn+hmo8yOnfdiar7RLwjpf3kan7cjJ5Z0770DW/YmZvqkdL/8jCT+g1X15DR/XEy/aM35Ol/eW3UfvP8AixR5TiiK7L2yI/x5JE5f1zLInfaxSOQp+y/Y/ZXsoqi9uQ5iyWci9lt1SP8Awz/j6R9yRk+mRrvuZTRfcxmH6YnV/vGH6ojx88NGphxlJGH8Gl+2t/1H9tbdF10NM3y611GGpS4xP079J+o/qgM6R1OGng1Lq+rjqJxaj4Z0f7J+oR9pHR+pw0+Om+uYhZ1nwuSz/VI0mdY5pvP1nHOFDfY6X95Gp+3Iy+WaPKseSMnqes4p4nEyS5NnTPv4Sf0Gq+vIaP64mT7Rm/J0v70RHUvvy/i0MeWVHj+Fv22WSMszIxnOhqxSOdMun3bPqFl4+1D2e9bV7PBPIjLko/cnrf36jI5fwQmeqmchM1UbxTQ+zf8AF0f7kif0yNaryZTRxrJjMX0ROrL/AJjFHvEwr5Edbw8MxjjVGl+2trMuJZU0+o9KeBtrhRxs6f02WoZgwRwRUVq9JHVRaet0MsEqajRws6X0t53bx41jXFfqElDuKJXZnSl/wnVukX/yY/TooxaeU3S6Z0xadW6TOr9Iu8uN46ZRiwObpdM6UtMuUsn0s1EbnkNKvniZO2IyRuzpn3lt1L70v4ujxubfsXuva/YyRn7DGxo7jF3GMciOzK/hW1FbZGZZEp2jkKVikyMxTITsjMhMrl2Ph+I+H4T4fhPh2I+HYj4fhPh2I+HYT4dhPh+Ex6THidxfc+GYW2z4ZhEqJ9Owzdv4ZgFHiqM+jx5+8/heAjjUVS3nBTVP4ZgPhWAxYY4lUds2nhm7S+GYD4ZgMeNY1UTNpceb630zAfC8B8MwGLDHEqj5JdOwybZ8MwGHQ4sTuIzyS6dhfc+F4CGhxYncWPuj4bgPhuFDhao+F4CPTsMHaJ6LHN2/h2E+H4T4fiP2GI/YYj9hiP2GI+H4j9hiMWCOL6fevc92rJ4+RPDR6RxvZ9znWzKO6K2Yt6K2r2PZoymVnk7iOHIpLuLv3F28eCEzGxFeyvbX/oV/E/fX8FbL2NfyVZKBPHY8Q8A8J6J6dFM4EcW0ltX8uVE8ZxGq7HEo4is7sirIoiL/ALde5ex7IYvbYv8ApP2X/E/eyziUcD0x4D0iOElpxY/eltXvolCzJp7PRo9D+/SHjYsQoHpnEUCC/wCxX8z/AJmLdb+dn7fH8b7jFu92JbL2UPbiUUUUL21/AihxPTOBxHjFD8CxnAWMWMUf/UvZfx1/Olu/YvYls/Z49q9i/wCvRRRRX/ob/wDSVuve17F7GV7W92J/9Z+xP/t2WXu5DmKZy2v2WXtf/RS3of8AE9q9z9l7X/I/+m/+sv4L35CkcjkZMpLMKZHKLKeochMsssTEX7n/AAr+Kt696H/DRX/Qf8r/AIL3va/4LLL2sss9U9QsssyToWTueuPOepyJsTtngWSiOSyMxSLLLF77/jX872Xsv20VvQ1st63re/8ApXtZZZZftve97LLG6JSPWoWc9Y9YyZj1T1iOc9ceYlksl3LZZ9KGJnqdxkZUeoQmeochSELey9rL2v8A6q/nr+C/+ne9jY2XtZZe1l7Nll7WJlnIs5DJzJZaFlPUHI5M8bOYnY2ciy6Jdz6T8lknW0ZHMjNnqURyEZkZF7WMs5FlnIT/APR1/wB2yxyHM5FllnI5HI5FnIcjkWNiZZyHM5nM9azLlOVikcq2Q5Hfa+xaHtSLv2XSF2Qu7GhMkxOiMyMyLORzHkHM9UWUWQTExMssva9r3v8A9BXsrexP+VslMnkPUI5BSs5jyjyWKRyOZzPVHkPUIyOQ2cjmOQ8tHqE5khFWNCFI87Uc6G7FRfYQpdycjmchzsfdChQ5UUcd4zI5R5T1CUz1LORzISI5CMhbWWctrLLL2v8A7tfw2X/Cy9myTMkzmTmPIyGeh6iyWcWchMUhzHlPW/A8op1QmciWSh5x5h5iWQ9Q5WWSZGRysZdCdnnZJldyi2eDyNf2o0OQmcqGxtCZJs5Cle1jkLIKZKVHIRYpkZEZFllllllnI5Fllll/+jx6iyM7OQpHIsv3WNnIySHIbHIbIzJys5EJFjJ9i9sWQ5kpmozDzHqnM5C7ljvaLIidis8EUKA8Q8Zxo9PkKKKonjHAY9uQmJ0XtEjLkUMXkchu9uVEZ7QyURyiyiY2WWcixyOWykchMs5F/wDocWVox5iGSzkcxMUhTORyHI5nMkycyeQeQciT2cqJSFIxEUWTmNiZCRGRkyGd2WWLdDGQ8nja6IrkKAit0KKJf6aHEyYxokLwNjZEsgxPiS8l0PZM5UdyKHt6lHqEctoWQuxS7HJinRzss9Q5jmczmJikJif/AFn/AAw0YsBFVvZyOQ5UczmOZyLsyQsliJ42cmWxyLPO2JUY2NGRDOW0GZEZShi3UiMjyKIq2oxsi1tQ+xJikRls1+RkyTGJ7f6GhFnKy+4+5Ie3ciJlndDe2KQmIih9hvkKe3M9Q5nMUhSFIUhS/wCvRX8NbIrbzsx7XvJWSx2ZNMSxUSRe1mNmLvtm7EneyESM0CW63iyLGyLobObFMhJFkspKXYl3IsjIs5V2HOyTMh5Fs3Q5FnIiyyMxsfcS7jExEWWVYzGRkYxsskM5f3zJTsU7OZCQpiZzITIv3v8A7VngsvfsNUPsRZZdCd7NGXEmS0xlwUKJIwyMbvwZe5OBRBkBxszRslGiixdtkULayPdbIUaMWShyJyZzLISPUpEs5LL2FkJPa6LGN7N0KViGUSjRwONbPsYxpH/wiQF2EWSf5HkZY/7LsuiMyGQUjnQpGORFi9z/AJb/AI2xuizyfjfyeBj7Clt5L3fc4IyYrMuOibMcjDtPuTe0ZUY5F2SVmZHI5Ee5QtmxofYg6GxreWSiWQvuchTo9Sx5LJSG9olbcTh+d+P5IzvZiFEkeDyyyMjwWJnMcxS7Epj8ElZMs8IQmWY2Nl0YzGxf9CzkczmJ7X738pdkmJll73W1bOJQkURW/EeOzLhs1GCjF2MLtbTMo2czGJdhmVFdyRFiOQpCHZe3+t/UJM5CezYpCPI47cSKEdiXYTKsTOJdCEeCXcmNikJ0WOZy3ix+DwORPuKJLaO2MeyyGDKRkL+eczkXtF/wuViPOyPCF7WWeSKGJDWyE7Ks1On5EsPFmLbJ2Mj3xkZ9tpjiUeDlsiIxiZF7ZDkPIWJ7osrau5QxFDLOQpUKZZGZGRFv8jRNbJnI7bWRGxs87J2Wh0SWy7ke21nIhPiYspHIchP+RkkcStlIUiyy973fse1UPbyISKG9l2H3GiK2Q4mpw2L5XRHwZY2iUShkUQLMg4khvZbLZlESiRJDRQiPfatkL2JllDQyJxciOCQtKzDpmftRac/bJktHZLRn7ZxHBoodbefHEiI7FbvZHgv2Rm0YtT+COQjL2WX72SYmN0SkeoRzCyHMUi/YzkJ7KZysss87tiG9kcaFsmXWykOmZcQjKxrdIh5PBkJMbHskIi9uIyDGSRJFDEQGtpLazkchKzgOJ4HFshpHIhoGYtKkeijjtfsaJ41InpzJpSUOJViVeN5Fqh7Xs2LuchMRe3PiQzMwTsRYxsT9850T1FGLJy2mZJ0z1COdn7khqiGbkJ3u9olktqEqLoR5Il+xsixC7bXtZkJ9iRJie8NpGR3tLZOjkJke5e0XRGVnElEaJRE6OR5PBJb1W2IxQsWn5EdLZHTo9NLbmJljlZYnt5FIZ5HEy4OR6DgLsS2UxlE9nHayJMRGZyFIs4mn7ITEOQ5kRbWNjlRk1SRl1Vkpmnz0QnZLwZn3ExSORzMWejDl5C2iq2T2lIUivyX3JSFL2JjHszlu2WWNciaJIyOhPayG0tmPayyAu2znshMZJ0LuTgJCZyvetnjMeNo0+PsRgLZjkWXt4H3EcjvtyIv+vO2THZlw0MboTsqyRLZk0Jll+xCoi7MTIyFMnMj3I+yTNVnoyZTyWY2YZk5meJypkZFll0YNTxMWeyyhsRW6VlDorsKI949yQu4xra91E8EyRnQhMkyExTtEl2KGWMeyE9r2j3IwGZI2LsSOW0WX2OQyETHhsx6ZFVs5F7WN0WJnnZjLFtHsMXbaUeRnwf1JUQW0tqrZre72oUbRVbYnboh2OZ6h9RCIl7M0uxqHbJC2XYxzo9SzJMkLZolth1DiY9Ta2os/+plWQiTGeNkRLPByIH1C3raxlmdElZRRJiZCRyJ+yhkReyAmUSgOBJdjiPsRZZAXk0+FyFGhdjkORd7MYyrGVWy8Hko4lbIe7VmpxUyiPgfZGR9uzZyLJM5MSMaFhsWCmTwnolcD1u4swshidie7GzUZDI9lIoj32jMfcaEY5bSgSxlEX2L2rblRAcjJMiedlYmUNnEfbxGQ5Cfs8754mXtvJbQ2kTkJ+xIWzGRMb7nkkiRKJRKOyQjTYebMePgjkSslKhqxMui7ELuLZiZ4Gtk7GcRdihD2z4+SJ/KR8Eq8DRW0olDIK0YInNLbsUPHZLETx0IxNojkFIslIczVOxj7lM7l0WQkWMvuR7EJCGhoSGRYxvfycSqEtmiihn4G2N0zyIjtYmMoy+DOt2WQZHuNEo7UPaOyJiIkCCLGhkvBROJxMeO2abDxWzHIavZlkVv+BFiKvaxH52sR4FtRqsXcXY42SJiYhkTGhS4sWZRIZuRaIPaiaFjEjlR6x6xLMTzk5nLaGI9ElgOFCiR7EmNEUR7EWJDhRRDbyUcSKOOyVlDG628+ziJURFvQpfgsn4Mi7FCZJEjEyPYkZI7WWXsiPckcBCMchD7E2RY0OIofg02Cu4vA9vI573ZFjRVljKKo87R3l8w9rPItpw5E8NDjRNjOQ5HIi+5HwN2KNmHHRXYXYci3tyoocSfYc2jlZRkRZGfci+whwseKxwOJQ2JkWQPxtGHYou9oq2I8exFCRJbVskN7KW9DQ9pqjN4L2Y1ZBUQ7nHkTjQ+xe6YnsnY4kOwiPYT2yKyKGRVmDCQjxRY5fgkXRLL3OQxIaIMl2KEqIqntVbVRezEvySZYhiYmMljM2InEkybOYmKfYirMWE4lkpnqHqEMln1HL8FmTuT7GOV9jiZUSkRmQzkMp6yQ8w81imTmMixdxMgxMW0UULb87ULt7HuhbctvwLaQkJ7ag/OzVlbQ7FmRmQoW8dlQzwJiZBbZeyIujnZpbkY4cUNlnJWSmiU0OQpCd7eSjydhULdbXvElsiTJbSW04WZ8ZkjRIoXggzFBEeyJMbOe8flLEKkSZlRifE9QyTJlkZ0eqetQ8p6p6opCKoUqIiId9uJx9qW1CJC7bsijxtRQ/YyxszkuzFvREoyInvZQtkrJi7ixHBkIMpkomTGRhZpY0tskhzpEp2OVE8g2RZAVi7nOheRdz6dkhqtm9mIW3ne9n32kjJEzY+5KJwsUaIIxoZlkKVjORyGXYu234MncydjmSnZJj25F7IoQmLucSMSESqEjyeBx2RxOBRQhxOOy247PbsVY0MskyyzP4JkGWM8kRbSQyvZFH0n1EMBhwHoo9Ejj7ksFmXTkcBj7GSXyjymTLZLIepe0ULZuxdkRQmJ0eShIs8lbVZRW3jZ/nZeyRlxp9zLiogh4z6TBKycyc725EZCle/KzkciZMkxyGy/YiEbI6eyeChqiDFIgzG96GUKIls2jmjkmeoh6iJLWRR+/iPXofUEfET4ij4iLqBj1qIahMi7GhocTiLzRmiZ1REvZCZAmTH52W6KswJGCAo0NFFFHAaJOieYnIciREbog7IjIo7oizwN2yO3gqyhH9+zzvxOO97eTIZ0YICxGbD3I/KSnZJiPBBC2bOaORzLMjJDQ0cSt0acxIyYzNCi6IyIZCGQTInY5IlliiepSHrkPqJLqA9ez9/Q9cx6qQ8zZ6jPUZzORyORzI5mYtVRg1RDLZyJHA8jRqsR49lie04ktlvEUSK4owvZMssctmZTLkJ52OTe1n5FI5bKR5EfkSPAhrfkeC9l7o7eBlDRnfGzT5+9GN2jUR7HE4jxMhE4EYWKFCjZHGTgcT07J/KTe0cVnojwHoslio4EMZijRimORqO5JFlmBkO4pGTXIn1AnrWyWobPUOXso4lHEor3wytGHVmHVWJ2IkXRmhZlhR4Ey9oEWZGTE9r2i0QkKRjmKZzOQpbchs1MhjiWXs4l0LuR7nEs8ngvZb/7LHsl7L2oaOI1s2SMuOya4SNHK4k48h4qJQpklZxSYhLsU/wAxdCfca/J6ZVGSBmFIhlog0yMR4x6eyWmI4UiVI5kchkZMYjChM9Sjm96OJxFjI4T0RYBYD0T9uftyWEeMcfdGVGDOafU2KV7fkmrM+EktqGRkRdku5OJW0doEZURkc6HqCOpZHUkchyPJ+DO7I9zLQ1ZxIIcGemJUJWiuI0RR5IqvJ5K2RQ0V7F3FvRRQ+xzJE49jWLuaCY32H3M+aMex+7P3AtX2FqqI6uyWqQtUmPVohq0QzRkTNVDZSME6OVnI8CnFmXIkTynqGOW1E1RExSLHMo4npixHoCwEcRHGcEJIokhI4k8Y4EoEkP2p0afUUYNRyIssslj5GowHptDRQiD2ybVtRHsWc6HlsssiRzCzEc1mWXYyuyMqGIsxOiORSJiIs5WWIghlC2ra/ckVtY8qHqoojqIyH3JdmWWa+Bo8lMj3Q0dQdM5FnI5ikzkc2cz1GQ1DRh1TkjL8yJwKMbITPVJ5iWYllZzLISISGZCLMZKXYlPuURxkMQsRwHjOG0nRzI5KZyFtMmhonElH3Jmm1FGDUWQ77fglDkSwIy4KMia2gxMnGxxEijxtY9owHFiZzFmoxahCyciSUvHoE00RW0vBCdHKyPcXYiKJwoW9fw2eokZNdBGTqqRk6q34lr5MepkY9XKJoupcvq7ZFZlbiYspr/BilUjSztGT8muVs4iicRQMeHkS0rP29Cx0TgVRilRCY+7JIoUqOZJ7cRxEhIgSkTYiG2RdxGJEYlHAcCSosySHI5kchiyCkSZLuKBPEZIDXuTMGoo02psU7PxtRKNmpwjXcgIkTGcqORzOZzMfcWPsSJEjkY8hHOY3ZJ8TJNMW/ARjRwFjMaH39ie1bMseZRMmtH1El1EyayUiWVsb9sJuJ07Xfh54coilxZqFygT7SOn5n4JrkjU6aycKYkcCMDT4z0h4uQ8KMuInjFAgWMYy9lE4jFEUSEBxJoiQiSGRITI5CJASsyoy9iUhlHgjkI5xSchITOJlxk4DXuTMOfiabU2Y5HnbiZYcjJp7Zx4EJWcuxkJ+yyzDOhZWJ8j07JYGftbHgaI4z1OBm1NkJ2IaKKEhfhEYChRxOO3HbwOQ9RGJPqEUPqRPqVmTVyY8jZxshhP248FE4DXtw5eDTNHqlmjTz6b8pRuBqoUzQT4yE7RlVmbENUIgYs1F7OJmgTIxONHEjGxYrJ4KOBHayxKyMDjRkJsgiJPdSIzowzMHcoyonislpR6YhpGzLpaJY2jDhcjBpKRkwEcQsRLCajEZI0Ne6zFn4mm1iIZ0xzPI0OJnh2IOntKBKJ6R6ROND2xREiCMcD0hYkPAiemo1EaJswqyOL5RwZCNixmHCft/yRicRHIeaKHq4o/fpGTqv9ZOpNk9XKRzbO+6FFMxQFiJYieEyxr2KNnoswZnhZj6lfnHqFI6hitdsb4yNLPlFGTyagkhMbI5CObsQnZZqGTZA8lmJW9pE4obLEUYxKu55MsibMYpEpbLDZLHW2I0uziLEPEftkemkZcNktL3NLpOJxQ0emcRxMuKzNiJxH71OjFrHExdR/uOus/cl8jILyKQ1ZDDYsKPRNThokiKNPE4nDujExngRKFnUI0TNJHuV2GrMcCGCiMKHKKJamMTJr0iXUx9TZk1zY9RIeRvZxFA4FD2hFs7xMeWjDks9My4rNVCtqOJo8FjwI1OCi6NBLnV58dxM8OEjpuS0TiavsSZyGRMMqI5KP3BmyWMgXRyMeWiOUeUlKyZZBiRiXcRJqjKrJIgciTLIQUTUQHExo0sSjiJFUORyH3IRE9uIkUNGSJnxGbETX8PIjmaP3LMWqkTzciBExkUUhxNTitGXERgadDRZjFPa6GdRkM0USczGrMeOjJnWNGfqlGTqTZLVNjyWWXshED0rI6YeAlhZHTHodzR6XkZdDGh6KjT4qFA9M6hioZCFmPTGnxce4lZlxWZsPc0HaR+DqEUdMn3H3Rr5fgbIs8kYkUSOQo8iUaEdxiITo5CXcli7EoUJkZCmLP2FkskyaKoe84E+40YIWYY0NCjs+5KI4igJHEreholEzI1BkX8aNPCxraJiEhMllRkzIm7FEuh5RZjFksx9xCJHUXZRpY9irZgx0anUekjU6x5ByvaihROIsVjx1tjNNj5i09HoWZNLR6QsCMEOJ5JYxQooo6muxGHIw6VmPCN0erbOVmoMEqkYO8TqGO0aOfGRDujqmP8khMixTPVVDmRTZjxmaNEY2RxGTDRKFEVtg8nBM1GKiSLFtyJSORY93GyUBxMCMQlutmjjYi9qK2uttQZo2ZY70UcB+3Dj5MwabijPGmQxuRDD4OHE9aiesoyaux5jHOzHEljJISNPERE5WJmrxcyOnMceJDHZOfpo12q5vdFCgY8SFprZ6XFE4EoGPszQdyJRIyQshEihFezqjNDh5s9Kh/KaqdCYp9jUZLE6NDk5wNTB8T7czRz5I1uPlEyqmJbWRZCFmLCSVIzeSCIMmkSxjgJGGolWZUzJiIxEtkicR+1vsOJNGm7GIWzW3EaENFbLexmcyIzxJbJHEfgfsjCzQ6Tj3ZqIdzBEiZslGbUWSyDltjnRh1HY9VMySEY5kZDlRCVCZP5h9iPzMxRo6jm49lN294ojjFpzHjoXYkrJRJROPzGgVbMSHjOFD7EXstrNdDmzQ4eG2olxMru7gQj2M0dum5DKuS7azFTOm5HRlXKBqoVJiVkcZ6BDCafD/bVGbKeRQJS4nqplj7Dl3IzIT7HEzY7Jxo8bIlMfsoUSfYl3MRi8CF7b2e0d2SdE7JvsaqJJCjZHHW0x7xhZo9KR+UszHrUPV0ZtTZKd+2M6I5RzOZjzkNQRyuRiRdmSVFtmGJkycEa3NylujFGzHiIYuw8RwHEcTJExr5jSIQ/Y47LdmVWyEKRRqIJmo7Mg+5h7oyYT0TTR4MxOzU6bmafH6bo/B1DH3KoxEMfI9GhLsZcvEyZeTMC5DgkZdqFFjEzDlITskr7mTDzRlx8RiZY/bROBKBggY1Qt17LLPI1vIkyZI1I1bNF0++71lRdJktlE4GBGnY2I1cTJkpjynL2vaO9kDCQ7DpGeds08fyR7Gv1NdicuT3RgMHcg+JPuKJKAzMzBHuaeAhjLLG9m6FIUy7MroxZ7HI1MjL81kcZgZ2ZPANUafKVZKNGJ2azGTjVmORgzollMupoy57FLuaOjIZfO1lsmjieDHkZiyWiPc1EScaEiSH7XAmNdzBA8bIa9j2rd9x9iRQzhZq4UafT+pMyVhxmWfKT2kIxoyGNmnmRd7Z42mZ1T917x3iiEDAiqJ5exO5Mhl4Iza0zZXN+xGIxzox5BMW2dkrZgMTFtJE+xz7ikWZO45nIgaowRJI1TPyemL5GQmibJKzBOmQ7omjCZ8do1Kps5GOY8hknYxMxZaPXsffaMiMiTJMbIsxZKMeQVSNTjKGMo4iiLGXRMkjFMUhCGz1D1BSvZFjQiix7PbWxNBp/ydVfGGzHEQmNkWYZGJ0hO0T7o1mKn/Ct8cTHAT4lkmNEjOt6K2gzHIjKmRlZB2XRlGjDRhkKRyHNEo8jJaMeUi7KslEgI1Jpyb7GqffthXfuonp2NcTk5bXxZpZpomhDVo6hHiyhOjkUNFCIyI9ytrobskNliZimY8hlVko7UKB6ZwPA2TROVD1PFi1pi11i1KMmqFlcjHZFFbIe9bWN7Zo85UYMfGJ1fJe2PE2ZYV7cLMLEiuxrcQ4lFbUVskUURRiRhhxXfJI9bseqeqOZmGhRIYbMmChoiR7EXZjmRmc7JyJtjzOJi1ph1SkPIQTYjNCxw4sxSESicK21FoxZRT5GXTcj0OJESMmLkelxJonE0L7HnfqcN62o4npigR7e2bJMjIRiZhnRknZI8lEOxFIlLZkvBlMqO6I5GY8rMWN5COnIQoWz903vKPYzSqaJavjAzyedmHRuR6Cxo1SJ7oxM0xHbNj5D03cnpKJ4KOJW8EM8kMVmPFRKXYyZSeQUxzLJSsjjshhMeAz6fsZMXc48SLEQYhEVZ6doz4BY2Y3KJp5ciEaFtkx8hY6Ij31aF2MTPJJHFQId+5RKJlgZDRS4kJWSRF9jXYOSMkOIh7URicDjs9ltMYkQxyqyL4ikTzDlYjiMU9myyXcyYzLgJYjiYYmnQu4v4LvatpLsax8T1nPsYMVCoySsyqzKtuO0GYslGHNYmSKOBm06aMuOiWyRCFjgRxmONDlRKQ5EiO81RhZjiRJvsLGmZsColHizHsuxEiz1UTqRHAftTFg4kUMctkitqG6MndGbHx7mOVEM3ITOBGA4kl2JqyWLkRxemYWJCRONmvx8ZbMrbGXRJ2JjGtmySI4+RpNCvL9JGo0vEl2GRiRPwTLLGiTE9sqHjPSIYTEqEr9j28bNj7b0ZeyNXLkzS4G2N8ET1FEM5N2ZURgY8FmbFxEY2YJ0Qe0zkVZqo0ZNsMLMOAlj7lUSmKVkkSWyQkSxMeFmHHRB0epRLUCdkjPEhIiISJuiGQizDOJHJElNE9SkPWizkJWLZEpUSdKyOXkTx80PE4CtMwPkiqEu9kiRwsaSNTmSNPqeTIS36ljGIraBL2XuzSruRl2EzVTuyXfaIp0eoZHtHaasUP7c0iXzHEx4RY6Ii3eyGLZ7UKJrcnY8s0WCka6HYmxTITHjsjiMUTUwsmqZBikYGRsn3KEjVruZCMTDjFOiU7HIZiZwHiJQFCzDpv79EyYqEWSkzl3MbGzINUxSEIm9pZqFqJGPVSP3EmLHOZi0TIaSjhXbdsXc1NpMWRqRgycyWPkT0hiXEnkI9yt5zSRq8vc0mT5jB3WzRrsbmjJjoUBxFEhFk0NEUUcSjiSgYOxDuZMigZs92cjkciL2skI4jkPwOIpmJWIuhFnOj1SWU9YjOyt2cSq26hkNMubMEaia5djJ5OBi7EIWQjQkahGVdxEFZhMY0NUiPg1MbMke5hxWceJOW7ZFmKN7PHyI4xKhypmbJYsgpWZHRdkZUPJ2E7ZOJEjIXcZijzP2SYunEOnJENGkRwpHHZrZo8kTWP5TJI0eWiM7GxmRmnfYyz4o9Vkspm1Nmb5maHFbMH9beTJAnhTJYKJxIxvbKyyDGtrEUJdxT4mbNve1lnIbMb2sbMs0epRDVUQ15+/RPqB8TMnUrP30mLNORhhKXmEBN71tRnlxiarLzkzpmHwxKjqDpEu8jFg5GTFwMRHxtkRqIUIgzAjG6I90Zojz8exlz2L5jAqRlkMZdDmQkYJWOVHqUY8xPOjJkZKYiPYn3PyWWOVEHZkiRZFl9jHLiY9QiOpiLKmeqhZUPUWLJY3YkMsijqGSlQ5GDJTME+2zZ5Yp0TmNGRWjJjOFGCfAw6xMhqUxOxqycCUES0x+3SM2LiiY2QmKRLdIUScyci9rJbWWMgyxTsnMyE0z5mfMKMhYZsjpZMh09yMPTaIaRIjCiiTEy/Z1TUcVRjXORoMPCKGa+PylfMaSHymXFYsIihmqgOJjRiF2IGVGplTZbZhx2LHSM7o5DY2eSEDAqMkhzI5TlZKQyAiaZHC2Q0zMuLiZjFkJfMhqiMxPZzPWcT95I/eyYs85GPkzHCtrolKyDscuKNfltnIxs0z7CRkIsyZKR61HrnqWNk3Rys5uBj1TiafXp+VmTMmSj1z1FIsz9zJjJwPBHIcxS29Sh5hzJP2vazyY0UJjXI9InpbRHSkNEQ0aI6ZIWFCxlbXW0hF7UZp8Ea3L6kjpuntiXE8mrj8o/rNL9KJ4xRJQ7j7PbPDsOJRgbORBko2dRjUmY/JpsfYyukZZFl7YsbkYdPXl9jPIbsTosfcjisxaNkdCPRGPSEoxgjV5f6mJ0QnZLaDEj0j9tZDRGLQmPSo9NFCZkyHMxqu5rNTxJz5s9MXZmjGx9xxMkOxl8liyCZk7oXYnITFko0+rYnzGqLoxy7FGWBkxk47chTFkMkyy9q96ZjZEjOyApHqKhTFkSIZD1EcyMrMuTiLJZyss87o+lHUtX+DDjeSRpNP6SGI1X0Mr5zSR7EhGVE+x6iMsuxkfcxLkzFpexLT0RVFHUsV9yKpmLNxRlz2XY9oRMfyEtST1FkslnkhjFiZHTtmLAkY6R6p6x69Gr1ZGXJmbaMqORYmY8hFmNohRyE0j1ETyJEs1kO5GNGbUUjU5+TNJj5sno1xJx4yNGSdbWS7oy+SytuRP2Yp8WQz0R1CPUTISowy5GTEZMdGUnumN+y/at8bEQnQsosp6p6tHqkNQ0fumQ1pHVsTlNkYlCGLajWZ/TROTyyOnaLj3db6yVRIK5mDwMQ0aiN7TzE2aDHZBUholEiahcoMzY+LOY5nIsRiiTJzHKyGNyMGivz+3SEkiU6P3B+6JZxZCeYy5OTMXYybpi7lCkLIQz0LVULWn74Wrsnn5GKHIhGjLLijVZxfMaDE+w64mrj85pXWzLPwZ40ziVQu5RJHpWftyWAcSLFJimz1mjRT7ke5lxJmtwtEixsRXsey2Yt8YmcqFI5kY2ekegLS2Q0di0qI6ZIjChISK2W2XLxTNbqXlkdO0vN94Q4rZDNfPsYPqMEuwyPfaUTVxok+5zNHqeLMOVSR5JREycexm0tktKyemkh4ziQgY+y7ZDgRxWafCo9360UT1SJ6myeaxSsss9Qy5Nokh7xZysrblRzORZjsw4jFholLia3Uk5WabHbNPiUYo8mtxq7MHcfg8ngT7GpLFCxxrZ9jCkzj3JxoyQMeCzgRgZIUaNkO3cj37mowqaNXhcWUcSGMcBwr3sW+PayLIRMMBYz0iOKiMDjtx3RyLMmTia/VuXaOlwPKzTYPT9vUpGnVswdtkUNGrgZ1TGRlRpNa4+cOsTNRrF4MGazlYkh4UZMFnw8n04+HGTT+mjI++10PVPwfuGeqepsu29mQiLsP22KQtlE9MxaezFp6I4kh9jVaqjLl5EVbOn6T8lUTlxNZns0uyQz8GdkIEUTjZLbFPbK+xXIxrsSETRpvJjZFlmo0iyHw12PR0jhxJuyXYey3Y/Yu28GYmYmmY9oi2Utls2Nk8iia3V34w4ZZX30mmWNe1s177mmxEF7KNTC0amPcktosxZKHNmHJRHP2IZj1SOQ5XtRrZEoWxQJQJYxxraOyQ9vBMju9sOLkS05KNbJiYmY2jHOKI5UeqjVayjJl5baLDzkjHHgqP9GrXYyy+Y0dHOixRGuxqXTMUy9qJIXYhIk+SIIikSiUZDD5FMxzOQpWV3MkVRqexyJS9z9iRxGUIhMxZKIZiGWzkWSmcrISOVDkiUzPno1GrbMWB5WYdN6ZB72IydjUy5SNJDscUIezZkNVi7seEnioSIRokzEznQszRHMLUC1YtULMarJ3FIg0SimPDaJ6c/bnoHpM4jRRIZHdohCzT46Gien5E8HE4sWykLM0LOfumSyctsUORoNLx77UdRzUhu2aI49jGyMvwSRrIUzFI/BZQ4lHgcexyoWTsLN3ORmZpe5Zyo9WyOS/DnRGVo1Om5mbFwH7nshLa6OZLaJGZHKYsxDOLMTyWetRHUC1CJ6tE9YZtTyMWDmYMXESsjH2WaqdIcrkaWXYv2y8GWFnA1ETiUSIHIbFIchyPUojnJ5LOQ8tH7kxaqiGdSEosWJDwmTAoolHyNmR7IrZmGVCyEO5HGielsnpT9gS6cS0/FktMPHQ99Di5MxQ4oZKfFHUMvJke7NIqQzwRnTJf2Z+5L5WYn2GU9pqiJPwPsRkWR7GVmDZdxHdCkyOR2R7mq0qmZ8XDatns9oROIxvaUPYpCyEdRRHVEtSS1J+4P3THqBNyMOEwYyEKFtY2XtrsnY5dzp/gr2zZldDZqZkBwJ46Yhlll0eoWIkxjRxEKdENRRp9SetZqMpysnEybR2veM6MeoaMerFrYsnqEYtShZEzNOBm1C/EshJiZHuzp+Gh9kJGvlUTNKzEjSrsMbLF4MkTPjdmLuUeCjIjwPIPuLZMmYyMkQotN7PZZH+I/MazTmTHWzez2ijHj/uWMkjicDIiW17WWchyOW6iYoGPsYuwpWLuXQnszJ2RrZWi+506e1bPZmVWTdGdmPyJGo8i2l2LL25FnkjA9IemsenocDwQyULUE52YMLkftbRqNE0PFQkPeyzmeqesz12LMLVtE9Q2cmxRJx2weTRPsOVlnUtRY3ZgXc077Hgu97MyshKhEu4ixxJkdo9xqkSZhVlMhNkWQ7nAkuxHwQlRqIpo1G9DiKFmPCQSXnKxs5FmSJNVvfseyOIkQIkJnqCyClYmLbM6TNTIZoM1MhO9/AybMsibMyMQjPtZZZe1nIxsgRF2HCzJpyeE9IjAxabkYdOoopGaHJGo01EobUMY969iIxOKMkCOIwaZGKHA5GolUTUNu9sPkwdkZDyJFUh9mTVonHiyErIlnIfgyEEcLFEfgkYHQo8kTwURQjz2PwXZFmedI1HkSFjOAoEYkaUTKyctnszItq96ExCIyImLZTohtKfEzZexqZ7YZ8WaLJyRe7JGZE5GdmIh4MyH2L9l7WYmQZEjbIyH8xwPTHCjTI5FiJ47NVg4smq3o42OJQkUUJFCRFDiSnRpslnIUv7fzoyaC+5n0biYsbTMPZHIsRfYm+5BdjVEGLwNkuxzoyF0RZXcmS8kDFMg+ZxPAnQnZNCX9Z49jOu5BbSYmYieSiUyTGy9qMiOI0P20LaItoyMbMfg4EFtk7mpnxMs7EROm5CMr9kjKZjJ5MRAyExDPJW9GMiWcqRCYpHEom+Rp327xlReyNThTRmx0PeOzXtSFExxMkSZppUKfY5Ec1MgyWJSJ6FLuceOzI9yfglIx90Z42iPZiyC7k2In32jOhyJutk6ISMWUeQ5CIkoikTXJGowUPsczlZZHJ2JyGx+yHdFEoFE1uiKHEoSEIuyMexjiYx+TkTZkyUavLfs0c6Zhla3sZqEZm7JOzEhGTsifsoYjiLsJ7wL/qMuJkmY38xFLaMrIFk1aM2nszQ47rZoRQonCiMRsU6J5RuzHPiRzchMbNPl/vHO9pxOJIsyZKLMEzIrRl8kChngkxdyhGSW0nQspHMLPZDKQnZ4E7JypmOdrvmxKSNTh4sfkjtxJMezRRRidbVY4k4jWyIHA4CVEfIhRII4iRW0pmpkZXyOJW2J0aDJyWzFLbUWah99saImUns3u0KIolbJ7RIIomY4kXZ42WQjMu0SiarBZPHW6JISFH2SZEntEixTLF2MWUU67jnyIIliTPRM2IeJmH5WN2amPcTOQ2cGycaI7RRMj3HjJosUjHkIZ6I57Fmo52RnRiy2ajAsiM2PiRIrabPJQxI4mLvtdEpk5j2RjIRscRxF2McSiJGRF0WSlRkk0Z8mzZZe2gzcSEr2s7mZtGd9z8mOVEDKPzs/ZXfaO17eBeCMjJIxsiJDdIUyFkWUZoNpmTGZI7JEto7IlI5EEcbJIjE9OhGMTsxyL7EZWxdhMRKNksHIyYOIuxq4idMTMOJzZh0KSNZ09VZKPESKMhAfgmt0yMiMxSI9yMBPiyErRrl8whMlMfcSGMRZgZyMmUc/bCRjfYcb2cRHIjIUiLIdyeQzZjNMvaxMsx5OLNFl5CEhmsfZmaXcXcgiJMyeRDV7UPeiihbQG6JOxMQhlcTHMREmZMdmfDRJUJliFtIYu4iqMpgkZJikRkIgqHkaRD+yM7IOyUqOXIXYmrHi7mfDaMmCiKOmwvbOrRqfqYtsjMRXYlElHdMjIjMxsxz2ijXRZ4ExsUSiXbZFmKVE8w3e97xMUiI4ix2OFFM4EDwiEibM8yTv3R8nTZCH3KNf8sWZO7MUSCIyGZPO79lCey7iQmWZJF2yKLIsuxmPsRkLuSW2pjZmx7rZkpDMMStspiOIoEYmNDkK5Mj2ExeNvBzI9xoqzNpVMyaWvGjfDsQkazMoRM2S2WQZmMTIEsZPGOA1tYpkZmLIQdsgamClEz4+L2jsyUtrG/ZftRiMbInA4E40SMeyM86RklbEcTiPdHT33ILtszqPgyeTEQVkUT8E0IXuW1D2syGMixbREi6ZGRF7T7DjyM+EnCixPa72xqyMaK7nAzYzF5MWNSR+0P29DlwHcjHDiTMaOZyLGY3siQoksP5JTcTV5JTGtomUizDkRCVmTGTwk4DjRW3IhMwZjDmIvkjW6Pl3U4OJEY93u90jjvGIo0RkQdmFnAyQJqjwIbo1WU8iWze1D26dEXZb9T+kl5MZEiPuZBex7ULdMZZKRFkdoeBSMbGhHKkQlZMRNckZ4cRiLGJWYoD2xmSCkZlxZo9XxMM+aHEz4/mIQJMXcSolIjs2RyEJ7pjJpSHp+Rq9LxPAjI9oSoxZ6FlskSxGXCOJW1mPJRDUNGk1f92pI1el/JOPE5DkWJj2Y91syGKxY6KL7mCRgkQ7maJKBIhE1EqRmle7GIQxHTezI9ytuqS7H5IRH2IyEZMZx9jEWJ7JiPBY2RIjkczGrRjVCltGRjezGZ8PIzYqPGzMMR9iyyOSj1jO7IOjR6riLMpGTuVRRFUyiSI+ReSZ+TExsiWSmOZCRq4riZ/JFmQRRdGLIY8gu5PDyMmGiUBxKEczHlo02pH8xrNJ5qcOI3vRx9sdseIUTyPa6NLkMeQqzPGifYUjUzJ72PahoSNE6ZjfbZHVmR8kSTMTESJe1ROB4EMUjzsyAplkDCJjZxtESBEkicRGrxE40URiQVEhs5nMRkMeKxY3ExzaFmPUiWiWajFk5Iqxw/ricSUO5GzkyOSj1RyHksjkNXn+QyytkUZBMiyhdiE6MeYhOxxsngMmmJYhxKEYstGDWf3CSma7Sk4UJFFbISEVtiQtn2HMZZiycTT57IZDOyYjVy9ktltYjSy7mnlyW/VmQ8ljREh4JR7E/ai7GRZITLJbIjtBESJF7SZjdkdpxHEy4+SNRjGYo7SHsvBCRNmEiyUbRmk4D1DQ9W2h6lkNW0YdeYtVEjkTF3MsSToc7RdCY5iZJ0Z8o33ImTZMgytoSMeSiGY5KRKNmbFR6JLCcDwQyGnzjayI1GmJQr2L2IhuzhZxPTKowzohkHksmxz7GaVsrd7uW1mKXc0L7LaXY6qYihsiY+4zML2WIookhiJPaB4ICEyP9EFRKW0GRPA3ZmZCdmTHyJ4fmEhs5j2s8C7sw4/lRJGKdmoiPEeiSwHpHos5SgQ1jRg6ivBLOmTOYpDkTmY5mfIqMsxCRk3UqFLZCdEZkMpDKTSkLGZMRPTksZwIswzZH5zVQofYssW62shkFK93tIgzHkPUOVmpnxPO7GIfsw+TQfStmdURj2kQ7mKO2eHf2VyMeglIloJQRLsQGSExi3j2PO0JUc7PySIOhTFKts0ewlTK7GfH+TwSLGJnEyMwruYo/KZcQuxLuxY7OB6Vn7c4RozpDFNow6gxS5MhpkzUYOJJ0NjycTJmchyIlk3fsTFPeyLIyFksjmFJHYeGz9sft6I4TEq7Gqx9jLCv4UyMxSTLveRVHOj1h6ky5eYhDGP3Y/J07wWSOpohszGY9tSWNiXJmg0F93DEoEsaZ1LD6cyLES87VeykIjtzFIximeTj2EIch/MZ4cTHmscbRnjW0o72SkaedMwamLVHCzUKvBCJw7HEnOjNnJSs4jxC+U0UrYsnFGWfJE4WSRlkN7RH2G/amJli25bY5UeoLNRDUI5oUosuKZyVk8SmjNoeTM+icBwr2UUMrZMjMjMTJDJSHIbEtkWN7P2w8nTn236mrPDEyZAxs/BqGIZ03BzkY8fBbS7HVJcpiVj8EyK2ZGRHuJ0J3tDuQpHYTsbo5GNiEzURGnFmKdo1UByobGUMZZj1DRp9XZmfIhjIxooydjPMk7IY7MenonAyRME3E/dWR1FksqMkrMu8Rj9yYmJkXtZdHMeQWQ9YWc9cWVmLOQkmjJjWQz6PjIv2R3S2TIyFMsbHtDHZ6Zw3rZ7UUMj5OnC218bROPfZsiY5CM6oe3Suwtuoaz01RKfJ2R2mRYxvaJe0ELsOZGxf6myKrZMRPuZo0jA+JnjZnXfbwMezicTBKiE7MMbGqRPKZcxklyIY7MGmoy0iTMvkjj7D7HOj1LNLh5eddj4j2iMfvTEyHtoooSIxEiJF0Y8hKPJp7rZbcSiSKOJFbXtCFkY0cLJYyWIljKGtqGhjIHTmI8GsfZmXyNiImPyKRqe49tJqvTIdTgZurxXjU6l55FC2yC2YhM5FkRyI3IgmKZFiYheDlR+DJjJRPwahbWeSQjztyMeWiGqoeqsnm7jkY4ORp8KRklRlyDZdsw47iZcdGQh5MGaomqnyHtEY/wCBEX7OJxOAsYsZHGKBQqE6PVFshPdd9mrOAsQ8RLttEh5FIxRJ1Q/I8djxUcTgcSiRRFHS4FbaldjP2kMTEyExT7GXuNb+ozyLsIrbKIeyL2SIsZFiydjkQfYuzl+DkIUhKzMhGdDW73W1nM5Msj3MVIefiZNRY5GSZjfzGB1EzMySIEZGQe0FZ+3bRLC0Ne9MTI70RiJCRFCOBxGu5ZB9vYmUULtstol32M6raImRI5eJkzmHuySolA9IeM4E0cRoS7nTV22TNVHsZ/qJCicSNidkyXnatlvEZkEPa9kJ7URIMiJ0RkLuePLOImT7k7RlsnsvYy9+RZGR6o8hyLJsx+TBkXE1ExkSyTJbYFbNJp04mq0aSZmjTEV7kREyL2THIjMeU9YjqSOY7SG+IstbsRFjG9r2ToTMjsSGRFIc7GYSPdEhwFjszRomUMj5Omv5SUkI1j7GV9xkBUURRkJC9qYtsgh7WIsXci9r2TORjFKhOzltDaZlM8ShHIsTH7rE9rLHtizUZMlnndktsMqZoMtxNQrizVx7sWz9yYpCyHqnqDyHrDyHqCyEcxHUUPLZ6pKAt47NC2ss5CdjxkjwchRJmKRiyDPwPsZZDiSiSI9mabU8ER1fcx6lM1ue1ROI0IXYiQMyJFFD7F3tFbMns9kJliI7XRGQnQpHKiHcijsPsMY4koGoK2ZYvZRRX8CGQ2ZY9oujQajicuSOoR7i2fus5HI5F70UUQiJCR6RlL2ZEQiS2Xc4lEDyTiSjtFkmQMIhIySMjMZlQ4jFMWUw5xR5eXhJYCWNi7CkYpmWPYlHuOPY4UOJWyL2k9n7IkdntEvZKzGn4Is/2Qd7JHkcexrIHIsvdl7sQ2IZez3oifgft08qMGXsa6NjEMf8UYHpCwnpCgQgSgcKOVGUYt0xMZ5Fs0YnvNDVGNkiJjnRGR6pN2SMUexmjZ6dE8Z6TFgMGCjgRiPETxGTEJcSMhO0LDZ6BLASwjgOO7H7VsmXuiIyA5NEGYpD7bSl+FFUUazENF7eTiNbXtf8C3Wz9uNmDIZY8kZY0ROJKI176EjGhbsjM5DdlDl7YsXfbwPddiLLJRscRKhiFMj3IR2y9jAzJE4diUDgcTHE8nqHIoyYv6yYh2jFI5kSRkiSxEsZLELGTVD9q2W62UaLIMR2ISFKyVkV3JWRkajuZcY0VvL2vZFbPZbMixMl7UzCyEOSNXh4iIRMkRratlEWM4FCISOQ8h6h6m3IWQ9Qe6HtEj3JDGLZIW3AZJESPcxEexZn7s0q2mjgenQ4kERGKO0iULJ4RfKYZkPme0pUXyPTR6dix0ZcQ8Q40P2ra9saGchSFLbGRZREfkg7GahEyKskcjzsvbW1+17IYyMLJQrfCaXwZtMpoz4OBhkSVk0PeJDGZMI4FbRJIqi6FM5FFGTBRxGIeyZCVEnZWyRFDYpHJH1Eo0SicKIlmOdmSVIm+5gmKdo8+UjJEoTI0yhqhHkoydiXcxoXZCyC/wB/kcqIqxk6HiMmInH2LZCQoiey2itosgyLPO1dxmodE/JFk+4kcSXb2LZD2ey2a2iMZCROW+LyaaVoj4NbgFGmS8GQveBhZklYzjZ6ZwOBLEOBJFkZnM1OnMseJJiHupERF9xbWJ7QltkicRxp7QMj7C8kOxiPIuxImiKsh/RKI3ZdEpURtkmSjZF0OVkZDmcxzsjOtskkYo8jLiNSq90SzkcixPeLOXcjIxtbPa6RnhZmgXthw2ZI0SEhj9kvYtpbvayy9oGmlRiyDXMnozUY3AybUUQ7EJkJE4j+UUhdx9iTGrHCyeIqizVvsZ2SYt2WRYpDL2YiyDMZVk4E4HpijxJyshHbTd0eBdxkjGjwM/sQxDRLwOAu41QtuBQ+wnbMS4mafymqff2osssssiIsTpEZEJkMpGVkiLJDNUvIyBiyJGoy2eSxyGIez9kdpbWPeitkaZmOZjmS7mtw3Ey4iOMjAljo7iZikPuThtBmVnqFlCjZl044GqnZm7j2Q97EyKGxvehOmQmQmM4EMZlw0TjTIFGm2Vk5VsjuInKhSJFFDVFifft5Ikuw5kZmbNSMK/JCXYz5DM7ftva94IR4Lo8kUVRDuYZFkSasRqsfYyqmcj1KJTvZ72X7kWPZDQzGuRDSLjZmjxeyRp4Mx4rI4SJKHJGq0wsJ6VEsZLTksNESBOBNEDL3Q+xHILJZGQ1aJYTJHkZdMZcNe6yJAe9F7QYmIRj8kzN5FEbMUu5jkcjjY40xSGWV/fFJH5PNkflJysl2PztHyTO1EuxN2YuwslGpykv4onI5HkWyI+CDMci7GhGoVo1K7l7pD/ne0HRHU9jJPkQxWYNHZh0teVAQltnhZljQhxPwSimemY4DhaM6ohIZljspUY8hDKeT0x4TWYyQt3siD3r2KNCYpEMlGORORJWy6H3IGGRdkUTs5H4Ex9yhoosn4JxH2ExorbJMa7lUSkZf4KFstooiIT2uiEyDIyok/wCrtWTnaNU7HsizkX7F779yMWOzT6chj4l34bKPVLJz7GTuxedn3GuKHkI5D1qMvzko8SEjJEa2iRkLIUSNeyXvixbMQ0PZS2oixschxvaBiZGhE0cBeCI+wk/Il/cntJ/gk72RY2WZEY4fkytCdmYf8Fl7IW3gTIj7lUY2cyOamZMjMmUl8w1vy9qQ/wCRIhE0uCzHjLOyLscqPJy7FWTgS7EMlkVZlHGiyxGRWRQ12MkStoiZKZPP2NXntj98REZD7i24kijkcuxDJRH5kemTXEl3FKjHnMeY/cHqchR7E/lRYhs5WMl2LsfcmihijY1RKRyonkE6JOxoftv2oiUeREGUUeDJko0qeRmXR/KajC4eYsmP3RQoko7V/AxESHY0rJT/AASyUOXexZBdyOKyMTiOJnh2E6PVLGSLITF3JQLJoe0drM/g1Hn+CImWKW3IQoWcDhR4IRE6ORPuZJUTFIWQeU0+fuQyJjXMmmRWyjyQ+w+5J8UckSYpWPaTEjNKhu3uyXuW6YpCkcqIMXcinsiTMsTpmOhrsa7S3Zlhw2cRooocRRMcBuiUyxfwoRyNNqOJ+5slmsqTRDEzHChEStpxNR8rE7ES7DL2xskhQJxJIaI7SiZYmpiP3xK2R5FHaLLORYpHMx9yjJEnA4Di1tCVGLKYsqe0SrPBJl0T7kCUbFEkhssc6MncoY9pL+Bi2R5E6ERKInEyRNDkoUuxONmv0p4PIsRKFCicbFA8EmN7J7IfuiPbGmYsbZDAjHAUEhnI9Q9ZHrWcrNbEjLuKR5GNDZCYpnImPuSiRiOO2fwamXf3ojtQkJ0RkNi/2xElsjGfUMyYzjQ4WTxDVCnRizmPOesmyMrEiUCjKzGKPY4E1TGTZdkiMbGt2P8AgWyELvtyoTs8Ee5KBD5WYM9qttRi5GrxcGRMPc1MaLLORKQ9lvZfuvaELNLpCOBRI0j1KPU7E8tE9USzshlbRB9zlRrZci+5F7ORIkROdCnYyMTIhIkyWU1WqMsre79iEt7LIFDFLsRZZxJGOSOX9Y5EmSQn3JQMuMcTlRjzkcpjznrEcpR9TMMRKts6Mg+5RxPCL2vaQ/chbLaxPaJdl0dyZjm4MwZuSH3OoYLMicWaCHI1+Ctlsxj93E4nE4klsjCYGqMmQeeux65PUE8rZ5I4GzBpWSx8CzVol5IPfySLGyMhOyyZKY5mbVWZMt+x+yInsxiViRyobIsQmMoXYTExdxofYh3J47MuElioQhTPW7GPMerZEjl4kZ8jNlUTnyJfMSKsqjJLat5fxJ7WRYpWLsI4id9hRJQRjfEhIywU7NVp+506NHU1cCXks5lllihYsJ+3PQFhFjQ4pFjY3vjnRi1ND1DkOYmM9IWOjEky+PjI9tX4MhCRFkiye0iJBjMkxlilZL+CJXsihDfcsXsiZBS7kWciziVRjMsUZsdnCiOM40NGNFHglM9ZocuRHsRlR5Z4MkvZLZj/AIVtYhMTIyOXYxbR7k4mCW2fHZp8dGsjcTNCn7YogJjkcz1BzJTHIv2xZjRGIsZwJPsOYs7QtSz1GzmzUZmTYmY5DETWzEQHIk94kt37Y7raOz87L2RMgvJHb8CGYjMZdo+NmY/O8hiEI/IzJ7JbMf8AIhECJ+DEIgZPBg2zeDAazwZvbAgIezGP3IiYiItpD2Qts5IRiGInuiIyW/8A/8QAKhEAAgIBBAMAAQQDAQEBAAAAAAECERADEiAhEzAxQQQUIjIVQFEzQgX/2gAIAQIBAQgAzZQ1mu8WLjZZQomq3xhOmJl8bH6KxY82UXiysXhcr9/5yi8OMZD/AEf/AB/pWh6DPEyGg77qkViy/bRKSQ9c8rPKyOuKe4ovLXCys1yrKHmis3xTPKb0bkbuFlFl4vF8Lyuiepb4xnTFK43iyy83h5rNl8Vzrgy+b4vFcLLxZZK9o1y01/EaEiiiiiuVYrNeqy/VY+Vll8bxZuHBMf6dH7ZH7c/as/bCW1Ur9VFYrF43F4rheKxWbLHyvheb4MsvldD1kec84tf/AL5Ubi816PokXxorFlFjfC8WNl5ssssvFZsvN5sssseskPVbNxZZZvIahWbxfCs3wrCHmxIseLxeHqCLLLLLLeKwvRZeLJMvmpUyMrWLxZeLz85UVj8Zoq8PFYoY/on1i+Ne+a40zYzaUQ+Fj52JFVwSKKooofSw+F4vFjiLNc2xIsRfoasWmjxRPHE2IpG1GxHiQlWLzebNxZeN2axfCrG82i+FFYqvTZfG8XyvlZZY2WWWXhUS1Tys8rPMyOsJ3iuE9fYj95IjqqaP3LF+qd9z1apr9zIjO423+oYtVuLZ52LWbY9dpi123RLXrpL9Q77lq0rX7lkZuX0lrNMWu2x67TJalRQtZ02eZim6bIazk6b1ndD1XE87PLSt+dkNTdiUq7P3DvqGvb7lruMqP3MhMvN0WJ8bzeE+yEuWt/ZChcOtODTd/wD0T+mo/wCKIV3b6i6Ubs0n9RqKpEEtqH9FQ/o9O6pRqNN/RUlif0hW0n9JPpEV/BkasdbXUXTH9Y1asj9J/CKsjpNMs1PhD6R+k/7ENtLKJzSHNs3sWqLV4WeCR4pI2M2sUTT02o94oss1vqFqOMEQ1mz8i6f8ptUhabZPqJFqmab7NT+xB/xRL6RiS0v+doUrR+RPE/pGD6ZNdkn0hf1YlbKqOX8I/RxtHjaIajuhtolK0Q+sX01P7MjpPp8JSt5sTIu1i8bjcj+JUTbBdl5sbxrfTetiRprti/sif9if9UQ1FH7OVxRGDZB1JGp/Yh/VD+imjc77bsj/AFH9zP6R1EkTLP8A4IumOVpkV2V2P+ovpNs3kF2SQ06E6I/Sf0i+sWIl+m/49Fmw2lMhF4svNFc2OCf39uhQSR4VY9G3Y9NNHgQ9JfCMEjwpOx6SbFGuh6KFooeipHgibTwLL07Z4UOFo8Jt6o8SFAWnQ9I2ujxKzameFCil8GeFC0kh6SfYo0isqZ5E/tQZ4oHigi87nwRWXwnNxfX7iQteWZzafXnkeeR55C7WJyo8zFqSbolqNM80iOo28y1XdHlkeWQtR3mWo0zyMU3VnlZ5meaR5WeWR5WeRnlZ5pHlZ5pC1ZPnbLeLyi+Nl8NVWrypWrxOVvhB3HGpjTVs1F/LEX2WP4P7lPsvD+4S/j7IK3le2+TxNdZh/Q/Fkn3hqsabxN94010aiwvuJOlxTtFj+4iujaiaSzFKikTq8qCo2IUVwXK8XiiysUVwY10NY030S+PCRNU8ab7xJ94gv4k/mU+ib6xBWx/cQY/mFmeV8xPK5X6vr53hvEl3jSZN/wAcQXZqLEH2hsvC+D+Zg+jUeIEvuIMk+sR+4sm8x+FE/uVi+KlfC8V692dRd403/I1JY049k1awmP8AriK7y13iDJO3iPwmsRfZN4guyyyeY/MT+5THMTyiTIvF8aZYpY3cbLxZqYi+zUfeNNdDVrLl/DEFbxZNd4gx/cL4S+YX0liBWJ5j8xPKH9I5skmRXZXGihsUuxS5vFGorjhMlK3iK6w13jd1WNNfkvE1hOsL7h/Mt3iPwssnmL6LJ5XwcLEusoo2DLwkVimM20xFl8LzY11wQukJk13wh8zNdcI/cUPghujyjneVqUeUcrz5iE2y+G4svlXOuTQ13mKtlY1OEV1mS64QRWHlLvD+euCpf6Vca4eFN2eGJ4Yi0kn1hx3C0EeFHiXBnjieNHjQopfLw4HjR40KCxR40eJHiR4keJHiR4keJC00eJCSXXossvhRWLxZZfCsfqtbUg47f3uqfvdU/e6p+91T97qn6fUctPdLySsm6RCTb7lNp0Iuh6jbPIy+jyMWox/CMneHqP8AG9ilaN7uiUmiLbQ5yN7Iuyf6vUU5I/eap+81T95qn7zVI/q9RyS53wS42Nl8VlDP1cf4J4vFln6X/wAUj8mp8IumN9iJPoj9JRP/AJIfR/R/1I/cfkl+CPwX0mQ+M/JMhVM1f/SXCzQjepH0Vizdwv0UXi8ak4xhc/3f6c/d/pz93oH7vQP3egQ1ISjcPyTfRWES+EfpuSG+iL7H9H/Uj9x+SRH4L6TIvDv8xaof6nQtp/uNA/c6B+50D91oGnraUncM2XwbHM3G9imbvXuN2NZXpS4Vj9N/4ovsl8F8y30J9kmfgi6Y32P+pF0y0fkkyPxi+kmRxMialeSXH9JH+Mniuc5UXw3YsvNll4lqM3MUhahJbkf46Z/jpH+Okf46R/jpGlouENr2DVqhKjZlwFplHjPGNHjFChwPHh6Z4yjxslFsUaRL/wDPk5Nn+Nkf4yR/jJH+MkaWh44KPoTHp2eJm1lYosssvFllk31xi7RfG8Xzv02X/p2KZaNsGeOJtiWWWWWWWWbikbUbEbEdIvN+i/Vf+zZZZfGyy+V+5yFJF+y+Fll+68X/AK243Is8lHmHMUxagpm4UvRfK8WWXwvF4ssvlfK8bhMvFl8JSSPKOZvPIy82bxap5SMsbjebiyyyy+Fl87xfpoorg5UeYjqJjmkb030pC1EOQpG6haotWLJTHK+VjkXwjOjyj1R6jFqi1Cyyyyyyy+Nlll8bxeU75z+DYrO2RVPDk7IyLocmymI7FzaKxfDdmLFqG43G43CkWWJ+uy+MdVo855zznmPOeclcjxGwo6vD+i6eWhfRl08N8WhrjfGxSNxZZvo8opimKXosv12Xm8Xl9PCY3wksPFliY5Yooor1bi8bjeacrLL4Xzssv3SXZtFlkX0SRFlDXOyy+diZfKE6aE/Q5UKZf+hZQ0bhPgsfHjaUMvltxtZtNht9cNf8PnIsjLjWa9VD00LDQhYkuxYsa4NFGworjQ4caGiisaU/wUN1wbJSwmbjeX6aK4oocexEixYkiOGhMcSsbfW1wQ1i8aX0cinJ5bLGNkXlM3e5YksVaK5PtCkfShRt5or0yjwQ2KBsR42vn8vzD5iiWXEWbL9yw1hDwsSE7WJRpm4TsrjXoas21iisKyzezeLXHr0P9Qxam4s3Y28L/wBGyyihYkiLxKNo2iVZv2yiRQ0V3iiuCqiKVlG02lf6v5w8XhvoSxYk7zXuaKo3tkUUVmsNEVlujyLnRRtZsZsPGeNGw28E8Nd3wsvlX+i42baEhF8WeWhaiZZKeISw1jYVizeeRHkQpF5ccUJ4lhDRQvRfuvD7WFE2m02m14+ktP8AJbFqSEmxxI9PNDkPUPIbyjbhSE+Djncb3YliTLEii0UVi8V7NrPGUWL5hfMOSN6LQ4oumfTxighUhn5F8zIaKKFA2D0yqNxGXBxHhojIY0bTaNDFM3LCj6qZsLSFJZcTbTIsaExyJYUjfjdRvReHM3WL5mxpCK7NxuHqYo+EZcHGxwKw0Wb6IyskxvKY3SL47WbCkXhoaO0RleHOirPg1iuhxHEUTabSUGRixRLGxC+YosbFyooTpifGiVDfRLVLbIOSHKzY8r6SfVYSs2IrLNzFJnlNw+8QfQ9X/jmKdMYu4i+lDRQ2JljH0R1TbY4G0S64X1xrjF4vLmkN2x6hHTsX6dDhSO0yx5Tt4rG5D1DyClea4J/gcKViV9kaskiI+njcOeaOx20J0Q1Lxt4NeuDHMWJSpG9vC0bI6dZcTaOAxFURWHisL4LlGtxqNbCLVC+ibymSRTZHTof0S6w0S0j4QnZXFLNl8k6IiGNHx1iEuuDw3hCQlhjiXjcJl4vK/sar+Il/xRi7vDRQhqxRrDisUUNEoCdMUrLLLwo2bC2JFYrgkKVCn3hkv7YjOhaheGbhsUTZhyPIWNDWFQ0IorMnRFb129BpliY8Xwvi4nj7FGiysXhTwuddYpidI8tuicRCfZcKEWSmU2KHCTFj8DxVCWN3BxTFFxfUVa7kqeLsawnzlOhWJFCXC+Fl8X/wijaNO6NlKz6j85i+hyFEoYpjmJsYisOJVG5HRtNnBr+JZHVouyhIeFKiyxFllklZGGaxuLErPGbSkUKJeUsL7hsbYmNd4j2VR9ZWGKJsEhiZuWGhoopll5RXQ0WRdlYorFl4oo2mzlebKRtWLykN4X3DRdOmo38cWniLpkiMcN0U2JFjkbiyMcNFDtG55soUcS+4g++MkVhP0socCi0dFFcPizHMlaIqiS7Kwpqi+Dm/ips2G02n4FiirPGeNDikURiPEvrxH7mzcOReVIr0tEiiuFij+W5XmOKGhDRsGsbmb2ReKKylhYsodkpNYUbPg2Il9eIfeFDws7mL0uBRZZZYo/luV8Fljm06IztYaNptNhGNLO7K42XjYihvCJfXiH3i0ULFYUqLL50bTxHiR40dIcrfGuEl2QXQmPFFY3F2NFDaE+FFG0ri/g/uYTtcHhIo25i8tm70NjGXmI1wn9I/MUUUVhotm8cz6J0J8rxLUo8wtRDarhCVPg8I+cI5dsS4Xm8Nj4RWGstXIXG8tFDynwvLZJWhpr6mbuK+ZZQijaVhOnxsvi+jdY3wS7Fxr+XpYh8FLk2WiVSRS5Qdxy+NFDIv1SRdG7hGPJLvL4LDEh4eYvg3SGzb0Kkh1m8xltFqpljFhPNDQunzrLJRNuUrYvnJLmvSnwnL8DZGdqhwoorheEb2Kdn5KxZeKHEUsVyvDQx4jHisLlYuFD4p4lKkJDgRVE2mX6dMX3LiXRuxQ4Cli/Q0PCXXBlU8LmuL40buj6xRzJ2yP0qJtiPSX4em1iz6VZCFIXCihSN2HATxXocBafJrC5UVyrhY0JVmnRQkWy2Qg7stE9NLtEaIwWEsVwo2ls3FilzrO5G7Nlj9S9FZ2lZlBM/OIQ7Jaiiut7Zdrvwr8ePa+48q40bSjfx3G7DJSojNi1DeWJjfqXpoQuFD0haSJS2oUWxaZPqkQKFhPjXCy/SmMcLHGlhajRGV8FxvK9aK4UUOKKRRPTsjCuHxi5UUbTabTaIoazRdZokqZZHpWJ2IZ56YtVMs3IsvK9DXrrnKIvnOyy8rD4Pg9JD6Jf0sWo0jzUPWspYWr+HJdWvIxajFqm9MT9NZTxZfrYmsXi+FcFK8tcGXhrocXdEo1GsbeKmPNsjq0RnfrWVwrmxvsjK+Fl8KxHiyihlm4q2NWVivVpN36ayid/iF1wXokuy6IzsvneE6E+DxY0UMhLujcfHheiMbZJdmnCvYis16XNIcrwnRvN5uG80UWUR4NcKKNvdiomIfoToj32R9VFCWKK9Mp0N3wTwiucfnB80OKZ4TbX3N8IijQuVZvDl2J+tkolZrC7QvRHg8Pg1izeOKY4tF8VGxQr2tFidl+qU6LxRWI/OFcFAr11h2iOqUmh6J43miDNwvbQpF98NyNyN5uzOBsNpY5YhwrhXrQ8PEWJ4ZSwiP32PD9jHhFFEPR//EAC8RAAICAQMEAgAGAgMAAwAAAAABAhEQAxIgEyEwMQRBBRQVIjJAFkIGNFEkUFL/2gAIAQMBAQgA4WXwvDxXKzTS4z07RWL8NcLzfCysVlIReGxlZsvneK4fXJSlEXyRa6OsdRE9ZUJ2+FYRXjSsWgdGJ0UPQHFrFZT8F4ovF8UXwvKzY0bSmjuVySKxXKsWe+xDTpcLJRTQ1TxRtKxXK/C/6Vca50VisRf7i75Tfcssss3G4vFl8KL/AKlFeKsUUVmsUUKckdeR+YZ+ZPzCH8gbt28XzsvN8KK5Vi8rNYorNcazRXCs0Vw6bOkzpHSNptKzfK8tleCsV4KzWa5V4KxRQtNsWikbEbSjadNE4UXnbisVi/Es1ihclEaKxRXC8PNcazQkVReby42iUafBorFY74rhXO8rgmJ+GyvD98YPvis2i0Wiyf8AIoRZeFiis1yvwVisLyt4ZXGso6jOpI3yN8i87nwrlWLL5VwsrjfK/DRXOs1iudYooorhQtM6KOijoolp0PhWIaW8/KxHpuLPy6H8dV2jp376ERwp0dBUPSVo6KHpJHRVD0lRHRvu3oqu0dO3T6KJaaWI6SaHopIWimhQTbHpKzooemrRLToWkqsWmmdFD0+9HQRLTrCVujoIno9u0dJSR0IleGsVxasmq40aXoc6makk0q+iPogu7J3apd2OVGoQ9En3F6Hdn0KdDl3tL0P3iHoldkX2Iruxv9yJXQrtW1aF6Isl6IEnRKaaKIexsfoguxJO+EY2LTOmPSNtceqjejcbi0TabKzWNL0OCciWklR9HtdtNd2OaXuPeRL2ifoh/El7F6JSI6h2Y40z6HiHolL6IMS/cxr9yG6L/csr2P0KVCmmSgirI+yfpD9MguxLUXrPsjGlwcE0Pt7xZsKZ+4uRukVxo0vRte6ybVI+iHpEf5MlptshGmOSRL0yHol7F6HApUJD9iPvEfQ4NuyBR/sNWjbTRJ9j6F7H6Im3uSfYTI+xqx+iPol7xWI6/wBPqI6hvRuNSVvPfN4Wa4JteuuxybZ1ewtWkLUaZ1WdRjk376rYtShys6rOoxarR1WWdZjwtQ6jFKmdQ3d7OoxzHOxahuVnUs3NHWHK89Vjm2LUaVDd8NhtZckdSR1ZMq/eNvOuFEIJ++jEemswgn76UToxOlEa74jGzpIcElYoJo6SHBVlaao6aOkhw7ZUE0dNDiro6aOmjpo2I2I2I6aOmjpROmjpRHpJZrhRWKy+dFZ033rLjTxBUuE+zLIf+4m+xB9sS9Y+xcKwvWH/ACXkk+2X5a43mL75n/LCXbCd4msQ9YmzTeHhLvxfvg/ZbIXltlsjdZcnZuZuea8lF+BPvma7i9rDZB9sTXbCXbEn+4h7y/ZD3iTFiSFxhl+8R9ZfKuVFZrjXKL7Y1F2ILviT7GniS7Pgxe8yXcgsSZH1iSEu+H6xRBZfssjwvlt4Vi/HWYPtia7GmsTZD3lL92G+2EL1iaIqliXsi8P0RWJPFEMv3iOWhRKHhsSHi+PbhXh08P0QXbE33E6eUv34m+2YvtiSFhkfeGLEsxy/eI+ssXofBMfGsWhDRXih7ylSxJ98L1iu94m8weGr4L3msPMcv3iPDdXBll87WG/BWKF74v3iL7cJvuViD4P1lctgo1lws6YlWemShWaKKKK5Xzvmn2y/WYcH7yvfCTLwvWWWL345vv57zfhWqzqs6rOo3lSo6rOozqPgmdRm9m9jlZWN1G83s3vFm9nUZ1GdRnVZ1GdRnVZ1WdRjZfG/BfGiuf4V8HQ19OfV/Q/iH6H8Q/Q/iH6H8Q/Q/iH4l8eGj8pw09qojTkSjXpRWKFBGxFGxDghLuNKsKBtQ1TNqojFMku6NiNqGqdP4/4P8WWhpyl+h/EP0P4h+h/EP0T4hqfg3xIQm23bfKuF+dnc/BtStbUgWWWWWfi3/cZ9Ef5DXYQxD9CZ/sSF6P8AYfrH0RGfREl7WIkj4v8A1tHNln4hq7PiajfirjXirHx9PVnqbNH9I/Ej9I/Ej9I/Ej9J/Ej9J/Ej5HxtbT1dusRXcsrCH6NrEu5IXo/2H6x9ER+8RH7WLGnuNP8ADPxCUIyh+lfiR+k/iR+k/iR+k/iR8n4vytGCWvxfBRNpsNpWK8nw5uHydKS4/iq/+W8IeaH6Eux9kkI/2GuxR9EUP2fRFDxEl7Pi/wDW0uP4zrXq6en4Yxvvwo2cqKx7YtM2I2IemQnsnFi/5VpUr/yvRP8AK9I/yvSP8r0j5nzY/J1+rDcJjdm7KkbyzebxM3jlYpm/CmbyzeKVDdmj/wAm0tPShpv/ACzRP8s0T/LNE/yzRPmfPXydd6q50KdHURuRuRZZRRRRRWYrvxkuNYornXhorhXnqzYUzc0b2W/BRtLZuN5v5UV4K5V568dYooooorxV43iijaVwrwVxorjQl4K/sUUUbTYKA4jgbSiv6FFFFZrFFFFFeavCkbDabTYVlsby80UUUVivNRXGuF8qKwkOOIoccVhREq5WOReaGUUVmiiuNFYrFFFFca42XyWLwnlDRWNou3Gy8VyrlRRRRWa8lYorHTOmdI6Z0zpnSNhRRWWJl87L4UNeNf8A0FDXBoQh8GJ4TLNxdll+VrjRWK/sbcIeExrKeE8Msssvy2X51Gzp/wBJDxEeVwfhvNFFeOi+cWVZKNMvhfjrDwsPgxDxXHabRRK40bcXwssvDXOAkakSvBZfi+8NcU8PN42leJrwvlRF0xKzUWK/pofJMa4JeK8tcUbSsvFixZp6hqK0P3/ReUPixYeFEqvNXFMo2o2IekdM2CWVOh69jeKNv9FDK4NCw1isWWX5Kw+2K4tFP+194fCjYUqGhRL/AKCGsIssvg8VnY+V57Fo3I3m8svmuC/r0JG0sorhR02OLWEsSjwvKhZ0Wfl2flpD0pIrN5axQh5Ru/q0JdhYssssvFEZlHTQ6RuJcFCyPxj8tEUEjcbrw4pk9MazZeNo49uF5UHWb89llifcfvD9m0jptj0WODx9Y3jk+Dzp1ZZuEyeqLWZH5CZ7HFGpo13KzeVIfvDyiNJUPRsegzp14qKwtGTHoyXFiFGxRIxLY0mPT7nTZ0GODRWEih+8UUyGo77yG3VDibSOjXdrUHqlpk9KuFm4sYihacmVRCFs2DN4+8eFFFFpG47mw3UR1F9qSa7Un71I1Lh7QiLLFNpiPXcc/sWoqIzTRLbQ+2EiQ8qLZHT7kn3LOxSG7ypD7okqfNJshoUre1I1NOL9QjR1EMoXorFl8I+0bIolCLH8Y6dCkku281VeLwh+8KYmjeqEmyaoU+9EbQu5qaNotoUyx+8pIqmN4ssvNC9GpGmUbcpWKCNPRSRLVUR/JYtVtiaaGlZRtKJLvmhaLYviqj8skPSpon9FnUHnUReUPCOmyMO3ezUaPs09b6aaxqaH2i+CZfYfvmljWRHR7W5PCVihWOvRLVvKmOZHVx9D9jxBdz0uykbiS7om++KxRRqehcvTITtF9u89f6TleYapHVPZq6NO1wiS9DxtfFMskk1bk6SHhdsyXBYhHE50XmL7kZ2hiRRNCErHAQyfoXBYZHUcSWu3yjqENSxxtE9OnwSG6R1r9rTj7HNF8EsS7qiWk20PTSiLCxKJZeI+xQtipInq0OTedoiDEUNuuyd9pNUbqZvtFlk5jLxRHx6erTHqJInrX2WaLHpJj7Kh8bLG250htUN9yyLw/RTvMKvv1opD17HJvKG+wmQlTFhJPupTaHchaTGqzOLKwsIvDXhc2+SRKdG7CgxxfBf+kfTmTb2HUY3ZZHMl38KHiJGZZT+kmvb1Yoeu2XZWF/I2L05/Hrusp4kvNQ3Q9cUrKZvSJatlZf8A+E32SJv9iNto2ijF+0hYmvCho2CdG8Uix7RaSHBLFMv7N37ke0hRRq6O1l4ssSscCvO5yHJm1lcIL3Nku6w1Z0LjcOpXZqaeJK14EisOWIyFOhUxxQ2d2LTGT1PpbSLtLGurhwoRY/JHUFKx2WNxHM3FlW6Gtz2p/wDiHnTk0zUpsSo3s3Whx5osseLE0KbQvkn5kjPcNmpq12SWILssav8AB8Uih+vJGXcjVDkxyfBIl2/akqy1mL7k07KLF6xRsKNjKwuKRRuxHTi++Jam0bbeLoh/FY1X+x8Vh+hYrnZeIapaZ0xaY9I6Y5/6xUdo8JWSyhaSkkyejtYxFlliZuKTNiK4xw4G1ibQ9eQ5WJYZFftRRqRuL4rDxfiYmR1GhfKY/lP6/MzFum+60lFdmVhdlYpXwh/E1JfueFi82bhSHIsvNm83o3o3liyu7F6WKNXS2yvgsS8klxjRBUexoaKJulQn34af8TUffCLLL434bxp6O4/LEtFii1JcNXT3RKrtlYeK8TVm3O1iRFdhDJCRqTt4TzF/sJ+8IooofOuFl4jG2Qe2Qmn6lCzbTFLDGTVSayix8L52LDLIJSVHRoiihjJOkN28J5T/AGEn3wuD80dPsKLulG4stjRRuN+NaNTvFCw/Ju7Dd509Taz2rEsUV3NWfellesOX7B+8IrL8sIWxRo31MbbFdYZRRdEoKfZy+M44XlrjZp6o5CeG6TY5W+H1hv8AbWUXl+SjS06VuNE9OnuFNNWlK+LRQ2PQi0S09jL53muV4UqFO0RljVn2rgiSpYk8rFYfk0oWyToWrRN2jSi0bcMvDRsNptNVc743zsjOiPcukTncuCRdxxLK4PxqNuhLbElO8OX0QVRJLsb5m/UTFry/2WpF+kUei67mpqbpD/oNcIate5/ItUuMfWJiwiyyx+G8RlTRv3LCZf7ixspFI1NRVRTNLWb7St2STJ6z9LhXkooorCR02ODyliOJeuF+eOpRedPVadP6ssnOkR0nLu9iSo2tS7L5D+3rJobt/wBKihrEERSZLTRL4/2npNGwaIrEv6iedwvkUqb1/wDyEdz7uaih6xo97Zq0hyF/QvhVnoiyOptIzcpdx6aZOG0aI4lwXD78ieLxZuFNoc2ORpayiamru4XyrNFZap1hPFllXhClTI+iiXd0TjTouhd3Q/iWh/GaOkx6ckJFeCy82Xm+xfG835bLzJ2+SwsR1X6F3F/Noemmz8tZH46i8y0ftQf03oxH8VEviv6elJDXlTEhrk3y2+SUHHmhMaIOhTTVkJJzbxuzeHAXrhP46l3UtJxfkT7jdjWV4ELTW0lCvDWNRXG+CFhCIvuKJdKiPYbzfCuClaNatvgvgjS2t99Rq+yfjh3iSiiUKLL5XiULVDjXNPGnq17nFNWttI9rxSnSINUa07dLyJ15I6TZFbVQ2NWShXKs7zUXBZrMdXtTbIesLwSjfYn27EvfmsvF84aO5nrsqKNpOFoquN5UTU/lwS5rU7C1Np+YVClatcrJOu4533G7fjUCuF80iEkuxtw2OQnZqRp86FI1H34RRXNJMekQm4ikmVm8SlSJTbRVLyJjH44aTfc3Hc2lJmw1V4HJRQ5XwWNt84SUuzn8cUpRYtd/fWiIfsTJo2kn5U7Giu3Ciiisx1WkR1CyjsvSNXwOT4rCJe+Cwm7EycVZSo/2EWxMbJj8q5Lmj6Wfo1fB/8QANBAAAgEDAgYCAAQEBgMAAAAAAAFRECBhAkERMDFSkbEhUEBgYoASkKHBQnBxgbDRMqDA/9oACAEBAAk/Av3Vr9lW/wC+1fuQX8lxfyKNS8mpeT5VNS8mpeTUvJ80a8mpeTUvNdS8mpeRoZqXk1Lyal5pqS/3NS8mpeR01Lya15HTUvJqXk1LyNebdS8mpeRryNcTUvNNS4rJqXk6M1Lyal5NS8nQ1LzRryal5OhqXk1Lyal5HxpqXk1LyO7UjUvJqXmj4GpeTUvJqXn67odPYhHQ6NEiEdPVO4QqzSCUIQj9RAhE1R4otxUmyKIwTXHomqEYr2o7kYEIRmqPFvV0R8HU7qIW6+uh0xXsRJuKaQjuppEQbs3O5C4i2dFuLgQSjSLgZovn+EdNNJQrIov8QjupBgkzRGkxSGdpKELZ0kXCv6RkuyaLamDuojT9dDpiiR2kmTNIR3U1U3TrKpDpNIJRqse1vcrYo/8AEPiZIO0wYM0YzFIIRKpDpNji6adtMHdR7Gr66HTFPRuiaOvdR7qmSURWHSaRRkKrfkfFebO5WxR0h07aYM0Y5MWdypDpNPmmp+T5T/3tmnbTB3Vh/XQ6Yr2Ik3H1pB3G4l4pJ3GrakEOk0iiXivx/oOk17lbFFuIikKkGaIRizuVIdJr8YQ3TNk07aYO6i2EuP10OmCadiJMmaQjuMkU2dHSEQ6TSCVXZns7aTXuVsU7qybqma4pKpklncqQ6TSXuez9NM2TTtpg7qRzOn0a+eDNq9WdpJkzSEdxtXBKEulP0kOk0ism7smvcrYpJu6TXJmu5in6iDuVIdJp8UxTNnTjZg7qRyV9P1EjgdaJfIuhtxEjrwQl8sSEiBL5EtqJCRAkTRCQkTTgJG1Ujh1VsCRwOHw1RSJCRmiQkJGBIzRLqqQxKzgJG13QSrsxL/K3YQhCFcujEIQhCvQhCEIQhXIQhCEIVyEIQoEIQhCEIQhCEIQhCEIQhC+ugmza2GbvmTZJm3Nub4t3Vm5+n8jzyd0+RLsi2FdFuzfMzbj8RD+v342zZPIzZDs3IRi2FbN/crduNmzMfiJf1+1ubNnyIszZNZdk6fdna+bNknQ0mk03I0mk0iu07Gk0mk0m/wBfjk45Eqzus24VizuVm9m1uyrBNm+lWRdPKj7WXZF/ciVZKsmyFWFbFdnZvpMWfprDskiyLp5Ufay7N2ubsqxZmsq2FfBvZu678bJtjlTdH2sWdyriyHTazF+azbtwrvXuVJskindZtwti6bJuj7XFkkUiyXTFm/C6VbtZN2KbJ2bGyVJs3ti6bJuj7WbYpm7d2TdFkW7v+1MWdv8A1Ttds3Z5c2TdH3WKdzrvfsQYsh27uzNMWZr3OyaRWVdF02TdC+1g2sxbn1XZO7Fk25s2IIsmu/GyOXF02TdH22LN2bqzZ1gmySHydk7pd8W4si6Lpsm6Ptt3ZkzZizduzJmyLYtkl134kVxZKJVmboumybo+2zZsbWbpWQ+RN/c7N7Nn/azHJm6Lpsm6PttlyN2RZjkbX55E/gWMd0jGO97DH9rLv7lbjkYvjkQrYv3Irj8Lv9r3ar8c3dK/HIhcyWbVx+Sod8c2L5V/cru6/bhZj8LP23s9ns9ns9mbtz2ez2ez2St+Tw8ns9ns9ns24b3+z2ez2ez2b2YPZ7PZ7PZ7PZ7PZ7PZ7PZ7PZ7PZ7PZ7/y0QhMQmIQmJiExUXRifzathO3qJiZ8OvyxMTOsVTM2L4Ez4y6pifyQJi60T+GxMTPjjVCYmJiYmJiYmJiYuv2+3Likk0zWF/clWbm4mxNf613GJs4o22mmKZr0/wCqaNXisUkhkmad2qmnV45+35CikkkGaZIX9yVZNc0wZpgh0kxTNe5kVgikkMkzTu1Uglkc2F+QopJNM0ghEqybP4aZpgh1xTNe5kVgikkMkzTu1UglkfkRCEIQhCEIQqSSQZslWTdmmCHSTFM17mRWCKSQyTNO7VRj/wDKqEIQhCEIQvuEIQhCNJpNJpNIqSSQZpFJVk0gXHiaTTwM0wQ6SYpmvcyKwRSSGSS/VO/VX44HmiNIjSaTSaTSI0i+4zy4pJJBmkKkqyaQZpCM0wQ6SYpmvcyKwRSSGSS/VO/VSCWR+RIfLikkkGaQSyVZNsIzbJimT3TudkEU2ZBJLp3aqQSyOZD/ABfx+NgnlRSSSDNIIRKt6CEdKr4F/QR0pg4i/oL+lU/Av6COtUxf0Edad2qkEsjmT9yhCEIQhCEKmk0mwjTRGm7SabEaTTVcTSaTTXSaRWaTSKuk000iohCEIQhCEL7Tp/8ABJv+Voxj/b5v/wCruvz6v+YPf/Lo/wD/xAApEAADAAICAQMEAgMBAQAAAAAAAREQITFBUWFx8CCRobGBwdHh8TBA/9oACAEBAAE/IauhR8mtZWdR2M5CxGd+zgQTGrZ5jboQs0hNJAjsdIJoapiTsjmhvIQmM+A/Qf0LeRwJYPekj9RpvQaol4E90aSexwH170cyH3xp88G/Lon9AdaLYnk9nZNGxtdDmI4GIqbOLZPcPExKvY2TUGumzlXkTtmnAzbG56i7CBKGmpRJyWopJeDsKJ4OEGrRwwT1s1UFUrhG6FvQxo0eozk1yzRoQe36Ep+CiEXAzsWnyMdI4aE7Q0mOMvbByQa2Vgo1yJ8SVWJwY1yRw8Ea7GRqib0QZ6A+NEDkjBSwTZY6hBl2h3sg3orFSrWxYHmk2I5KeypIxFKaLDVokfBU7ZSnyOoqFnB5FNo0GnRvgfTvZCBrs24PQsEaLsdT2zbkVdDWC6eSSeBn9yEvU2ECGK1SNnZEm+jwC6dl49TgC2MY3k3tw4+wvIxOxaHxvwKGyNKUV8FCLweB2HGhUoaciY9oXiMJuzcaEggtRzOGLVqOXcEpsZeuBOsE3Im+zXHpoewSx3sNNCU8hvkYoY2Cc5KbqHfRriuCv7hsz0Cxb5KSTHoaH2PmGJ1nq3S1oahzxiyE40bHHyaIVC8i3Infga2NJsQwibY72bVvoextI0VOeTkZM2Em0ahfaR+0OFZuMVdxTRunguDQZ6m6wLiLeOtmy12M2OeBOticRjRj4o3CQ86H4D1wRQsmjwF6zqDcUS8FK8RNN8DZ8DIzQqR2J1RXa0RvCQvWOSbb5I0Zd2xVKQdj9rwfyn3g3klG6ZsJ2KOlyQEiKUg4JLUR8jeCh9+Sjoro9lMD6IfsJeDQ6Dg2xNGG/WS9QLaFywkXL2IlQ15JGoacG+B6aL+SSYkO4sutmzHppmiiSb2TY2wI8hOh0s0JdvsL6NkNQ7BXRytBQ5hDulfJ6jsNfKwmLjGLfOmN0hDsb2R5G0N8maqCG/DF3OxW9xGxnNjaBMI8nCCfQ7TT0eDkSJ+uJY1bNVsStGx2/wCRt6ETgbfJT2+uhUtiNuh4qhX1PKO19D00/J6wuFd8It2fl/BoIQ1oiK8Gmh0ImhVoOELoXtCaHYN5E/I5qLoaEC6NRK8iPDPcTdIY5HsnIUbMCXaFWzyEpa0Tsezh04UavRVc4Qo2zbkVaNDYRxBKtYNum6igcCe/Qmw2bGsImtkKV2co2UouxvuCLgPQN/A2XkTp6Whqr/gJdk40jVlKdEps2oZJUWocPYjdew62d5Vc4GTsQNeDakLEOFgSiFFt8l4iN00xpTQ6Y3EJBN8j8sapi7OMnpDrHX6CcJ72WWDvQneBaoXvFvTFIFUrF2NDlRIekq7IiqXDw0eoTo9Y0bIfA6wptigTdHynA0IqJYa6E4vQqWxGhvyeg7mrZ+HkZeSqUVLUG5sd5Gppzg03g6EeYajzsqcnoTgVqfmInUfEJQY2QzjMFW/U0FyOB3sS0PyJWJenA/Q98CAnA1CvOmL1j6GzMSUrXZ6x2T5G8L0chVj7YqxXNCUPDvk7OxIjkEEaGN+R3gewk4QkHaUp4iQPjWx29N7EIVY430F+01iFG8LS/gl6Z6BqbL4G6pV2ewf2xqITRBcj5E1R7E0mih1tnDRyF2OB7EI90nWQxFPgShtPQ2vBwxN9hobDVTRJsairCTx3RHgNEeRsNdnUNQaVCWcg4sDXrsctiprPHXIk1WbbKho0N3ofomkJNo3ocCZwz18iKU4QbLTGZyJTSISYmbYqh2CvIiQjguxugm5OR6ioLmMLwclDsL+R/ZNaE7OdFuhJMVyeRs6NprQ+CESYl30SIcmhl8uCDHYEl0JV0o9kueRW7JfBcFNQbRq0cOx2bYx8w2OmyjaywQ57OsXoLodKYPgROBwLbHyNUyJGoVrRurySjG/A4uORPWxJwz1Hl4IasnJT4FF+hOrYngMSK8DcJFTe8QzXBxUH2Oinrg0OFNUC2tG40mhzspkhaexsSloRyK0boSoloSEFOA+XkQbQkCdbHsPQnY/QmtHLfBOj2OFKghweLkKXzjyb6wThpqCXMK3wJaXuJx6CUIejZr0PBryUei7jg1IqQ2+BP0ejG75G60ja6VdvQ+yak/k1aVgmEvuTC7rY3dp6UbfqNIUo50dbFoJqQ4ibf8mvZ08jf8GovXs2N0NSC4NOxvQlqxtBLsZyDXA30ixvRpNdHgEuHk73gWuBuxLsUPS0LQ0+hKtG3Z4Gt7xrcKvcPkQkRtCcWxBpTpEmy1bNEQ3GhrzIaWQoVsI1GEiU6MSd/o4TsSUlNDvZ0pOhNsUeMvkeaQrSUdG3J5ydDrZXD4EW0J0eQaEvuFQgWI2FbYieOhK6FUhP4ENmoWLcMVdIe4uhvQ1L8jE64G3jQmN9EPrWhk0jw9nEOcHiOLRGuDjGFFydSEkOToWfQHFMOooo0dkMcBYFUF5G+kecbWhzErCVrY1FcE92bDQWnejsElyNkKNE9RtC+1i7mK8i32OzYahPyOMqQnb7HQ+BC7GCIjRtjfQtDT0FA5CHgiD30SJonR3GJwjRE7PUfdKo3Z5R9x6Ol6GlDbaG0UWsGuimoIF2zkaaGvAgrsU30diGIkQvUTs2JHUhqjVqxs1DximhDWjQJl/AhtDuQiGLSCVsgUeyG7g4Y7PyHAmqN7HUHTCAl7FyLRIQ25HXYw4xR8CcOezSvIo0GlglEKMTsJE/Iv8AgfoJxfBTY1qZ4M7I2T8j8jkacC32CaexlIzumM4g2vIgTnNINVjf2Gj2uh6JRHiEm9lOMEiUOMHXQtdCYU4HUriS1dHujJwJTTHIIXuQwSgS8AnofPBTZK5HsRJBvUJGjRj8CWnQhuD5j7ytobwEONDabaIQw7o03ggp6iFX2ewvwwMQaR6Cd0W3StPA4qEhr3wRYx+rQnSOXIqNNsoqTIFGxrZZoW97IbOUW4W6weUdLY9B7Q3g8Ug7o0NOD0CZWiZTYo3gm6x09IZ0SHp2jTe8SnCKJORrmjyG5HaJ3RlIJeSJsaOQlyNMb7Dbbpzmg+jdWI7Ht6w9t4asnGKUbdHAhNCbZwDi4F3hxyLk0Y9bNgg1GMzzjsZRLiaJUdQUtUPYtY4Dos1jR594F5HpIKnIa7Q2Nw4IW3glawNNCJSbfgUk9Ck3eyd+gtIRSol9j3wNQiOTF7KYmSMbOJnGhtSDbiWwxM9ZyquMUjmOkJMZ7EZiToaBIwkFsNmLwIl1wU5GVVClLVGNtLnHS5IZUqpsIKtojYS9S8JmnZ4vsabNU0xtlDbxNThGuBfKE8Gho2QfAkRfBzHgcD2NEb2eY9ss4PUoKtkEttidwYOAlDU5Hag1mLlwWrA2NN4OvWbbFqxOjaC8hcEOTE5GjOo60ITfIRSehb1HyVORchtGpNEvZbZoqkcXAq7RPzNZI4jOFCnRr0DbsHrga5NsbNcj7Hsa87E6KTQtD8gnS0OwifI300OhNGjFDGT7Mg2SY4Wh1G2xbTJoXpnOKMSDdY00RoW0U3BHZHZXawL7D7BQbN1WMKuB7tjXMK1oSC8ByJzhyNjkdir0eTFDoPdDwlDOOTaJwWCbZBIS8jY1BNMWrR0LQ/J6jbYlbGuyA5cFrU2SuMexINJ8DsE+mI5goXIWyQ2cNJQWqUE9ixoO3bLuL+Tbphc57N8FbG02N2Vt18G0Kez0MWhpj5OoW5DZpG6Dd0JiBHyewgVbG4SjkytoSTSOD3OKOAgpo05ScOiCgxvYoOlie6NiTZrsbZtpDXk5FXRScmgl35OxqI+YaH4DZj0PJyR9nEJzRfbE5yJeSButGcCRjTjG5GhQcHTUGqJeSXD0EHYvQTGUPovjFhyOWLB0htdE1sbwdhWNIg2iRJ9kFVzg6heTk4OItF8iUJ2NHAqD+I8T8kI39htaa+xU0a5HNfg9WbISaDc9DkxArmd7FIDYH7HxHt7FVEnZCFB7HKH4Fw2I95axshF3BtD+Riqg9a+RrQ7bgrIhYr5EomhA0iq0UI6EpaOgbhENBI2M4DWlLaI1E0WIfZGhp/EnsWjqIS8smPAw2ErghYsnRbCg7yohq/wbfDUTqErnHNTBlCtDbbZDkJrEkVhWhNMexMiEo3YciTXODQmhIiLB857YncHPvRBlPs8EHvXPZLrsdw2hfAfYKgZsdEYytFJ7HadFNPs7vBXhnLRHaLt+DQujNoa3Rh/ZIPDcVC5tLRUcocq8LSI7BSx0zSYIc9Bk2J6buyNjcHRLcZBaEqGvJR64IQgkh6eBXYSOjrHEhBS7Y20JiJhq7L+TgaljOZwH5lTU/QpGdFvIhGw44OJND0fJtjgRuX8l1BuxdUQNQeioTxxhvB657QkPRucDwh6crYldnoK5HVN+xRwbOjTYwe2j5GldHOIlUTs2WhryNQbNie6O1wE4zsR6RCKevC/EpHRihI0XwN0ek0NkapGnQzBFDfoQxD3CPgSnI+BYfSN8TGVao2qNg4YEnEJQigqxlsVmi1wL+YSGumSuxPbjw7oTmFFaJicezdpa4EMUucHgGhbxU9h7RsfYeg0LD0jvA1VBb6BXQnGNYVTQ9LMExK3jTLi8UkFobnJ5ISEE2abNY9RDDzZuDaYvZ9FJn4O6jOXAuho6mhsLfQvXZm0RsbLKDOIaOiiLoq6aOgWkbHxohHFEq2RyQR7PWbuBPccIZBU2Wxda2NEcVCojolcHYQ2bHJGijrOajwPBDSUCoeixWpERImxuULZw0h3oVIeET0NNMambZDgfAg7EJdDoPWznYtaH2Rd4RMRy8mWGjTZ6ibYsE9mmN9CdBHQbYsehpiERI2e4tIjeje0sUcm2jgYmxpaxo2NYLywrgeI6yIJBPsc5IbuINucKG9jV7HAt6gj+BKqh4gilUNK6I0HWiUPYSqI0NDeFy0Hw2LOBJzZIQbOLDjkT7JaD9BSmN+BCUGaVFXsJ6dOEGtNf8ifoJqsuuTUY3RFvTPIqxbifJwnZqDtsgeNYI4VpIdoemwXoocfax4ieTZBs4rAtKJy8dnDG6U4LVGJbCXsXk0P0OxwJ0bx0PsHpcFKzyG6JEM+wg+RqyUag+Cu8aEWIhhLY1yQjhj1K8IqNXoXfyLmJXCFozcdnkIGujgeiG2hCe8NCNocKipbE7sUweA9xJsdI2HrTU3ylb0PJlU2eR4DpEG6joapaNm9RaVGbTQp2IE1N7P3nejY3E/P3H0W9C0u2i2zotieWeQudMSGg6w1wVyGuiG7g10b6OOycHCN8x4INuFLT0J4EcYdEIQZdCDTw44OR4HQky+SMkEznYkbozsVLTINJM1VkaqGi0jtGmCrEYx7m/wCDgOBrwUTg4RBj40N0aWxmxIvk1NoYhQRIccNCQqR7nSw4CS5jbb0Tsbh9ZCVYtwNN74G1qY5Lb5JmhcqLbfAk2LSnJvYN2bHgy+RaqQrwoaQT0LltyeB4LOIbyK36BwTxIkbqnqI5x2buxMTuxehtpHUG9CovI64LMEHs5Gh1hY0cEHjaMbEn2aE8jig2kVr1wtUYrs1dkcD9BtCHsIW8SrBO00MNpYYaC9j2bDEZxyQbaOScnqEyEPRBaCcWhFCCFhLinGkbfwJdB7lGJsSb2HTY2chjsh7NqSUEN+Clg262IT4hNORcjHFWhzZWn3BcdppEN9EWsLQFC0Ntg9e5wlexzs0i5L04Rso+zopmL10dT7Y4XZ6C6qCWPCW0IgX+jH/FFyJPTYlAwaJhTS+yOj8YoHq8rZK18IetQjDn/XEpo34dFKkl5bh/yxp/rl/8cohPnh3gt0esHX+zFN/hGsT9nR6VP1MBD/DLsHPDo2m2xi1LQgv64ud9uKQ6scKuGIeKX8kWkr5cP+OH/q4ztP0obFieXBS/pHNdMVyeSD/WQ21dLb0L/Uzo/bj1UQkMmnOuRL/CKJtEuU8wJ364EN6TdjS/64/9XP8AgyCHsdFpNvhDBhuj9ubJT9nTRM2WBNrCOB+rhTn7cTLnpQijdQry4On9ITP8I6gHSGx6E6Gh6hdk4SxgxoD3iBmg1RwxzOclgjRPI74Gu2jaHpmqcLSD5DQkhU1OhV2FyCbfuPgOeBNie2hjfoHCG3vgb+xqj1DHACWP1QdA8m3f2O9cnQFAyKie3HVxonp7G4u/4n2oQneEJ4u4/QiTvjaN2DF/oe0Xf4Cb9gf+B/bPaL8/sXLXzD1m/wCJC68+rG6f4iR/P0IVykr/ACXPbfo0C9CG657RvsYbH5T+ib4P9OhHvU9p6w/5nPjs/hpLX3+g6nlSDfr+mPjpH/OO5H8eqOF/PByKcibL1/A3B/6M4j/1NPcDP+gPYKEkOYUMv9Ir6+o7/ScOf8FjvwMKjmUz7X69DGr+o22zyhU/2PYf4Xk38Dv9YjvB6XqJRiIMUDKXAqXpVNPEhPYoNUJ4aghIhIXBpclopRuV7NIpOKYu4vRm+iqCvIzlNhwNUPoliaI5K8i3aPBY+2/iIY7EmRVmlPmPGERfpn+mJWVH6yIX5oUw7v6HXtOCDgWPrGbgqMM/gNRpAU0khJoT9z2Qh+L/AGxLUCMByYC/cCXVeRc5A0W4I5eWv0i9JXdi1SLL8mQl0QolpFb4FOP3G7HpZr+iEJxfk+SOGcox2Hr+iPaSnDXn9GJG1bSNcTQn5CEPiDYjXsv2z5fyVdDOimCxqCuS6FtVsX8v7ZAeqEdKTn9DQUOctuDw8EOOeP6ZfTEHaMkFRdh8cioPlGkNvVCpYaJvQ2OoVGoQma8DankFbos2RaFyIjwSFNhNG5po4YgdsFadAS8YcIJ9CBK+By0IH5K4M2vQnA6D35N7C5ExJtqDuBvin84Q4om+X/o5l+R/4JZjSr7IQ35v6MjlKXXwcsSfdDCfV/Qk2vQpNqZMi/JQ1O9P6PkLkQxj36B8P0H/AGGvs/2xLKg2gsGoq71ZD+cXCQgtqKXmT/Az5/c+B8niiQrSUcXuxQ0v/BG9oKv4/oLGGtD33/0R7OZSI9f0YnPsaF9I3ds/d/QfBtvKIdt/Sfs+P8jDu58x+O/Q8Wgn5P2yP50J3/iFtL9CR9mzSngVM/C/pnP/ACbe8OGOt8XqQ2HtLWhNJt+BKBaE8jEHpEadjdKoc7OXI9UEwYv8iFIiqnc5TgSiWxuu8FhRVdDeh1iXY3yLuibObNZnN7NjTWB7D6GjeolgoHcs7mJw4pb/AKHIcn4GvYOGav3JKoMjQ1W6etHaap47FG9JDfdC0Ot163qcbGRBDbLy/RHwP48Mb9A+f6EfuG+fy8On+Y0Bpq76e5BiQn5xuQzzWF/uHTPRj/P1E+T2JLj0Q7PyBzK9H8w866/yXmF+xEQUHmfo9gr+58T0YxmvD+YM33a7XwL+f9RjGSdDun53zkL5fwPx36FtNAR9fkjwJb+2JbfKewuMG0aBcSG0Xp/TOX+R/vDh7cavyepzPfBey/5kNpQsNiIRIYrBqqOEPQkOSM0GgKMNNHooYvVjaGym3sR2ackAhycD0ZIOtErTHByCO6lWywYqbXklW+DimhvEsU6FFsQm7Ytkjf1iCX7q/SO+hPkdYnYXN/qkKme3PoXrxyvJNmafk/JCeIV+h19SE7hQv0jjJTwG10t6Gr9hM8MK/UGnz8Dcvcf5/LKl7oU2ItOJDWhDfz0aHNz12U46+HX7H5M+P3PmfOLYQl2F4PLEhQ53V6Q/KK+FCS9RB+GSX4/uH+x/Q9+Qn9iff/RiVnsJXU9LlUTlU/RQb8xzCD+Rh875xK7Hz/gfgP0JeOR2KozufoEkM2zjn10ICCdUNTrQ9cHq+3+zl/k/OHHBdvj7KMicL05VE9J6FDfZoti3yJeFgb5hoN32PtavBGtDbkLhUTqHPdDlfgbtIXx5EuDhCrGmhuEHX0a0EIeKKbgjpsQ60O7QtwYqxzZEUic4b8E0gzbxUdH3BWUvYyawdQWJkPUM88v1iX5XWJ/J/Rjn/Tg7ffCfJ4ZrDBV8Jo7HVV+1HjLen/YKT9TC116Mb7P9s5guoSqKXv1BPaQrHyOD+DR/PAtR6PAfifJoLUQhDg92L5vohU9YkS/hP0QniOW+xf8AB+zPzX+mc/4PwBPJugmxU9X9yPhfuPhfOGm3z0c/4H4T9HUPEn8gq0vIp8+1lPFlMxKn1/Rb4eGc/wDItJ+Dj/n+5zDO/YLoSiJ4F5C3FhwNk+SJdPIzkaE/yIG3ogh4hiSi9QS0LSeTQbFg4G2wt9CuAkYZd/4EusgLiKDvR6mwq/U23Ev4EERNjV4FOyHgy5cIY1p8kP3dD12HKjgRJMaVT2WB/N/RlC/pwf8Akh68RI6Xj/Z4WT4M4Et+wqZJuiW8MR6z/I5w/Uw7ifyPg/LNIT/1f7E6CffEJmXoLniobM6VTpDj9pnV+bPjfOC1M/lDkd6NHgArj/YvuCv8t/Wb5/2xvm8MfRR856nlIXX+zk+v9cW7+Oz3+n7Z8b5wPg/ByH4D9EyEw7WetbK29UInwIZ2fycCthovQ8Is4Q+qL/gxt2R6JIKykRzpD5/ucxy+we1iXgsTwPYtGmhhMXIZyU+eCQ8UbjFva5F5cia/j2NbSQiQi5FiDXGRPgUMYfwKgo2eIdQLfXZy0NdeCCbKbNhXJqJslyPs8Dkytuxs+TkN72c9ibHXIh6H8IX+4f8Ag9L8v8Hr79tcDfGB5cjy/wDAlJGfnw14I1Xqf8J39j/wdCxNxbHlv/A1/wC3/BbfyP8AwKV2etB7f+CKQnwv+BvaND+Wx+X/AIJAFV2+r6CCk5Yb5+1/4Ib56D7PUS2k9fX0Pmv/AAQ/2f4F+vPQSwO6L7n/AIH/ANj/AAW6KeAkL0iHsMUv7j/wNGaM5fT9jQPnNyJFew2/5X/g9H73/gUdHaf+DUiqXu9Z6M+a/wDBH/I/8GsLf5Om/rb59mfFf+CH+V/4Hc0Ndvz7Cqrf9YKb+z/BOv8A0L6XK/FGa0M5fT9hqT5PIsNL9r/wPjVba4/4cg21R+g54+539H/Vf+DiAvDGOw+WGwo57GvWvL/0L/u/4EFIkvRv/AiK/nvYtd/L/JX/AGP/AAJj6RsTBmi+CDP5gUFdo8DHvInQQTe8Y2SpwUgmoIYcQg9RoHo4modzNnBqoSEjeDHYm3ehf5CbbHIQq3RLyaexO7EiVJCZDTo5cY8dGnj8EehNF+Q3aL4EEfT8G6S4Nic8fY/gdj9YMHI9an4JFx+Br0HoNAr5RXo0DMC3ufgRyNjoSZ5i9jl/oQswcsfOC1s/gb0G9Pxjyn4xuegvRfgp0F7fg2+iFvQvYXt+DZseCQ/ge3BfQZ9PwRsaFfiLHpFvg6gkw4HSGOBq6NXRjEI7DdRK9vAK54OGSrBzyQsfbyewm2qNUhlJhpCegNNvuVaIaa0kaD5Te5uxtLZT2OMSnBAsfP8AA2NYbnsfKz/YBsR/sP8A2JyKe6aDXYulecD0Jc9DI8zs+diH+wv+0+Bi/wCg+VkHzJGQjoLTQ7CsvY/+s/6p8rHaSrzTkbz34Er/AHP+qfIyv+wuRefwaIXbJCcglf7nysS/9xP/AHH/AN5R6/UU74c/gWDHouurxom/8z42dv7lJPzGfxV76P8Aqn/TG/8A3F/0nxs+VjV/uL/rPnYv+s+Nnzs+Nnxs/wCif9Q3f5nwsf8A3D/7Dr/c+ZnwsbiVttdkHjRimiwRs4FrkpsR7EvYlBrro7SO0ckNfLjDiBKIY4ecGmSFeERsaaJ2bsqkPbRHyInCodsXkr5CQ0ISxINJqSfqIjx9AOQ9GfwtHInsuxinr8RY+p9YM/ElFsZ2/hHwTwsz7Qvw+kNXePyg0eTUPk/LKTAtNHt5f0+oMNnqu7/KEx6jDPlBGi7yenZi1Xp+yH/+cAEAEF6f2iCPRDkINiUG4bYt4PKJ002TsT2PAgN5O9CVwmhVFg4CvsPE2SCx1yyOsb0VyvsdngTs03RLwNjRSnqVq9Y4+xFPU9wD0/P0otAkaImKFfX2+pK4esQ5Y3Dk9DGL3y8pb7EPzH2Cl+19FZRi+dRjNpCNvr/w+KZ9xfdo2SaOR7FTRG+F/XKHe5H8I/df/QTr8oLBj8BuIeiGoKm8ajQoefdNIWuMHBJdDkKmNNHgx7jQpDYbCN8i7F8mnIo7MV3hGw27wVHSEnBryKH7iVFqHy70PKfKIz9R0egjo4Dy/TNPqaNEG9JW0HofQm/JLJ7Zqhdhp1HCbfu/o/n/ANmNjQ9kC19f1v6F+0QG3NlJ/wAF748Z2aLpfk+qNvD+xfh/Yrw/t9VD2P7Hsf2K8P7Een9SZ9P7Hsf2K8P7FeH9jctP7C36ZMmD8BxDgaZOYNsUDVFLs4p7F7IcOkppwJ1U42NIZui4EwURyvCo8PBt/AifIl0NEXVYqGbG3ENFo8xdjYNl3ogp6P8AcKJnZD5XyxIpvlF74IPbf10XztD2/hD8nOyM8/0Y9ntn1ELE/SLMaL8fu+h3rFfgSGcM5Pcgav3+t9qdNP7FL6Zf0Q9EP8M2GdqR/dIhu+BYxKbV0YpZen0JaV9xr9I2B8+E0J7EiX0JpjXckwDEwQGkJQnjghEN41Bs5izBhQ1ivbIBRM5BVsZTYtLeDXSOAQN00m0aLhU+D3INa1hs9G9DWh0WK0OlH8ka2sVwMlobIV1/YarnVknbwxvejcZbwj2myuS8tDFeoSOZYq8f5Q0PIWHybpmreXevhnouhaezFIL1fl/RYeP3lQTzhA/Jfstl2nqixk8ZqvRjgvPUe4cnl9j5w6JSGx96H4q+kp+2/SG9kDJsX8zh9DiPs4SppyaHycFB+4xG8kYqxMs2N+AobNi8mLUegfqcjogSmnRwE9DcOZHoJaO9j8HpEnJzofMQ3oto2QnR4mzIKB9CJo8Az+CSf0BD/VCHAlr0Z66Z3879olmByNZt9GDzsU2Kfpp/Y9bwkfJyUe6LQx/kj9jUzF+hoU8EsJFX3hayvhn9noR/TPI9Zv8AI4bYleT1oz4epZ9YDIukwWH5w/HX0tj5/osabI5RwXycfocfYL9vhRKPTw3Y+Blhpg1EIWqJdjeDlC0JyNR7445wQl3hMZD0Ds/GCroaiDvJ6GheeRKJDYcWvIono3fAmj3ssEvIoHA9ogPmFmPDHNPJ92/oe94P5FAcH3QbWSEn0r9miUuRMm7x6PaEi9jGu9H9/QaPl/ZitRyx1yZ5P2E+OLQ0TehVeJnmbao2GNea/CHmAf8AJMWiFhMT8H4ZT+GW+EUiLx0LZcH3ofjr6F2Lb+V+kMuhU1o3UcPocfYNfbD2JD0DS5PJCG7hl1sQQvgQo1WJ9Yd4XnBbN9CEg9CLstQxaUZIS9jJIeg9aPSI22PkQdjXFIbUS9HcNniUUeR/RikfT+39DR/zo43GN82Erg/2V+UQfoxz3wzqx/o1/chv/RnsZmk90fzP98N3CicZoG4srfRntAzQvn9uAPXlv19D0ob9YMQa/K5NG8/CPZyYlTbH5w/FX0dj7W/SHY5Igmg4/Q4s/BHJYXZKi9CERqPHwEoOBb2a8i3hPo5OELeHoS7EmD2aclpXitYtCao4lUcEIaPg8w14PUTE2Encjo7HyPZNbEqhBaT2v2JG81HhD1oCGKXifwNXho0zfB/Az4Y4zwKh8lcF8J35bzwfP7BJzoj24mXpNZckerSHYX2xllZ6s32axZK8wSmezwUOSR4L/ZyeKDb4X6bH6HYkI+5D8dfR2Pt79Ik8RQjXHH6HFn4AkQ9kjKoIWyOB8GwxbHUJ5OeMdsCbFwUTuEvI+BB0+S5CghrYzXQx4IZk8iSwSl8FNFiI2FD1B6NjkjdxEbPl5zy/g9OlLFSj8R+c2Qp+43kSv5oJG8r9Qfof2gse6GqWVpfG0SJ6I6xhSY9Mmv0vocj8KH16j53ujTWZC9X7w9nhd31rLcrySnifwi/ge10v7y8oa6/ms2h0TExvtM/HX0dj8d+kTZBnCOP0OPsPwwg9MZYbhsbFFgxFE3oWI5Kao1VE+x0tvJpMY3T3YbhYuBsXCH5Nsmkb4bcJ0egwm9FNg6jFo30a6YkkLkWux7FjP4mnD25aM9AkPTw9yft+gRIeUhcKXV6rEjy9SB3sgxvq/dCRzCGLfSR+irQ2qI3L/wCSSHn0if6Mf+OavpLVsLUE0cwWks2rR6jP/RyPRnsQytiCf9xa0MmE+8PwF9HY/DfpC2w4OMcfocfZgjHIVHpsNGzZjgXZsMcNlX0xlCxD5LrQmGClHzg4ex8ngl2K2OIJ6rHvz/Arok5NRcieBNUHeOyRE0KMqkGwXzhuH6moJ5R/Ih7HM8kJ84x/CCjfq3lXrv7CT9C42XNZaL2Gm8T9HB8NoetjgK+7/SODsPE9z1TYefdoUQs+n989n4L3xsY6QT7p+i9vL/0W3eiSu8+8Cf2Z/Aw8Ex+cPw19HY/CfpYlGqJqOP0OPsNH6CRXWUjA0QhOs4HVKcODZpjsUhIdwiSG9GoQbQllatUgnZD5K2Lgb8GosFupiPyPQuNHPp7jJ2wv24IlyOU8BWboqSE9D3q/RZR8WomK9SjV/wAYXR8scGg2etrEr4fOzRzvzESIPCWl95a/QgVNgmHRB5jb4Lr8QY08f5eX0vlHuyE7FyTzy/MHn7PfkQorJlXr39oXXsiYbmPzh+Gvo7C/afpEKcHGOP0OI/E4dgslzZHRZvDBOnEfUF6NjGijZsEicLLDwGjGw0L0NROFb4H6+StHiJQo4hJyQzjovBzSJaE0IaIXuF4HE2FpyPeThC6LEhzk/Q+Xmw9f0ZGF85N2IeRikvIhfKy0Z7/r9I3uSN6XZ7sQghamN017buCP7ZlV5Pbw+cuc/EzTPZQKYS/R/uhI2YL5cjH/AB2h6wlRHpi0/WXoauH3ofjr6O5+E/SKaxwjj9DiN/bCUobnlcFob2VTZwJRYI1ssqbkGUxRuBLhLg9CooOENQy7wPZDXlC0GhSRa0KchmyGF8kIQlR8wfSE2RcnH9BI8tXh8/kzzfthHKyqi0z399CldCLvn18b9HsJjgmaESXj9/0K8tMN3La6d+WOk9Dgh72fhsgk/oVT40PePPwVn5iGNi9RBsRfzD8dfR2E+2/SOShGOEcfochr7E7IPAWu8LhySDQtZxEPeO4Qh4wJWaYcNmw2uBxuD2PFTaQEg0JWI1RDO8nY9bR5D2ao1C2lhjoTsfDHo9YU3+tbL4V9z09wao1Iez+yFjfSxD/X/wBpjUQdQqNjRj0aIzzf5+vmj0vQe2F1jBrt+m/r4+0/n4SkOSaI0v2PTfc9nH2LZ9F9HYurp+keg+4v+w/6RGt2PV9BtMXS+gX/AFD+3+QnLomxoPeNIeti8j5CunI22coSNqijUORD9TQNBB6ITGqPTDjYG42bZsLHnsRNiCRPYbaNeBwvk5WEIPKPag9mo+t69cN/J6WDNxDF9hf3Q1X6kehv+ZpybC6i2NCRkF/N+ta37FLyB7xRoPRnsk/v6/fMe2Q4Fs+f6oi4V8R8p9ev4saX/Bz+pqaPnRo3gxaT6IaOjgg9sGb0JhSJsgzgV3VjmUhsRxE6iFGxabQcIh9CXk2SySmKNjQmUF0G8LbOxtlhsKPBJx8b/s/r4Hpfsd4ExdiiI/d/VRlYjrxoLQjk1isb6qq9dYnU2whS84v2NT6vi5piT0x2PVPm+q/+QQ5XxRKT2zNbxekILEwzmSo8RbHBVkGXCi4oyh6xC9h6DRXB8Dagk5GGVmzaGpsuLSWXA1Vwl2NURY/nv2FFFFFF2e72/GD2KJkE/DIf4KLKKKH/ANfc9VBP0OAogsP+Zoc55FlFFYeun7z0GybGn4tMdWUUUUJ9C2Rz/sMouBr8PKHUsooooosooooooooooofUK8GdmPwMTo3wMEeg5xR8MKkOIeuBmmLzLgT6K3CRjYWhyPQ6mV9j7C2j2JMGq4NmzyLsehOtGhdmmkdl7HyKxaOqNLuf5PRfHse18ex7Xx7CZ4+PY9j49ijr49jvL4b5wgqE09D4aIaxF3/o9j49j4f8HtfHsez8ex7Xx7D/AI6+w/g9HMcmgmhIP0HtKclfw/g+H/J8v+BP8fHsP0fn2PZ+PYj7Gb+H8HgNZWxNQrsvOPj2Pb+fY9v59j2fn2Pa+fYXp/PseD13eBvoRR+7/Z3T0/z7C9H59j2fn2Pa+fY9n59j2/n2Pa+PY9n49heh8ex7Xx7HtfHsP0vj2Pl/wex8ew/R+fY9v49hen8+w/T+fY+X/B4Z8ex3Ec43iTpo4ylo7FFxvDQWhaIEoaWHtcDD14R0bTKJWOMsKQfbGrNKJmhdDTwqRvsZPglNRA7ZeQnyEcFo0Keja0M2OlgwoGRiTYvAly5NnkQaGwn6FE6JzKZHNZYciRWbbNELgRCGy0TgxvBpjTxzi4b7FvLjoTuGU2hDHOEKdnA1KxycMQlvEo0FoSOR8Ch2WlbeCC8hOFo2b5GKuSjTgZjdxLyTsUaaGuy3hIekbCUU9CDRdFgkmW6PQWHAomhrFA3Evv8Ag+ch+X+D5yPX/gfl/gS/9R85CX3/AAfGQzIkkXi5RUJ9xytBevlo0U3yK8aTGs8obUZ6PX8jU7GvB5oCkPREcnfHs+Aj5CF/8D3hGx19kezdf1Fnv8QmM9X+eNMTa1+STa/URd/xobGx8ZCjbwh85CNaPsJqaY1XykxLXF7EwlIS/phAcD9C627/AFRvknGYH2cJf6D5SIao7NiA+D7FvBQZw/7yH/xiP+ZH/WR8ZC/4x8ZH/eRP/Min+oUNbQc3vk9x8l2MauyG8IbpKidHA5wbbHoqEhoLY4jkXgujkXQgcoVx5wTJVldmw42PYncBMJBVgsJkN1bPQJNm/tMatdP/AD/GEv2xn/F/SOZ8v0fxMSfPsmm7tcELwLN8thq/i2OPOH24ORv+U9j8VCpN/jkFdzTU47mz1skr/Ip86v8AA4MzvYjb9uVG8X3NCOz+SL3ELwOI1Y3y+WLGu0IjkTC4x76Qor+4HIU53ryMl7o/Am9/AWFMLf3v0Zow/wArtiaFWNar+8Htv/aFzcmreX0hM/O/r/yp62EycNj0EGscHJGh2KFg94SNBhLSOHilDgYwuxsLQux2HejVjd7E3oew9rY2odwSMsGyEIhBIidj2bYRwPS9CYrQXglfb/yR+MOr4Pxf6R+S/TGYmf2ltqi215i7fLY5/FsfDcH0KB4X7YlNfCY34HP7DjeT5KIvhIRMg/BF3C8FF/h8sThY/hfIl+LlCPHpfo/aPxH7FJ+ufhhcU35/6M/BPmvLI/iZs5P9Bd/Fs+H6oXD2R+d/Q/8AyqJx/YNWxDgl2LeY2uzh9Ia6CII0xHqNeTshxPQSaPA0PY1JLi0mLwYnQbgwi3nJpo0xdGpGQbrQ2OzBufY9zwq9fsX3+xV6/Yq9fsVev2KvX7FXr9ir1+xV6/Yq9fsb+0PwT8T+kfkv0y/4T4/cR7k/ucD86cvi3k9iYZvsL9siBpvl/wDSe/2f+BpWuFw8Suz4HosR4H9hwFH4vq8bH8f5PleqN/4r9H7R+M/Z+dP1z8YPim/P/RnOfNeSd/hnca/wOXxbHvj5QuP4RPZz4P5fYq9fsVev2KvX7FXr9ir1+xHr9ir1+xV6/YT9/scr3f2x8jHYlhh8kvJwJjYsMgN4XQeBlULqJjosD9R6NCWxBcjrQTo3s2GU5wamCM8ip8YNCw5KKtkhyNDjh/sYLGhr6LaYF4J61GLfaF+x/SPyX6eG+f3GNEceOCj7HP4t4uiZd+Av2zkyM5axvk+R6LCfwTnC8FH5vqxDn8f5PleqF/Bfo/aPwn7Nven65+OzUy/f/RmjnxXljnTQ9Th/P+R+jbb8diSbb7JRjzGLHmy0Fr6JtWPWgq4g1wXDHJooLQ4OxClQkEcLDY8XTY77EVORKXxgexAxBuLYgmyHAlRDFhDEn2LCENMIN+wxrZ4I2hE6OUibH5P3PU/c9T9x+b9xK7/cfkfc9R9z1X3PVfch2+5IrF5EntH4v9I/JfoQ36/3FW31FIt8wSHL4t/TT5o/Bftk6bmC/wC4ladGD8nyPRYj+CcuX+L6s4Y/x/k/NftH6l+j9o/Afs/On6p+GyKvgPI/SfEeWPWdni/3/wBCK09j346EtV1y+xPsJu8T8nqvuLzfues+4vI+56z7nqPues+5637nqPuet5XY1fZmjODbYnBiIydDQwtjPc02cnqdZLvRB3JIT8hJw8RrCIdD4yfgJHM72PkfBoxBbYcCkCTHI0F1BeTgSOQnBrH4Q8f+X4Q09k/E/pH5L9MWg+P3Hn8hoK2i505fFsQUHo3P0PwH7ZL3/wBGc/4OTAfk+R6LAeHtE3Dce5R+L6sWhj+P8nwvVDfgv0ftH4j9n50/VPx2ZV8B5D/gfGeT8djz4dHL49n5/wDaP8I/L/8AL4RwSR6IkwsbIfohCiy9nBKNIdDr6Cdcm3JSG0ZFa+zlB6cLQ2MaExM9Bs3yJzY3bHvgmtjNyH8D3ggdDfqOexnLfGJx9BGoYhRnj9ZeP/Lf2p2PB+J/SPyX6Zsb9H7n7ht3gNcqbP4rOXxbwYiXHtSHoj8zyJv1d0tvXgTfBejZ6EHfodbaYv2Tdh09y1BG/O9WQ/6ClT5XyK+4RG/HlFUQn2n7F+8E/H+jicQLV23aFtrsJPkaYy+w+K8s/CY/w9Dl8exfvf2hP0hJ7v8AX/l8OdE0noPZIViY9nAvUtOgg9lg2hjQbVGLdGp86Zc1yQ/HJBoetHgRjSm1P+AtYHJBvRNUWiDQfY3gkPeskGnlPsLEVTHTaNU/Ii9cDg+bEDgXLV5CQ70Pv9j7/Y16/Y16/Y+/2Pv9j7/Y+/2Pv9hvtT8c4U+PXojgb5dejxX4hetT76LX8Br3NP8AcxjaP2vUenDQTzyLhv3sTd7/AIH5i/gUdT1aejrRFljOx4NJsf2im5fYT1xf4exJ0QWw1bX2E+4fZizr1PUg7b9gW9WFFqv01/In8/8AnkaDTI/5i/0Plweg38wquVtdOb0LPJ/nD4U/a9WR1Ph9HM+NDm0fteok5+fXqiSeyG+8fOD5wff7H3+x9/sVev2KvX7HzgXzRV+m/rLEhB4gtCFHoMZ7HIUkLr2NURo2egRp26OpnpL5Q6KcjVGuBBIiUY0IexDcGJRjxJwmho6T5FLehlk04JR9jeUxVL8jio0Sivv+o1uv6GTdQjESteRvDZ8iW01shKpIbF3iqUnCGKoGVS4lhoQ3r08wQREL0IKdrEkERUSGNaRjANxkuIaWjG82ZIaVWc4a5Ddts8DUqzZiaC1vIuT6Ca+DQVCVrsWh2sbyS/rNv/8AT1XHPGbi4ciRBujF2LI4o3gNkx7W+UXex/AW9CdEaURfIn2mjHsTo8CnRuaCGG87iQwuG7kvUWnqatrsXYWqtCMWpdPIm9uizIc5JCYYn0pMQmb9D+hlGJTDGhiRSUmO8qDSYmGLHY0I40TC4Yt5Yg1mDcwoG6a4WhFDoSE6cDYtDKMQkPEdHEwd0NFtibbkeyIT8iILAuMIPWGJCGNCHsSGjUK5H4j9Bb15LEiavBb2JsGhlQ/CFmJhoYl/5MWUNZg8uCnOLg0JDX0CjCey4WiDYYzgXOFjRMTPImUexBLyNwbwWx02bEij0cieEpBrvHZfGHhg54GjGpZMtIS+RD2uRKQ/Qbp0UR6ZEEiYlITBWA6oK9oX4OB0db4PCNhO+CYtzsWLiCxPqQxDOBjSILJ6w0cZYhCQxY9A3BLEORFEOCwxDQbQ/pUXFaNC9Ro8MNDWOPoQ9/wdAvQlHELWPBzkPeUEhhGI2Y8zTCEOx50uFpneEuFNDQdc4o4wou4owSEiExSf+fBbif8Ag8IeyzHAnuCQkMWVwZPoZxjkWGyCRD2KTCyxHJDFpQnogxjnguKCYlw0ckHIjnND8CQmJ9E+hjRMrWEsv6EMV5khCX/jyImEx4pzilG8IZfoohRooxLCHhL6GoIZziwhsgvpkEjg4Ic5bVYaNB4WjkSypEhKh9HI9DyUtEOsgLyUZYOjgQ0JDEQmGiZn1NYM4ErgRS5v/jYUWYQehPL+gUpInhSMWFFkhcEMbwyDOC4THiCY94GciwPeFouEQgnhBhoTmHhLliyUaJBO40cHJIxSkGzCY4zMTKWLhPFsWh/RcJlKUuFm4bL9Bso3iiDxyFsQcESz2R0Q7EvBYrLzrCF+tMzM+ltCeHhawhMOBEETCHASKQQzkiWHgbFOsL6GXDGi4WCysUmGQhwMMRcIpcKXC4J4pcUo6EVQ2PA5GFh3yjVg5RzfqUaKRbE4SjxvGw1whMeKI0RyQgvomDQmUmLhY4wxoSuEwaExMQTL9JZjgQEhCjwWT0bwbEUf0LNFhY5Gxmm4voJMWKM0TwTyZeaUSRoxph2FgNEasXULgNUXYhtVkzpPSTQUYWFqWHwWTCdyUX0H9C/8msxhjQ9Cx3hPDWGy4LeEI4OGIexyLRKIWsTN+q4uFLkSxTFl0QQeBhGwWKy8LDCkiwc+Tawb5G5aZXsLyQOYzfCkx6iRiQm+A0+Qoh1kTtDU9j2EWOWWsIrBhlxnWGmUpSlKUo80mW8PNyzYjziUmOSQYRB5ay1iYn0UQs3CGUbyeQbZOAsaCwqymC/8N4NUYuDwa6Ct8mjGlbbNTeBIHT4F1RwpImtiHseg8bQwOQ5rGjMV/q5pZYXPqN3BPBMpoLY80YmUZBrDysMQliHJDgaJSEysEsmvoFxSlLm4tGSw+Eccm1iRqIEi5syHoimmRXYsPUeHUPenShNDp8Cc2UGiNsHMNnRcApISH4jfEWQ1o15xGSkI7neF4mmhIbhqJYU5pxN7s4aylxizFFCixPFRC4RfomEsN/RBohMv6GIn0kQmNiViHAmUosUuS5CQ6ZzCCp3HiOQojyN6xUyCEGnRPBD9EFBuPqFJs0TEjzwcYKtLjsTWBfI0YlUWtJy4EWCh49IgaNrYzrKcYfGhCImeo/dGh0tlyD3UNkL4d/pdYnH0JFYU8XFL9CJ9aGi/QiDL9cECI0+prcKNjZsVGbE+B7eyW39EJQisFqhXg5UdZrjOBopEY2VM+zY5cKFKCTZv3AlyGvbLDNMqmNtSm9DgDgUGI57GFVGzgMYwLqTsfsgGaNGpPgRJzoVhDJmdMPg+hrnh2ZcGuWgjRMRRZZfpX/giZTFl/RTu8k2pRESBAxMYYatk0PH8lEUUGzoDMNtmg1LPAqCyiw0C2FKGomJi109AsEsF0Q1eC9h+zQqITg4DWjjkhWDwqgqcpvwVRQ9aQ1jRbK4I6PvSnCHxQ1GzePsFQsWIV6FpRoSDTirGBHIYa4aG7FfUQEvoYvov1T6jEyjwxEJYOGNlghA0xlHI72aTZZvZRiw0KFCA03hHrF8pHeNxRoTNJXBQ9mmNFgRDhCTPU3lAefIlxBP2QElDqNGmBFKxLRd0OPfAmLTEBUhmpFFM7RGzVQWhi3tkkbjGzFtbIDWMps2aGg1mbSzY0dHOmavk34HMpgniTpcJfVfoWb9LGFgsPFEoNw22PYt0xw9HWyKhtrR6jdaNvQ7cFpkohhPEhRz44R7CTSPIQiHpF7lQuRIO5o2WzZRYxHCNyunGDcUZUS2zRomMMXEdYkWDRo0xi0xQhuw3qQWGmPScnIGYOBaVZ1NwhNmxjnsNNIfsqY/UahKhIsUcsf0JuB2m0uB3wIHLZYOaGqhpx1PQPuZZn0EL66X6ZmkxBL1HBvwSNjUbPkXA9SiXcQPEM8CvnBsMvgu7ldrnmNTzGuEzzENlU8491RcZkXYdYOXoRiZDQaooO0JPaFuiCjWVY1uzR0OPJSZSKuM0SibxmttClTkrE15K6RRmzFLBdiyQ9Q1jlifJQ5Dzo9iCiVk6MfZ5CEg4xsnWbhogtkGt4Nuhhpw3Q9ETD/8AA/oZS4JlL9VLVo1RidDmNBKUTse2RjiPWMx5Sp7G6JRU+BbeKmM0QeBYqLaHHON94m2jZFMZSOWUt8tkGjdDjCE4jsFsnAg0FY5FlGg2Bkx+rIIIbM0Yjex7E60OweGPwJeTsFSvqPYbYPeI6BdBO9scmx8YJiEQzpGiHPEaNlBwNqzYI1Q5iKnmpiy//FvDwaGxfDFL9LMbi2DXQqExRm5jaFWxulhToe2xpwQehabpq0SE4tcdrFow3gdXDEhz2PiGr0Ob2cwgxGooNAle8TRRilQ2lBUtDqJkwt2PL1gVBqPoeAaujQ0nPZNhBdYOgW6JDVbLfI24Qhjo2CKKYfZDjkiLkqY1KC0XuxDEXEiuT0DbEmHqKmhYK6wMIRcsQ2X6WxqLZQncSEXFLi4GrGuQ8hixjWzkvTGjHWzyWLtluDVYEjpHND8PD8ylZGmNDbGQPaqF8niGN7Cobo3k2GfAhsOKlNGc3kOY1sYsFTEFUzuJPQI2O8EiHyEZuqGNRYC1aNhF043gYrGng67NuhjGjYLD0ZBOYvBh0cpj6lRTEKYoy4WF9LcIsoWKeRBMoxTVwb0VRCQlFEPm8iNifZ5Y6zXgY2J1G/B4x75F4RtigKJtgMGIpi8DhoUnsRnWIYSo/gjOAhMNB27h3CLwWBqDdokHHtFUxIfGD0EnYOI2LqDSO6dwTUQmcAoI0bQ4YvMSERUSgJlyNaxFv1H0NOBtjaaE2KDiaDg2XEzAuWLh5k/pbHwQwInLFQgtgnijKUcleTk8g7D3guYm0Yo0dwi4hyCJRemOA8SpFzgthOnnHSze2cYaoh+6Jm3jewUWzpJkjZ2DaFYZ0PCIyZQe4uzkWmJWyEC6OBssHBBhwOgGaFDk0JHBPgWngnfcShwJYh8CHdDVwNV0QTIdOjZRFySDU/kZT2SGPgLRuzYrYufs1iEfBiRcTEzkpaNkgtucJiaGgn5EihmdqVDpqDeymxOJBCpHEFvGg3Q05EjGxsTxs0bW4O6OCxIlISsQbDpiZYMNNnDZsQujY5wEKGg1NlYkU6bMbjsCFKUDSPCXYbrOWHQ2cFiGhMliwrj1hDaOsTYpoZiYsJRjoLD2i4ICLk9Y0WhUsNwVFdmnA3eBcsO0KNL6NWeD6PGEROxcJORrdGvGQlhiFTYOMXsKUajZ2jvWKpFHhfmHFCJs2HLYklyWPRtG3BIjlwomwsQl5KDCEIqQmM0E2CGl2PGU9Y9cDeBPJYcsG8idDk6h8whSDtzZt9MwWhKbBqiCXTx6ActhSOQnsdeTqRK0as5E0WWwz3C5BNNrg52OBiHDZzwIUYe5BrGaIjXgaiaYlwKwdMehuMVNxOWBZCCg47MLEJ8FInCQ96E2xojYK7KGmjwGBhEx0hKoliRwi5hvWxJsXOA4FYaISRuJZmb4EDs7BaRHJopuGohCNGcrIpy4d2Si0EgqIEww9DTLE3MSEuRIxCDnhTU43hVsbMacD2RqkNQlQVLcD7l8iUQIb2QoxyhkoMpTVHAiaFrY13j9RSbIVjiYltGg1yNRN0a6NNFnJ4BVmqwDYJ3EHQURDgTEMEG8QHaYoM4Mq6R9jHRp0aC8jBFVsq+5sPikK4SsRZKRsLRDbS0UuecnEZbwbMtbGzo2HoUbZfJ6ib0P7GgoQtkCMIajEfRTycGwsHWF0PkblH3ipbLCoPG5oJD5DbGYcUmNbgwnli2MSu8W0cRdpC0jUe2DlvCnEPuc4Ps4WINm6FpgncJ2DSoPcemNx4ygzoPwdismUg+MeTImIuMSdLtiehSZs6NwG5hkrOQkSpUihSSYarRyPiW8i6BuySKcEForSPMUEFoVciIEdC1o3EZC6pILEKNOncNQxEXR7ZzRFKNrRB4XskGbBmLYpszR4TUmsVLgc+B9UNVE5ooLOBqGLPnEMJiRMmmhElHAaMG60eoRwhOyGxDGEb0PxOge+DzgRRLeG4aKJprBKuCeh29i+MZuVNFIccoq0OehXUo9DuBdICEFcHo1nSNhXUKOClwTuNzyDSaE0OAywm1WVNrhpIeY+lRyy8DXGhEwK2KBbg9wSIchHSuDl01pQQXfFRFg+BzTG0GjFwLZCDNsMINcGp1HibTXgZBXyJmhNBykShzghcD+BokF1otrZrJBeokGhaZsNAn1iqbOYLFjwHoeTHvjHljnZRkeYxVmlY5syIpyHFF4VOR1Me5bgsydpQQW4sQxV5HDJTYbcYmDbBO5oKYmg84mGw0IJpmkqXkPzY/QIYt6IXqeI91hvbqHTwsW8C88JOzas4QndCQtQ4SQ4XdJ5KFBJkk8kMKGPbBLwWtjBKOBTVEYbciBa0J4PyiSwqrEq5LrY44xOJHI3HohDQKNWxcEPtJC6YUNSEys4dXBVaJR4wr4Y0SLA8qE7i1HURJQ15FvIbtiKGHgtezgIYnAuI1DlwUWh6xS3cCTBrDRsehE0wFbD+BSVYykn5NkOc+pPZAowl5FjTaOoehlDZm9hO8mqNx6Gjo+2KC0KtTBrjEmQ0xiqFxojPQMQ8ehcEFE3Y9ocGqx7h7H9kdQ4aMWIlUJxYFTZBGNoKaJVcBUKQ1RjFbB9RFDtHAJUCsZM4IRNmzgN8LnC1w2Mm8SpFrOA5vAacCQ7MkIFXGfkTOwiEdjhUJWzSMS141CbFZF7CdbEtEcDcDsYlww9V4txrgljVhHASnC2kM3SJxHQQRbbG0N8j1s4iREdHvloWmcSOWGkkKp6EY1rQ9G472PgUIuxsQ1senoZkNsoNOQVi2w8HQsO480aTfFBVDdNBvgVFjUK04hBxoYI9jgLoFltOgks2OC5bZxCGE2nS8mK3UN37DUDQaNiTpGIPWmIvyXo2FI2aHAhmocQ7WSoUhqwGa5wShyNJsncLSNGiOy60S8YKY6E2s7EPFNWdhzTQvZoNCcoV5OywqRgsGpCVwrsaLXkcOFLhxiXyPgdDmw4dY1oTsbcOS2xCh60XLwIoVunAw7Gj14LYgQzgWjwEXF1gJo3bL8EOigVOC2miWIlEHpG2I5wQfMKaJwQ4bti7N8GoSPB9itRNPC0chnAeuSx4GNBDggg3+B9jnCjWJYmi2hMx3xSOrwNS0NxDKwSLRzSG4HLWHlexpBeRI0x1EiHA2LR2UoI0xlJQVmsryLiRBM1/Agk8JWNUILU0FgvkXYaqNRNOo0ZExkJlG6j6JBtrA0ErQ2zOTZvHhTiYP4G+bhTeE4IJGvDfAczgp6Q0ROik7UNFmEW9juJiJrJs3bI4QozjIfj6OxlMXQ1eP1jhiHKLPDFUb6Cexheh1D2EcCJKsWiynWMZy2QGmYNEotulhY/Qs4FXY50uxt2S0Kt3OPGax5O4EKHh5YdOQ8GjkJhQSjTPKGHnDXjdsMExHsatLZP/YaPhkxrk0tw0t0Z0WpFPAEuoqYvYlLTTG0ZworxNCXESKGykyEsXgcTkOx+RPFd/BDZ3D9i1cFA1jRizgoiopZGpJA4lVsbEHwEEqFVo8iGxFBKjZlIWhLehtYimuRsoiaFvbFu4TcFiQeinhpHrOJdHhPLpjl1KjvktKGw9I4ayisTGHpEx2Zdo2ngNCImzyN2EXaYh2LRc8oT9jzRjs7Y9Y9QrNQmFhrcnqijb4Nh1hZQYhpuUmhsWxY25j5Fo5yI2Z4BaIaS4WVzPFjTY82Q0VQkHuJUURFsjjbIC1IWkQRENzsxfuVwJiuSTeD02XCYxtnYuxutd4cg4IUEIaK0htWaJiypSo1RAdg7RT+Bd0eoRu9Chyy36JPDceyk8pupGwhGlOZZ7NAqHSY3rPs2GG7jeNY1i5JiYonjXqEJOKVdYNyoczE2gibIHizssaG4RsJmljoSEiyldF5Gg0QVMk+DQasSsNYmGo0bI5NZDrBJssGqkWqOkgl0NhJB7UOoamGtlotGPAUVK8DNofzIwwpPAhhFsXaD1egnZclBAhSoTQ0bGutFQ0bJC1FNEvlF+EUCMBZo5F0X4Go5NO40+BcCY2FbJgsgxljX9HsuRAiNT6EWEOzSQsTwJ+GNXZPRyaDbIZB3j8S4NiwkFmsesTaVN0cEPVC6JeMjxjPVCIpzhO3sm1jGVFo1llDwTmy1gn0aI2G4JTQimw8CJHJfI8Th7wQoIh8auEqFjsOGzeiVA01bEFoeKnGEnMJsbjs6CgWuC0G0OcxqhK8behoy4TZoFCZtEVYhcoeKXOJkgJLorhmCZnYsT6s10aAvoW+MjGp6wHQYfZMSrFhybCRTE7Cs2kxuUM+SehcRTER1GjgDjFCtnhkV0NvQ8phUbmhCay9j2x6jnkdRtsSjGuCTYoY+RombezS04JjzrCU8ivQ97RCRqG5iXQbUb4WNDdCJMxoYw0yQbxolIgWXtgwehjkbMRYUULQ8NxWA4KixTkWS+EeDFVLEesGQQ7g4tYtK4IDX0zK0L7jUawWg7orY8FbiiP2g9M8xNExaIuLYx4TSFB4Q2K2Y5CqscNDUNi9BskoONDNWUg6ISMZ0PQSaG4NDUOiaGuyjQd7bOxOCf5OUY45sN6hxGGoBHKZXl9miYa36BuzjIQ4VGzZG6DzdCUxocYcDRqjMSpMU149PoDfGpMiwSLgojiGhbGpdKCOxTFjZREmMn0TGujQF8RKhIiiXpzs7gwyUKaOZwY8mzsNoaB44tRuTFI0xCXBuN7JWNBooaUyGjvPIIgsTBKPQuDm4ZScRKjOjvTsmO7G/oe0mdxj0oXYWxIHURI2UMO6IsTKeYrRo2KhKyT4oIVgtiMExbcEiBsyCGiwkQhA6ZEErcTdWbGUyjYgdGIhyKZsO8D0PwvoiNxSYMNOjraJHUNdVryUwgJKHrNB7GmPQ8dRINDdhboTbYF9ED9BrCaHCbjG4oaVgK9i0Ep0IOLkQQkLOT/tCvJ0HmDoUGiWVzGiEGTz0x4iLIP1KzeEmNERzuCoNkOrsRCRvOhrFNNoXCxto4jFJwPYcCIbGOeJdjb0Gqwd2Rlzq/ZKU1EzQ5xjGJ41uGMtIZZjHwPQ0TDxYUPqUDHQ0lXj0LY00TRZHKsbUGpioKh98wijw7ELImzwhroRinUozo7AqtmrQ7RpBElsSo5li1xjabYp6HHHYD5jNhYnWIWImPuNr6HcD0sWQqEAbxB6F64huNVESZJYOI0EccXmRxtUaDMgXAtoohIyw2bw4gXZidoo8ZYmx20GBKDRnFHD2LYkrwbKzoYL2FbscIJEOJrzGbE+rgfxOwxEpyS0KFG08KSE7wsNGpCV6IlMKg08BsSQ8i8nGCQRyOmNsogpx6ngJQUymip24uDmHa7G3Ik2NxTDQYpEGsO0RoJXFaFWC3rJzmIQ6roKebhEVP0Koc3eDjYK9hWnSBwpjckoMU1FUJSLKikJ6IgpiuQm/QSG0TY8HisqoxfRtN46DGyxqVIG48nCxS0TZBE2NBXRFiCH/hRMsKuxijW9DkGpCEF6wIwUXjUuRPJOiEbGKi7jbZyiVGmnQXiRsgq0nj+7GCxjeECJjLUOSwHtbESGVHOA7qNdJ4X0Z1RdvE1V4RJSrJsO0r2KnsKbSIKsbcN5QawpMlcFDBNhBQ+EqGOEd4uJYJjNDhMULzG94g6PEJMqROjYMwg0DUxy5FIRUukTEobGjK98TJmfVsM2ICVOpAoWqKDyEPjVBgylo2noM0z1DRaGsJ3R6DYtAVdcj57GNtiryNY9x2AjQ9aJFRCjUK2R4FAth9BCOgboZl9o1jVcFJCaR1OhnIuppNlloYs12R0NWyRAmLAmJr2UsuK6wmB56ChobEiTEw7FoTI1DLvDsY9DlNhu0JVvBskEORIiQ2IkhaYSWDkPg0VGJSQ1jYQ4iT6XoF7zjhmM0NAouk7hGby0Q0K6Jm0anWji4M5WJEpX0GM6jpgtYNYQbJjdZBRWbkMC+AiWKPIpaKbHIhrY/iMXI9QV95cDh1wQmkokkJwFWkVJIcIvQtC9hxlyLU/BBGsKCwOoboazTotLgSVPQ7/Axw0NC2T4Ol4iiOaY5ZXsox0OeINDwLpsam8HGjCdwJQWCmi3BotnKwQohoxzYfB6Ykf0VoOf0OfAtLRYsT2Sik6o5jGXERyEoKZNERC5hbXqP3RrwKwihIDXXCKFx2R8kbyVF0DhDgadlBrgM7LhsYfMh2coiG0wUwWiDh/Ch98JcxriGkbkIQVDF9BX3PI3plSgyzwxa0JpsXRLDsToNeHqKaPFzGM5wb3jetmrUHuHYeNosNhaNsqjY+oQFBGkOUkO4naGTPoWFGr2LELo0tJClGWMxRDgaHYUGLs0wYDB8HjGbKZPop0sF+hrYtxvj1C0i4kjgIjnYvJziamabWMw4Aepyg2nC4xyGzZEbIhPMYRbk2TcMnjRoQ2O48FwBCaMWx0hoWjFhq5EqE+oNYWDRiilOMO0chuN5EIWDwZDj6F4DaFjbQk4OMFTTNKMX6LpZY0EUlIMbOWCoOY2ZSiL9DRiFiXg1KktGaB7jDJBSNBzH9FkQEpBo0OuBSY52TVNhJtjTgd6FOimjrE0XIK2FIjvwtuHJkkQFdCNWbkuhhdWRRi2nRr+5k3gJo/VDObLobCEMEhcBWhFjhFCRpiP5FXEWNM2EcHnZqE5zpcB6GWBI4Fgt4twWCg+jYQa7CrPaKaP0HuMbGogkgmcBoQl5GGuL1GXNymDwqlOCKO8ci4dUzrRZNjX0GJiusfmQjwd0Xg1I3Q308GzBTYoYwhoTUei44LElZHoUDmHkDDeJoGnJTbP54LY3j0ODZNfJjtxs0YaPPx2Vjm/c4pFs0HuKDDcFUNyb6i2sL3BaGl0RCAl2ac4UNM12mojdiLMmICH4ytDSVxcQqgvYW1FIa+tIUYt8FCKFQhtNmtQ2VDtikNEx0EQGG8FbnCKYt40R+oiiuhouRIkqE2zHzxbDaykLodsarZUOoNY2Wi+SLaSiZSX6iORNHwV6XoMPG46wsu1i0ZrEl0KWXKHciZ0emxqC3L5V1ExncbeO7KIDAtL3H1FZlxBsZPCjEHoaU3s6pCwpCQ5OkJyFORY0PC6DXsfWWMTJMazOqC6CA6gUDFUbm4a8gRZoOOcbDeORUgHg4U8mkcViEWKfkIFo5hBi3hVRMNnEKEBuHLjsd2Ikeg5Uco7MJXGDG4hNiBjORomMuDcoIfYnc8iBvgcVOpHGHMXsc2eQQGh5v6DIMPWFSj5wpVkFiovYmnoNPgaC3yEbNGXOLHrGbZ6IUhZlMZw1whDzEpCQ0h+wqBLUPBg8BwOJmdxGyHUX0FSnC4no3nDaRJiDwD9CbBsWHngewSXLFyTWh20JNMXmV0bj7EQQJZAUimJYnBu0UR5FRUIUEdOSCF0MN4LscMcBD/eLexT4xlFoJOB3AzZg4a8Ly0b0TxeJGJjQlR6NHqcgykxy4lxoe0QuxVkxdmm0gmIyTx2m/Bxood8kPkokXQSaxY1CRv+sLhKiOQUhxMZCqGrpwGE4i1pFubLGgdItHDgQYizE3cFdCHuK/gIiawbhGJI2FCkmcgeHaDINBpFksLRUbCKSQicNuPIljMjWXJdiS7S+kLaQUuHkJBYhRsVo3Hab9l2WwJOIThFiLRR6Gye4bJgkFslDpuJqjmDpMqbQ2jKTHWKTHlexbWjrQmqaI0FA2GnUT2Ggjj7BiY1cHWMLQwti98JsHWYz6N9Q9OYT2Q3hQFSs7Q0K7OwFPSKuFAgnCqyA3QU5qBw9DUk4XNgKeKwo80awqdDZTYkcFo5EsVhu7E7hhXka7YotKxOy6L8CEg3aJhRo3glrQ3sQiINDlvC2vGooJTiJUgw2aG2DexNC2IbKKTI4zamwSehyY5nUN3AtLZ1spWcOE7OhEmizUxw5YpKkQzgzSN2UOoxkesRj3hQYmjREA2e2PqI4OGKTCEtmwaGhLhnDpHKONHa5wkRNrQuSeBAv50IRHHh3D5EiRToaS2aWxgpvwdJoCS4WLQjiTZ5RcZ6+FFFBwz2gvMVLEtGpJMQGgWLyCeLbOJvB8KY7LgbLJhAgngaBqJErICmc3CmhsLDcyb6kxG8LuhvRKOiJEGMa0Mw6Qr4OERJYJ7TEM8DTJSCePBe+iocWeJ6DQtTQtMMjNUQnbFkElrHaeN2ohVseihpzgjOAEiGyGy1iBoWRf2GX+TROdh1d8j7DSoljN2xSRsIbgJBCQng4E0NHotGwuFUjWMWwuIgQdUekgw20N0uDwR4FGUJSYqUI4shTdlOGJS1gzgdQdjaiSRxGcDXaPMjfPAqFuPuArAgRVG2EAxkihhuFFGXMfY2w0jk0OmUdNElCzsrOMNUPPzg8gsgpx9mA5XR5uPB5haCobQrJyBsNJsKjWo4+TvhoVptGwsd4iTNi8R4lvuLM0GE3rGmtgpNG+ITyVoNbN/Al7liRtgxdQ8LJONjC0pB4bEGmLaLCt1iEpcTUv0CCo5G4rEgjYQR4BLKJ05sijeN6RobC4iz0Fo1B+RqvVivbI4G4MNLGcuBZoTJniRGD00cFBXIvEGRkMN2FCJTwvDP0PY9N43J3A3Yh2bDlDRuDnC0G2SwKDUaxa2MPIEqR5uLyEJIPnJKdE5kW7YhsRRMEwg8BuJwIRzBVxGiaFqQQ1MvpDjJkh7mljhyYnlVFg2Yv2WKYuG8OBG1hVE+cBO3iOkR2IdYVRcEsOMDdx88J4wotlF+psiRLwIMt+5tiEPZESVp4HwIbEmKMJbKkiU4VrAlI8LdsblHIwiWK9URjcYTFhraGBjPCKwqrgcuO9inBL0O4NhMnBQ8gj0KSQ5RDkS+DbRyAhImPcVyhmg2SHId0bDcLQYeVF9wdNsphZwYu5R/ca2i2OU+Ro3SHIp8E2SCx1sRND3wbohS4eKbiY1RUcRqfpgIJlYlkGKkT4XeO7FiRHJvUNgzg8LUg4YfuGr+5BaW3jo0adkBGgvgPWh3EtOIKtkbjCQCca4nsqzjYqaxmFIMbHsDzowSm2QhotH8U3DwawFrjNnkFtUeQyCXhCQhBRyTOMoq3FuK2xyRC0aQbSQkNmzHobMPYQ4Y+Qu6VjG8BqQd2zdZEKaFxzMVLCkwX+k2IYxvoH0WGrFDG4bvs7Q3UaLaRYMdNiMCo0zW1YnqFB0cFo3YsUU4YGJoaj30I2jcU4KzIts2Iz0wlJZLs5loam0ohqDmDVmEWZSwc+xvbNDHBoHuGPGGg1DUuTzhuAm7Z5w7ixjDAtwxtw2CDaC4VMjkjbIb1hUZs8DBQy+CqaByY9aFhTgSA5qycY2KQu9iwdsWiDcGwmTYY+zQK2NUOUVD3xO4LdHRCzQg8OTYnkS5RkRufQIkjQxwOIJzKqIxKHrgSypwmw+whVKukW2LrRsJG40XyFHQ0rg3TAOxoygToIYhR6eSG5LZFEWsXQuELCIigeCihMxWY1olokM2kMMYekJ/AWVPJqHQXQlCWN6JMVBfOBBRUFoIJKaChA40QSEwDEsViK7EYM5EUbGGwxRMWHbCsSsUFYwjkh3g92SkxKDQLFiUTRRCGKSGBoQ2LBams0soDNDWpoGF62IaHOZPHCd2XaRDVYlvQjxpwBCWSSBs7H6jY5GobLB6jaFrGgej5GckgsBkxpMrjoiYIaRH8RLNIpGBqTDkTCGSQ60Oi9sVUWmZt2U2SR0BIPZ0CHC2Fowxi6GgTq4mjLI0Dqux1FF4GHgxZEIleZPBUSiUnEOGzTgs5EChtiBvFLpwAtBAFoYsTwWrZxiQqNtD4lM2iJCYzgxp462PUEojliRzWxItmhjXDR4weN41jORzkeg1Y8xMHvWBLeMspJjXJJw4LRE0hzM2xwp6F2gtO0ULMkdTOxfYsVBjmD4o6wo2GmsE3ZMbSaMxg7RU4w4SIDzG1jFvrMSFjR6CgeYLCQgIavWJYmckJ4nAl8yVMS4VFrwYhHjNaiL0Y+ML1MsVxxmzlEiiE+EXJciEIbGsoEDHIj0J1DkJhR0PwDtETY1Rz+nNcj2K4PGHhqKNj1iH80cuRzbJRrwjTEiWGtQwOGkPkZ5S7HQcAIG2Nmc2bRqi6DnQrEQwJHiSsHVGrRAZjnhKaH0hS5hDUptgQyYSFGjJDzbsoLEBOV4SywNaIsrFIjgdEBYSELCwNEFDEkPQtoahyHeEolC20KUNWN4NMs1vkahE9jeZKwuEHCHcI7wKa2ikRFjoII7zoQWwpi8xxCyviC8B0ISg9KrLohDEJwQ1sqbFCcx6chdR7Qu4gV2JmjxCW48LcQtQwVseDaLGha4ECtNlQRbygqbRU0TCDFg9xQUGg5myVxRP6aw0YylgYxmUlE6xGS0JtOIq5jfZsiYoow7Pcbg2a4U1iOTYPWUQ4lgxsikJ8G5Sx0+B7GyGaxHdiXJoohqD4Bi3gti6L4PUN0WhmEz7FHJfod5O2La4cUWLvFKEarmAp7Ze9mWss8FLTyEs4EKYoNUE3A1yNnTiGw42miF5NQ+zeEWygpQohE1UcciCTEL6ittlpcDeDKsYkILZEeLnwghcGU40p4Sf0APyFDZRczHsuDWLgpUXotOZycBk9lzpMXYt0NAwc5GgVG5UcDUaCZi9ND9h6Gmw8OkGGBo482IeBjmo5TEOWZMLzCB64OywzIwicC6Mgh2iZWKVpepYaAxQJ7UaMXcHUtDekxbB6jk9B6oxpsU6KQOZIuxhaRQ8BehxEKBIg3AejaHRIW2C4d4EIW9I8xAzbCZML9BYIQGHnIuCToe0Ow2bY94xVs5Eg0Ts4IG3ogoQuLmOZxOwlGPUemDy8CxPJDEUIvg1bKdCdIeKil8NEiFwhzIOo4maMaCiTCEJisSiRSEtF2TL3EIkiDjhpQziISI8Op5jSe0IoajRG1Nhq8DCAo54Ki649MVEgNNwJoOYeDUVwalSPB7/AJ17EwtwseFy0IbOaFi0Q2JNcDNHyeYksSmxdtLDSnfQTwcdnYjkptzFPFuNjG0aYWFuxfZ4x6j1jTgWmiPJPCPARPkVdHuxqc4KBH6CQqJaUGkhDI1xv0JEAi0NqIY7Fu2avjkVSs3NAoqlwbheWBBQasqIO1iRQQLBqNinMalEQxjwmuchnMqwk0hSEics6w5/QCipDxjWIPCJcFEPoZsjQ9QoL5HIYxuDybpQzgRhlFoeElKVNri1GYvJyx1wZejkYSDirG8hrFSpq6XaJgjYUuiEHBjmYsRyNDj2bBLEEjYWFbNQnOcNzWCmLRpBqh7nidbFSadGwcEto1Ey38C8jUNcUqRxDQPQW3vK9MLrDbkh6GcoUmaQ3xCyw1JBzKYNl2UYnWhCHhNZVNmDqQLBOHMS2IqM4gmqRAhFuPbKIekWg5OxDcgi4UYdFDYNmQZBhBaKmIPCItEXY+gnKoTQ0tmo/Qc3ocaJoc+QvXBftEJjvIQYUO9kic1lDwKsG4eqGlb0xSJfJKcJ6IGbsg4UmLGGgtDhMlgpHdLIVwmImeZhWnqJ1WdB6OJFKWDmlpk2RFQYSwbYwD85WBAgxuOhtjKN3g4jozVFzhezyHKPcUCDRWaQT0NEcI3Rdn4GUXYoZM4bIuW0l+gKizHaTMHBiPk3UUguSouoWJLYlLW4bbeDRCIobMnI3EasXpwM6SZwGxqvZQdgiWsJo2NmhDk7gpBiNmLRDmdVDC2ILFBqrNhoSGocOIyUh6P3F8xwY9t4UGpkaCZD6E0MFFDYgmSk8aiOx70VcDsoxYUWxDpUVwQT2VC1ORhrkKHeCrYaA+i5iSESNoVEjQVjQXIoE6WzxDHyONaFSLnADP5LclkPlMYPXKNokbDgI2QjXG7ykXsvwMllPUJb2NkRb5GhHeojwIJ5ix1hTppIZQWlBMqKCIe0GCaCQ5jXBagkRwQHuDI2Q7VhX0egkahmGo3HzKpCW8VxPDLiU0wmusFaNDfTQVGsV9i6ZQZbHmXaCRCGxtmw5ZpcYujjg4YUdNBoUUuC3NBkyUTEoLLF8VyHFjozsR8HNmVOjkNEhq5VpGqNQzokriYIxm/0Kg1tjh0IlsHSwT3JLYhKJQviYKZvJo0bDyQ0Nwbg68HWKPXZp0PVwboRjsccS3i4Elw0JDYg2IaD6hRrKtkuh24NEI2QpGsQm8SDX0OFSMQQaqCv2DHoUICpDizcLgmDHhbESdjCDNwlGITlqFA7TwMMsi8RNEBI4Jiuh5h2wuGNCDOjdoYMPKiWmKBYLcCwNsSqmjGSmw6jqhoNYJfLGHZbfkUYUIsajmh5IahGhLHMlMRNIakkPZjZiQxbGiNg2xjN8QgjmatCIiTfPo2mziciiGPDbDDComGNIQhZhz31OSYMG4bZG54MN7Oxj3wbRuLYsKUNDYXYjg5idc6ElIqiAuaGplmxoHJwemXGhbQuBg2VCeAiaNEhZjvkdgv3CNrxn3j4QpngxatD0crBrpCHyL4CjnBM5YtmghFjDSEaiW6eIbiPBCAy8lUK3ErF4ajVDQbGqMuBkGhRIuOBog9v6J7QcDoZxBh60Qs0RHLE2NpLigizQsBOiOX2YwWIeHmI6YsNdYSGNFhUKSFwbC03icUJQaMMjGcDfA5qYKmopl+jSgeYi0OkTgSiBrDaCYskQZ7CpPgpqSm4lmmORFlSwTPMNouCHZyR7jrHcoJc34FsQh43GKBj4msQWuFbQe4pwMtY2HNhIgtwlwEYaTEXsS8FWIN+iOsR0hciwXBkKsIJoNEJwoy98JJHgOgXRupS2IfNFsa4LEbwUMboWajzF4YrmDU9kTdhtggTqYvJC0zYaGOycCw3LiQczgiIYaGsTKiDHC6GyaNd5NjfRWg0ZGxpaCEIY4/IjgQxq/QlYjGwqLLChAUhtEcOomxQPYWohkuxipOR74FsawQbEhI4GE0U2xSyvwJ2GJ3EpUsIY7UPejbCNBhIUYNxAKh8aH1sk3/OJh5s2S+BYPseOBws2aDEQlbwMPSGrGxbDaNUzbDSoMCoZDIUTYl0yeJ6jYPLKYENDbeNg0UOYyDerRFHOM6xoe6NyDDIQGGexz30cYixGiya2Td4H4SSs7SBIkx5T1BdvZytDRAQnC4EGEhPYpeB8JqIOEBQqkULrDaQmMGG9Y2iKUkC0Kw/uxI1ZA4YxoLY9FGL2SgtNBxIMQQsHx0KdwaopEcCFwOwb4GCtIeURehM2OIQdQ4PIVNwsSYh8iNOKSHIMTszrZ5B2wlnShOogNT9SvJFQ1llNLKBqsbjqcsSLxDFEJ1FcCmhyGyIJESYFbh2xMo2LMNQeLC2jofQ1CKDxR2mRPHJ8sSIPhaQzPUKlyNwHX7ErEJYL9gjkOTQsw1hyJRIIaDkNhlEwaiTorofoUu4tJI60bnKjORNUegqsTSORxx5OA30ygg4iKCmyxb6ICcQojgObCTTLbbE3BFjmOpCV4K1N2SQw/olyRhQJlSZso4KekNwpkOR5RrdK2PlMQaORNmpq2QiwkOBiI5YOBIWqQaGyONlw2ojB7G5pZs5nRQrYgXRJnhoWmJ3iOvLk2RjijDh7jwcqmoW4lBGw+klGxxMi5KQcUKR1h4XJsb4bHQiqe6JoU2jUMjs2SkNIGnJIbAsGI96YqTwvSHZwqFDkLUoHikSxaUWHHGUM7NhbsaQbsibG6MSgagxHoI1solgnkK4XAmwaPrsH9DOEZtTpME8nIey0cx04WD6zHQQtEgSLQtaYpxMZtYk5ieh5bQ2hKvZrrG1sfB6ZrYVUuUNwPw8CDko4BvCwmGwu6cC/Ai7xM02QwpHSio7CkQp4h5TMclR22MUo/nTdIEChDkMKMeU59BnExRopFsrojTGMbRXApcYI3Rg3NBK7JjfBMEMTHUvyUEuEMTGayTBighR4YzgNcSukTW8osektDl9I9sKRCjIL+2LYSaG7LHA5AdtioQXJIQU02VQSgzRG6FUqNRrnntRqUP0JDUaonSZ0iz3hNYOGplw1zUbFxkR7opBuG6IjQ8mF+mz6UVPeU4GskJvI9CrAfdlAJ0mSV7i6iPYSmDVGsHBI2Dh3ice8bVGglKPnLU5EHi4h9IYawEDws9zEbWzsDlpMDVHBbR7HNd2jrsfA28bV4FpjwVDei3J4xyGC8MNaNJsXKaHi106YKgUbwYMJi2K5NxKsiakG84KJEKD2HnnMVcLChu2FOgneCVoS2sOvor+lPINh8DrHheDcbYhRfYS5ihYs6EOBjUiJxMsD1glRDYWxFVhgb4XyXcDTDkisF4w2Q++HYV3ZSpdFlsZh9waLkKJVoXOl9xsbehHkh8U5PFvQ1f0UqzE2CRJtIc3s0bRwowVi2imzbrRbDIUS5EEH6wbGhRgJUfzY9ig0FGyPRZmseuJHaojTHazJc3hTUYf1JjYE6i43YtobYm43sng6C3QoWsGjQTlGIkxJVG01aOcux1BkG2FIyDDWBuG5jjFlRnYaE/Y2xR0Jb3Nci7Aq8LG4LyDbcQIbskRyG0MXJMow9cfRArQ1SC6kQ3xm42cgxzEmNCEGoJwbkfIimg2IWgpYVroZj6SqYC6ZdidjoPfoTiDqMEJ9C+gKEhYne8cGeKOQytDR6LMJbz1C0NBhLvB4oiglWarAycJCnYvMTIr0be5vNVs5Jj4DUIoPjBssWtRqUIRJ4iQTZkpzJMXvg4G0MJi+EFsUgIrkeIiURYHEUMdCXyISgiTaE4BG2zZicNmRsZb9EmLHJngMPUb8YWinJiNj1/VmQcRuh7QvL1EH9JDD4vMVCLoTwJRJ8mu6K7ZcbFYjaTFj0/RSBCgRzjtJRK2ccZsa0EdGkJ2D3g10Tth6PQxq4NoISXwcI0JOb42jbNiPobY2h45LgccxfBCwqBqxN6NhaJo4mwtoI5DRnRaezUZAiojlYOOBnZhS0bGy0Tly8jDDUWhumIkFUNjZwSEsUl7gw/qJ/RKpGWecHsbDkPG5ZDeD0NjbOcbzDGiFZwcaCCpFmaEHi24I2kEjZbQ98ZDAkLbCkvINbuFRQ1QieBdjdI2wUEtFBrehh+TjC/QHHBtsacChAVEb8hERtoXoM3BtQ1jVvPwNMNhuFE8HAg1BHYx7GsObYtDjDnKwNJYUXyUn0r6A3L9Ai08otjRmgoZyRBh7hbgrQw0NGaC8jcQE4XN4+x9DIkqOOU3RJlhBiHpjnopGlkOMRnh+Y6A0XHdiUEEmDcLMmDWE8i0N4wkFRJisCShzfATyHBHJeKLMibuDoZmGyRsPCg+ZYQSgw8JcrQ0IeyGuacw0HFEmFm5gkUFgKMaEKeeasYbCcebfehopBts2HIJjWXajc1ZILp0IDlBSHUNVZXgRMoiWPgynIquF04MuhvI3YajZEPCO7HocjkaxaFHijiZE3wxtHPOwqHrbKVMfqSokDno6JKk6aDEKgxCQgng2QXGEsNmxDofZuGpSjxNjdYmgUeJAv0QgsOAiQ4hwQibkRtS5RMWx6ySWDDElyeAlyQyYsyYZE0ljaxLoSyq2NlRvubtCVDX2EpIvTofQSLknovvCRg5NG8SGUjNODRxkYFMxfrkU82W4mw0dvkdaRGYVZCTG7R5DrI15khRyjUQ/puBwMPFLDcacnmRxjgsZoy6I4msIUHMbrDQiS1gRVFo2WFI+xcTBjsfFpjwGhzwRW8FwPaiiDRihINCEg/CcCY10QEr0aIboQRA+4jYKLHmF9iHZWcgb3C3ZClqNVg1oamPX0JBYUuMyko2jaKrY/TNxaQsezsEO0KknRGx9zGTCBqDeRobmILUWNwi6wRx+gThMNGiFuOZQzTGLQUmJiYqZDG98cMbYJxvNjcbrBW4n1lE2Ixp241WC4hroNw+4cR0kJKtInKcAcEF9GvRryTQ6BrR2wurglaaokaJE2cjC2w7UxWbGuhE0KdhLogxjZZhRihDG3yMk8y4wJ5LiSY0nGKdRG6VMSszaNgM9QtoaO8GtD6GFo1F9E7E0ONSaLjQx9BKB1oWrSH4hx4I5iIqIWJCQgyNjYeeUiKcciN6KXmoMswPhsEHrgbrnP1iV9carnEQ1w9gyVD60JfYKlGbwMY1oRBCJCZCfXZzMM2i+DuAkXC0ID9DnAiQ3tYTGJieFFGDRCd4l0VocILk2zhVD0ng/nCrcIs0ZyyKi1F28CJIgRyNY05JjLh2LjLQYQY+8a6J4bHgGJRFFBAtgejebvpESA2FEWN7+h84KBuJOGsOxsdiDPISLs26KHDA4qI0WsJLZiQao3YxciWjF0c8Bab7OLxLvCGzVMfbkUfI05FfA8YZ6JimKsPKOwtR4UVtinRs5gO4QbBx1LibF1CIfZyFos0IafoVzSyg4jiMN4Tmgxvo/cfZhqxVwNBqZv2QpYakxzQq0KhyjtHYTZEb2aCYxplDrPNlF6i29DfGTFsc2rZYiGF6hNRoRQROCbaNtmyNEoW+RBVyQ9IUqUpuLZIxo6PCd+hE9FNsqoSFw7KMLr0Fx/V2gt4J4tyJhsKx1GqiQaYOkdXhJORbZrFLiesMYQkFsgoGGzkmGNMUwlyKpjGsGPb1ssKkQR+hSGdaOoSqcMNNOYaFs0DFigPWJCCm0JCrHtMjajEx7HoYgw2D2yiRDC0xLJcDtiJoWBkk6bFQpMYtBpqtHnwWwdzQ2g70GQ3AtgxSrF2EphoFrEF8CnAtWdY1YsLFwtiQxjQVkpDbgtDuOjcB6PKU2hkG8l2E8FFvIWs05J9T2MTGG6XjNSvAbuzkjc2JOROjh6FivQtWzwkS2EDHuQzF2m6Ilg3AuVbG6FTZK6OePA8nL4fJoPjFOQb1isjEUunjGDhnqGvZImh6Y2UrE+QkTyOUolClHj0IsKkGwYxOmJJCEU0KLmeomHlIQsD2aCdNBoL2eY6HAci22WGmjkNC2l+T4vK2LYkIcCOMuBHQ3hIobyF6PZ4CVwOtkLTZxTFhGDJRB6TZqZxGDUaoxRQJhZG4o0xajnRVBezmXFynMb0SNEbEcbpHQIrljboebxjDU0cjpFErEmey26OQj2Gh3hpEzQJIXWxkbI2G2DZXA0tFw2D0c5TFk6E8Voo0UKcwahWGsS4BTgf0KIjLhaUpySwjQyYaGPF0N5qkNIo9XWB00NQjaieEKA1Ue7hUMrgeVJvhzDaXER5dBNVG4WjbMHh4WlkdB1mzG6FGxFd2AlGbvF5hjlhXYlokTAYFobLYxLR1EcYFzFCoxwHMsClE2hLWFeSF+lQJ6ExaJTTBbDDzk8GCpD0OmLKGvQZvCUQeIQRXDH6VKNEOhsFIYjEhi0EG7O+jbfI4ZsJXKFri3GOC1HY9YmzTISejhMaDQ+GFVCbZZcwQ0GjJD0KDZYKGhi02IJBa6xcHCQ1ES6UQ1eMPoDWqVJM4zk4aatCkFNDUUDpCcWFTE6rCWDWCkmLliiwwOo0ZdDgS0aoobxUUSwhWQ1mmcqY/GLFAoSEo8xTglOBouKPDU0PJO4k0Ip5qjn2LqDdM2Q9IvR7LGuifcb7GE4V5LrWGZEgxBkUOaYlNjYg/oQ4i3jRQeieFOo9RE2FSCjTxuo2fGBduxzj1wxaryQ8B/YF4F6Jgj5DrjCkxL2hvA8MwW30FlmCKIWCYYWBeYtmW9GxZiORYJUYm2NXjVZxujFU0ojZYWRsLh4ggxRhklMgNMhJGRpsS+TVyNTpqIOkBuGFJGk3HUNB0KJG02DfRqxvYmGvp29CwKBjYgdNjhrFL6KiJsZcoTY2cw6RpQhOOiJ5E4ICgh2EtENC3Zcb6ZWhCWFMNUcg3j0ybxQn0opQtiDJCBNZgqXDmaDFqoW0QsuHIRtDkie4vwNApBhsTGHiyZ0yaRnQEfBFQe8Ug5FWiSZxkOahNggXsoOaDCxZqsG0UjaIXJoaRcKL60uhI1yIa85g9MGXAghwhFVlRb0K0LDliSiQknrGtg0SozWtYTIM0KbYw6xMvYoQ1WJ9ZJgiimhZCWj0GgTMJrPBehaYhOPlYWu37EzY3HB/OHwYpS5VCYToXkQ4GMTULrB1NUQjwYZ18BysZ7KEFRoLoTo9D0ootscyQWg8FQ3DQ0c4gxBkyocBCwlgYxEHLaEpD5HT7JFeC02KbIY851zRrFV9DEMEC0PIuTEpaLORLbYi2QiQnEfRHAxhkwsUWhMuKjpEyCC1jxo+Aljg4a0KAytD+Yj+A0Y44bDxODxMzQ1bEjYDQVieTLhGMaxKJ3suTEyJCiY5TcPvFdCHhgsHLoZJFdD4OyIf0LnFjoWyG/KchxPZYdDbeD4x6myokbNRvyeIIaE6Gnn84NZsSFqIMEuNfYkHjDQuIdOIIYuKfWiDFFhkXHU3HQXkXY1qMYcpiFEG4UPpuKlBS6/B6f4H6H9h9YOGDMLlDy/ZUQNL8Z4RpkEPZ6ssZDYwijJYnyrMF2NEazeNkzdi+l3izrDs5CxLnFcnR0c3hxHUfOXhm5IfLwM4nALHLDkjhl44I8ZL6pZWFhZ+Bzw6YdziOZ08jlOb+h4c1lZyzv6Hk4ZlyccesebH/AOEdjOZxx5jx/8QAKRABAQEAAgICAgICAwEBAQEAAQARITFBURBhcZGBobHwIMHR4fEwQP/aAAgBAQABPxALEQe9ha8EeiOpeIxkL2eLJB2cbMPHXm5LPMGvbJGkZnXYCDQ2Occ3xOJwfGE1DQeI27ckehw7LUuxEFnmRHgeYNHk3KuVkzGBZYdrOQzIelZEHMuWzD/NnPEgvfBAfER6HxC5qB9sAXbx7nZxzm2jjyJXZM7jy3Zi8aA9yeE5iRB5nfq03n+PNwHBvZIgenuAXiIw8i7rCmHBcjBsEV8Obl6nLuYdxiRXnoyewb3KMGP8XAB14PUZjZcIHd83KHYOC8uj1cNHN8S+Oko8dsgtAljnm2pEx50WRx6nlnQyYa33JrjmMh4TY3H8PqbbyNvWA9TMZGyhBfxLYnxdw6i8Le23eDv3Z9u5IUCyAOC8rwQ4jmO0EVh4tHPcsguwmAfNtdi3tswzSWLVwA1yTd4bg5ykpgMLGEN6lzuRfXdQ09W5TysPJxLPotk9GNiHWtuQbG3JUkA41mLaD62z0sWw1NtEWAYTkR5wIQVMPBA4p4mI8MIHg4LklaZgduZgydjjuOTcyRgs20U3mZcXmTEeEIGzeGsOFwXC5l58ZIkOHuduuQHSZYz0yDAe/rbDi8XW6MdN/iK1dDcSeHDxJrw2YOEHvvNgFK+mRO/ztiHeL2gbQDz3bgN/jZIIZ/UmeqPe/wDU1q6F5ijsLkMbvmRi3hOJlfsg37gWxauni3YHEwwYIa9l2l6s5JBppsFE625pWT5YFiOD3wwBna0fJe+ZQhOfKcZC5EOnXEI7ebQfjPXi2wDtnGL7SF+luPEE7MALhzIZkdfewT16hyn6XCU1ZuZ76nFV8y1MQEOw6yRRJywHqJr6uryua8fuOSvHid4M/PNvNezbK5kA3gjIJ2LeJhzfYFyXzCKkIqlemSf7baXejb4y3ODiR9LCfR1cX4uMBwSoHm3MsdjlI6y5bNWYsFtAZNJ3qGFjfTommMKasLnpuQY8bet4jr9QDmQru79um8gW+Z1bPTkHFwta+ic8BY5RiYx5idzHvk7txvXzKLxG22SPuwHbJZbzjq8E77+MHIoUHMIV6jr8WC4EmDsXALxjraH0jD8GQdrxrYAHG2WXC9EIMh6Bp5m8r8d3NXt1uLO/nzlo4M/fmx3HXt5h0TXZwNOfL9SgzpgCvL/iAAxepzf7ZZYT7nJdeXiAW8b/AFadQvTpmfLuw4eBhN5TZ0bkN4kuPBJheyHS0LFfHqY8g2s84xkx5k1vCVeEcvm2iHv3YUY5IfsWW6Fueu2OiHj0JXANGAYY1sVGo77QuDnLaBsQtPm0j/8ARY679PuLO+S30ce7my+EfcHOPPMs+7xA0sSwjw/MQMcnl5JHtiHnrw8lg4OWtG8WCeGDxJNnPbjz49Qxnu5LujO7ulsHh8yanS2Oi7NW4xh7kMTx5kOXhKF12ya2YM4sq4Hmfra8WhZa6m8W/VliY9zw6uCfVzweuLYdBBEFU3xaydpZjHDzt3uTzpo6zi2c0elZ5wnk3h7wCHmcA7s4cuZ3rMq+W183g9TwjD5UhaT6EnFi1PoSiJCw44gImQmpyQMqrl03PuQeR1/DmwCrOT3Ni25dHZH9expSiGnvLQ5pbvE8uMkAjdecyd8lEOoTNMmCppGHmxxBvMOO/Bh3ZEDnTPwxJji8MtgLJdo8zsGOOd2ekeMnuSc/O6qJhsyc8dxNHGI26XeWIurg5s4fEMDeJ05SIC5XEl1A4zOCAVWwAc30BGcd7xCCeSBx4mp9S3uS3kz7uh/adIf4G7TwRBwB19y3R4uRPHLG3jR0Pm8DT78n1Z816Tven62IxdDMPUHJ1KYMXxAoeexOGOmWO7FgHzEcg3qAcd71e/5cFRjO7P6EmFHkCQRAucfVuZ0tZnmM8Ww8JjOOLQB5mMrkrbubCOWa9zcsanFi89oQzj2mypjo/iQBmMtBTuAOPLkN0TDq5EfuzyOU0z1aDhaBbaD6s6es9D4k4Hm4wPLFt1nQRCf40hr1gb7x45fbM4k1w8TipK/UyD1uQdl2tziKZuZOM8LBry983Lp2vIyIa2QB99zh7Hk6j+W5dMYQfNhHeMgDwfuJAb+JBc8TnwHqzxOltoY+/EWBnfU4lvYL3a/LIMYf4gOFbNuJIUePEw9N687FB9eS0g0uy4tB5n1F0mznSBY6sj0kVRp6krz3kBhzDx5heHr15lfLibYcMAoHuEJPkduW+Gy72J5PpOGzH31FWdtg9D4kdnEiIcZb0t6krGG5s5pr9QgOH7iwMr3Rxa9ed6JLovtzlsZzvVpvhxBfj++ZeTkbF3zzvMj5Xe95sDzlXD33cqOJeysn6JlxB59nmwIHhnCtowHdtoQkfcoduTqUDcyabib4WHCzAeEpvcZakIgwAe94seMBPiVk+SNklMvJPmLiekQ44JsTp4noOW5cBxPChzYe8IQZOWn3aAWcwq6PtODujbgHiS07UdxX5ScHfK6tMC4/OodXI8x4cCTbq2QGRvIA5d2yQnHlAP2/7kQIuEQhBwTuTSeIlz1nEuEnn1ssg7tcUac9HiW4fgepy5uV5K8d1xAhXmwwWhCQZHTfhM5OGRhdfcLHIQWZhMHbyRDQrhpEicRhjV20h2A8676u0CR6nBrxAMSuEerQfF+ClwWI48JPM8LZQ3BxGgtwserlZ+7R9nmKxXYWfIm8HUTi6vsDbDXVshBNd7a/W1gHDM4clg4BfmD+7YgZJyKG+3/diZubNdd2eF0c28frf4Q3TWfOfpZ+FnGBcMzzC7rWCYmPT6mIZfd3EFmwPHzGG4t+2knh9206cNghOWsiOYLJihoWOE8YwZyJyz4ntLKj22R1s9RvJdTg54LF1FgTVrOu4T3xY68/pEY9kBYaE2HiQqeYuCvdwbtyN6PksbjYR6T0Du0kWNfEq0cTuzCa49XQPPeQk8us/Qipr3kPAmD2cffdvoWd+PVlD1jiF4ebB1KcMuNwm/UyaoeUcjzsiexk5HcPIpbu+HZMc7nCMceLhc8SXq24BmxHq4s+Zed6uIOfUYVyJ08zyfDCcN2xVdQZrqyPcTDzlg0+Yizh6kBpdbaa8THCHCx8r1b939MXLO4zgyJnqHIb1Mv0My48woxIGy1jKd/7i8uAQ2BHvc+dg3cyw6cv3AnG7BZmWZ7kEc0XNTo4kccNi7z3zs2TxAQEetyX5nt3brwmAzglkwQjc/EDBC43iJrrogeEvsZchOA6sTD51tHPVkX2wQwrZ5wFn2SaLAizj4WcPkt3yRjDznJHH2BQPcY5uSmM0kZ898RKY59xHRMlv+ICIu9E1w8LRcOe1shy8WcD0T+LuHnzJHBgoPmKujndhV/mDeoU7AXAzrYAR0B6lnkebYBMetPeRyqcPUAZkDaEcU4PbvNrUfmW9eoSP4WAXEG60uLh5YwOLZ8vL4se9Ngx4+55xusJQwjnx1A0XmMOebK3+Wd0P3EZvZ5kmK6z4cM3E7+ICp6uz/UwHELfrEmvIiun8pRzebig6reu++rjHEvcwz0bYZvRMQ7Nli5a2BhhrdXH5kdpDAaxLXk22U89kjY0XwwgjrAsPJNtjj2sB3gO5N115t5uickRrAUHfUW48TOSyCBp+vE/FiA1nohw8+wucBsxdbQFjnEn/OORYw0wnzf342QRGG9psbWc7G4518MoORfcZGcfOeLoZ3MGmEDSLBktBkLSVyDY3rIBOk4YnN8vJ5hDfBxD59nuFxfPaxcrsensjIPJfVmxhN3DRgOWTnHq0Hk9M3AO5uJwhJl59xvM7CFyWygxEnJEPHmZ2EOCQHByYX84Y1hrARn6Q4Ijs7uYLdLBdLxEhgVp5sgO2UFWZBXt4IoV8x1t0cQErqZ3OrAbIfe/iJGFIgfuSg8IMJr4tHfZGOMORbmpO9LwWDPMv+S0Mf8ApPiuNSF+rY6O3InbwwJ4OMBGCA9HnzbODjO7JoQGAK2xBTGM0e5mtcnU+b1YwZge7YT2LMFzPu1M8rDcZ+/cMtnDSNXCNMC0uw+UtMODL6482Y8dTnLYN+Ei7Hu00HlCls5waMj3PEGUQnTNs2657msNO1qZxzuGjnJnnAIPm5v+TzbgXuGXGPLvzBBtKeuJB44nccC4QOPKV6dQnqxlJ+/Ej5fzDaWh5Y29cYU+iMZOhkrEshu92Fy2AMAORvC2+E7TqG8mzjPc/LY1YTuxkYI7hAkCbZnB7lg4MkV3PI28QZvuyAcpKUcpcOs5zwsw7W2w6cu8YgGfMATGHI7N2EF5xpEBzGceDwnmj1kyYZs5isg2c24jPPZ5OLUaLkPIYXLomWowh4eoTe6YOWea8yqMOJkinGraNOp158XWInGFVHwuuzgevUNcXbDuUGOHduTnm4D5ruzzp38XB0mWNTmVgrXAtE8QLykCzeYh5eh1bOeyUanDAYzNneSEcU02eAr1Eccc2x9Zg1ySjV5bPOdQ42bDTIjE8+YcOdXI13Dho8ZZHHCA4PUIwueCTyzk9fXm1rw3kXBn31vOX8DIIHD2TKMQ7w4tRZrbseYQcuZCZiPDPA2K3IRf0OIews3RnkJ7SZKo7nk4LAOARSf1zMbu5BzzLNQHJmpo7ZPAtgI4eAsh0t8jqcp5ulNcXq42cECZ6tNfM93aQnZgC3smHJLnCP3AOYXbgiwzh5tBDzv+bGHPUQZ9RJevNo68+PxMuJz5vDC1js6mY8Myc7lwvxBXx3NE4DiCZ4HUT0JceHURvZlEY0D09EkFKa5HqxHDZQ8puBeQ2/3LZKvBaThCa9IB3kkY8ss307sBC9DbB3C8vEpODmcD2vZCeg+LQ+UdzlI8xjOtJj1Pi2At13Z8M3+rDhyznPMAfAiGcwgBDrxOF5a8X5xa5QZzjZYU65uHXGLNhBOhkHRpY4jbNx5jXebCPPfMtx2LR0WIy0zkYXTIHF4nbRE9S0NOCyPA3uwP8oWfm05vXieKeWAlWQcurnqPq+I9IY2L9QH22uVhBMGg8Q8+rD8FxSHe5HetO4eLtnBDiI4Pp+reLz7t4Odo7vV6nchnnuNDJa70JME2wA9ZJQcdx+FtBxviHyfzD4evNqJZrMOBlaa1s7mrfMH6GUT2kxPkQNMk0/b3OLUKwKeEgI6IGhBteIoTuw/NgXsiX3FKIb6hre3qN4+mYuDywvgscyrx6nnkhHLSzytHr8Rr6zCHOPHm2HXb1toXrxDfpTAXz9T3eA8u5cn1Y4+CP6LiU2YTOVYXnBbHs2mTTh5Yp9UgB8MBxbGXhKjhGHyf1HXXggQG8Q6D+rfCH6u89tp5cbGaN0CQ3ydwurrmcgPTuOOJza5fKSbemGKTGsg5g6OussbcvU5zk7nc4M9cWdzx78z4cMPfd+gvJ4s6w64vJHZwZIxzYP5yr6tIWDJOejZXl8SRSA8X7c8So+5V6aerIaOWDIc23R09x6Rthbhcyunc8EUy0dbzAeYoJzzKvLQfPwPax54Z1Imnrmbl27H24t65q5jqvEhvtaNDc7sOfcCT9mUp9JBOdYkPm5iPa8WThiJK5Z4nWPE+MnJYRQ8FD2WrXzcRGvueCSOQXDiW5Bk5adybVx6iU4bBPvbksyWed59RrvLyn0vTeCcHEPDa/Z8xzjr4SxI8jK4skcoSDkTSGiZhB28Jtp1IkQ5WdJ4nlSbfJAwTq/CNrzPJkEuOC8TCLh8RzOjFdOPM669IGt7g8jmRnNrB5Ze0gxXNzoMmmBa5tc7DsQs2euMjUj3IAE5uDkETmxWht3yk4BAXonpMfQkboQQOHPJYhsJ62cyTTwaQgHc+9lA/M4IA1ka+LnDcLnGVOXHmGQKMq+z4AkGLrxxA7ksNW8BlweduAeo9V5gz80eFeYTVxB0sWi0e08QcBz3x4ZlDm+PJZPOYAbgLpcQZxGkGtkejsjRxN6j1dD3P3WWQ+ba9FNgs7dh0uNuTHr5fMTyDcYTJXn3dDvi0EbNN9SIcOEnA8J1HPcy5jf1CgmHmFgmJcuy7Vm3GBMGrqzg18sVSNN87cDAcbE0zLnxx0RsLxnqDoSTTEcV8yPUwAbydwVipA4ynt7iwDQ8+b+olGRnl3YBHCIgJZWS5unebHGA9ckbxFp2iep5/m0A3LX2kOa2Hh1AMM16ssjvqc/g3CDzcVNWOHMDwZxxYyHOsGwyMYzzl6jp4hsOvBLzmBk+Om2xUVczNWgvnqTlOO6xmICz6t4NbLmxCdJJeKdzpSeQIRK8MF89Q3hceZxqlBMHqfBeLNLgwuDi9kPk9Epvb4OmQsUJ0BLOIdWDx8RcWeD5n7kjmIdNmebU2aE/PiU0hviGYs89G+ih3xL8gvGcSdBpMj0Qzxndg+i4QE2bmAGm+eILwsHA7br6HU3iJ2Hh9v9WM1qnmW7o6XBPJapiywwXuUY6k0e2+7Vz5/wC7Rf6mY6GRqz2mMvON7te7O55Dm8Txp2gkJBzvL3eQYm7yZIQjxMhYCIiMmbIJy51nECKvIdWo9MAfX/uJa/uDsH8+LjdsfEON8XYGT0ET+DJ+iPH2OohP5gOAZ75+A5N7MP3m0DHLndlDkXmOn+OcWwb23PcephWGCa8oJry2BGnGweLgaXObLwDaAcmd88SxzHTfEkb5JKZPxGgfE25EQk5lMhvc/aLoVOlmHYuKvAWlirj5ZxxkVzzt4S5Gw9mzcfDHmC1e45OUVcPVy5kHvxHrO7HpVyNe7YM5c2zhuvklquBJ7Ym2tLDK+WBqaXuUg5hNGegDLtkwct23y1nyzTpzeLR78pYy7v8AmJXQwtSCRedJB1PpOYmkDoPMdeuv3Aef0Wjtnq8pGEa5DuXA032OrK58ndvXoFlMw5Q5nmyCJza8/Vig/qCMWEakvJOeHZGR2HMlw3puFncpQgcWBh5R3OqeJ7qLXcRJ6NJkDcu0mJcQ/u53aNw7PU7jOPdiwcHzOPnizY8xeHUXBRh6cbcx6yo+p7nTDybjOvUtR6WPU7+UgnlPMM0w5O7ncCZybgC6EtyYeUCcs2CNgGgWqC92gE/viyBmrdnrLfK0IzILZS0grfchnbRRVQLdAhO1CjOiWdSxDCgThVeri3XixK+0Ys5ywQkLhIQ7isPuENz4HFgdGGE56jrAlOXiUh4iPsSozzZRMBk14TjaaDYdnM6AdRMWN58XK74lHHgv05RdcLuOBCidzv8A7X1k8c7udS8Hl38iKC9OmbwAWWBYN0VwT1gVmOeLAL31IrxzFxve3M8n1ZGsBv8AJPweP6TsOHvKewbgXw7jkOpNDtYh5vH8eLMd6g6fE6vu5ep5luRxYfmxC55ep1D3twB4bMA68xw69LOZOV89yhJ/c4aO/CELGyvuYQaCyxg5lbuH6sN60LiovK9fqdY8PU4GVLnJGBXmPBh8aaeAnLLiT2HH9wzgeJjfUbR/JanhmR5O/PqfX1bbsDk2eJ8Hdth0T5bHe5gc7jz5DaHjqaGI8dxwGzQ9knWd2b7fUbLfaO3qGQYTHuX+KBywGEot8paITt7h3pPVs6cTxmybD4ucXiM4vUcadMLlGdnUPI2A4low6n3Oi0OT3BwjxayBw3JPgQ2Y78xaY7HpAdI5ICi3A4sPrXEEjz9Fj5HF1uGdeJM77fEufOZQxDVuvb4l6evM+Af+rwon2XEek4RvEOPEMy9oT9WwHz5uYvBEQnUPalxbp+oVx02bnq1dOmFvSKYf2k3nPgc9F3LmPU3hB9gmVku4U17y85n6MmMerJjCzmckh1/Ut3WTcbrfNtmR1Eo4a+riN7SAc9Rc6mgFztrMce4AnAsuk59ziePcmOy3cUZVFJTZp2hLo7y0HzcrqbGMMi4GF4vBBB+5CHU8tjFrqZnEYSN3okC8jqJLQ8xxAIJ11dmyHEnRnNyfL4YvYbFv0zCuF7bbvXxEsvasTuWJaAw5c4RRvtae+lhyHYczzbuZukeia6s5fyvJyC0NIdCE0MbTi9zrwwNYTqCI/biOAHB5uwWQF4nmLWCJkDx0SD7jDd6XlOXoy5pdAiy+Ll+xNsdBbCzOoQ9ECry4tjelf82TfZhAskk6fzddP4nSYTn1+LyWgOWnM8A+OQi/ADZdbu0/MlL6LblvNKl4cyOdyl26929Qep8uyBF7JMC9Xgh1k5CjZKZkPM3U4WYI59XME/VqiAT+1jjoiATbv2XVXS6zw7kiqRGtG+IqR+44ccJ3dzC4R74y0bcF+gsAvyzCdksQXck5PKl5XBYR5WEGXnniUCERnUJAUMXuwO+vMeL1NgHdq8hYNerqmrYG7xI6EY+11HnSR4e4W4GjHTPMcaGA8rNESYXHIedtrHEwPnIxywdjMZE4LJ/Eg2ApHjvMEHhCJGXIoq3M4t02KouwjO92b3abnIyOGdzIPcFqhIG5bejmy4PHcliQtJwHKNwce4QXPtCEUVt19WQC3OJx78x8kZCdoT8Rgsst6fcCGLpEeVx8SvXotVNBZ8DLyOb3mtlZ2Q4sOEbJK49sHP35ss4tQ6QDdz9sg3hIPQM8yHWf+LoD8t2kR0m3HXOkT9SJhI5Dz58QGIo+Dm0S+psjuBQC/dk5Bme5RSw5LskKd4++3ouw4yOUOnEuFxWUXLliv3IZXbYOYyC5HpzER2wKKRdPPuZw9bsAHB/dzYwwXWwgbn1ZGiYhyUa/i4+ON8RdFpAXGypE8WB+EIy7dMaEaix7OFgexCXlcnZNxk8W3geY3D6g6ImhIBjMPdzuch02FpsjQsGCN5nNeOPESJ55gPg3u7MYHRhfokxnSZgkD0iQw+ORGsAqvNg7tnS2CS1OhAh63uIh5VwDqTQchY3mSOTpZe3d010BaMY3RA4bIaHJHkLHpNdnDsEbHnbNGRHTuAO7J6icYNbZiZ0gTR6I3KWTyS5JwXcHGQ7w48J+XRscvJbIw8M6IQ6TswWv1ke+qeYBJkTz0MA+pOROuotY52eK5ykaGctnA9ypp32eSShdcs/K4SdwnhLiNWjzPrlIgDtO46OekheTq5UedtjduQ5OrO9IN507Nu3ixcjCeQu2CM9LmUblvM4hDAHNi3j5hBOWdocRDuHxPr1d5uZDkfMiXC8bcHJkBcPq3xzmD38eYuA8THhHSON5ji0xI/MhHQcqY95ZLzcj3iuE31cV6ZOJ4uv7ZEDuETtCPAXo4BYbrj3AHRv3ajFbJCrLVZWE76jAYOTLgcMgcvUn5LB3ciEcOrRpNgQ46keMl27k7vtbQF7HqyYPmOLvGdyGHkT04S7Rku9JCidQmp4LA/VoRLOdZGrvXceccsZjpDzjAMLN7gYNxjKkveOrhVui7ktzCxGDQPF65Lbgl497eEel3ZIrJ3R49WLgekzHPaT5w7t8ILX8X7XcqwWR42Jh4Z5lzBv3Yjrgs5xdT15biQOHzbFxh4Z4HNjRWBd99l0BwkVw2A/U78cy55j0OYwFHPqMV3x1IRR/iLkblfOQYzLzcG4kWgclzTmcTmO5hE3+wZ3xBwHyzuH9++ZQXKdyOVgT6swZ1LnE3R/1OoeiFVh7I4ZDvoMpHydwHPhn0TT6LoHcQ610TrkcMOJc3e4jyzzkk58Hj8XJs9iTYZzclZkRiEYGDx0eYGrjJtUOvrqwzWzdeffi4xlrGMefcTf7bP47zCckhwmOfUsddXci3vm0OrzKnNjJG2eDqDjeRmfoue9vO82o3TWMDOJ7r4niCbNLprl2KMceW4Yo1gsEgHebHHhlrB2QmZ3MZ5WDk5YB1cHcys9sQ8332iBf1DwPj+5CZ0zjkYRBB0wazxagZEFlwDv+rB5eMgOCTPDLhB6ls8nuQQd8vEop1Cq4a89SR0XIZ0de/jlDbPhvumtwVYIXN27de4mdkWzaJvOABHuak/xITMJTJ4JeEtAwnEPZeT1EIhYYkMtge8l/xXLJ1iT/AIEiTx6+y4vu5iQtfL3+E+3h7nC3duLBMvXiHAHFIA8HOwzHHXbsUazbVhG89bijmYPeoQnacRdX0rbYZ0kKHxJoWzAng3WDXO7iPA8UN2fI4oyDR06fd5Yd4Mu81HrGkvwfVPhJo2wbiscfcsCZ69QKbgiBJIxvqtEhZy+0xLy73vi0rsESN00hJy3hWSdojMDW8rFliB2NjBOCc+EVivYCh/4seSVNPFTcJlhwA6zTb86I8LXY5y2uiCYQJ3Qu6R0ucIA/70cefgAwAcnRac75uzymYj2oobF3ZkFrT0E9EkFTh3USw6aOnE1/MQEeZz4z0FEw+OPbv4GASI2AvRWJm3ZYmXmX1RwijZ28HQTjhNTCyy0gDThzAOU9R4lhvlGysbwfW40Q/WW7x9kux+DBn4vDwHmOnuxCV4blZ5Ya4D15yA5MdpXWCLE9YZZbTzSNrRLc4FKXyzALu2uYbh5/uPEbO1XM6ueA2FGzqCw5sJ3ckkwGxgDYY+Z8n9TP082OyAqO8ZOHUOgZtwPuexaROhKr13rkoa47CeU55zq/kBZQ3xY29lofUi+KuzjY3I5tMc8d8Tj6fq8Xqw8k/uTo5bm8BED5WgnX33d/8U+qwaadwaIumtxkqRxeDl0mAOHcPA4RRDMnANfg1mfcfSZOPwzrvPVcnO3E/D9RHAdm7gFfRs/Fx+TLrxYmud1Qx7mhaBeM7ummjUwb6y3Cs4fP/wAvyo7p+9WcW5wq/X3bFeDOn7tIht4O5Hysmijm/wAauPzGOdA18o8j+zAvmJ+nqltt015axI67q+R23DjfLgmWQE5MQSniwAODhjiPyhs8hj9XRSOjwvIOmDeYDch1fFj8f+ecdnomDmvvSY66ccg7uOziP6p054P9MWf3urn/AL53whJRHi38el0G89ag7qA72QM+1xhwJ4Xmtv66LjAYcNk/8U82a/8AlbIzDnWF6w4y4+DZqGje9IryvTMtQ+7thDcfbiVvQ670ww8MZTU4eMN8w50tdfdkm3l8A4e80xkf2Xhbz7BlI19miKcR+SN4hz32c5RZjU/6X0MZhrPWrmC+yPCfNDanjq1ux8S87n1cTXJc6bvD5jL9HEXdd7uR4ueYwLpPrf6ip84dnHV8y5TqZDJWy2xzDAbrcSdmNE/G58B73VzBla3eyk1hjcZ+7YHBnmZ4+b+UdyXg8Mq4OLNPFujltH/JGAPBHR9EHTkDJG8vMQR2f42byc8IbKEYB/8ARk+v0yeN45f0sV3YaY+caNUee4cfaAvv/GXJIDzR/wBUzyWnYQTm8E+Jyr+MGU/Kf2yn2DrPrbUWcL+K4awOP0EWE4AedhGayP8ABEK4dfsit37wF+0lAGUQaG3Ijy7f1c2GuvvBngjey2OggSdXSsxN9nLB+G8fykZns/4QM92UJEx4dXSFjt/vfZf1SNe4EhvFMnJvZs7+BuN9X7rnLibqYZ4CMFPxKI5tcCYAj1/nLa3olHcY/wDb403/AHXpY0unfXRBQX9YxhGaEWMkYGeh50vJWBbzp+5fI5Py6s8AibRlOrkOOPKMBzpYBOQB9kh+rbsDTycyeXpmXtf9boD6YGd97yCNYDZ4dbkyaaXZbSPS2D35udVzNTuFpwzlt0gMvLPzBhOJN73Yy1Z4btvmMJBNk5DiBjynd2RssA8n93Pd68ScDx7mDyuDZZXddQnPB5juXP8AmTQjb2JCO4QBeCTZ/Kc+XMkDgHPlaM1aEIij4m4Lx1bZhjhDd0n+NuPD0WN3xeu9vkN0DwrN5VO45MLmeXCz+igdnKkctR39i0f/AEhY/XCr5vf8ohRHJqMHDaB/+Nl/knBPb/zta+H/AEI1m7tlv3P9aDfwf8JgeHEGNpKzE/SRIDLPhAdOnb/SvqFvgf8AButAuhtc/wBEieWjRMmi8/8AUxzn8P8Alfy/+hPAnUsujg+rmJ1H/X8lx5eiNw7QfJKIIGpcK6BH7X5Gr8CF+VfBHGOeKzQvEDS3Ywr+D6sDX/di4QNvP7xvCl/zMs/1uELp9f4LP1f8DL9RF4vFt8+3Nn9+/wB0lrxnJ/N1tDwHwuZ9/hdSTegQhhbxy7OZODiGQB3nzicP6j+lYePzN/q/60EfRk7shyMoR8ff+GwSyVr9RQ7y4DGa7ZG2u5LYOXxHs6xx3uXQ7OrnfTEy7x1sofeDxkY152Bm5LQziUJpzMBuRhDu2ChzKuei6xIhopFJxYN0jGzOifI8IRfdwgQXDLDpELX4AbQcyTPPj3Jvhx5sm7B4tjR3bKoQhD+pc4xHx1/TJ/UjQ0dE5lawPk7CHzx2cDY8ONKRwiieOzGC2WsVf5LL3DE3gxRliAwFpmdwlcNl11w6fC0m61j0OwWx+iBAQ36h/VrnsrO4/rTf8f8AwiQ+oD+P8eny662Qn9Gn6JERV08rFbNMUzyJZkSeMj/NosiNQ+9mu6Dj3z1xIf8A6jbfz/5Sf7nSNU2YfFrjfM8/0+S5/wAS5uF75yQXXnPnfMT1lbHXeMRfRvv1/itR7kX7IDr8SvC/FQYfltO7iv8AbmdCalFHnOnYuovHWt/sPSP6T/BHP9jhv68zWPLw7FG9smvKp3ZFy3PJFhP6x/7l09hHELw6Ot3uQ0Xl+YfZn3eIP6/ygTl+SOf7+viPB5/TcsG7fNuSZ+BY5El6xz2atmnhki7o+bdnz58XkJ99wS6TmfE3A8pCids0dsF5BlxdAQL8BEa8yDOOxilOYgztrLOd9Xmhtd6Ti2b0bRjgtjyWHvCNn6ObUw7LJHmdnjzwRl4Q/wAXFHebBDpBZwzq1U+OYhjhLYhj4kmz1s5g24OJiaDosMu3/G3+CM/jpCZ1cBO7hu28/wCNEB2NsjI53wputHxcRlhOZBpNcu1pXvXytSDlqb03pNlMdNxFcl5N/wCo3GADT6NsFF2vqzB4r+NORxn+lNF6P+F+smv4Env6Tz8oWh0+xMuKwMMJF3D4fP3a2F7AH56ZGHKPSwT3mnsY2Tgx+sBqez/Fjn8v+U8/1OEszJIWHbgEC3h/nLHRzgkZbgjx1kKYxz3EabX10n9EifWP90VnT/0Tt6/oph29xAgxzXx5wUXE0VjbLP8AdIHOX7vMzxwpMkexT9T/ANDwuE/H+Cb/AFOm/p/A5dHCce5Hh+49e9if9Wx4PX5HgFzbp7t8tT0jxaZ5YW7OXP8Av/on9OGD+veP7hf9Dq6Rxgz5/powhqHkVzEBrXqLpcaelv7NiNQ3J27BIGHacwFlOKcPR4nvtloHWMkXOXRxkRhyhz63mj69S1TR3/N7gGHFUEMEPh3Azq26xDDzncQ3pLHzyepDnL+oAZoPrS6yp3xkoAP4nbjyeO44Tg/d0o7+DJgMnC5/tD16Y992QOpnM6O5cWZI6f3ZRg4knAOPxjNCuRP9DG7/AIF67dYX89f0uHD038j/AIdxlwdqFwmv3Tz/AGuCDP3X7OQB+QhjV7kvn/ni60fMzEA7cJ9vqN78/wB1ris5+KFfxv8ABCk7kA5U/wCq9li/W9xGd+rgWIG5shYO9QmbpQc2Ie//ANJ/qBwxiHe/8ty/1OE2D6b3B2X2tH+vyQ0Z6Lj+VY09QkbA+c/wkSR1P1saf9AZFXv/AEWOu8aIcx7vXPtD/o9ltYummv6bx1j3TONZA/2OkBjP/e5X9P4XaE7Gx05ybo6ROE5s63YS95F8Eu4fc5YQaGRFnL9QfxEZ5YOzw45pFmXuf6n1V+pmBambgG0Ht9w9zAsjcuGs5tfrnjqfRtngC8dFxwAPJKV/P/aM3VyRgfJBrDXuHBcD0InnMuycPdgGnXtIT73PgqiZWA8W5wjSdy7ZjcrXHGTGPPtljZi8sqTx/d1k2c/EZwhusHB5haPN5zCdeH+I5dcYdR4nCOZnLxBpQQlxDkes3A/hbJvU8TwnAN2cYgA71ELF+POxG7tVrDev5Jd3aes7A9sOLo9Kr+cIetm+wDcJcZptJmTl/NB/pdFwHY8kBz+RIWlno3xzNOM8sP8ApOF1NCfJi5akEaXYejI/8f4r3/DPL8EC/gf4I6hyk3yPCWaPCP65tZv0nQ8ADMeh9s/k0Vp0YX+zOZh7nhWiXkIrPETvRDG5Nw9P8PMQ/O/yuX+zwmBNoMdtQ6yRHmT/ALfZf4S0/wDqb4D2XJk5pMRW897/AH6gIcmA2L7zfD8s1n8Lv/h4HT+S2fnlnyhVy3v+1rEIrLz/AN5iUw/aVlg73wfwifp/wWv9DtMfxkRvfzhCravWcFEGvSHHrObp7DwzxTy3i0dvBPgzTJxsXtaPj1J2Nkdg2vgCFXk3H2QDoH03/uOC1PEc1c1PpduBf64r3i8NonwDJpLGcGOvcwe/m4n3bJoxDoeAuztnbr8s6T+ScF/BC8NN4Jgepx5yHHef4TAhqE9LqgHm/LBWMeiRvq0v5kNhaNo2KVyfRL6pIWq/nnUvuf0uvUCF32IAvc9YcQUUzmS1HHUlMYOx2hDGE2HSQTlyggHM811Y8HMtYOYlZE9FgbPDu2ou9y+pOqvX93ixHsOzp4aDFhivCCiCpsT1d7HXPmCWX53tO89K4ntHqZcMIz7ALOsYMJvPB92ADp6mNLkDFzt+iOwezQwy80YWvB+zCHsmWfoab4DPFRSfC0AexhnL/B3ZNQxMjJ5KdB5C4sOzFo6ico8rwo/+xYr/ALbNwZOpfAeQsYj7O+OZkIOlRos39slRME2/zuhAxBwelmzGr/YMRAK8PsWt7LhNMBrnCDsvt5lQ8313G+d01TNT6Zzae/VPeKZzTB+zfYHv6kncN6TejqOXf7Ldu2yP0Jh1zQrxc2kAQ8DOJ4Pu0kPKpe5rgGmqd9tDsfDa/p+7TmHeupyXyE50+bQweg2RDwmmA3hU4cfwWHhSO+NEtOODJg9i9S+M8iNwe4wxfPZzrmSA4eVpxhlgEdNREzkQjgAGdGbkm7QxZPuAjgThqbPparzadZmKYOfsvz/Y6LygsdR9jHuLRWngeBkLJZgNy4sEzxIzhk4ZBOltN7vdw5DYBy8L4sy2OFOQnCXfZFUzkvH3PGddh2vKWohUdwck0tKcHGfbK8RC9ITxc5GZcR4uQDiI/bIJywqHeR6ogUngYKDnZ30N4riNFcvc/wBwbl46sETt7mnRz6nWftJpOZwZzCK65OCDDzkLz2jlfZZUdk4cTmJhuNpGDn6IObHPjCCI53dMOVr0b+FwDH6LQYH62c84fpaYGL9YQFmPzhYTQcdcEdIP8LeLPzxkabhx9FoOjPwSvic9fosdn5cEKLpH62OOeD0XYh+QyewnI3FgfpC5B+kfeP0W7IHtyfwm6innICGP0WgwB31YmJHnhrQ/SOa4b44Lk4nUQGl0CDyE+QF/Gz0zH6IXAD9LBwD9Fobki6h/IRmAH6IngcfRCFEuHgL9m2D4Y/RAA4/RKDo/S3PHP4tOEfjEdbh+Ay4awfw2T2H6W0d7tpo1/Gx9D9LUxHHkMlm8bJ4C2HGI/RFHEfpONwDPrIFFCWvV6DaJmp9Af42x66/RbWA36WuvIlw1w/nmGOj9J5XZ3hJTOQZry3cIuPnm4hbnuefUaopjzIYhz9Q3jYleJ/3+PgM6EJjn9y/HU6yFOTN6I8BnxB1WAVE5jG96bju48CeDebkjbLrOMh88L3x6sHc/i4R3eoSjF+kvwF82d1iHcyAYRpywvwbYXc1gDAb5yytTg7tFMd4viEiY4yBheqOm2gPkdZkd5/xv0x5vTvyZnvfcc4k8GwMDAYbeZYTfwuinOsbb/Djc+7/jL3X+th+X1iGPn6w6v7ZmeMwcfmCmQtHJ4LyIgawuTfa6xnj+mT5/rK//ABgT+C8mRM/wvAhT/wBN23+mfDn+N7X9bjw5zzvmWi3v1LsR6G3eLb5E6G4poXnX632v1uO/bMp/4zHT+mS/DxzBIyOddrO/Mp43l+J7Q5jOQceXJ5jP8Y7P0zGyn+sXoZ0Gdac5B55k6Ss9ZvAz/GY3/Dey/WG6x/GHEf5ZgMP0MLn/AAx5d/xt3P8AXOq+fjMh1/XLf/Of/wAObq/sbU6/1k+C/WV/7ZvNf6yjN/rLP9uYft/rO7nb6zaoow+XI8bULHHFh9dMj3LGmjZD2Ryd424Hwg9DbieBn2Fyp6tORsQzWBHnmZJ5MZnCPS0qLsnb8QZDafVsGnKCEy5bzbLhjsgiiainXqbhlgctt5Tr1cJ92PBza3Qb95BoXXfzBfAPHmC06g4CyoIzsv1p/F0E3B4yFtgkQJu0+Sf/ABLVv0fAkOf7EyCM4NvlsaLIjVfoszZ2R59S/Rb9Fv0WzwXEuckIY7jAvM3nNuQHaD3AjT4Lfokerizz9GBwM5/5GdOLfot+ix3I9vxR3ktncxnAjPOeb9Fv0W/Rb9EL0SMwW99fso0B+LdYuw8ReVga7x0W/RHjlufWu+z4slbPFv0W/Rb9Fv0W/Rb9Fv0W/Rb9Fr0W/RL9Fv0W/Rb9Fv0W/Rb9Fv0W/Rb9FwX7fqCA6P8AAXAjlxEofAyrcA2hkeL5tw3tlqV6TqMM9ZJYbeYdD4GE25Ta02VvBEvc4a+e20ZvLzcEHIeYdLZ5x+E5tu4FmRxebzlq9BHgxj3lDynTsJD4/cAAbqq3ZLTfvPA/osdJ1pB3zFBvHpB65BxKnp/6D/hm00fJIdsi6Ns/Besw/pkLj0/5YQ8zqnaPZscVGky/lfqyno28bvwL34Vknnf0ROTj+7WNZ6PlAHiQvhP7z56kELS4nrzGSdB/5+lW9nk2hPMgzQw+r9fjletwbAepuz//ADE7xwB+l2cD6LvxyRDzlq7G5pH5E4gHbcDIrwk+D1a9dQenqV0RcBrZOx+4kR5WU/4Q1YJ1KadTjvhGt4+kQ89fEEOLBxCc5zPKJD2lM8GZoTFdrR/68WHDzJ2b1DtXHAwnf1D0TcOTF0GyHxOZEe+7RPGFOz8tnsg9j/SpIPLxISOmREb2T/MDSev+Wij87pAaWOHe2/Di0pnj+/yT1AvoF/oC2Y8xNngv0/8AAF5zJ+5urvomYMsrRvB2Nj9j/wA40vL/AEWAXnYBDOn1cBZiPYfue/gYPsv9vOCC/nk63+xl/wDsJLr9j/gWZLvBfwbahqHu/YlOofkyf+IGwH/9F/8AsL/9hJ9xNh7BDydQSfMgzFrouSHHeyiH3dOZOXK4dtgRu/BOvM5PDcJk2B4sGNjLsTqX7ow8I1I6bQY2pTEjj33C8ENQLxPZG9luxPMGG8+3Nz4T36IDjljaxDxbyziAlbA4OEIdTTD0w0W6c8Q0M8j3cE//AFn/AIeJ+VZk+GGgzw9ZLr0BsRfgf3Ho+3/mBT2z93sMIYZAKHzOH7jMfXyD0jcTHFD/AKLDY4f/AOt/wQT/ANyDa6bezqw5FlBx/wAVihruNfy/80PK/YNtQ75y7jk8w9LnZ/Gufs+SNTwXh/t+oPNsnbBx0g/IfRsdgRdhPJBzgH9j5DYPwFsAf5RJ6x+4QYT6scMoaTyf8NU9EMZdbt5ZhZx/c/whA4sMZ1TdN6kTOESoEXYc2B+oBfc4wYLdDqYuoaZOWxwDg/fiOl5cepTn6joImInw5p+L6UWYPmfU3PHhfEqhdfUGomZZ+ScKZueIaPDZBxWWU44ul3lnUHThZh2CwHsQlDrLticPmGtHYEaDw9Wvsk48bsF6ce7/AL1LuhsgTkf4JF+SxYn3X97EeTO4YOO/NmTmsPs8Pl/XD9uS+3EHP3Ky8fKvY/oNcr7j/AQVVsL6s/Qf9rOD0/GSlm6f3sB0cpy+/wDFAFnD9vk2HL7G/gsBfkshsOfi7f8A+eRmb4Pkpb53H3synjP/AGz4F36bVbXWQqZnJ4k4K5P04aROHQf8HzyL5mvO/wDHR5rXiChkaRn+zx/w8sfEB9pX5RxZff1GPx1ZC/1P+D/VNllu+Iccd2ix0IHSlgM4sLrNupLtyOW6vNn3NGQf+rSwaQsbNbPpyQB6bZnJIl6Z4WXAbIEF3Ing79Rt1mw4zxY4MwbeyJ15m4vOyRCOXs3FgBiAT0OmKGTEl04LR9CHQeLWFhAadyI65t5q5A9RywjwSLjq4R7uPeWQnnmYf0X6X/h9LP8AbBDPrm1/GIXGhMbak/rj5zhc/wCHjLy/87L0D87/ANr9Iw6PetqI8EgGMh739TRffw6gT5nHD/IzEvcuX2MZev7B2xPn83X6YbPOWG50DrYs/wCw3dfb8cNCgf8Anbqh2/wfKwWcPBFT2W3Lhl1P8Ey6NUFXnX5NDqgGYm/UnJ27mkPL/R4/4cNfRA8wL+74F2UNadfdoSV+j/jmX3ybzuPmSAuAerbCHwhzuT+JuBbPJjZFuLcSZd+Eg7Bee8KQ4Ns0w/Vm6we8g1s26jXTLwpdG2DblE6kNed365Ji3hWMyphwcqA8FtwH4TsvH5ilemAL/lMQd+7ZqMabKzMLIhjKZacYGJHOObAD5l5gf9DcemwT8iz/ANcxJHvtg6dzadcf7ty9HzyrY/i34E4Z/QQCjunyTNPDF3Sd4DkDM1ghXc/z/LgFkPV/1vTQ7kw2DMu45/l+cpPtZM5sCaW8KXtjf9k/B7+Ov5eplbERZeDfpuKnwRX0/wA1uCdp1DGXnkf3RhB4HzhDRifnbH3HcB2sdp38Arf9Hj52PQ9RK8Kjzm4XDl5uEII2f1P+OZ18WThvw9CIu4bGRl5si7a5sBOurTpYQBkdQXS6Zp1HDD9X/jQ7OHPicU3nU4kZy4kPBxHcN44sMBlg8lwJ5bEeU4mAuRkNb4uEQAxxyOJBESA1TtTbWllz4yNKWQdz8Qe2A3iFvdIz73ZU8fZ5DZMnuQ9WQuh6/wCq91W/f/B+qV/Rvv6UceS+ZkE634xoPfR+lP0ZXiQf2Bs+EhnmAzj/ADmvNJqkiT5B+t+WSPR+2MT/APomFwYufmdqdJ/RZj9nzyHsuquRPK52WrGX9Bc/wfBF5cH7BGt4WH/Vylqv2/JAOP8AmrInsyNFuSuv+tGD0/BCv1c8b3FyiKD4iP8AZ8f8B/SVsz3rKPJDBc8ztP6H/D+n8PzfE8o3VYkwzvzcYPMeyymQ4Ai5q69pitHnxHMwifqMRzzZGrnrb2RwvizUyW8J+HMIXVy8SuHaYegC+7IAsZeWaXD1YmuxzyC4k8zLiaccI3hz2y8EdhdqHZV0dSpDgyesvDOI9SwyOVpgvT8uV5v6dm88LHQHtJR+x+1rPv41zwwjycY+VD/vuHyci1HzP6OTs834hS/n/wCR8nfN/wANdYMdhr6vwskmkyBwRj8/2D4iua6i8qUmEdh8+lEV9AB/gjnrT9g+U4biFLfb0Lvj45i1eP8AAj38nxglon/8bP8AlZv8InbCJkEP+x9f8On4WsnsokMEuXAWcP6H/D+nDqtHB3e3uMGwnCCbYXNlM8iddCKJBTzaOLzzOTwtenmW4sOLTnDI5G4edbbi5DkboIUuUMQjZ1rbGrbOshPdhqxqp4ngFrGuRMAxsQ+rl2uMBOeXqRZsMcOfckC9NyYdF2mY+kXIlV1cRMuasIay4c33KLgL1JH9FyfmGrfaOf8AI30MW1uf0M+dJ6IcR2WEPtYlz/pmA9L8uHx/nWKvDdecf96X87flTm8n9Q3+s4XJiVGdHlQ9T/375Lw+f+pSj9LgOmFPp8jndf10dHHOE+XlwfyMNM4vR+OPlQLwyb0t+l4BZ0pfWfH4ylCzisjXQ2QbAmG3je/6PH/Dr+NuX0rC763PMI7Tf8f/ABQzp4gaLM/fMW3eLg3JOEuuRXg5JLhciJIQFm9Xic75gsjXmNAOSAlx0Zxl0gsHU4tb/haeCUHNrATu5dsjyJZYxJDULL4yWiy06AQuxOvmWGEjd1aAfZMBg5DJEyFCFX2zpjLOvgLS06sIBGXUL80nEPmbj9MPkxQOuRH/AOm2/KwGus/g2xA7difZL53/AFDfy3Pz7pj+zJw3q/L+b8c+DqFiv/tDuAeggTr1DCe5fE/4lDF/4Xid75Npv81pT4/KWdg6RDPrI8zeMIfJn+X5ev7h9t/6Mc8qD3O/+35H3n/MQI8czg+A1zZssIT/AHeP+HX8Y7LsKdDrB8A/r/8AHEfDJmdhKMIlnLLgsGkeyN5chNzx6DdurZuwzj4nADh+rriywIWctfcQ2QhBMiDIBrtmoyTId14m0OSPZ58fdsvD4s8cZ4DmMIsZ8hd7Onu5dtYzHmXm/C37Ln0xmGwSxy2GJx1OMvKP5hb1x7sFzxcjORGi8EhBFe+m4f7f2B+Tv5j48YPG3dy3yv278Zai70/ZEH4NzXeYup/67McHwT8Fp8zW8s/0G35+z+saL4wa9bGs+rU1yebpEJMMHJPXUTy/LeM5PrRJe8wxuXdT9L56n2eLQrutiEyLhcMNhmk/c/HVqnD/ACb7df5kwJynf4+cq/8AmLi3MH+wsjx4uZhJkOcXWn/a+v8Ah1/GJ+K9Dd2xyYMZ8U/r/wDFAxebyJbjd9Huzg8vOWIf6iydtwbB7ZPOf92AcL2eXd3DixKGhFEZs8MxPjxZbO4TD3txweSU5XCXy2uMgUkl03Y0ggQgmhPgeIQy8QvUtd3u333lhRyQcTs/6nADDPPmSa6Ns5NsyscDzCWzkdCHSxPE8QSFjvUrklmqBxdRuQHZPEO7nhhxfMuSP/blQfyrg/hFzR9kQZ3P+2Ri/V9PcQZuSf1Nu/gYvdlu7f8AV6Y8H9SS134zP0XAfKv2Iwnq0M8EBEbjiXFfR8oe9wj0+QP6Zpuj/g+bgnfBET0dywXEzk+Hf+UGOfIdZhy+0X2pP7wsL+fl7eH/AFK4J4/oI0ljvwsEuMP+l9fJdfx+D9LYzIIlh/X/AOH9KWZE552F1fxaPvTDlJQYQfFNx4nn+JOGSzjbCKDM1sSMYDzBrIsbBZz7YdvEh4bAB9yMAmt8jqVznguVvUsUcSenThk5UTjhuGv13EjN17hbj4eZ0q7gHcOGOm0jqwQ6zmWnzIY+LS43iCl48rhcXPSQ0bwWrRgw7w2HF/MeA692BmxgEyLj37OCGB9vwEfq6i8cE5rPcsOT6me0RLqszWWuPi80fCfJwF/D84TMa6M2zjoP9/O+WpwPcOU7saO+4Ixc9xr6XH+AQCiZpH8nD84PUnBcA35E/wC0/JZ27/o1vX/4Txk8kr+l+6zRZ8EXv/pWaPX9MnSbufH2ww5PP+Z2Bl5ZfALOPiBf6Pj5Lp+NifcMg5h2aUP6/wDgv1W65rrYBwdT7L5eLTxHYwYcIcbcjJ4SYxg4LXP4uHc/Vxf9ROWc3TXiydyrkt0ccuHbkYod+Z3q8ZEzmwJCc8XLhxFhbTpMmO5cnbHx5PFzhm6HM+QGWnXmRgepKZ2ZC6ebe11FvE742w1uGJ3dpkbsWdXXbVr1ccJY+GE0t0akxPRX8ofId6te87MjczGOd7t7+CP5F4jmS5ZS5H7ha+ZJnz33Id53IAxd873zPx7n/wA0zZ3RhBzLlZKOV4hHc8yaHd5Q/wBFnyOdWELc48TJXyvwFmLiWGOHxDgac2uWFLy37EdF5VP18pwPY/q588l36Rlr4CKfvN5O39xgbeR1EObp0gQHNe/+n/h1z6+BfNQ8CSZbKe/4/wCB/S23Tpw9wfTc5Ths91sOOPgcM83DubCAzWStAEuhYCjy+JhCZLR2smwA19xEFhgXhvLPh0LfTqVwak88TY2yhhJRldvF8yh43mMhcitwTMotLrbhGRkzJhORgMerxJgceSBmjOmXAhY3Pwh2RnaM3Wh+j54n5U3f7IEfq8/WRzjFLQRH0c35jIf8M+Ri9b+rZj0R5Wyx0NjKR7eDMzf7H8lvyN260iNOLlx8MuyNhNHGL+iGXFn7XP8Ahu8XXxiygffOkiLHBZ5x1ngPF2DP1LnAVt7if4fknh+MX5rO/wDzkHnMVxj9I6VfvsYzwf8AAw/qPpvvvQfpcOOIXEiuphleYjA3y2JpNYPMk5FkBxZYZDqCzovuGNR7e9iHVn1FjJgzR7mJkLkdWLLyT1jJTdsEgnHEjildOX+beCwPXNyK25JB/MFnXZlmtZxdl8JcxeLlfcDk4gYRHbwsjMg9LZxDbRpkh4DJZy5pJ9kmbq5nPn/WKR5/5amFZ+s2a8eUuQh5FyNlcaQ/VKiP+A58LEZvteLSqeNTiywXBA+OS5g4cZSzv/JZnzvyJH2uHe/8b1zAkX8/4rbzP/f/AJCULzH5wW4axb3FwN+jZmAZh4LDrP0stzOT0/47J0z9baev0nfYfojqZ+kLnH6D/jtjMfot98b+E7geSYeCPZlHIACPG+16Ugd7t3wsQPu4HIeUDyj2WPAmSAJ4imIhy3vOZiIljhnEWWc3TC5uWEk9T2pIlMkaISDTu5inJdjDmg3Pojhz4lGkHOiKxh5zLTE8wrjClHxHku4ZJEbdzmEJQ1A9tgLfTua2NQ/H/OXjbv8A18PKwPNydWevO/rmIqf/AJr/AMv1T8J4DF5tBHFAIsEDP4rOH/I4jzP24m1nL/UEkLhJ6JO9+yXxL/z7Yn/LgiLC/RJF0XCF2f8A+RgzgljB9TXOyttgw3gtc1kK3B4kR5sbsixF58SFSNnxG9mB35l2tMBI4M6wtI7NsoZzLNYC1U9Lz8wBznJ81sI9Wzp2H4xgRzIdnFw2QwvB/cnQtT2x6nLxG+V5gheZmgFnHckhU7QG62LiJuz4wMyRJ+YkMzd+4l2X0T6L6L6JDMk+gf3Y463ErxAGwmMJz/8AOxh0H9rfVfRfRfVfRbRDtP5cLn5yw25jGCfbKWX3avXj+5aDm8n5D8SfpvqvqvqtccW+HQ/YsVOkmvUTzck7pZl8m2NnbfVfVfVfVbNHkuQZx/WkWaeLkSxDJNMbkhnF9V9V9V9V9V9N9V9V9V9Ueq+i+q+q+q+qPVM4uNI1f7hHInnCGWS2FmSRYH3cEi4FgwNJ4LFACJPAXbAcw6wWhHJ2B0yMvVvelyQRrqPQ5zxCMEkani60BjbrhFxsF5OxAXHibs2brezmXGJxIntOH2kLFmvEzg95P9FknE9QQFdofVow8YTpYG7ZV8LX8r4mpX++pf8A1qH/ANb039tQ/wDvcrP77wvC81jEp4LrXh8TybxGGXG7np7GBskc5eNfa9X9tfq/eif/AHppn+ep9/31OOKnX0tb7m7lgFrwLgJ29x3HcwN7njvhHE11S5egeHfx/tfxfvWs/wAtD/8Aam3P994zHM1y98mOB4E/ZebzY7StA83OxLHr++/6Vf8AWq9P+an/AOtWvH91y6+vs19F3jnZ4SMjcNfd8B6Nt3/NVf8A2r7P3U9/7qJ/9q+791/3upef21f/ANaef+2vj/to/wD70+v96L/96L/7U/8A26r/AO1J5/dRjx+9y5/v08IKtXJAPRJrJVBzOdLjeZV6JMWcTaXLjCC8Tl5kZNx4mXW2HtKoLdpjPAcYXjEMJjcOJjPKzhdsa7hQ6jFGJzIFll17txgn1NmU+p4As/glrx1nVk6jXUgAY6CO99WWnzBOpsEmgC5keae5HZ3toNtV5jhLdAc+G7I/qz8f1HnIvhJ0lpuXB1wfCZ3hcrjlj4hTH+pU8Fh8f1DPylbuSJuWw71Iq8XsUjsLmSrJdTLkcPgsTh19Qhp3vVyNcjHjNl/X6kE5/U3JIdrZhL21mhb+FsKSATLFtRs17OZDAh03J5hjOp1M0G5rZ2EDWEruZYrmSRg1LXsmS5Q/xJHc/qbsP6l48TwZlxaF+FzjiH0vAJEeP6k3xDOUn4l4Np1J+jJsY633CXAni24ty5d+JSJDMnxRs1uDGi4idWE5Eg5Lz0g3D+YlHDMJiWmBzCLE51Y3hKsCNigJ7RxEPqXQ83C3nYL3MmDJkrsUue5MDxHQOweHmGE7sgU84oe3ckXH8wyc94z0amzccp3pf+hz/wDaiv8A3h/9qP8A9uK/94B/3T/9yLb/AGwdP8k0DL5S09oXXlOE8mw3Dc1S19mtkhPmMTw5aN73UxwiBc5cgHXKR5RMALFu+Tk5LFQWOHfErGbCjm82eCOk3/Mx6/fNwnLzdpmv+JGus82fccUKmZY/mGkn+YUoAcmoviOOp4evUbWPiwNvw7DSgXGuvNnMZGcBzH14PfG5AF+uSMs+v3zbLx6BZOot25X0v1II0+0G4NWpEvqw/i1BcXcTonaTwo9BmLR9yomO02cfvi3/AKw3x2YsJFtLYvHgHmK5nwifGC//AEh8CKPX+6B7/ZFn/unhoOVRuP8AJGqeOlLvZHM5k6EjulrtxIhbNcRo7cnWGlDJNXYOvmeSvOTBYweLgyPhY3Xm1rZphPmXA+ly+xHs2rx/nINkcCSDzaeI4hPTLAF4CxyyJu9+pY0l4NmWHFgbOOvUD4sjaHZ5LcieJkYjU8PdwsFg4R5jBa3Nra2tq2vxtuXH/e7g15Lxp4gb0D/Og3VGz1C7QB1vW2CO4z9FwjRsbQ6f9a6fey43vdwNiYnKxwvOaTJKm4qOIRZM/vZEevtUi7zXJMLg54ZzDnXHuE/0D0795qAnUqmu4fRAhTywhC16ApkXc9dOBkRQxwdZaIPdB5PMp+S53LTDq1bX6Bqk6uIQ9BX9FioM7cLjVcfPk/EP4OaNXy4XYFKtqb/0JIl3YZvEYpqPp1J0N6/jS96VJmo+DVsSX3wQzaYuv8HFz2YGvEgXl8IT38f/AAnbn437bnwztr8a3GTwX7bYyHxIREzILcfj1AGXU8fg5N34Qt4JDojyNXXdu8IjawjVGAkE0hfsthz3IZDwTqeEixFpq4t6dbUajw9We1lpymaqwcNhWDLgTmzwidW8ni24HJ99w9EpfQ7IvR49W02qImxMdYDlsiwk6A5jwA/MVucpmOMNy/8A8C5Now/22B4C94Jr3B3bOLxX+juADp5u4IjBLP8AV+k3NLzs8cPdx/Du8dztPClzADWec+NO7GY+sO9+BuS3mRRlv/THfohwc5e52fmw/JfJvmYbA/0+0YE84Hpl/wCpEPyR5/u8bX8u4/6OiMbfEa9mtkvRGfgqyXPdZPjIIn+upZ+fZB7HJLfrP+H/ABfn/htvRJzw/oszWZM9yvTxKlg6nkn3gBAOyUOLFDTuHjbhch5z3LHfTbAbrz4g5nPR/EqoDC8l9TAb4tDw27FBDHV0ECmQosNYPCOA0CPx3GkgxkbvYGnMCFwnE4kccZc5PG8y7x4Zws8MuDOCnmetkcz4ygXg/m40PcDtZl1vV9H7LPr9l9H7L6v331fvvq/bfV+2+r9t9X7b6R+HLgDvmM8tpDOvjA5/Dhda/EYLkFxn+xcXqS/tx/2/C5QZqQ8Lefcs7kme5UOxPBDLjpfTVx1Hr8hYPal5b+mH75F/1PF/SuKun8r2/mO/mu4ZCQz/AGeU/wBmCm/7Yv7s/wBL6zyTn/o6JZ/wejVSeTrP/Zn+t3sNHFpGBw8m7MvP6f2nHON8nN8RkPy3HpJ0WN6/Ze8/ZfR+2+r999H7b6v230ftvq/bfV+2PTj9lvztH9Y0tuaRFYHNqQaM9TAjTgW/cCfiTu3ekOO5hsqwbaOpKjytOWE5tiYCBN2J6WOC2PK2O27aRjeIY3xku3GdQYtLGLzHs6R0BBuSh3IzUaWYPUuk6CWnBIwGeIeSd18WKX7hDpEZwdnDL9/3t/vYJv8Ane1/d5H9p8P9pB/9yhv+U/8A2Z3X97/9OWb0x53i2vu4/XAsnEsDq/EGA1eiwOodfgRYiTePIzq5/wC/wiUmty6Sz8e7kduUAkpmZn4l/k+Lh9Jc5/Fuf55c/wDc6jAQz/lO38zz83x2xX+59rf8mGR/twv7saY/6m3E/wBj6P8AhOjdbs/wJfyVPTiTu7+VOINYZpgW5EQC3NgKynT2OzPD/cxn9t/9nf8A2d/pZ/8A3z4v7Q//AKv97LGf3uAgV873diRuEvJxBO8TqQnlM4kUWrOXZLlg9WZwvPZEMkw1s+oNYTTZwd2bURnhtKmGcPdz1FkcS3rYollzFQCU5Gxy4zyBgVZj9w0hCS1zuIpFpGHVg7P07mXALhM83NfBgFwSgjzeeuSjFyPmbbMGDnhbR/1rhz+tdP8Ajy//ADTQ/wBaV/55yz+vOP8A15/+fjkn68lQ666lQHfxwf7P2sl9xZR6f/8ANgXNL/LEWN/r/SW0mbsvBZPw/gHaEc9Lo48Cwet8dVccZ2deYdnqf9Y5+eX+0+viEfwLx/NO/wCbX8l+cN/7n2tkRpK/7C/uTZn/AKmTzx4f+sLlG8g5fBijlkMt48i/q3XePrdGoZ30apt20iGYZHfjMCfeyunAwS/f6UZ4/WvZ+nC6/Tn/AOXv/wAPLf8Anj/5+f8A5ueLS0Nx5cuKdjgWHd4Wd4lRtx+zPFrAFYTqO0xcuELM9SHBJkTiY6CDTF0H8UhwOCN4LM5ucW/UUeDW6a8TledZmk8s6QjA4AuBzKO+Vg8zrRBwYtEjRHAtViFBdbitg9TKXVcxg8G24WHRi5y4jB+bylx03mTF84/Tf9I7bX4W5tvEsOOx6/8AbYlK2w5/DgBz+MaH6/xtXYaBBeBPGPDpf6/0s4B2eC3+Hu34Tyx0nuB5l97lDxP6nT+M8/PL/afVxoR+JaEu3839y/BbBf7n2ln5sbH/AG4X9yaf93jLN4f+z0TrGwCKyF1c/wBz7yeK0HPSIw8/9yTN6ob/ALFxE/3ky3f/ACeL0i8/sSeN/wCgknINjo2BawLA12WvhjHi1hk95ZkMYwonAfu0WiHuXFP5SOY1GTy0v9XB1MbVgJbbl9BsqeX3v5lpz1O/EXnfhA49S1ho07nHKMTFIwhiiPpcesDuQ6mehI4HxbOeY3fmfVsyc7Gf2g4bpc8BguITkkem50nWZ3t6Z/zlyEHizrj/APhi28f+mxEvC5LTM48/qZIOf4f8YjLv+gW3/A32sL/X+l2m5Ny14ebP8eR66zh92Ad05o8lA3zvUdhLT7Y5LTy74hyPGllxu54nQLpV88e8tPphfxV09o1j7uwcd8TtJSwMI41W53vhhv8ALnrlcSRx5zyNwQ3FGUdLICH/AOeBddpVc4HT64Xf2HedWQulrqF2Jgeo2M3mZ++5PDxeRPpP9N7WEWCEZT6/4fOWfX/JxnR/kiw14iwfdg2HUmmyxYPYpz0s9LwLhkOzANgP8yHAbYHpuZfCk4efR9xQxvHH0eSyjlwGPkavR6ueC8SSzY92QNRQ06/rNJ/hvOyzfU6pH8xAUbbhECC0cugN05aEWMmE1q2ziDDmEKoPuQoH50C4FuL833B52Tgdt/0bN5jsPjhzLSuG+QdNpvX7LT1+y30/Zb6fstPX7LT1+y09fstPX7LTwfss+N+wz3Y5LiRPQmmCh7kUEwjPAX0C+Zrz43qA4YALv/BCvjnBrqsDferOhEiVwz0FvGyg5ubNtfetPJpT8hzbd30wJ72KK6bXMdGBzfLd1wzemd8/IFcFzOpB1PWqeYP8OdQs71gQ2YB15y3E3usvi3vcg5Xn2Zeg09iDJ4bzAPBHrDV4JsBp2kZJNF9ikVNs14z6DFXv2YyBDonWcSCPb/WAZ0tlyLzThkb/AJkvuJzk0aeOM25vyN5xpcUSbnY8w0pOKBzqIIr0nQF4U+UfBHuRYDhYF4l313xL9P7W/T+1p6/Zcev2Wnr9l9H7L6P2Wnp/aRvT+1mDgHX04TZS5ki5sQk9yw7nzbZ21u2QgJeJ4IdyDNe50zxHgbkib423kOSgOxzvm3H289JHvAOd52x2NPM+QG/mRXkE99SSWY4dgVeWTSjRhTPGwwz4YZlpySB5sLW5vEzy4GxLWCtkz1PUu+OPMLcWJ/qXpoTPwTcs8FzJ66JjXAXuLjQPQ+rOBXPLiO4vV7mMz5B7na41awZyYTo3076d9W9HHqyXj8FJrjF2VfQ5igK6t7YvgujvV0jDCZnfytn0LxEGR9WJeuuIjoI2z5kZlqE7iebDysgJnLG71XIybBIaIDsaGmVbmzorgkxcKM7bpjcXBjERdhF13bhaJEiV1dtGIgpxe7fKxgHiOQOkfFR125TTFT45sH6iFn0ylCqV57V1gQI9Hb0W9RxsRh+lqz+mQj+07fRjZ43jiz8LFOM59ZYMEejPgM12LX7epUZTEXYdY543XmxiQd7ukvmdWUCHQ2GDq4dQYuTQB4XD+d0vJOhC5oPEnIUwHtsPJmyoN9x1ujxEJh+ADj9259fMWcHG1cTlZuFuTbiyBI0YKvJ7ugT1E/mXfP6J8PEO/MMTOSyWjC9WjXmHVgmhbo4HFjF+3S7Rq8+oMfq4x0ue8XLxAmIOT5ukzjxGO7HSAfFvZg5Idth4YzHLjICyEuwe7iGQEzbHVn4se4mEAzELAnlIW5fjBjYzzHHLDW3LeYgvcrawcSaLjiPEhqZCQmRxvHdwJEAg0kPEUFjBPMPLxGEfg5c/fNh0gjJ57gJvBu4N1N9bmDxkLN462et6WAlCOkL44urDQ8xkRmTuqZblDSGeJ6sgsbazj7l64ciYlPqS3v7y7beiGnY18eDbvmJLb6gEyQc2B8buZFJLVSH0vqT982LJz5ZA4JYwWc0DB0ZDF4fRxCeiZh7ldbJZOoLSHHFp3cS3DFviAn555LHmzGXJWkmRxaYbObhETXM6k1dSpOC/F4rKG83iXi4eLD4HNssrmfFLEAbXU8zI7qVy5MwonhxCBke8GGS5k8OINxgDc3E2ATFKbhsYeC0tjuMW/wAJiX+7XaOAs0h6jDDs+K9LzzIbjPEWBlyMHFz3bvYtHjv4p6JyA4ll7F4g/pYjDokBAguD4KScrtwsVyyZw7kcC4GFskRqZHrSBwalTzs42R6623Wwng4W3pl2Ahz08SA1zm3CQhEzNjj/AMDJ+Et+A+A2Dy+GD4m3WdWulj8AsMe5yEeJawYnqxmy04bB7n4EomeY6uDZriOTiAvMB1YyzWHEOObLpI8pGTqXXmcOYx5hRQ5B2aJ/eC7C6Jc/aNYoEMuHiCDpLtvVvYCU7g4KQDwPi9G4vgbd3IOLk2BOuS5DTYG8pah8Q1s6EGS/EckgJZa2B2S4kOi2vFgbcjEak55gR1E4gjvgu6i8NufT4Jhri5RYDqNsYtj3/gB18OuxE3dkwbZnw28GZzb0uotLbdkWB3blDYY6wvHHNk0+ATbe3LuMsEi8mHO200szuwjRyOFuJdB+DUycZOLYW5rdp54nBxnle4jOnDCRP5tFmGQQY7AmHUQhvCQQ8b1IvLy3bo4uatyJeJB4bFu2TlB2lvMsVNLo7DSWDMuLshAS4RzMZdo5+HZG2twnRkIQtIMmAE83B1GmU2zmMRg/4A2STYCz4Jcj4GJ8Dtw+Gwc+TOF7ltzz5Zxk42eZtT4ixifHEnmELt8ME+Hu6lGKKOFzHdjaR2STlLLuTO4bXLyQd2al5baObKp+p5ctAWb3BmEcAy8RxoRmmtuDCATLwWRk8hIjkEe1tXLIOe7XZGjmxwmDoRTdtO3P7Qu5XcKZGODi1N+Fl8AuvMHZxMHxerN+WyZ8BFlwYZ1PDYeUW4zzfjiT4LsxElt38MciW/DyzNWo8sM4xHKBYs21h843zAcTM34AZZLYILlEeRx+LxDfh0iE03m0YMGGM3CUELolk0S5dRSWcZEmNZzdg3lsc1uWw83NGRi8TLLMdl5h527EGSAaT40tjmUMW5dEFc+LJ2ToXXc8p8iLnkgOE5NYM4uXvi77+ANgGY8kB8M2MWr8YS51crgtIfMa7INdYY4mbIzmPl7LYjh+G3otHcpflaCQ5copkzhEo8wLkOtYNb4uE1z1eW5iPM2sYCWRI/AhxOSV7gOZ3udMnMvMAl3cOo1kzywG3fZd+YIxlxs9WpYfAfgcoLcLLI6nGhDTm5D9SSTvEsnbDTlw28ywkfEQZDgWzGMbl0kjt4YqJ7ivLOLkmMq4wDk7jZGWn4OLd/OtI6h27yxOXxw+RZpGTtsh24yMisNzm1E5WkORWD8HPPxMu4IPxMIbAORxvmKeOx7RtdsoZjWeLAdwyeQLmPohJrxc6WEZsvkC5m2eXEnckubcLZ8TtnzMJwlxcMcXdwhElhHKduzDeLgsHcnMsBHZDyQDsQhhhYy7NpYGRZjAQPiaSDGJTzY4WcWCYLI0kVWdOEDx3bTm4dxiyF7hM8GIC2iOUtI4PgPkNqcmwZUmFyWTc+SRwjGzIybuXKJzLuR8cunVrMw+LYFgcQdmVLPN1dsgyE1G4B26xgO5huyLuKGOQnSz2/M6eVzjzIHvUm0Mp3HOfDLXlOHlFnnmFO7RuPZOZo6cyhdnDzHIOLBIj4Akcx3MIbN6tfhySy8R8bkYwb3ZE58Jlpu2o4QkZLknfwPKyx4bB5vKW+WR6+DB5Tuy3uKcEKsZHY8xx1mIPjA7S+UnqRF5ucaQozu234y6Izc9xiJxkyCIYFHxFkvw52fwJOrBs7ScPjFsLKW2SW5qwrm20Z8ekF62DWGnoj3Ow8nJSayjTjbpOpOAcgfSALDInQ5DJ0+MiwtByb5nitrZiI9rJHUnJPyDxOkYibHcwY4hZuZuzWlr8MSH/gD5HIbHuwz8BS4IBxtTdbM1VkSNuLWQcwONjgjbkmcQRatMbk5OGGNmRm/AizzN2XdiYqfA/FS2V+EWydnHwxkMZGWmxrZI429SbzYLlgUIJYt+BzbZkSx7s5xdfhanHb6AWCseWTSyICWl9rHyihy5H3DTb1DYHycwAH3YWsQNzyXdsa6vBI5IBHWDDQuWGi9uyIf54OPZMALMGAAj5XrOIrzll7bgNi3zE0vx6RAFhYj8HEM68/A2YhhuEBISJhsNlkjsmRhMkMuaSwy2bL3BKOSxiuJNWmMtR8exzpdkGGlj3BzA3uEgsMnxHGcfE1ZtLZg+Z0sfByvBCWrkuYXjblNsnPUg7uFg5r1cDJYLdnuPiQNGHOGNkgBaHNjyXk2+zqNx2ZeZF64ZM8Kxvff5i84J7nBXqILyzc6FMjnderIJkWCELzYcN/cRwTbXffi0Q+I6rIG7IJs4hQ87Ymcj7iw/QiTl3aGnhsUd8ynZcN7Mty9byvMkI92rriQamvK9Sac8WAG6cmjht57isqWk4fhOU8oojkrhxaEWBe1raNkjE8RHKBjM/DdbW2CTgRnwcUgK3VnO/BnOTO4xE6WnEOPiXGo2hZj4ONxfiXLkSaQClnQeI0scHmQ7iQs13at6XE8cyHNtDzlAB8lxxut3psK7y0NYdzZeXZs7kG7CE2yEwKsud5tkBdYl5RGnMXbfgU098Slowkj8RK0CBB5LmZ1l7EWo0g8czjzAq3GM7EYVx8QkV3KQ2WIbKlTQRwNZsc22bGJ9+PiRy7M16d2VD25kxqHGPguHuzzZ53BjBG8gLnHMbc9j5zmNu55EO/A4QzviVns7s+SHfgNpCJdupvwu9sm77jGCW/zO7zCLpWPugjlgZEE1GNZCrjCsnHx6FqDo2z3bmJan6SZiF6I9UWeTEQD3I+VkZCNi8iNe2WLZg4ZojPbZnG02w+b87l5m0TF6uYeJyncnRtBrqQjhgzCneRjbzbuPPWW93rbIP1OzyxJjYB8Dvwwh9Il45V8SZXZ5TYYqvRfkq7khUfcIi9yopl8ahNG3DnZOnL192xo9W0LjC1ThD6gETY9A26ELd23dzc7Cgh4mMmW4BCZc5ERmx0mEJjcmM5Fqba2ActYPx8p8JZdscXCJr8a/HC3fnLLMn4OOCeCTG2+A5dyzq5JbgNgBqAG3G/AWpzGsYBizGmc3A+PESQQycjjauW6h425K108QpluCMAGfjfFgZE1R3vLctuoU1WnEaSJzY4+cuLGG3IbKbO3nd2TNgLXqI8skSDciyCEY9IdEY0v8QiTuw5c7Hp38DgIgAWLq20eI3x1NYsyfUthB4RZdrPhOdFv5P/1MHkZ+VTRCGsxkvzDJEPNic7j33m0SAkuh+yHBa8pwecjD0JwgHfLIkbnAbRhHAyJxuISuWL8W8Ec/Itmwk2xzMTNup5uvkm2xxM3JO2UcIE8XAlpYi5QjhH9Bcs9Dd8AwnNl6O2bVCHXBbcLmNvZMtFk5kY1zwzknMMdf4uAWBSMdMdTZXqJDXcnuGLVtuJnMcZDi7OljznuCz1kU5mNwZjj7loHmUpza5a8qi8YMaM9dfc6gwrfUHKYOXO9TI9PmO6OmTLXgYVCcsY0JABwREFxJ4ObZP5QPMKkZ4e45LzeBEKyGIXAP1CSMugn3I8ruew8y37Zg8WR7bZ15tu5wybPd3Ymy3TxszCxzxcI6edkZOcl8E26rc2mwHku8XMgiMNEuJIN53mJyxYRwyFZldnSNkz4LlHMN3It34YNmWRr8N+fiHxKyZZxxIvMbZ1DGPEHl8YdI5HMb1IkZxGcu3AeMssjYACE9l2nUcxtBJ8vUMmxncGm07tsnOo63bTaEjF6OxAmCKjVs0pwz2S1J3aeZYHgtZuSlJObDxgxS2+knOAq8zdReLDd4g3fU2a89TY8US2Ik8yRdMRA62JE7ZYqWwIs0eQAfZOz7niFlz4QZUerRacGzt4SCb2xM6EbeVg4fc45My63GucwaHjiRzzkCJ5I/e/Nu2O+j8RQDiYcUORm7bmiHgmOV67Tq2hSOAzPLPE8ts34stIcMl8iz/i5Sx8fVwssyJy+WgLMA2H8J2wsPPbaTkQsZ+bb2Uo8ltbPMg6uWBuaYVgxlNxm4Ec1H8Qkv1D9Y+rZcJM5OOcIC0OrVmoeEqA92nkDitljcSOVZho8js5zrLZCKLTkpq86DOWifT8TXkWTSEqsA8yxxHiw/KM3YCi0ftOAcLbs3n4VNw92EPJApCVMbpt8YRhGeYGlZHQRr8xEFRK/jB9ghuA7iAHLGh44LAU5Zaj7ugSdLAw8GSFo4I76WI683BBY8ITvpI5fH1Zq6+rqPezZNm4LgWkHzdy5C5ZE8MZrwsxr3GHJt1jFsJcohCflsdRDLIdIZ+ACy/HWyMpnmy6jD5HAuQ+iwOXM8OEx2eA1gNG0vrbjXtkosTn+7i+3xBhK2eR320i+LHaRoTa3xb7JkzKBZBLGz3N08SZqX4Yc6lDGQFJ3YRw83FbT1hWEAI/zcCcR8TcBahebNvFqZ9lghvUDfSUAfXxWReubKsYtkZu2j0hcetLXkgXUkNLpSxJ8sDE9fc08HPwplzhAAEhMw54i3UoZmVu9cSJnQu1h6vqQz4e3Twckbd34kj6QuHdtXLM/i/AwwPVxVpD5k3lzx8ncQb7iHLzLBYMBmePkJHEpNjj4GWLZctOLcuyRki5HwhB+AhiIPgmrQc7Lnjq1cSysWRPEMl5nAOts2sGpmuMWWIX1YtX0ay+4sbHhDovUo4ia5HykbBZmbYMEi4c+4wRABd3PHEkSKwcZBPosUyxCZpe2Hdrm52PHHXwQx9mWeE4PYjqjeZ5vJsdg9SDGBqOywMtwlGphLo6s4liULcEOkM8efgxpsyg4XBLbRySyxZoerWrAJ2S4MpmZby3zuYuAQOR7YwgSFM4LuDHbGzonBzSF8DIR3hnN2QbEM6te+7OVjbfE8jkbHEe23A3MgZrY3LSUpjblz+OEa+HmeJ93GyKHwhO7v2OEtPk3Z+BZzNxSfNAtOWdEtI7Ct93Hz7kkX7k7ggj0WbnVu9I3Xhk3l6kCrbnzOOvmwOXYbqFm5sCmfY5KBcbboMhdd24HY2GHsuAvi4hNyOZnYW5MTkkkuUlZkITT46+IECQxsejl9xt4C0nPE9v3ImWfdmQmxY6cSc2XPxA9QH6kONuDMAPCc5soniBnM+lkzSd3bpG4892KMoKAtJMkZ35y4BChzzdC+5h4ggra/4t6G8WXPCN9DeX4mO+DuRx8RHwAw7A7loPgfWaJwxjiwYKtm57bd14h5s34GkalelrB2eJN3MuSt1EHMx1cSM5Ed2oLwQBaWIo94xMLxCZmAoRiwTFkTvYJ3KTsK5iP3coYTD0nM5F1t22892wHYhochHBuLjm3kLmR1PkWfkfM31xvcPQQCSTPCM4Fs8w2rkkTUMOLNsGs0ydmMzdtDa5T0wxzuw4zcrcYgotB8QIQNYuS2Dw2RlgmHdnrrLa+ZhUTq4yEoAuY1hHzNpwTOdmsnUjmNAOpzHmltpO4wWFxlYBIxlbR0KXIeIwsWHMVCza8wcNhrIhy7B7mejwlqzHuVmHc7/MTpuugM2ydxqyeTDNvdscfC3LY3M3k8wjSUSyGILHh2cjIRdOPgXLlHWrb3MNhvQuLB0sPZC8k+DviJjsYgCGnsVBZ1TuXyDbXUxvuObUDl6kDFhvMyYthOJshChObjq4kuUsuMTJrhbO7PyOMJJc5mGpYmm1EXYb6tuFzZBCbm2mZZFs5BAPbIsyAPHU3NOLHj1LMRwPTM6bSfUlCxxg8QsA+KnEvmJmcQ9pzDJBAI0Uizs/F0DII3lM4uILyQ6HpE9bTlncC6RTyjwa+49mWZduT6HMup43Nxxz1PTTq3AiJ3qZvVyqwt5uA2s5nGvRbz85bG57schYO9yYAIoS4vcwO2ht9JcnTedbkDD4TPRZkSO2QYPd2RneyKSyW3CDeSjOFwwg5sWxGHQZ8EGL1C0+Js3Du3ledvJayAZ2yJD1Nl0kG4LhbmWoBYO3BjY5g+TYsDQ/gBYzgHm7KV8HDHL8QKXAM8yrzGfEkPiaoEMbInCzYxBcxLH2QskiNS/Cx2HcqTjPV6kPFqyPoyyGy4MxAgDGAzGAZupcT6k0/mFAsCHmzcGEOQscJHDrr6n1HLfFqwWBLu0bD7c9eIiZ1ZjPNgx6hrIk+Nkmkh9mGahCJAReS5jNzE8XEgYepMRCnSYyIL6XNYMZ0kIfi4BJMMwJYbYm28XTfgdQzatjlMCBhYI33vxs5H3IqRLa9uha4xuWIXzAUbPGMmdynKKgXW8vwpbydRqcBIMAmIbHuHRvNqanjRu0Jl9XITgLvi5AOMtD/eyA3R4QDDw22kLj6hR9Wg7l5MsIPJtWZMWV09NyE6xwnRjzJppDfJL8PdOEznDMZ+EtI8923ohcnIuZ06l2pHSnTD3LnPRdYwWLcK71HdhO4lYTNDht1dsORaKnJINZKrXIGrHwh1LuBnHHjqQsXcpfLZTglAI4v72bC5Dwh1VnNgA6WOG6cyGG/Hm65sSQLXPEs5yvF6IxJVxEJxLijiw5GdyFhewmIIGRBYp6jAsi+ozx1DbD4ZOBY8vU4iGvVk1uwXfupGS3GWzgpOE6lcVtqy04uSabdvFnTPMDeCK3cSOPcdyyF4nWWgp5Y9GXhZ7B1tQdsu46sAZ5t0JAJc18XN9C4r5hIPi4Al3G4tbxIi9AkFDADgbtlNg4JjUCL2WCDcHbiCFavwdTBrbQ4h2AC5pQMmck5IkbTAxragjDloWxuW1q58TuXWIuyHRGMPViCMb27Bgx1yP3ZsJduMg/FMQObGMxpzcxxj4fVobYknu2JulyTuUYT7Pm0And6QlG99TdPueMmEjnyJwvvYTmPAT7wavDNaStAmteW4RMyMxgaPZY96tm53LWyAEwfcIDxZ9JnrYCzdjWsQTyQNG3KGnE3iOBJXC4UMZPynY6mkmB+7govcSV+OhoPX+S49mAn3b6uS15fU2s0vs3VXK5LAvO32Lcj2RzVs8kLxHdoY8DGb+UiieLRPCIMLkXE8F05ba2UeZAOJdV4LY2B3tkTp7ImbGAeYsOV4TjhsNimvuQoSp2Ss3uWYt55sXBtwQ5gzz0p1YyyTiF/CepZdfLKuI1RhvJC88bAQHwZO7ccH1HxMxsJr+JdY3AT2TOYWA/C3nknQ3Zs0pzXIMuuXIw+KCenE8GRnU4iQLnuwzSAiOpOLjR3BAHflsMOiXjZDiNKvwk3Eck7U6NNsGbZ6kOQ7juy40jQxzGwr3ln1bcRjIobCukggIWNU7h6sBHacRrXi18MAcs9X4iSIUTYwSrQ2LgmOTHfR/ksXtliwHLHR4e5x+lge3cpi4fJYWS8Ykb6ne7I2QWo982XLVEise7Pq4l8HiNx2fEL95B+SEd8WlldHJY2yyG9+olDlYHgeLzWTXMtJzCfb4ARF4hRG12la3OTIc8t+fw20ExBOI4zINsQ+dbUMOi5LhFziYYOY441jTLrzYZ5LwHn4zN7TQIRxO4Z3wNgnnSRB5mQ9wl3mYV4sKRtneLAd3EpeFDcNmDbfy4bRk9zwyJuZwEfstm7YDrT2w5+0PZ3cUOdhtE1ce0hdt9thJo2x599X4NL3sy/Qu2cwHOsbmtotbmOK+JJqHsMi3gerZBDj/Kxwc69WoGBMww482OGtxGR9om6tt4khwCMB3C38wvZ2ycgRO3lxzdZD0w64LXvidA7KITvJap8AIHKQR825Z0w+Vlrvu8Hh+JHpvVlwdRYGnwzQlyDJAzJ7hnR/EPJDsZ3BecTaDyxnM/Le7st5s5NgmriYStzGbEm2WS7avJtDzbTmK3OCxJTm0bvU9dZtB5tjTdOMa/UzJM7DVtajq5SEELLmhHOn+7qxvLLsJ4yDTOA7WGvc+yea+Vuh8twiXdNPxMWymuzp6QhTxGs4l2HeTuF5tDv1a0vm3ueZDkLjE4zHr2LQbOLZEziAOJXDu7B7uBSKK2r6iE92IOv7h+biUlNAw6WFgMB1bzhIgjqEhGAll24hDEs5Pl93MEbg2vI4u7FsbYEZmlhTlzYcIzsmx/ak6elkFohuPFvscxNrfRZA6N8RmTYCwT4jq88Sjucp5DJ6biY7NIsIBx483B7ChD30JTXl92nk78z41dzks5HiE4NzzC13GUJHq+IFi+4Seksu+mx4Gk/QsPM6kOHhfE4hw2wOc2Guyj6vGkG7MuzuIVdZInAAF2xh6pPRhaDORkOGbGTepK/iDMZtjmzggAfBMZxD7TRvi5ACzmpwebS1xbmdnm6ZzsxHecOII76mFOoEDz3YPmtz8G/dtIuQlDv3cBeJMQ/Kz8DY28Hu5AOhDYWBc4dCQYe4WDyR7C2o8hB04S8dItXCxTw4mIOPoQujAgm5OYwE09TYN4NviY+IJC+bAF3/AFG1zDtuLZ8Pbc9fETuHdpDpucuLeiudIs9Rty5bjebIXXEpyOH4gAtJEyYTYwqxikghZe4m9lnZCCeVuaTs9DD4J64tg6IDb6gVAZdiPNk93RebPh5t3mcJvjidgMQC5G6h/VoBniYY4yBz8oDhuKTtIcuzDgsaA2Nd5OohTA4XmfDfKzD1AEe5mok7arPWXYXBGGh0T9ywtpEe53FuF2qc3pYdPEDXm79qsmXQsFOHBxJP0bQ3qWnvcIx49Wx17iQGz+xmeFsipQ8MYjs/B52dVbv3trN1O1HIzieo+ixPkIFrot0MgGumPncEbFtsT3aVeb05LmzduiFaSMSj4jIBHuFIHB1ET03LhNQfActA7nKDMiVyoepNAt48jccRA2hBxZqWO96uO7eF8SoOxNdj0QnwSKTE8ou5OoLWx0yDVZrWQMHE6+8MXnZmA5tg/drM7Ib66XVkNPKxM4iJvdxT2DKiaX4m7mIPuW/a7blnmXzZjDI8hFDVi34nvSEk7OM3giaPC2Rh5PidMgbsoMh1O7XlHbkpLMjyNqLmNhAfCBkHF7ydKRNFs7uiJEAtxfLHhsQwIvcbjJY+g9QAc7xLOOluu9W+Z6HN8XNO7n6HzLCTqUSAOvqYgd44moe7QBsDvYjd72OfJMcJwWDhKc9pdNkSwYyVj1Z4eYgB6u2o9KAU7fEAsk2ROeUtycF8WIJ3CO0x4CwS4Ri3sYM5+p7gDhFWnmwetjs2+aB2NIPuS9lzfx4lA92uwnkN6ZRxpHNHbhKjD7IQ5Bjnlgt15ZGWHSbC2kHjLYTOPc1NPWWCuo4B4kgZC3qM1218OXfInR+DgbkxcQrrxKUwni11ERI8Q829rh48B5YBDxbAI4g9yPreLam+HqTuDGxztWE3xstB7lrlrwyyefUYR6ROjqNGMWmKuW8tkROM8kKZkhwxIx6IkZ4jidMm0zHkPpJ3CYHmJIs9M+NgIWc2bB88WD5XWOTniC5ix9RNJoemQyAbGwM8XOWlx5vK1yuTXMRvKYR7aQg3t825hsOMkgXxDu7c63klJCeQXPiToZx1OE+pA76imB1dG1hPELg6ibjq4QcWfBs3jzsSGfznOdZCRuY27TMmCFrgIDLFXYPMggMzu28eduN93y2Ni+42DqeKRzK+LUs4zZ4wkjYuGMy6hlitAyu0YerJOKdPUiwwkD/vdgh5meTdBKksD6HMWaxwBZRz7sEwqgljA+pVIzcmNqjoEWkM9N+ILkCxa9wlHqF77lP3cxLeHNHet5V5CS8y6opK9ubcJs1iQM7jCo1cFoFnOcuIbn8neCz7hWhFoIEbJC3W3akLg8Ts50i6Yd+EXc8S5mxEbQepNxwliGmw7CIHmebNoczrnzbjpYJjddnCkGG9SunxcfijkbB2Mo6bFB6tkwCxKnzGyauw5x5W3gk5662CuZgDudhPuDq5PIx2cLEIWpPUMxGcwCbbD5U1Dyrj1cvwy1vZMJvyS4LZ47smxtFsyzPq7kbdAkZnOfDLYls7lEEudyQBveyFDpa1hx7tMJ4S87SdhjHjiO4de4bh0u/TiM4pE5n8bBUE/d5I/cW4P3HGTPufFR7h/c/R/uK6K/cC8Gw8xuQN+rZNI85CYfFp8DDmODjJ2Hu5c/qAK/qVzLhsfjQcXcHkJpju6G9SDnHiwGMwHgLVdkbY6+C6CBeoBicjD+LPxxDhNXEfMtnJqiOXvxcyndgXBsWnBsO5z6gpjNy7XKHLZX7E2wbzL0LUBvHVwPnibiWrPMix7gZCzkt3gb1PjE8wDmWzDjJ2vSRdi/GRp5mY225oVNcqa+7OT9LH9THwuvqe9t1bgtW5xKHgztn6fuNoul4gNEvMbiRngXwf3OAiEcBDtA5wYvifq0/c7tvE2IXCZIOZc1kw49WmEBv7io7uwrrmdXO5Ne2Ruczxwt13UJEb5YQcp5g3IrMWh0m+D/Tcrm3YL+7S5f3OMF+25HX7bvF+77H7lu1OfbLTtlQUPzK9sA2agMEHYSAl4Rcy1GJmT8Pd82zx2wkOtnfRBmRhKCMBagTjJHfqBtiM5cXjIMerYPDZS8iyMFB25JtgBWAR1xbOoelHxWeScEOZH82yhfMS0JjDzA4gundorAQaw2rbIciw2YDowEcYF0sGvmEiz6sN6mZLiKzubkwaz5uqloKy1ebReUWGRjdG868eYBnoSy3gsZOd5W0fzYU4Rt6ht1/Fz3tJonQj9dsIwJ5dTh2OMxEsYRjIyokxvHMbdfADOpDqU08WGcMtSsTiD4nFneDRjLspnZ1OX1IFy+tj6b+EHzZa8yMpsWSC821o4y4ty3swjZJk6uvhi6T5jPhYiNslY3nOorHIjjHn6sy7CRsuF+blZtwQ5MgCbdvkFyuM2w8lcEgvEFhmkjR4tOjiMmOWDGw8sK8NhIsZ5mXscvi3Y2KTHwbRWF4jOWN8PMJs7Z7mLt6m+CEJgggTjwOpYYagkIvNrD5l0fcdqRjhY7XIrxlkenNgHctuFxrxHhH+LB1sE69WSZZrrm0RW6D4jqDrqdMzm6B3NKNnR9xFfRxBiz323rrYEY4EJLMtTDOXNuruJJwg4FonH1LejEgzoj/UhwIyFsOI8EqNfPxhloW2X+b412PME4LkW5Dx/uHhOjxPySlYmvEnOww2QeNssiB+Bj3LbbtCGsz4u2LLxH9TC6RvdLSSvi8bLE+ASz4eSg2keEGjGAE4sPMNAiUPE+sTJRmQPCAxfF4lwdlBnqJsub6QdwQWLbCFQteY9yNBuuYGLagY+e92dht1eS7yyzDogWHzZtQHJJAbqPmnHwhGOVxKZ1cTnSxmID2Nwh2WgwMQxJOTm1dEBABng0yEnPENfrJdt5gJByOvM9IYTuAvNHTYecs2stjmxdOmFnJSc8k9HRIMb8aQjFFPfe34l0c8zhTCr6xSsDIU8E6dR7AIyazgdnhWPKUNeLAOBIYktW3TjNJvFs4gLXdYV24M0ABYMBIpsVzIzxOpBcHF3kuKgrsiBzxc/QW3jyNjlsRm2G/GYyfBFvG0BgIkGzkoTkjdIkS7chR2wIy9J2SDRJpvb4mFyMFtip3qOxFiWn3GWbaDVw9QCO+L+85cPSYVtiudu7JHd7lBD3P9LEApcz0yThOYM6Z1ICQDLGHcfZGwMgDkbw2yvPhlGQFHQtvfEOpl0Ord+z8abbZGMu3eIQE8fcsI/uc4P3Eh5QeTuXc8VuxTwWCvcv1rPTokf7WsrKNGHhGsFsNkFObatkw5g0KfRzIsO9mJdmPOceJkTwzDvfi0L2bLmjLW3MbLmY4+pX8mLwsuluMWocuJA595JqGxwEnlac0KSNjfVwnOyTrP1diwKlq2azlz4fjTsoNs4vKWcsNjhbxBONkUhIDJBxk2HzLmdSEyJY6FlpxOgMFTlbgnZouRsHrIWi22Mis9hxYRXiVHLLIMQLmGDcDLfS5sstko+JBpw29DzvdxgNi5DuAhx1MQdW9MboeGV0d+7vWDk87cfHm388y7t5yyh7NuEFoOW7e9XGPaPG4wZucP8km4+fxL6X6IY8zxhPn9hvJDJgPu25uNomH4lEv5XJPJPXjmVrsvi36+ORURkNMnPq0u3kJoUOZC5v4JEWciy5Jx3uxdyTzyzZAjJd0cgcHZ5t1nrj3PDljzvVlxuW3SAEAPhDWwzJQgjFidlBbVq3A1civweqSo7cakh+IHflmwzviFNsGmEnPbag9ZINZCrbhkMcOfxauREQcIZy9SCA8o2awGy+MGLJDIrwj6kXBA4kbAGLalMdW5lrsBVcnVwWx8Rvxm8SBA8bHXoy7cWSHluZCzrbbhGw9l47AdJG4suSFhY+6tLEH5SZ/7G7+pMuUuSfqzNzLINq799w6HY43qawGN4ONmavaCa1jZAJCjKjkEjH4VEP8ASt3IdZhPqUL6W5reskEtabFbvqYMaW3MCfeS5E+FzohszKUYsoasQ8yoHFxOdZcd1kS5rEFPznNySG0ZIsudTxb1cLbQAxpjP13gJnEzUcgayMEj4CbIWJj1BkWf77ZBkqcbibHc0FcDqbQnEMWAWVJOs5trqBNiQ7AmdslOIEFq+JaIIRMkjTMiIRyG0exZff8AchAMWcD5+4AgGh5jY5ZANxCbtgMJlwy0wmm2HTUWCHcyzk2AuZcxfNyYTriQ+vI/JNqBe9nNZVzbziyAdzPQ2M+Phchn4k4Bj/RgDdh2wHDZ92BwsGTYrw5CMwiTXseIPynmUxbnJX1Lo/iDsuGTeHT3FqBxkZDg6IR6nXmzceYIRuBOIP522JncgbtAy+yDwGfE4By+ohEiWcmeNjEi4y3tw2HliYzs5jWsA+2zkhbHlloAi9ywWWbxcDniQzIGQHGB0XGpaerkW5EE6zLRPD/wLdc1RBWYjDg5284EzLZKxqSJHCse7EVmbkx6kBRLr4nUmBmSbI6ZYYaywBFMP6RzGlCPWWjrIITIXsOLhL2QG53OcBdEgFdDdOOAuU8/GGn1krkOmk0viZMJRP8AO2eX7leRjLvi0WmG27MjJDly7EChC6iWE5s2+roGsCbA+rmwxHNcHCP0RiVwgm/HJd/AD1HTy2OPZByWXIxuNxEte42XlMaTbg8W6/mAHerQizD4oDAEJnAO5S53crA7sLQiiDI/dBJ8fNvJ6SKJe417i8TtTIUaWDknijc13Bq2VhwCMpbHSwhzh92eOYYKBlkNyINDzJORYJzYgtisrWb/AMH4GYyp42ZBq0BFPXNnxO2RMjT92YA3JbFiJl4nkLgjN0ydELkDBO4bAhoHgnYmzAQbtjzvZZxcjr1bNiZFh9WgNzLJMzYOLZDQLZB+4xJ/c05NQG3gbd1bru/5/wDZ1vY+THFzBayWHJbfTcQGWFMlRd0ONl3v6umZcoLLxd2NPXMGHkerhDI9Qut3htDt2MCZ0SJ7v+5mXiAmcbZMh3jXEpN5lDvM1MJ9rYRdkIg+AHdLLhd3mZ8ayj6GKKQHN5Wxzak4yEZxJBbEtHbV+AZSzbipwTRniNxe7nv3ZHNyRuYhxbaBLjciROHuW52X4YNZOCLY4h4iUMIiqW5JPhibZjN1EZJwgEEzjBC3TIDyRdrtnf8AVp0SFT1Fqd5bunmx8XDxbiGS3DRyBB/hn5ttO2zxibQ2ZGBe2MMSmscLLOPFjD+4NBf2WnquWeZZmXm5WIcGxLiYSOkkTEeLRCYYkAiwZy/E5xBitV/EbvTcxFlDoC1BaxABmy3HDbUdEufg26Wc/wDaGzlagjq0jwkjQ9T7B1YJsu2iFzYyM4bOxBS0C0mW9dyhrZdfEgy1clgjuXkLUtObYltsIs/pWec6SOUSYi7Euo2EmEnGgzWgS5y9WY8S1OBa48zE1OIe2W3dufPMkrk7kEY+GHOC2WHyT45JHxmS0WPNsy44toGCwyIv1Br7kHZoDIJN3JuKEJZ+s+S+IMH+doGHUWqcT1O4v2KdEqVvkg1s/Ck80fy7GPtPgfDJwgup/GOKziIQCyGW6JY4WE1h/UTWW9LBmAON2hOBLsGZn/XJdCtScLkZ4vFuT32H8OoCOxSvqEDjk/rZnpxYR8liflsheQtGPeRQScLcbAid9poBhFvoyiORYynYrXgSnBYuZeCbB+ItNLWmWiSGI+5Hdy8xx88XcOMsEsTEfF8XGqh2tuizKLxG9ryWHFi+Nke9YQmyOL4npebadMW2grtJbphRDOQWD8AUPV5bZKw58BEwdpDc8p+oGIAAQ9wEOzzI3e4N7FP3ARfCbcGcNYSpw3LRcuwUcgM9SZp0JkOWUodPPv4GEHGGAvvJ3jwWhOwmG/iict5lpt1tn7OkhuO8mVCf4FeOPcMcxzwVjWWXhcCtt9m73IwgDY4ds8JvnObpPbP8l4i6TnVxE8Tnmba8PfdlB6k4LZ/cgXoEBuFvqBNwDkyYfANq3hnebIJ3ZPM6Fs6T3Ck193MuXOY8JZu+Ixhsie2Rjx+PuxPd9WKhyeLnaXNBlslv3IdQmqRmqWcudggFC4jSYMNebtB2WId27TgcxxfgaMyyGz6vKtlLAjSZDRWAbbGln1aJLYBaxzmWHMt3i6DBn9S1ST1ZrEwLODzB0O5+I45nBjLR+LcVmSLJJ134lUmYxF4nt0c+ZskZEYvcnDeGwA5xIOgtzTMkPMNujTmiNE8M4TM+PCuDNdDiR4yjDUJ4R9/ErjzYUEt4JPFnduoOrG4jlw+IdFrbt4tuI8Oolx4IVSBTz8XBusrvsnVyw4ZNrxt/Hk1xABfnAzFzp/6JOKXQzOctDTjY1IzxaDAEKPnsfF82m6QQsIadxc7Y/kooYOHmDI9wKDGXsyBadLO8TxdiePqQb+YIwnHSRrIXa7MLId7A0ZaGzIOxvMQoTmFsamzodZceWU3iVOEQ8Wrsw3dPV2Rvuw6WziUwbIdEA4uQXe2JiwtEdgC+8niHbGE4Zg4bYcbuEhy/A242qmO73pw55k3bDICPKxGxjXps/LDwtOHZEx3fEw15W39J8nnZ1z5iBxBglxBgDblIZbuouDMj4hbktwDneGUx7uAGE7HFBmXQXEcebzMAukujnDdtzLGz2caRACxhmrm0h0N2fEB8dkSIJ5wzIOPEB47p3CuNfcuXBsmg8JmrzHPuzs+ZHRdeYCOWHiYueeCdOYGN36siHcuAss5zPFmo9zLo5zPwXqW74JONcCE0nMkAXPZshuzRHG/AQ7C+HM77kjQ03MtxpKGXJY6Sc22yVwlSo4uxs+BOViaPNymkDFESHPdsDeTZWPu5gYBMmXGjPfjzZXb7QhsfGjOE3GmMyb9T22se7uH4EfyF0lpb+LdEZcY5ianMcLyXOGTXJLTShTks+B1AxmB8IDpeY74uxSHMSy4HcYVneVkI9/DMB7PxujUHFOPLvZjtorpo20M7pg7bhxGa74gXktkwfYyDJTsROktwscGPD8MJMui3J4gcvUQNtALYXGfpXZLPQ1Ig73IMsOVuMDYQ6Z2y5m0s2RwbkrzEoLh7+IAqu3ICdsqkCsNFy6nbka3FGfAaFhxAwK2AvcXI2E4Wu7igBlp9pPNs80kdEv8AeyNOGv0k/AcpAt14/RZkyt2J3YZlosOdtVSp9QS/df8AL/wNj4FWNwyYBZsobEliBxGC4Bh49RPjzcbdHqQGVEOdkyz4chOWNz0weW74sILjtjcW5Zy6OojKB91nwba9WgbhpYHiHm82rht6WEM52Iu2GB5ycefgVVBnTw2LIfUDJ0sqDcKj4mKokeNjc+oFkjSh4rcI9v8ANkllxbpso682u7KbITHGx7yW72E4gMZL1n9Xc2PFvzKmbyvZb7eJyMcwOjVZRBW3kzgnSJEAuHzJnwQHXcYAuwdmBvq1ceCVhZOF3YtC4Isx+/EVLskGst3IdHcj8zerpJmQ0fJ7k0OTXm4CJvuYc4blwzd3JGfAZJKasgeYTMrJmWDNkWWQFyREyeMnAMsLmILpD93MvhuIXi3huDaNk8fHD33LHd34n6WA2zZz7+YBqM56eojLp7IBzkINgkD2bv3ModzOOUBzv5uV3iKSFaK49Ta9WJx1lyfYuK3IgKCA3bDxKVh4ZBKaTp2GLEkVCQ6FwGCDyhkfd+EUYq+z7IyMmAWoBs3lauWHpOZHpdGy7Zd3ZsfkMhIus2i4vUgLByIFcyvutdhOCeNjkPgsfy3EpiWmW0epxNkicwmMceI1BxsmIEYJPUsHPPAE4q98ERZc0eblcFgqrxk4ZzbOOZY4MUG+J8AmQtW8YP6kuyUj5He2ny53K2XDywHtwuNhxc2epn3t5ItJg2XkWU5IOSR6E2OZNQFiG1asAe5TtCK+JkB6lbD+YIDmRE1gGwFY7b+0kQC5QJm3pkKHW2jx3CiBysWWXpJ3w2zXx8IElyFJ0bMYHC6CyyA5+F3p6JFogxjhNrMzfjhObS8Q3omXqZrB8MBtuoZRhc4ybdDPwn/5+LYHkuKxLtGBPzlKi1hejHxtwC37218lhjruxI4Bgb1IdDMCDLkAIxrIuXBxah1YTtyHJsvuRmOWHcze8jP04UW14XB+iAjx/EdA3J3xDTmPEYDDo2TerOdN2Qn9WF9GTlmyi5h6lLqcdyonMQcC0YQnhIi6LuEJVz5MubTCG1r1DzG2s45gOzmPCxUM6HZ6TNLCAWhpEtLhxcEPa4QyMqXGZ3jcsVNmZHHiLEbYLibaNsaQ3JeVe3q0/aym89ISwMIgOrP2qM0fxHMpCGe4kc8lx83PPqA9T6SUIzDzxK5QAZcTHVp5YDy2PNHbOGZYiQ6Y3xL0y5SabLYF/BeHycwfzM7F4DbIZC62fbHGu5vN4jIl4Ert3vuxLbByfkJCIcWD6lkwms+YO0Vyg5lEcTliOrc1HBj3zG+NmB4WBUW64w7N6I1WTyGtoMIKypMJaxln3vbEDZdRzAmibBaYLlzM0bVKgSoG1EDBsCWomyqjPeSad3dLgs7xP9zGL+rDINno+WdxX4yagYa9ksGbMZYzR4xnFliUON2Cj3kQybJNzJF+Dx63ceE0HSR7cTmncWaa/d4R2zG0nOSlm7AeptnwDfUxfdjhabAGPVjrgzO27UafSNGdsxjAWUoXJLLtuU4sERiGQIcTAacyGzgGp4gZ+PHZPAGdZlx8M2GnEQ4LTmfTInlE+WyjtL0mx18c8h2RcMtBJgcz7gOPqUx6/u4gcWVb6tOSDeCx5MN/aQ4OMlhzza1vbLPNs553xNnXFrpyQDFxwziVZBJ1j2Lfw3Zw4udTufWI6ryPhAVRzDiBxIIEAB5jfCr55sFkXbEbPTB5RI6EfTuWb8LcZfhXQNm4sj2udLAoC5j4EB0icn8x+p8SLpfMMaouBgF0JQSBm4k5Mse9eL37c8uG/u17hSEAi9ycPKs6+ixC5ltQYF+YvF3+AhaoQ74XrZrh1BDg4jSvGWOp1AHwW4TZ+esjHha6Ta+zbM5mkItmOMI20R4kHa2+oWRNQhV3TPU1Pq49mrcB528GAiaTeNx2bQWgGBM5hdm9fE3hXPnF1iXWM8gebUKXjNgCvibBGkM5+X5tYclsN1vqITIWt7e7HTuLLAmediJlzE7HhHuYHLYIlxkFdMlK9LhhiDmzZiDYaw7izZ77gnj3KE95BXPu3EUQhB3C7xEpwT8Nn1nIFtm9254JVzHWZFXxMyI1IYA5t35i26tThudiaqQHpLiNtwWQojnxMZnGRYD1JYgRA1jepGVGuZZrYIxjeOyW9MmHeMRb9bDBVcP/AFDpAUTmx4tlZLj3mSmnotdUTXO2Sfdv48/klyLgeCLzKTx22a4GPRg6f9mEY/v4pFu2r48KO0+Ire2zTJjt9oHMw5tYeGQdFhLFy4nfgBnNjHojxII0nLiX/a50JDSJBALpZThcLsVDYPknc2DKOS9EnIeLhPu4MkZZXIyyrccMrw2GgY4WNLi9ywk5DYRhQZcl4k7jJSuAQcHcDBfc8ebdPL3GjcsSBcsJkMuXwXK52hih/a4vzIcsgLGO9RiKLkOOLk3KLDG25w26lgvq8OFGYcyAxsa5T93OSI7d+2oZDlh+3O+z7nIWBi6RcsDiG3qAMIk+UGgckIbLr3Pt8q0UmPnYgQ5rcgddIZ+xaH4Q65dttPhbtsfMuG0wKbAw9TnPSTYmFbyMdmTRskzxMmmZZHEBcXdtBaMH17nTCTpsI+778FkOybDOtHidvFpyRso6nZzj4XUEvKRxPku69ZaEB27Fl219dMuyA27Q8WVqGnK1QNnhkAxmNGy74Ly3zKdWiVjnGz/6JDb5/wApvXZEb6hlqfaYHIiEsBdKNA2Czh3T8DjFtrZUKNO1rIlBOvFzh4LmpInRcsNDXYi46nF4jHEwkY6WhJ8nzG7zE8oxw82KR3Fre3SQQ6mNjPx+C5JuT8RjSExLEJkgrzk3XDIZo/cAOcsuEMSxcji4CMgA2jYyDMpl58QMeQmiyj4kTle7cY+YdBZa8svEhbLk2+ybMLB7lYcwcII1mQprPYOxGOLOj46valiic3dPMZDrUwZhTYTGJe/MZHaHUdmZAsFAGEzEMhfA3g/DbPmPllxjAyDHHOCEGy5WtZMGEE8LUW/jY3YzYgIsZF4GPILJkOEQ5uBPtuWY3OTRRn7MkGu/+xgZOSAGLVPzLw+7Vk9wt05mOFpWWd9zXlYF97GVPcoNpCK8u5U9ndyp8fFmZeWeLdQBbnObe/S5uJwto4uaCLA7yA77LRHhbfpuWPEQyc+jLys14iOJHhZjHwM+B4uONnYko3DDu1oWFDiGGKXSZ+bjBuTGa3cWcdskS7aHmXI8iTbA2QPttxmE8xkWMHW5mNvFw8rfdI8D3Z47+bQTmRqLQNyV98SwbODj8JS8vbkFlDzlpw5Qik8s1RJ1KskMNuCbO6uJttGoXR+Hosq3m3vpCizMuBaso68EDzlZePgwMz8osXCXNh3UAJrOJJk5wfhWnObITCbaeeARrPMTnoZtbTofkJzZFMQH1M8LINnwPX6gGR5kL6tyycX5MbTpTJg+nIXLeT8w4PqML6QrR4YF/EjjEOnPiafZ4txt4Fl3KU1g+8sUBnRxGdGZ5uFsxI7h1EUYHucPRkXjGGmz5lhWF2tF2V5+HSy8kUQ1Ztck4KTJPJk8IjJzfhDEeI8DoiCowm88ZLxuylTJPJ07WcxIk2KpgIQ+JcoyjPq4LxY4kTixcd7Di9tlR2kcxmyYxhmibFgUjn+YTtLS8yLHyNzEd2edk4Dqc83aWzFZxN+D5J+FVlvcuwj4AMj3iw7sGpeRBb3I5+MGHzBHMSJdH7Y1g8wHY6RSaR8460iLYTi0G5tzgc6/HeVMsMOo8H1AfgP+osSPA6uTz6tk18teEs/TpLjp4MbYgnnJM83gjKjGcRROm30/Mgthc22LAy6EgSApxC5owo3MLP2bVZIHFygYFm45lVeiFhwLOmyYPdzRE2NgDxFdSFzOW524tVuD8aatJG6XuBLZSsEkcrZfcWbkmKC9kjnPVkr3YW3j6h5WTwWQfVgfpYBkS7chA8uctMpRy3tmWa+GzJRHBpagzVjXfu8vM2Xsy3Q4lXSRtz6LQbZ7YLNYHzP1OPj5sJpaSTp1LxM8blp3g2gL4uTEPMtyv3ZsQ5XJoGP6ZpN/T5nOvcUTmAgOLrEsZcbJVtec5IDV1/8AYLAACDQRgy+o43BvL/5c4PEeYWRD3Mj5LN18OOpuniB/OI1+oQCeTL7JoxuOedTt/wBfDK7GepkbcotBbz1b8Flh1J7kJ0EYBgzSO0y2tZxoPclj29PxRzkZZr8F/i86jQ1EB4Y4a/c3AjncJ2znIDBMLogOvL9z4Jxclc5Cyg/lYGQXI8Qizw/+2SZx7ADdEyUFicpL91dyOSw5Nm+YngXjDm1xILiNZsMBlsPFr8tbkLeDWkMzeYFE6l3gO+JREwckeJ+jDzmMdI0cx9Lml2wtncks+bWH5NwEWDsXWcRjLXpeGWcxChM1xspxBwSBZ9JDTkuUY3Vx9IREeBSfM6maurfgp5WChn0sZogsuvifPuQKvm2ldi2LHBRj6LmBuDV4tHwX2UW8HN4QZUeN5BOxe06nqDo7knL3aHxWVE7wfA5/KXZtqG3TvqGu71AcWtzblpuQxjc0j2Pgyhb6LStGwYAyOQJbFUT/ABIUSSz8PdS7msJzfo3+iLGIJY4kHcDx933ItuYAjC5cARcbKaMQYEj0ka5kGmSszu6eXOnu5ts6iBrYNelwN2WL/KwhJHHJ1MIRgtpJ8z5+Aj5lky7CG45V5ukYv5WZrZxJE4j+rlYQcWHxwZPFqcyb+Vw2BLPiDvW1R5hAvcPE7GzPngmrn03GPdvfCzCQPEOguSEWyERtR8Ya11OHEtOi6sfI82TXLFeWRARZDzKo9txZMdf5nxHvYRt6sZpbKRsm+0oqphuFrRqMNshMAsOkE57niCWTczfhYuYgRdxyTouYF+ATIdXiLBJpGJ8Ozg6JnyRvlbFv1HipxEW73i6mPtsm37T0NA9nk9z8rPDPMRhR5To+KHLDpvXc79wEbjZNOMi5B4uOhEHLYpP7uVekFl6lMIo5X4cXJBA2xPLtIyKc0uZck4keN8QgJhjawzfC+KLoGkkGT03C/CISSArQu7OR4bhrGGAJvWXuxqMQTzkDjy2DndiUPHVgYcwGv3YB7l1Pwpwc6kEolXF3B+7RLZhWNbbZE5zzczwfDFbdrEGx5uHe2BxkdQ+DpFs7QTG5SnUCcY8Nob8RVsAzN0uz2u/NoFudJZ1OWkMMEUwSAxC5JRJpUZ7PhjwUT/MYycNxccXQPmBB5kPs0nRw5bAwG34whjjmMGssd38ybhaos4J3FqmInAQjySWEA3bj/ds9AnfebZQIuJ1c10xYUC2S7mA49y7sFoN2z3LYbZR0me4O4A/ILIMsyMGsoAxCa9kOmHbCNGBTWP2bFpCEbykUUZLzOkdWI+oDqH0XIn6ts+mDM72QzboXnWAYXDPZZorQvomSJDuY9SjNhLHBdueWEM6JwbeMPCcESEWVweMtYXiExG+zP3tb582xxauSVcQzrGwC2QuU3Ser47BoybC0+MI3FgcjThdwQFwZfiD3LBrFthHS9lcmGnzYSkknPJM31WzzzPD2Tvllq65EFoblR5d2jHhGxoQHjILZTA2AEHiTFyzBuYJiG3XLTeYeTwmQ9AnSPAwgel9w8yIvdqAnCeZvCw3bjdkAzeUIXgnybkkLS2MeBbzezGQ3gnxq4fMtyRebZNMtBzeY+LgTzKubJ92blf22GHxQnLSeJA37i034cDu6bP8AGgTQ5Zxtap6Ge511tLp7lG3ra2fG8U6S8s/HMSD+0wY+pcK2jy2zrqGaNm7tjD2RGLZaPGZkm5nxCrs+2BHjIZxJZuo4GfDgZCa3Io0y2ibU+YnclMaOGKEOY3XqXQCbhZHLEbbofGkIh4JiYeJwMAskcJSnUIwhabvREMcJYQtmDm1+Ix8EIDBls8iDHp+A3gycNu8ZJcQ9sPC8xTY7haJ7QjGMoYxNuE8LKLZF6YXOZlB2D5hsY+DHw3M5HLB1eY+NWMYmQy47FsMxk4bJvd3BksW28MZcMXm292VoQUBdmwfeE+j4hMMMY8mJjIzvbC5NbKbdLI5iEyfiwwOb6xl6C2ZMYSAThZuZZ8t1rZhKazyl8rbpZdRaNc/AJz41nAI3NSNjK9TpDA8LXmHheVCCahHCKsLhxuMWxGzCI/c/SP3PGjfzBbibk0SxQ/drcfhC3mfsGWgu2WCLcgV9EIr7ZxuHtqw2akBk3kXWzdDi3jiBMQ3uwStwHU6cuvtqxAdp8ydLPsmGafolI8bdlYpe7EfC6gB2JGLmREjBc0L8FKQEexNv0tmfEmAcXJuFhGHZY8SHNi4bN3MNWYzLFxsBcx8kwJHb0h1DLcO5nF3iUA2M+7hliDDjXHAeYITxvwy1MubJggIWz+kozh5k0JeVgc3NOsFsEDM34xDilpQZc6JV4+NZwNnanvPM9iHO8ky2P9Oo2HI46nskYWznklHUHze0ugtnqdum/tOq/wCZfmcXblVPqONIXZ4+ASbYGzJcEeDfggT4wMZXUtT33amc2mveQsu9mBlgDBKEIesjGQi2mey4uIazxBwyQR2/UZnOXHrHq9m5Ku1Hgio74tfdgfjJCveNuVeFt3KzR4nwydyL9WK72qvEJHzQ6WDS1bGcfB1PJY5JyWxVtraWeWIVZEZDvNM7uAZAuYWRBsm9Pme7+7m7CEeiSInDzefuZJ5fAONO2dEYVUeMaRZyE+puTBILPOyyEziPqYftFwffwSWYmGc3eRaz4m8gfJaSNOilEAh4CKBkaQcPgQTrBkW3GnUxuNt4s4ZYQhAS5Uc4+EgAVeRtCr3ODaTPcMA1Qguki3jMi2RKboknkeNtkM0+8WB9tosbI7sB7SQhEY2HSRJOcr0ygdi3JONUX4j8vkjgnu5h5H/EJvgi5D0/FdZt8tnxgDpOXGoliOTZUmmxI1uSb3eCIvE8mMQSVTia4NiyabAcYcZCcWYadXJeYk8m2O43MEyOoijAjEi9osS+21SyDG8bIWSsQLyyVXshDy7crPM+Z6IxtKFG36i7M4+Dbw2DEGwCvfNqpmbtl9cydaG1/DwwM624jSAgW4odyl4byu7R3JHR8YqgHfwOn4wWMAFxsutdtsEhGrXs3qrhfF3J23gM6PuDKbPl6hJ4eUBv5bkm+LGPUvkeLUxM8PVxLh1yyYXhW3YvEG84HlFBa5eJjCzxMTYgzw2JeBOEZmsYN3mFM7bLhdDx210co2u/wHcbblFjIdLXg4WbjEUYdyQmOINHzdwLltY4o3BiWFxbOLHmLulnhmcJyZAq8GVQjcji5u68TaljINnze4+Ugwhi2mNuPVIclCuYyzRWEuYbhcuUDWGtJZysKExmFgmyoyE6JuW2k4+xP325j4ydHvL7vMCXNLw2V46kJsFshO2nMMxPgwti52lmW12ZTJ8v1bNfM7H3E3k+0+YUj3AQb1EXtH/mQCFkaUALNVE3cdRT0AxB4JDh7LHyMRznEJDMWLrDSrxfDNpZHS0B8Q4g5DzcBu5MDlv2xGT1CQslwPMdPkT5XH9SMTqJnlgdW1PT1cvbVwsIMpYWMXKEjnZsMjcz6ObOrv4EwblUtGPUNyxWWLhYmRWFt4IDIwM50SYXwY0OpG+sxFkLlgM+AuOGlzD3JFxPuLmfWB87iD+Zq1yWYhqfJOeExMuFhjcXwHCIkTkbgyn3atnH3bKYu3Y8SPuYlM4rwI6QJ6pCS1sS+eMmnVssWUkM23pIGsDLWW5dmwCA4ERY8snGeRYbBNt3dgC+S5W8mXEsstMuEjcRWDi8XOXzdO5C75t4eiNc5LeZ5twzmzyW1KXkRDxKQsD+Y4HqDEgnmXeSE7ObWEBCSA6rCkGUHDuXdgSrcdOJ4MXjm7zJvVwX54KtlzKmCHTy+PE+1KGSultS3RhtHIdLBdad82+p9RCp7LBTcjwcW3gIR1bQxB1BDD8xwrzAdWOTmnrIzUZMIhOz1K3LAPUA35gYGZiPwmFHRssk84wDPEk1pxFYkskUWZcSR/NZ6wBXvYH5WKfZZMebD5Qy4XjLw3H14nSZiLPnp5gHeJtZcCRK/NgmJwDdxyCxAsMXJHfgu8nuZymNZ3RZzD+gPFsM0QhBeZU9ZOm/L3CBxzcAJ3Zvcd5Y0mXqQAsPdnxDr0z8Mo6J+RjDS1XPu5B8x5cbqeZQQxghL8XeG8zIaScyJwZ0k5i1YIe7xO7N27fxg7Y2BHMeZacTmUx2Ri0NgeYOBOE5pYkQ2KNOfEcIasCPNgPKx49QrvuHvHmFk5YiHcrpblQSNjNRYLF0Y8QjE45IAzz3Q7fbJ4dSULqGjFVt0sx+Z6S5C3eZhyYMmtlqtHBGjbRp0yzS5twnT9Momdx2r3be52Jwc8oZsDGFnBjzBvuZBAWWb7uTLlNG1AxRstW5MGVYydyoGNfjG7kw/KHI+EMZrsuBekwfnIgLEbysldzuPQbYxKuEoTyzuHomcYwMbNCycG5OHE/xkzPhkd0JJkkerbn7sJvjooJPVmA3CXBXGxJvpkOnEkX7TYbGdb7shYKlGDux1jDGWdQ8k25edthGbkJoHmMmdtitcRy3AMce9WY8YzcROeDzP+CEPuMR89WtwlAJdk2fY5RTU0mOTzadANxcdWNdY2iyegLB1cNyW14892XUPLeo0DGmsQgYM12hJxMIe47WzxkMDmzOXuGnYABhFzVmUCaGHLJhnKyro4spxNT1c8+26fXLNuH2vuXOficNMODzaNbAcMkduNe58WXcmbZjr4IjxKS+i06dPc/uID2zcFwy8jlIVEQOerKeBLonX7s/NyHi2wiv02VSrDbxP1Br9PEbmdZN23OJFicW0cvq5XF0nuyfiA6n3meDu7OmrUYnW7ZC9KXHOJx3bufEQdoY2FAGWiAGW4NsKyDYWDb2rfPA6mQkXi+pXWJAI6biFnqWXIhRvvTaG2trIXVu3EWwm92xo9WPCxLkKF/IbQQ9/jBx5a/myGNkTZZhBHn1c7k0QBOyLwZKQjgGV4gk1YXMY2clQDmxYnEtq34mTlG2FzYeRcoq6zMngSWutmmxHkiWazOMpc6tQktGFB5ISlGPJsL7bMi/YzzmXF5h8lqYJjjIDXkR3CNPhgNCeO0x8XMjEclg24PDaoLY7Oma5Lgxp8TA3YEO2cthV4mjGaZjLnUUrMsRh0Rw7Yj3IAZBmBA4EDs6jEYb8OTy9EkowDxafHVi0I2WjD3GifvwfEB0V7jqAs4VhgkLcoHx2XQB3cHmOMuMm37jb4yWkMyAJRH22sNtXI8F0tgdvq04am2Bra6WfJa455bQK3T52auXIURNjO1wDpdR7twGrGtgM1T5gBXmbTPgdgVxOscpaCgUerl50RqkpQJqMKtwaTVxTF+OyEbOpJB3IcnCIBmsuNLgBK6koXkQXPuS5w24wTG4BO5+TiHIb7ZRgHPJR5+LTVcLenmy0E1BAkF6q5Yb8Zz7T6s5Rk6yc5tszNj84gCEBvNnxiHwwUadM9C3TM4dYvUKwjEeMNsU6+LReNINtjEYGzA3q72zI3zJfznTg7iIZOcmxvGzqb+Syqb3DYFxkDtIxSxLQmWGmgKN26uf3BHUhlH3FpZtJjysQgSWkxLB1tGMkY6J5lysECvHi2RsgzuIfkWyQEySwm7W8XxMY9yTUtfL8RuDwlyJzZjS1G0Evz9nCBHFiGWTCzoT0UWcwsupb58l01oVEnCS1haezAzXg+4H24kUWU+7qZ3HfvTYeTywjb4SEJ4oXqxeEP4SXDq4YuUCOg+5hvxm2eLjmJWM0EQtByIuQIuzfDSAjDp3kTSzk7kwdEnDfnAPi7sHib8IjqPu24TMWIJybGc6W7Z4sLLhC6BiusRZCZnq+ownXLzFdbzNGSnHweW/CYQxLB302qfULiZg7fjaCuYAQ4TmI6jwyKn8DPOW5R3WmGcWQl1QYWmlo4Senc9yQyERoierhSTJg6x5medW2Fyj5+rsxbCwjbTiEE4hLLGIG8kONLCydLZo3DJz7bbUiDGRQh2YIynqsMJ22B4cp13eLDOYI9jKg/iWsJMc7yxYHchJkweIQ6hpmvCgoPdx5Y3NMsIRkJ1gyRAya4TLBPos2Y7UizYgDcgcyc56SeoRpp5tIMTxO+7YlziRk8WQTmSfcbnr+icEcM3i/QefMXR4tE+rc48xkiEMO9kRsHzNzYMZdY44J+GeiVZooCW9BS2WvHE1jRedlvGzK/zMIpK06uAftZAUZXu0WdNobuLk4Wm2VQAG2Cy4kHi2LHwhw6/Bx7ArQVs6/dpyYFt3EO5dhxtjtlBZnA8TxZNjrbGgYw8vECyI35WZwZ8Em7cOeoyNu3PcITnIQ4UNNernFebQ45y5HiHrO7gAw8OXMqHknfHuH3QmXZ78s69/EYQxuAzLGJH0m0Z81sF+AONjelzIM6EhnMaY/ktTTi36dylcl555+G5rZ5y4WdnmXhtuhNe4OHxOvF5NxQk4dSrdu/PYPEhGhlkMQDSLcl6TDCKsIRnLjB4Y6dIDbF4luMRmGnEsuKzGRonyQoVgoAyRW/dt+4MDBwFlNkNsPeThiXF8EDObl1Obrq4iDyswL1PMDBkxZI+Z0mcyG7sAL8GI6cOT4el5gdqMxgdoGtyMLExxyXIHEkBu5aOCXRTgwoA2pxDx5nksO0QZE8JY8xm8Mg4wR31DtxMTWdA4R6vPOe33MjjmDi/cYPZ7iDXMIJ7jXpYDcbNhRbU0LYd7XhywhsviJdEcDacbYxs3eolWh4QyTcUgOpG2tuKTMF4t+SIIztnDZLVIImsk3DmPTZnI5AXPERuXhDi03JU4zINtCOQAzfVsKRcznLaIwwu7cJVtcz4BDqHzG+IMfstN9TinD4ZCU71nYWPMr5bG6WzfEY8eLR8DKbsW7LniZIeZr4brEt2MuVZy5e4w298vPmA8kS0mXHFpn7rWDzDuHbLoWOF3cnEbg5jHGSIe7A2szxPrTDeJjB4lu+Jzk5kLqzoY2Sy7GmXGJIzW/wB82VJzebxzJAib0+CTEJznjLkGMiRc+9uxy+Y6CBysc3fUyI3AeIvAerwhdc6M8JuC5H4jN0vOwmUtvMSwe+7Ni4XA5m4vxY2A0lfLcrPExpMTKbBcmwCCGpJ3DiT8Rvm4slg2MN8ZafFriONlwYAeYekGGTWdWKLPM5g5IFB92qG7NhCOkOObC1lfH9NEx9QcNoD0vw5bgjJF+AUJuCzjHxDnVsFpVj4zGq5+mcEtuGI/iBXbjW5HPidaXGQoMnSVnaYuuf1KzI88rCe0s9HiEAnkyKFwjvZPOVES4T7DbTIfRjo5NofctFgIAbZEN/vuY9R4ib32m8d3KFwYYPBk4gjZiUNOSNwlXEKRZMSNRhP1O1M/kjiyhZAbPxlgs1ItxliMCIQukIxlwubWxbBjXqUBcAkd+4uzvbU45duCpsubCDh8264neSBbhx7iekKnrK8xjawWcEYLyB1Lx8fm2WMkiawHaZZt6y5uTcZOTfErnMiplkMnifZbk8AQN021r+Ie+XMzf8zeBaEZZvZAbI5Q4hMW58u1oNFHjsbBzvP7WSM5YrB3A5T6EjiARuheoEE4t1la7EJmanHhwyo3IZZifcUIIh6k2NreK5y8RbPJ8S6425F+5EOtcNtySllgqTr3bDd3CDiCBO5wxvwBE3j4YApWWxbiiNMBKT11dJzi3aJ+/i5GTbuQXMWa1rvxPw8zeIM4huEHGxCkcBx21hbG3LLSpoWH6SI8RomOkaGBYgx24hu8PjbRAbuwGr7sLjuNtiSLllqhhpImx3ni32tyLpO9TOQM6Ml5tnbXE+AYWfAN/fP8w4fRYPZGcK7x42DSScc7McNkTDuwdvdsZDvbLCKPMEehCfwxi74ZzjuH/a2DNTelmxbRpLsSsRvxOQOWDtxBMhsn8XpBDCV6OPjwbeRlEm/HJ0mIrN38W12fnasIbvicCePCelg0HW87t2zqnEBDOIGG5gNnttay4QgPcQMicDVwQBrZA9EstDAHSdul3mbBniW34P8AhT6bbabTxZ8ru7cLso7j+d3zLlHmMj3sMC4hi7gY7LAzt/wWZIsS7ydjIKu/Cytxnmz7bRLC/Fm3bybOvVp5ItST1S+xNgxdEYZHbQlRJ5uCWXD8hYa+iIDJzG0OPduymRISRHZgM58WPiKISMDOWESJDY5Bvaf+llL5Nszs+ycugt3LQTjbyJSOuXElkDMeWWmvEwSxWcwDub1IOILBnR7k5kuxWQms7HtJt3ZiWpxMg03DLz3O22tsgiMGPv1OXTdh9uSFOMsndyxFABcm14XCCTwxncUn0kmR944s5iXMjJa/LfjLP5oVtzuW6tM94bSzAp9nCT1NpsP/AOoPn0XCG5v+EjztgSGZLxzuRNsiONjWPL4vIl9dTHUpBDImvWo+pKlz2ZkC2lnvzJuyC4YSdBZLncmfCWEn1AH42q56gyc8MOw+7JJDYmRhYnNH34SA75lxDwZN71I1N8D4jBOThIct50Ojm7/UOd+EkcXm1MzLtm3DGLo7xAG+peAAmwcAlSNi1lAA3uB+kWXU0EPP6tl/VczwbCnm7Zn5RHKXXrlg4uHMHct6ZH0I87cTYBcD1Os6ZG26eoQjSPn5KRvnuEbtj/azfahcsM5jAQifLri16tyT83dp1PBFO7n426+LOzdI+SSGQc4FusHDFCaVmTBySuPE7CMzzPeox7jdw6C5vxvBZLNNLNuNI2Get/otu3EfGHgZ33jCEMvr2w7pAeZ2EluWFhaMtTtvdgO7d4ltj+Sw+jOCRx2BDyN+fKJybuWFyJhZcu5Dw6gHXu2y4R5m8a/bON2YYFzRA40wQWV1GcN2nJG0ZF0sDIMCFJ4EB4O7H7zk+0BL1cW+rkr3BnpxtHSSI2E6I+23zLg2yR5AsktxcyNdW1ZKHcd8t363K9wI2yRsLX3m1zOyMv8AJ4kfxbh9ybHi5Jw2zTituZ9zrCBkLb+riQfi1+H5GUntbLO+PhYfxc8DuEvJIcwjgdLn4z4FvCKv8f5J2YEuvEC6tuEuvyL2olp6knDEWavu2DMsn5sccgPaAeere5N18shQFl40wNCZ6WSO553CBFzldp8LMPsuncYTDhbb5tg+BtZ4LMTi48dIgV8FvCRqlpQ5rLtY3nirLPLCDHFsrxjZrzLeNsy3UsoLne4lmy87P4DaBs4ed7inQ37msAd/cmENyzA7SwOOo5czDnPM6dJxzGwVMYzcZG2aktHY5MhzKOCPuIg6smlifEC5beLwiTIUZ5uKQuEsG5z8WAyc8EbxtkW3Qsd9kWEagA79cXh7l/mRZySZurBa5P5bPghCakbi7gmm4Hr4gcfDITkhXdyAxeTcBP8A7s8cgIcbO2t427d2gNvrIsno2LUI8o0UtBQzhN42DT6ske7gWMcuZB7NrAEuPL4oQbfC4me4cC2L7I88BCQPdnFw7025/bFg+NAy1oyYS5rKUyE3bbpcuCIEbbZAn22az4ZZ8SsU6WTjE9o0wZ8cfJddYawm2AebB9LNMu+Dah1nGnVyrk7R1esTiyZ1hE/AY83GBAuG2iA2x2WzCXOLIzVpBaZ3bNhDZJcnZ45tydaf5iA9WC9ErPO/82CE9u8z/wAJyxsIJ5BjOxz5l+5JmzXcTObgNlerOky66S8Xsh3iPkwnbzGullxhNsBLqQvNgRiI5l3JLmwuUeNg5yxFmc44iIRzseecuFXMW9Ti8o054SJsBWZHnLfVc8Y0vhlKuTJDixDPzFxCeJk4JcwJuSDD+BGagWsgJ4rUFuJcXEntnDbnGi2AEB7Q955bix4Bu8gJKRE4QjDanfOWb8zKodkbNZy90sjrCs8tLBYWRZce2cWycy6PTMJXIZEkEnDsQfDwQJORoM9zD3ZHJekgyyxNjEs34kT8OfDcphcLTYtp+KvRL8T+MxljuQAhxJCdliOEhcSIeLvXJzM8uB2RvAOk8RniSPnxbNJB1N2uDcIhobAobkC/zGOOZcTNxFvs+nqfc4u/7duxnFTzcQmyDRsJ0Mycx5lVDiDMHNvxd7GKkoAQoTzcjju0RjWSvDZtbfyPaOxQ5JabKZAdmR6nO3QLhLSMhywspu4z9AhTMl9Fi57sDfQRkGody+6Wh7tw5ZGTt1hzktHbGRwbPQZbvKude2WmjKYwsPwNS2zzJStrYb8OQoAoOzdFta/CYWSZ8Bs2IbPVfEiNo6jM0jji4AjHdhBLeRsXLbSO0jwIT4MtRpp2Y7km2WNQfUeOx+fNjcbLlEcs7OgaWeobp5bW8S8JAxbesQ9TNSCRABAeHxQNAlPuEoJsjwSmmcqEaQO4uNCb2xgnUlG2WGPqR+ZndmOBtEIcmQmGJjmThkkwy8GLnPuc9VuIHiO90yfUtk8xbzjbd+EGUBNiDLJZ8ZxWxjdJALz3I24Q3Icty534ONk6kPDJrrWYt2eJY4zZGdlYtstCX5RnmCGw7e2bcQnJaIJ4sniE4yVs8K2mbzc3k+Mgs01tLDi5W1gcR5JhNL7SLec5C28mwY80hutroYTlvlA7cLuU37uO5XDNoE6p1AkGEKIae7zT8pi3fuFjw8oDcxOcN83IK0YeBLihzcrJU3huAWrnMfZ4i7eW2AXW5bjNudzbsTGUeLa7CZcLVJMbfwtcYZCY8iZYeHNs14yHgHIo7zcf1uJ4Jx5QgNhi3my6O9nj+E3GZ5zyZaMLZzMgXW5CwiuHRsMdTJLgAcwuQUjWJM2nUgmX9k8E2x5RtWsksk3Ztuyjjnbq3ZJPZFyr5jH/AAkOe9AXeEZkOFCztkW99Q7uxbe4xfgVHFjnYpYsZ+KbCnCY8y0xmHCwC606iJpFrss3ItFx2RhG3LpPwImrawrhgBwNMiHV17uQjsdrG9QXXTc0PM5txy5kONLGHx3I2InYA9WMOxgZaZnEvC3+NhUzF64yRDzNR2TPBbplucSxY5bMb4ubgFsxjLSEC3FVtBl0E/UgPJjA8kXC61g0uReGTghsTwBAKByiDITpaTtzMuGaGl0ocnfxgkaUbyyUbvFKHMr2lll34Ti2YkvOgT2JHDnJcZ02Ajayqx5g1g7sRQjSy7ZdEwtI0QC05Z+Qu+6ncsuTYua6hMniU6TDPG59XO83JIourZNCHOS0bnGTaiZAZh8OObyBhApwiT+rXZPvqzN6n0PxjG90424y56nQ9ykzsrxSHkPOA+vNz517kcMw0bs7oLyEQocol1dDySyDm+LPDzap5T5HC1HlfMehwywv8oXRu2yEu2a2mXB+AfG58zdJAcTEW2fUrjd+Irj621zWyj6jVdxfEQ12N0lsJGief97o298WLSTM42wjOVeOWTCTqEDbEAh5RMdsdSkXUmTC4kWbTQubmPCw5Qj8YqLNpAsQ9Qrtn9uObLM40kkEbbiFLTDhA+BAbXi2s+C3mQwDZJjcS88kmbjZ2FE4URJpDXmz5+arCkkV8X7kuTzyhJyhJhsTg/cfflZmhzDwFxkaOWz1tEJLYzj4Y483AzgkJeexVhKdw+LeYtmbmRzC2+MgBJNhEcydcE7ROYmPM5RbiSI0yPNnGEmLyRBgvz2W/Dm5gh0hOW4UBPhNdJl5uQmGD4k8+J9J4mQJaD5HFw/ZAgTm0gxDbypmTNnBJwsciep8TG129xmWpsGylgXYDphnTCLdWImXJ+LIXfCTVzLywpv3aRLC5iVZGReOnUerd5uQydLmTbTOAgXMBzb8IGOzNQPwmNhHJL1Ji9zfxJsdLZ4ls7Bq5fFI3BEHahAb6s9rJ5uWtoBcCdXomWOZnYgUJ4Mo1kyls13LgNiPbbkLEs7+o3YOMtOBJya4JQ7HWurYgmM+jxkbwOrmDvZ4GxKPJaG9oqIiJQZGUtc3ywElnv4455jFhPBfCVwhnwJoICc2QLxHC3DWWQPZGsejqJ0t5bIHm10sO1zsYAczbIgVtBb2TztgxcblJybGDmYnxlJDZBAlwWM/KF2da7Q83JOZGGLkfA2fC5cOY66XI6W7MlWhzIuJDObcRQxrb4u2Cx810i526ouFE+U679xZDVzFpuwICtmPNlmWgCFJlm8wbHeeUODhCO7iiMctghbrOkMA+2To3ZVlrl7TNLDwtiDGOtmU5Jwp5iELYZ+0OZW9nBH3tvi2eBeo9GCNjx7k1mAdzDHplM4WtHB8pF1qXFiWy8TiU+juD7DA4JuhyNUZggNhuDJ4hFszwRLZk5crFnc2QsNxJESF9SnLJQfQ3isGN7N1jk7zD4FrpOdTXgl5RzYvCtEnn2nkWhnwSa6+PpgHzBGIC9erQxxzLF5jWIIcYR+ZLotwAgGTbYo7RmdmFuY+40w19zOhIkGZaQzx14kOJOy3LqPBOrZZzGhuYIoZvFyOeW4Y4u1C2vHxyHwiDILm20idljmsOBc7EjFVuEbhTM2Pz6pxPw7gPhZBgJBtXA263lGK3Jw4gxpK3UYO7Z7rincFaIdbCetP3DGOeOIyjyxbB3PPURm5jb+RAdEzjLhDnuHkeZkYS5dvjDGlxFlLibeI4o82aDkSN/d+dLHD7uEO4AfpDHhO4dx8HxAVmNaMXavPHfh3duj4kUQKxrcsOFscWBuC4Pic/O5uiZiVnC2aFwQ6jAGQ9n92mLgdIfMtXHUBETOMM8dlQ87GYtQSQ1y/OBx+bastwkg7tlNYyw/Ktpg7cLiiXYwxDzLbJTjZuF/MN6fzHYRTG3jJZ4uCnufCEOJtzu2RfG2NXcuW+mLQuRaIz6WXKY6ZkSeYmBkiNObgCa4dyh8iEBaX+pzl7h/Jcena/D/4sPwz0Bco93lMt4u3MJBJnc+8yDt10V6Tn4HwOWx87ETyy29g3PjnlYbNZ1cZ93g8J0B2MuIY+7wHM4gV9ML2HOoGTo3uKBiXOMb3nOELNyM20xZQi1KjvZYfjuWicxDIa2eFl3876SgicpLgLw/zcx4ebYJlxOCG83qf05mom69xL1QCO0i7JOBzrrZ8HP3bdsYfaXY28dKwtoMgrRamYeGTfHWXACUmxGWtjM8kgLdltkg8WbmbqfAXjtey0H7LbpC4CehkFkc16XOukSxY2onhy1xRnllwja7vmRfSdIum7F3PP/aXmNDgZAuV2XgN2PhcklZ4bNNYNDwPFp5CfHn1D8QO5CEWJBIR2NnFwcs+GZsXK/PSADD68yz7LAJCy1NeC1ptwnZjHelvxZNpk1vw4NsnLYzk6jw+MOMI7nwEQWxBMht1GZt8b2tspHTc2GTw8iKjjnHUSClQMhqQP1MG+5vB3cw7LmCHNrEMNsNHTaNxzZlbkZwQGWHC0OSFuMrJHwxm+5MXZdvjTJ0SzqJbcLBZdFkDS3dsAFssBZCNvEgoejYVXxOJLQWgpU7Iu5vKuHG7xfznZcTtLq9L5tZLqRE8+0D0tPT1GFHJ1JFW17cNxwSxO7jM7I71tGI4OLD182PLZsxFgj5W27PVzx1DgfDdgk8GQBGGPLZNJcGZO8UvHTJd5ZE/I+jIedgxS3JY3ezwnGfDcWnZd6dWZpmTCs20zqaXPIY6G84DLnR5srLpQ4ZMPXHhFy7sScckOcM5n5c3LYBztsjxlvjY+HaXeF3yIxcYg5i1jqAxYOYtsYTJUx8zCCSnSUsXGU2XbhdawcIOdun2yR9WdfM3f4Q+xlvk8ROzzEJFyVknu2mIryTcThhMGXznIuLik5Nmrn1Zs8Ejqvs0Hh6YL8h3KhUycExy8FjFxk254nxtnTiTUn7Jjn20p8bHMRZWVMhSz49WTpHgMjvF9E5ABsHWYS607tYebJRtRkZywmCxDZxnFzaXJOb1P1g0sCPdqZaXi0OW4Xcz6XmndiXWGsZw04bgRaddkhnb4wXeHdkhxZ5cJF0ba5HLrf3cd33ZbFMONp3YjZilwwrYek4tXI082Z4tS5bgmydXUpMzXJZrMwWEscuWmFsg1sju5ggBHHFvxjtDcIAh1gj0SA22MC6Z3A6cT+/CA4Eo2MfubYUwqHO7axVymNCx2mIgVXVrZih2TgkVJYmXOfFyAtq/ByBJeo3SCGH4CZwlauSDksMS2jYcF3pefgGMD59Qp9TpM5se+SPpIgliTY+KfY27D8BYBM9y34iQCIMZBPkPGfia/AjFi8W40GyhnLhceIHWC8J7AO2Srjv3ef0thHiykfm78f3raRe4UsDYTQCzqeEJCXrZnJnM18QKqWfNLQWzdY0zhExN2iDszwbPfjeewcXidxDpA/7bpzAKx90uVYx8h0x4IoHmQHSRmvOdzJhdl3Kac27RyFbskA+IF2ROdIAu5a7lOd1l5bi54NR7s58s8/QWEnNebDXbZ1yXQzjUTi6070Q8WbcJYcjG20vzBG0zqVIMLcQbgMmBjZBJUg5I6WtjMy50UklFu9T10QSC5S4zZwxhuC2iTTDc2yrGVs+4Tq4Ml65t2mCbiCHbQETUtPccQ38rAutt4HLENuG8NtLyIpPht3zYQ+pRPSwiiC7zqEnU3hsmlhOfidjZatv7lybcXLllkGnNA4fESzxbcpLwT5rahh5tLtub5iYYLggRmekbdffzCHJ8oC7WEcndoLuwBC9y50Jw28zdKbyvc708ThzeImIlbyjcweiLcdwQnMPDcEkQ/goQHLMO2R8Fn1DmWIcuEI14hierhPWeLgkonxTcmWu+FvI8WCmEnKHR0lyIxZ0WCbpDy3ATjZFPUdnrG4l4YHJx4hZBJ8SqnVMtd5Jt5Kctri5puji0mq2DzlxW/wBzpHuz5s/L0ZHLPPcvyTd8LcoWYcuDuV15tpg5mYZcuvxnJzZTaVFitvixbA7Qo5g023eZdrAbcPiPhIcsO5eiS45ZEmUowt8J36kdG7OfjBGzzRuTF6b1CAlOB0kDzLFpyvckZZOwjnS6sZO2+Kh9Tsno3GRbuzy0t30m0OLDQcXFdLMq4N/qZeuQR7kHTiSbeAg1z45w0kPiUuXwzfgJsuTM4Z8ChMsqyx5JkPGE80LlpLYaWLsImakyG8R4LsLeYrnlJ4OskGe8Uz7bo3qEfFqzqy8Jd5bP4lBSPKJ0mJy2bemastoJyxlF2e1du0lIPFkLjiJC+gy5R0SDlGeCJL3bEHrfg4sAXRcTBGE04uewD4QOhbPM4tbWHcd/F5M9QS+HA2XaE93fNh5XC6kdFmJlvADgkTvbhDGIFlnEtAFjif1Olg8FngF/i1cY/JkF6bCUPuIbnk9LPDh+9I19fuQIn7Lic29u7Ic5LFGx7TzC+HvxYUFz9NzsehM9Et3uzo/DriHbD4eLYN+NnrPCwyetqSnU5VPFsSsMnmnmzvB/UYaeLJgOPYWnF2HTLXgdLV5H8Ix7E68oRYU7fJeLMYnuJGzHCEzX7QAYv2uw/sTbhfpvtSBsWS21M/HgGyAUfsh7MNOSPh1z0TEAjPplORx9Nxg/RmaJ+jG8We62zSMjPwEcLQJ78TwFzbOYMwpmb3LbzvKPlM9RE73Wfg8P+dnvSfiO1/euk6onZ+Hvdz+PlTu/Hx7f5+J1Pk6fE7fm7Lu3R+BePy94nr/i7z18Xx83a7LtmdJ1un439D4C+38l539a/vt4ns+O3/DPX/hPV+L8Pydy6Lpdi7PkM7/C8/h3fj2Lp83e7/B03V+Qeb//xAAdEQEBAAEEAwAAAAAAAAAAAAABAEAQIWCQMXCw/9oACAECAQk/AOsLz60Oz1mZmchmZmecm/IWdXJZkn67P//EACERAAIBAwQDAQAAAAAAAAAAAAABAhFAoSAhMVFBcKAy/9oACAEDAQk/APqyVWmiBAgQIIVI7XEFVpMgQIIgQWyredaulcdLTy9rx0lwPI8jyPI8n65uHt43HkeR5HkezvO6aulcdLT4VbzxuRZFkWRZFioqJXEXVKhFkWRZFnHH07r0+75C9hc/PB//2Q==;" parent="1" vertex="1">
          <mxGeometry x="164.29" y="190" width="71.42" height="100" as="geometry" />
        </mxCell>
        <mxCell id="jmo6-qMNR6v90ASM4hXZ-25" value="&lt;font face=&quot;Times New Roman&quot;&gt;Bob&lt;/font&gt;" style="text;html=1;align=center;verticalAlign=middle;whiteSpace=wrap;rounded=0;" parent="1" vertex="1">
          <mxGeometry x="170" y="40" width="60" height="20" as="geometry" />
        </mxCell>
      </root>
    </mxGraphModel>
  </diagram>
</mxfile>
